<svg width="103" height="93" viewBox="0 0 103 93" xmlns="http://www.w3.org/2000/svg"><g fill="#BC3356" fill-rule="nonzero"><circle transform="rotate(90 101.99 1.01)" cx="101.99" cy="1.01" r="1.01"/><circle transform="rotate(90 101.99 11.108)" cx="101.99" cy="11.107" r="1.01"/><circle transform="rotate(90 101.99 21.206)" cx="101.99" cy="21.206" r="1.01"/><circle transform="rotate(90 101.99 31.304)" cx="101.99" cy="31.304" r="1.01"/><circle transform="rotate(90 101.99 41.402)" cx="101.99" cy="41.402" r="1.01"/><circle transform="rotate(90 101.99 51.5)" cx="101.99" cy="51.5" r="1.01"/><circle transform="rotate(90 101.99 61.598)" cx="101.99" cy="61.598" r="1.01"/><circle transform="rotate(90 101.99 71.696)" cx="101.99" cy="71.696" r="1.01"/><circle transform="rotate(90 101.99 81.794)" cx="101.99" cy="81.794" r="1.01"/><circle transform="rotate(90 101.99 91.893)" cx="101.99" cy="91.893" r="1.01"/><circle transform="rotate(90 91.892 1.01)" cx="91.892" cy="1.01" r="1.01"/><circle transform="rotate(90 91.892 11.108)" cx="91.892" cy="11.107" r="1.01"/><circle transform="rotate(90 91.892 21.206)" cx="91.892" cy="21.206" r="1.01"/><circle transform="rotate(90 91.892 31.304)" cx="91.892" cy="31.304" r="1.01"/><circle transform="rotate(90 91.892 41.402)" cx="91.892" cy="41.402" r="1.01"/><circle transform="rotate(90 91.892 51.5)" cx="91.892" cy="51.5" r="1.01"/><circle transform="rotate(90 91.892 61.598)" cx="91.892" cy="61.598" r="1.01"/><circle transform="rotate(90 91.892 71.696)" cx="91.892" cy="71.696" r="1.01"/><circle transform="rotate(90 91.892 81.794)" cx="91.892" cy="81.794" r="1.01"/><circle transform="rotate(90 91.892 91.893)" cx="91.892" cy="91.893" r="1.01"/><circle transform="rotate(90 81.794 81.794)" cx="81.794" cy="81.794" r="1.01"/><circle transform="rotate(90 81.794 91.892)" cx="81.794" cy="91.892" r="1.01"/><circle transform="rotate(90 71.696 81.794)" cx="71.696" cy="81.794" r="1.01"/><circle transform="rotate(90 71.696 91.892)" cx="71.696" cy="91.892" r="1.01"/><circle transform="rotate(90 61.598 81.794)" cx="61.598" cy="81.794" r="1.01"/><circle transform="rotate(90 61.598 91.892)" cx="61.598" cy="91.892" r="1.01"/><circle transform="rotate(90 51.5 81.794)" cx="51.5" cy="81.794" r="1.01"/><circle transform="rotate(90 51.5 91.892)" cx="51.5" cy="91.892" r="1.01"/><circle transform="rotate(90 41.402 81.794)" cx="41.402" cy="81.794" r="1.01"/><circle transform="rotate(90 41.402 91.892)" cx="41.402" cy="91.892" r="1.01"/><circle transform="rotate(90 31.304 81.794)" cx="31.304" cy="81.794" r="1.01"/><circle transform="rotate(90 31.304 91.892)" cx="31.304" cy="91.892" r="1.01"/><circle transform="rotate(90 21.206 81.794)" cx="21.206" cy="81.794" r="1.01"/><circle transform="rotate(90 21.206 91.892)" cx="21.206" cy="91.892" r="1.01"/><circle transform="rotate(90 11.108 81.794)" cx="11.108" cy="81.794" r="1.01"/><circle transform="rotate(90 11.108 91.892)" cx="11.108" cy="91.892" r="1.01"/><circle transform="rotate(90 1.01 81.794)" cx="1.01" cy="81.794" r="1.01"/><circle transform="rotate(90 1.01 91.893)" cx="1.01" cy="91.893" r="1.01"/></g></svg>