<svg width="434" height="468" viewBox="0 0 434 468" fill="none" xmlns="http://www.w3.org/2000/svg"><g filter="url(#filter0_d)"><path fill-rule="evenodd" clip-rule="evenodd" d="M127.118 238.139c0-40.441 33.39-73.225 73.831-73.225s73.832 32.784 73.832 73.225c0 40.44-33.391 73.224-73.832 73.224-40.441 0-73.831-32.784-73.831-73.224z" fill="#fff"/></g><path fill-rule="evenodd" clip-rule="evenodd" d="M204.802 238.139c0-1.407 1.161-2.547 2.568-2.547 1.406 0 2.568 1.14 2.568 2.547 0 1.406-1.162 2.547-2.568 2.547-1.407 0-2.568-1.141-2.568-2.547zM191.961 238.139c0-1.407 1.162-2.547 2.568-2.547 1.407 0 2.568 1.14 2.568 2.547 0 1.406-1.161 2.547-2.568 2.547-1.406 0-2.568-1.141-2.568-2.547z" fill="#2E375F"/><path fill-rule="evenodd" clip-rule="evenodd" d="M198.381 244.506c0-1.407 1.162-2.547 2.568-2.547 1.407 0 2.568 1.14 2.568 2.547 0 1.407-1.161 2.547-2.568 2.547-1.406 0-2.568-1.14-2.568-2.547zM198.381 231.772c0-1.407 1.162-2.547 2.568-2.547 1.407 0 2.568 1.14 2.568 2.547 0 1.406-1.161 2.546-2.568 2.546-1.406 0-2.568-1.14-2.568-2.546z" fill="#BC3356"/><mask id="a" maskUnits="userSpaceOnUse" x="231" y="118" width="103" height="231"><path fill-rule="evenodd" clip-rule="evenodd" d="M263.867 118.433l-32.101 36.93 19.902 171.919 32.101 21.012 50.077-71.314-6.42-110.792-63.559-47.755z" fill="#fff"/></mask><g mask="url(#a)"><path d="M81.251 223.867c0-66.252 54.709-119.979 120.982-119.979 66.274 0 120.983 53.727 120.983 119.979 0 66.253-54.709 119.98-120.983 119.98-66.273 0-120.982-53.727-120.982-119.98z" stroke="#BC3356" stroke-width="2"/></g><mask id="b" maskUnits="userSpaceOnUse" x="37" y="256" width="327" height="143"><path fill-rule="evenodd" clip-rule="evenodd" d="M347.328 263.608l16.05 5.093-29.532 72.588-85.388 57.306-111.71-5.73-74.473-54.123-24.396-82.138 37.236 3.82 83.462 101.241 119.414-9.551 69.337-88.506z" fill="#fff"/></mask><g mask="url(#b)"><path d="M49.15 238.138c0-83.835 69.227-151.817 153.083-151.817 83.857 0 153.083 67.982 153.083 151.817 0 83.835-69.226 151.816-153.083 151.816-83.856 0-153.082-67.981-153.082-151.816z" stroke="#BC3356" stroke-width="2"/></g><mask id="c" maskUnits="userSpaceOnUse" x="-2" y="51" width="155" height="311"><path fill-rule="evenodd" clip-rule="evenodd" d="M72.547 349.567l-24.396 10.825L0 269.339l19.902-120.343L68.695 95.51l69.337-42.661 12.841 38.204-111.068 91.053-9.63 108.882 42.372 58.579z" fill="#fff" stroke="#fff" stroke-width="2"/></mask><g mask="url(#c)"><path d="M17.05 238.139c0-101.418 83.744-183.653 185.184-183.653 101.439 0 185.183 82.235 185.183 183.653 0 101.419-83.744 183.654-185.183 183.654-101.44 0-185.184-82.235-185.184-183.654z" stroke="#BC3356" stroke-width="2"/></g><mask id="d" maskUnits="userSpaceOnUse" x="6" y="0" width="428" height="227"><path fill-rule="evenodd" clip-rule="evenodd" d="M54.571 64.947l-48.15 54.122 24.075 12.735 88.918-77.681 117.489-5.731 138.674 103.151 25.681 75.135L434 210.759l-41.731-154.09L196.456 0 54.571 64.947z" fill="#fff"/></mask><g mask="url(#d)"><path d="M-15.05 238.139c0-119.001 98.261-215.49 217.284-215.49 119.022 0 217.283 96.489 217.283 215.49s-98.261 215.49-217.283 215.49c-119.023 0-217.284-96.489-217.284-215.49z" stroke="#150045" stroke-width="2"/></g><mask id="e" maskUnits="userSpaceOnUse" x="85" y="338" width="322" height="134"><path fill-rule="evenodd" clip-rule="evenodd" d="M109.784 413.878l-19.902 31.837L191.96 468l167.565-40.751 43.015-62.4-26.964-22.286-119.414 87.87-146.379-16.555z" fill="#fff" stroke="#fff" stroke-width="6"/></mask><g mask="url(#e)"><path d="M-15.05 238.139c0-119.001 98.261-215.49 217.284-215.49 119.022 0 217.283 96.489 217.283 215.49s-98.261 215.49-217.283 215.49c-119.023 0-217.284-96.489-217.284-215.49z" stroke="#150045" stroke-width="2"/></g><path d="M382.355 350.204c0-2.953 2.445-5.367 5.42-5.367s5.42 2.414 5.42 5.367c0 2.954-2.445 5.368-5.42 5.368s-5.42-2.414-5.42-5.368zM413.171 217.127c0-2.953 2.445-5.367 5.421-5.367 2.975 0 5.42 2.414 5.42 5.367 0 2.954-2.445 5.367-5.42 5.367-2.976 0-5.421-2.413-5.421-5.367z" fill="#fff" stroke="#150045" stroke-width="2"/><path d="M263.583 338.107c0-2.954 2.445-5.368 5.42-5.368s5.42 2.414 5.42 5.368c0 2.953-2.445 5.367-5.42 5.367s-5.42-2.414-5.42-5.367z" fill="#EDF1FF" stroke="#EDF1FF" stroke-width="2"/><path d="M91.523 425.975c0-2.954 2.446-5.368 5.42-5.368 2.976 0 5.421 2.414 5.421 5.368 0 2.953-2.445 5.367-5.42 5.367s-5.42-2.414-5.42-5.367z" fill="#fff" stroke="#150045" stroke-width="2"/><path d="M251.872 117.843c0-2.954 2.445-5.367 5.42-5.367s5.421 2.413 5.421 5.367-2.446 5.367-5.421 5.367-5.42-2.413-5.42-5.367zM347.686 264.881c0-2.954 2.445-5.367 5.42-5.367s5.42 2.413 5.42 5.367-2.445 5.367-5.42 5.367-5.42-2.413-5.42-5.367zM44.657 258.515c0-2.954 2.445-5.368 5.42-5.368s5.42 2.414 5.42 5.368c0 2.953-2.445 5.367-5.42 5.367s-5.42-2.414-5.42-5.367zM53.003 354.661c0-2.953 2.445-5.367 5.42-5.367s5.42 2.414 5.42 5.367c0 2.954-2.445 5.368-5.42 5.368s-5.42-2.414-5.42-5.368zM135.822 64.31c0-2.954 2.445-5.368 5.42-5.368s5.42 2.414 5.42 5.368c0 2.953-2.445 5.367-5.42 5.367s-5.42-2.414-5.42-5.367z" fill="#fff" stroke="#BC3356" stroke-width="2"/><path d="M12.556 122.89c0-2.954 2.445-5.368 5.42-5.368 2.976 0 5.42 2.414 5.42 5.368 0 2.953-2.444 5.367-5.42 5.367-2.975 0-5.42-2.414-5.42-5.367z" fill="#fff" stroke="#150045" stroke-width="2"/><defs><filter id="filter0_d" x="47.118" y="124.914" width="307.663" height="306.449" filterUnits="userSpaceOnUse" color-interpolation-filters="sRGB"><feFlood flood-opacity="0" result="BackgroundImageFix"/><feColorMatrix in="SourceAlpha" values="0 0 0 0 0 0 0 0 0 0 0 0 0 0 0 0 0 0 127 0"/><feOffset dy="40"/><feGaussianBlur stdDeviation="40"/><feColorMatrix values="0 0 0 0 0 0 0 0 0 0 0 0 0 0 0 0 0 0 0.1 0"/><feBlend in2="BackgroundImageFix" result="effect1_dropShadow"/><feBlend in="SourceGraphic" in2="effect1_dropShadow" result="shape"/></filter></defs></svg>