<svg width="428" height="392" viewBox="0 0 428 392" fill="none" xmlns="http://www.w3.org/2000/svg"><g opacity=".5"><path opacity=".024" d="M363.692 340.248c0 13.203-74.254 23.91-165.851 23.91-91.602 0-165.856-10.706-165.856-23.91s74.254-23.911 165.856-23.911c91.597 0 165.851 10.706 165.851 23.911z" fill="#FBFCFE"/><path opacity=".049" d="M359.891 340.248c0 12.903-72.554 23.361-162.049 23.361-89.5 0-162.056-10.459-162.056-23.361 0-12.902 72.555-23.361 162.056-23.361 89.494-.001 162.049 10.459 162.049 23.361z" fill="#F8FAFE"/><path opacity=".073" d="M356.09 340.248c0 12.6-70.85 22.814-158.248 22.814-87.402 0-158.254-10.214-158.254-22.814 0-12.598 70.852-22.813 158.254-22.813 87.398 0 158.248 10.215 158.248 22.813z" fill="#F4F7FD"/><path opacity=".098" d="M352.288 340.248c0 12.296-69.148 22.266-154.447 22.266-85.303 0-154.454-9.97-154.454-22.266 0-12.296 69.151-22.266 154.454-22.266 85.299 0 154.447 9.97 154.447 22.266z" fill="#F1F5FC"/><path opacity=".122" d="M348.489 340.248c0 11.994-67.447 21.716-150.648 21.716-83.204 0-150.652-9.722-150.652-21.716 0-11.992 67.448-21.719 150.652-21.719 83.201 0 150.648 9.727 150.648 21.719z" fill="#EDF2FC"/><path opacity=".146" d="M344.687 340.248c0 11.693-65.745 21.17-146.846 21.17-81.104 0-146.85-9.477-146.85-21.17 0-11.692 65.746-21.169 146.85-21.169 81.101 0 146.846 9.477 146.846 21.169z" fill="#E9F0FB"/><path opacity=".171" d="M340.888 340.248c0 11.387-64.044 20.621-143.046 20.621-79.005 0-143.049-9.234-143.049-20.621 0-11.389 64.043-20.621 143.049-20.621 79.002 0 143.046 9.232 143.046 20.621z" fill="#E6EDFA"/><path opacity=".195" d="M337.085 340.248c0 11.085-62.342 20.073-139.244 20.073-76.905 0-139.247-8.988-139.247-20.073s62.342-20.075 139.247-20.075c76.902 0 139.244 8.99 139.244 20.075z" fill="#E2EBFA"/><path opacity=".22" d="M333.28 340.248c0 10.784-60.636 19.525-135.439 19.525-74.807 0-135.446-8.741-135.446-19.525 0-10.783 60.639-19.526 135.446-19.526 74.803-.001 135.439 8.743 135.439 19.526z" fill="#DFE8F9"/><path opacity=".244" d="M329.484 340.248c0 10.479-58.94 18.978-131.643 18.978-72.707 0-131.646-8.499-131.646-18.978 0-10.481 58.939-18.977 131.646-18.977 72.703 0 131.643 8.496 131.643 18.977z" fill="#DBE6F8"/><path opacity=".268" d="M325.683 340.248c0 10.178-57.234 18.427-127.841 18.427-70.609 0-127.845-8.249-127.845-18.427 0-10.177 57.236-18.429 127.845-18.429 70.607-.001 127.841 8.251 127.841 18.429z" fill="#D8E3F7"/><path opacity=".293" d="M321.878 340.248c0 9.875-55.531 17.881-124.037 17.881-68.507 0-124.045-8.005-124.045-17.881 0-9.875 55.538-17.882 124.045-17.882 68.506 0 124.037 8.007 124.037 17.882z" fill="#D4E1F7"/><path opacity=".317" d="M197.839 357.582c66.408 0 120.241-7.761 120.241-17.334s-53.833-17.333-120.241-17.333c-66.407 0-120.24 7.76-120.24 17.333 0 9.573 53.833 17.334 120.24 17.334z" fill="#D0DEF6"/><path opacity=".342" d="M314.28 340.248c0 9.27-52.135 16.787-116.439 16.787-64.31 0-116.44-7.517-116.44-16.787s52.13-16.786 116.44-16.786c64.304 0 116.439 7.516 116.439 16.786z" fill="#CDDCF5"/><path opacity=".366" d="M310.476 340.248c0 8.967-50.428 16.235-112.634 16.235-62.21 0-112.64-7.268-112.64-16.235 0-8.968 50.43-16.237 112.64-16.237 62.206 0 112.634 7.269 112.634 16.237z" fill="#C9D9F5"/><path opacity=".39" d="M197.839 355.938c60.11 0 108.839-7.025 108.839-15.69s-48.729-15.69-108.839-15.69-108.838 7.025-108.838 15.69 48.728 15.69 108.838 15.69z" fill="#C6D7F4"/><path opacity=".415" d="M302.875 340.248c0 8.362-47.028 15.143-105.034 15.143-58.012 0-105.038-6.781-105.038-15.143 0-8.362 47.026-15.141 105.038-15.141 58.006 0 105.034 6.779 105.034 15.141z" fill="#C2D4F3"/><path opacity=".439" d="M299.068 340.248c0 8.06-45.319 14.594-101.227 14.594-55.914 0-101.235-6.534-101.235-14.594 0-8.06 45.321-14.595 101.235-14.595 55.908 0 101.227 6.535 101.227 14.595z" fill="#BED2F3"/><path opacity=".463" d="M295.272 340.248c0 7.755-43.624 14.046-97.43 14.046-53.812 0-97.436-6.291-97.436-14.046 0-7.758 43.624-14.046 97.436-14.046 53.806 0 97.43 6.288 97.43 14.046z" fill="#BBCFF2"/><path opacity=".488" d="M291.47 340.248c0 7.455-41.917 13.498-93.628 13.498-51.714 0-93.634-6.043-93.634-13.498 0-7.454 41.92-13.498 93.634-13.498 51.711 0 93.628 6.044 93.628 13.498z" fill="#B7CDF1"/><path opacity=".512" d="M287.672 340.248c0 7.151-40.223 12.95-89.831 12.95-49.615 0-89.832-5.799-89.832-12.95 0-7.151 40.217-12.947 89.832-12.947 49.608 0 89.831 5.796 89.831 12.947z" fill="#B4CAF1"/><path opacity=".537" d="M283.867 340.248c0 6.849-38.515 12.403-86.026 12.403-47.513 0-86.032-5.554-86.032-12.403 0-6.85 38.519-12.401 86.032-12.401 47.511-.001 86.026 5.55 86.026 12.401z" fill="#B0C8F0"/><path opacity=".561" d="M280.068 340.248c0 6.547-36.815 11.853-82.227 11.853-45.415 0-82.231-5.306-82.231-11.853s36.816-11.852 82.231-11.852c45.412 0 82.227 5.305 82.227 11.852z" fill="#ADC5EF"/><path opacity=".585" d="M197.84 351.554c43.315 0 78.428-5.062 78.428-11.306 0-6.244-35.113-11.306-78.428-11.306s-78.428 5.062-78.428 11.306c0 6.244 35.113 11.306 78.428 11.306z" fill="#A9C3EF"/><path opacity=".61" d="M272.465 340.248c0 5.939-33.41 10.759-74.624 10.759-41.218 0-74.627-4.82-74.627-10.759 0-5.941 33.409-10.758 74.627-10.758 41.214 0 74.624 4.817 74.624 10.758z" fill="#A5C0EE"/><path opacity=".634" d="M268.666 340.248c0 5.638-31.711 10.209-70.825 10.209-39.117 0-70.828-4.571-70.828-10.209s31.711-10.209 70.828-10.209c39.114-.001 70.825 4.571 70.825 10.209z" fill="#A2BEED"/><path opacity=".658" d="M264.863 340.248c0 5.335-30.009 9.662-67.022 9.662-37.019 0-67.026-4.326-67.026-9.662 0-5.336 30.008-9.661 67.026-9.661 37.013 0 67.022 4.325 67.022 9.661z" fill="#9EBBED"/><path opacity=".683" d="M261.062 340.248c0 5.035-28.306 9.116-63.22 9.116-34.92 0-63.225-4.081-63.225-9.116 0-5.034 28.305-9.114 63.225-9.114 34.914 0 63.22 4.08 63.22 9.114z" fill="#9BB9EC"/><path opacity=".707" d="M257.257 340.248c0 4.732-26.599 8.567-59.416 8.567-32.818 0-59.424-3.835-59.424-8.567 0-4.729 26.605-8.564 59.424-8.564 32.817 0 59.416 3.835 59.416 8.564z" fill="#97B6EB"/><path opacity=".732" d="M253.461 340.248c0 4.428-24.905 8.018-55.62 8.018-30.72 0-55.623-3.59-55.623-8.018 0-4.427 24.903-8.018 55.623-8.018 30.715 0 55.62 3.591 55.62 8.018z" fill="#93B4EB"/><path opacity=".756" d="M249.66 340.248c0 4.126-23.203 7.47-51.819 7.47-28.621 0-51.82-3.344-51.82-7.47 0-4.124 23.199-7.469 51.82-7.469 28.616-.001 51.819 3.345 51.819 7.469z" fill="#90B1EA"/><path opacity=".78" d="M245.857 340.248c0 3.822-21.499 6.921-48.015 6.921-26.521 0-48.02-3.099-48.02-6.921 0-3.821 21.5-6.921 48.02-6.921 26.516 0 48.015 3.099 48.015 6.921z" fill="#8CAFE9"/><path opacity=".805" d="M197.84 346.622c24.421 0 44.217-2.854 44.217-6.374 0-3.52-19.796-6.374-44.217-6.374-24.42 0-44.217 2.854-44.217 6.374 0 3.52 19.797 6.374 44.217 6.374z" fill="#89ACE8"/><path opacity=".829" d="M238.254 340.248c0 3.22-18.094 5.824-40.413 5.824-22.321 0-40.418-2.604-40.418-5.824 0-3.218 18.097-5.826 40.418-5.826 22.319 0 40.413 2.608 40.413 5.826z" fill="#85AAE8"/><path opacity=".854" d="M234.453 340.248c0 2.914-16.389 5.277-36.612 5.277-20.225 0-36.615-2.363-36.615-5.277 0-2.915 16.391-5.278 36.615-5.278 20.223-.001 36.612 2.363 36.612 5.278z" fill="#82A7E7"/><path opacity=".878" d="M230.65 340.248c0 2.611-14.691 4.732-32.809 4.732-18.123 0-32.815-2.121-32.815-4.732s14.692-4.729 32.815-4.729c18.118 0 32.809 2.118 32.809 4.729z" fill="#7EA5E6"/><path opacity=".902" d="M226.849 340.248c0 2.312-12.984 4.183-29.007 4.183-16.022 0-29.013-1.871-29.013-4.183 0-2.309 12.991-4.182 29.013-4.182 16.023 0 29.007 1.872 29.007 4.182z" fill="#7AA2E6"/><path opacity=".927" d="M223.049 340.248c0 2.005-11.283 3.635-25.208 3.635-13.923 0-25.213-1.63-25.213-3.635 0-2.008 11.29-3.633 25.213-3.633 13.925 0 25.208 1.624 25.208 3.633z" fill="#77A0E5"/><path opacity=".951" d="M219.25 340.248c0 1.703-9.586 3.086-21.409 3.086-11.825 0-21.411-1.383-21.411-3.086 0-1.704 9.586-3.086 21.411-3.086 11.823 0 21.409 1.382 21.409 3.086z" fill="#739DE4"/><path opacity=".976" d="M197.84 342.787c9.726 0 17.61-1.137 17.61-2.539 0-1.403-7.884-2.54-17.61-2.54-9.725 0-17.609 1.137-17.609 2.54 0 1.402 7.884 2.539 17.609 2.539z" fill="#709BE4"/><path opacity=".5" d="M211.647 340.248c0 1.097-6.184 1.991-13.805 1.991-7.628 0-13.808-.894-13.808-1.991 0-1.1 6.18-1.991 13.808-1.991 7.62 0 13.805.891 13.805 1.991z" fill="#6C98E3"/></g><path d="M127.293 48.541c99.663 4.396 118.71-4.738 148.768-34.063 35.321-34.458 100.436-1.447 111.577 47.248 26.394 115.379-51.089 205.907-165.614 220.508-123.525 15.743-191.51-55.319-198.915-125.937C16.514 93.391 54.542 45.331 127.293 48.541z" fill="url(#paint0_linear)"/><path d="M353.377 349.017c-22.982.354-94.213 1.141-137.52-.892-80.303-3.767-145.43 7.652-102.094 17.606 12.111 2.781-21.941 22.255 63 24.225 74.562 1.732 150.197-8.136 186.819-12.478 36.623-4.344 53.38-10.792 61.162-13.705 6.846-2.56 8.975-15.989-71.367-14.756z" fill="url(#paint1_linear)"/><path d="M199.898 64.853c-15.85 0-16.47 9.98-22.645 11.003-6.172 1.024-13.359-5.118-22.38-2.56-9.02 2.56-14.233 7.678-23.886 7.678h86.776s-2.503-16.121-17.865-16.121zM179.922 145.148c-10.396-1.326-11.439-14.248-38.127-14.248-25.869 0-30.084 20.873-30.084 20.873h146.116c-16.257 0-25.031-6.625-40.221-9.94-15.189-3.312-27.289 4.638-37.684 3.315z" fill="#EEF5FD"/><path d="M335.126 186.088h81.148V30.778H312.65l22.476 155.31z" fill="#D8DFE2"/><path d="M338.914 182.127h73.034V34.738h-94.362l21.328 147.389z" fill="#40C8CB"/><path d="M192.25 30.778l22.474 155.31h120.402L312.65 30.778h-120.4z" fill="#EEF5FD"/><path d="M197.188 34.738l21.317 147.388h111.683L308.855 34.738H197.188z" fill="url(#paint2_linear)"/><path d="M213.692 148.87l40.303 33.256h45.318l-91.762-75.729 6.141 42.473z" fill="#40C8CB"/><path d="M230.926 30.776l22.487 155.311h2.796l-22.487-155.31h-2.796zM272.379 30.776l22.487 155.311h2.797l-22.488-155.31h-2.796z" fill="#EEF5FD"/><path d="M343.301 30.776l22.487 155.311h2.798l-22.487-155.31h-2.798zM376.102 30.776l22.488 155.311h2.794l-22.486-155.31h-2.796zM416.274 186.088H349.63v110.699h66.644V186.088z" fill="#D8DFE2"/><path d="M349.63 186.088H222.558v110.699H349.63V186.088z" fill="#F7F7F7"/><path d="M317.53 242.39h-64.026v54.397h64.026V242.39z" fill="#2C7FEA"/><path d="M265.18 242.39h-11.676v54.397h11.676V242.39z" fill="#D8DFE2"/><path d="M317.53 242.39h-45.209v54.397h45.209V242.39z" fill="#fff"/><path d="M314.46 244.632h-39.067v49.912h39.067v-49.912z" fill="#40C8CB"/><path d="M314.46 267.074v-22.442H283.7l30.76 22.442zM275.393 265.031l39.067 28.506v-7.448l-39.067-28.504v7.446zM275.393 278.161c7.482 5.462 14.968 10.922 22.454 16.383h7.134l-29.587-21.586v5.203h-.001z" fill="#2BA0AE"/><path d="M296.463 242.989h-3.073v53.201h3.073v-53.201z" fill="#fff"/><path d="M325.401 193.242h-2.53V227.265H344.376V193.242h-18.975z" fill="url(#paint3_linear)"/><path d="M342.379 195.243h-17.512v30.021h17.512v-30.021z" fill="url(#paint4_linear)"/><path d="M293.838 193.242h-2.532V227.265h21.504V193.242h-18.972z" fill="url(#paint5_linear)"/><path d="M310.812 195.243h-17.509v30.021h17.509v-30.021z" fill="url(#paint6_linear)"/><path d="M262.271 193.242h-2.53V227.265h21.505V193.242H262.271z" fill="url(#paint7_linear)"/><path d="M279.246 195.243h-17.508v30.021h17.508v-30.021z" fill="url(#paint8_linear)"/><path d="M230.707 193.242h-2.531V227.265h21.505V193.242h-18.974z" fill="#D8DFE2"/><path d="M247.682 195.243h-17.507v30.021h17.507v-30.021z" fill="#40C8CB"/><path d="M344.376 227.284h-21.505v4.986h21.505v-4.986zM312.81 227.284h-21.504v4.986h21.504v-4.986zM281.233 227.284h-21.507v4.986h21.507v-4.986zM249.681 227.284h-21.505v4.986h21.505v-4.986z" fill="#fff"/><path d="M416.273 182.126h-38.45v4.646h38.45v-4.646z" fill="#D8DFE2"/><path d="M196.494 340.678c1.015-1.171 12.045-.234 12.157.374.345 1.858.895 8.973-.151 9.921-1.018.916-12.028.919-12.251-.882-.192-1.557-.734-8.284.245-9.413z" fill="#FF505C"/><path d="M209.269 348.798s5.122 6.655 1.5 11.915c0 0-26.539 1.23-34.558.112 0 0-.244-8.96 6.623-9.744 6.867-.787 13.744-.59 13.744-.59s7.72 3.28 12.691-1.693z" fill="#1F0D52"/><path d="M256.261 339.479c.891-1.253 11.967-1.249 12.142-.656.533 1.818 1.799 8.861.85 9.89-.921.998-11.884 1.936-12.285.158-.349-1.535-1.568-8.184-.707-9.392z" fill="#FF505C"/><path d="M269.799 346.483s5.771 6.196 2.695 11.735c0 0-26.301 3.472-34.399 3.039 0 0-1.148-8.902 5.613-10.266 6.757-1.361 13.626-1.748 13.626-1.748s8.018 2.613 12.465-2.76z" fill="#1F0D52"/><path d="M144.477 48.054c.942 0 1.708-.7 1.708-1.565V34.373c0-2.373 2.105-4.3 4.692-4.3 2.59 0 4.695 1.928 4.695 4.3V46.49c0 .865.763 1.565 1.708 1.565.944 0 1.707-.7 1.707-1.565V34.373c0-4.096-3.639-7.43-8.111-7.43-4.469 0-8.108 3.334-8.108 7.43V46.49c0 .865.765 1.564 1.709 1.564z" fill="#469FD5"/><path d="M91.954 20.82h1.767c1.436 0 2.6 1.066 2.6 2.38v13.126h75.208c3.386 0 6.141-2.524 6.141-5.624V19.127c0-1.296 1.148-2.346 2.56-2.346 1.416 0 2.561 1.05 2.561 2.346v11.577c0 5.687-5.052 10.314-11.262 10.314H96.321v186.206h-6.965V23.2c0-1.314 1.165-2.38 2.598-2.38z" fill="url(#paint9_linear)"/><path d="M144.477 48.054c.942 0 1.708-.7 1.708-1.565V34.373c0-2.373 2.105-4.3 4.692-4.3 2.59 0 4.695 1.928 4.695 4.3h3.416c0-4.096-3.639-7.43-8.111-7.43-4.469 0-8.109 3.334-8.109 7.43V46.49c0 .865.764 1.564 1.709 1.564z" fill="#11B2D8"/><path d="M100.507 166.476H85.168v163.948h15.339V166.476z" fill="#E2E9ED"/><path d="M150.278 122.355h1.487c4.97 0 9.001-3.692 9.001-8.246V99.267h-19.492v14.842c0 4.554 4.03 8.246 9.004 8.246z" fill="#11B2D8"/><path d="M126.926 108.179c16.064 3.51 32.126 3.51 48.19 0 2.013-.44 3.26-1.643 3.01-2.918-3.649-18.521-3.649-37.043 0-55.565.25-1.274-.996-2.477-3.01-2.917-16.064-3.51-32.126-3.51-48.19 0-2.013.44-3.26 1.644-3.009 2.917 3.646 18.523 3.646 37.044 0 55.565-.251 1.275.996 2.478 3.009 2.918z" fill="#AFD3D9"/><path d="M136.663 82.887c10.709 1.834 18.007 1.834 28.716 0 1.344-.23 2.086-.853 2.008-1.526-1.178-9.716-.097-19.205 1.705-29.04.124-.67-.663-1.294-2.006-1.525a94.513 94.513 0 00-32.131 0c-1.345.23-2.07.852-2.005 1.524 1.043 10.893 2.553 19.206 1.705 29.04-.057.674.664 1.297 2.008 1.527z" fill="#fff"/><path d="M160.042 63.786c0-4.637-4.102-8.395-9.164-8.395-5.059 0-9.162 3.758-9.162 8.395 0 4.634 4.103 8.391 9.162 8.391 5.061 0 9.164-3.757 9.164-8.39z" fill="#11B2D8"/><path d="M155.037 62.65h-2.923v-2.674c0-.627-.552-1.133-1.236-1.133-.682 0-1.234.506-1.234 1.133v2.674h-2.923c-.681 0-1.237.508-1.237 1.136 0 .623.556 1.13 1.237 1.13h2.923v2.675c0 .626.552 1.134 1.234 1.134.684 0 1.236-.508 1.236-1.133v-2.677h2.923c.682 0 1.237-.506 1.237-1.13 0-.626-.555-1.134-1.237-1.134z" fill="#fff"/><path d="M130.721 83.493s-3.597 18.259-2.856 20.198c1.939 5.079 42.739 3.992 46.01.727 1.309-1.308-1.111-10.463-2.221-20.925-.001 0-15.39 8.137-40.933 0z" fill="url(#paint10_linear)"/><path d="M153.326 169.753c1.599 1.808 9.446 5.066 11.593 4.768 14.417-1.921 22.209-13.301 27.879-18.68a27.569 27.569 0 002.623-2.813c3.874-4.714 5.522-9.724 6.196-13.912.674-4.256.35-7.231.35-7.231s8.043-36.517-.251-33.016c-8.343 3.546-18.735 19.266-26.33 31.278-.225.344-.424.685-.649 1.005-.475.755-.924 1.488-1.375 2.175-1.174 1.877-2.273 3.637-3.273 5.148-2.147 3.341-7.611 10.998-7.611 10.998s-15.797 12.844-9.152 20.28z" fill="#FF505C"/><path d="M158.024 165.247c1.598 1.808 3.471 2.79 5.62 2.494 14.416-1.923 23.484-6.521 29.154-11.899.025-.206.025-.433.025-.663-.075-5.674-6.195-10.503-9.518-14.757-1.7-2.197-4.972-7.186-8.569-9.269-.475.756-.924 1.488-1.374 2.176-1.175 1.876-2.274 3.637-3.273 5.148.374 2.151.948 4.256 1.974 6.199 1.524 2.977 5.997 6.887 5.521 10.365-.8 5.834-8.07 6.637-12.94 8.032-1.7.479-5.048.869-6.62 2.174z" fill="#FC3C4C"/><path d="M201.964 131.885s.325 2.977-.349 7.231c-.779 4.95-2.891 11.614-8.39 17.279-5.61 5.783-24.79-22.395-19.286-29.479 8.385-10.783 19.572-24.565 27.776-28.047 8.294-3.501.249 33.016.249 33.016z" fill="#46C9E1"/><path d="M226.465 211.76a328.07 328.07 0 01-1.997 4.785c-.25.661-.548 1.324-.826 1.986-5.395 12.703-5.146 31.851-5.82 39.54-.05.459-.073.94-.123 1.465a26.746 26.746 0 00-.126 1.627v.044c-1.449 17.571-3.081 65.338-6.878 84.145-2.274.435-6.106.703-8.177.497-4.347-.434-8.381 0-8.381 0-6.87-33.773-9.965-65.856-13.014-87.411-3.147-22.238-4.821-62.305 3.898-79.488 6.02-11.874 25.182.594 36.674 9.793 4.296 3.477 7.518 6.476 8.568 7.574 1.398 1.465-.625 7.573-3.798 15.443z" fill="#11B2D8"/><path d="M222.643 206.957a7.885 7.885 0 00-4.972-1.853c-3.498-.07-5.796 2.104-6.494 5.101-1.3 5.585 1.374 12.331 1.349 18.076-.027 8.075-1.85 15.969-3.649 23.863-1.548 6.752-3.046 13.546-3.248 20.478-.25 8.077.95 16.11.776 24.186-.301 13.98-6.987 34.829-3.889 49.039 2.072.206 5.904-.061 8.177-.496 3.797-18.807 5.43-66.573 6.878-84.146v-.043c.05-.574.1-1.122.126-1.627.05-.525.073-1.007.123-1.465.675-7.688.426-26.837 5.821-39.54.276-.663.574-1.325.825-1.986a321.731 321.731 0 001.997-4.785c-.997-1.759-2.221-3.523-3.82-4.802z" fill="#0091C1"/><path d="M270.208 342.319c-.026.961-1.824 1.487-4.197 1.739-4.471.481-10.891.022-10.891.022-9.469-21.896-19.462-55.256-22.134-76.856-2.274-18.466-5.797-36.61-8.519-50.679v-.025a731.141 731.141 0 01-1.824-9.563c-1.274-6.752-2.124-11.878-2.199-14.645-.023-1.419-.049-2.176-.049-2.176.424-.477.874-.935 1.3-1.393 8.742-9.13 19.284-14.369 25.729-15.055 2.674-.297 4.621.183 5.47 1.463 2.75 4.212 4.897 8.099 6.572 11.762.177.365.325.731.472 1.098 10.37 23.042 8.321 35.738 8.519 66.148v.296c0 14.324-5.219 33.593-3.245 49.195 2.3 17.915 5.222 30.777 4.996 38.669z" fill="#11B2D8"/><path d="M265.214 303.65c-1.974-15.602 3.245-34.871 3.245-49.195v-.296c-.197-30.409 1.852-43.106-8.518-66.148-2.722-.092-5.645.528-8.718 2.038-.874.411-.673 1.279-.049 1.738-.151.228-.175.525 0 .87 5.796 12.264 9.491 25.421 8.818 38.874-.325 6.887-2.049 13.59-3.172 20.411-1.151 6.978-1.699 14.003-2.023 21.026-.526 11.99-1.55 24.483.898 36.358 2.424 11.738 6.67 23.246 10.317 34.733 2.373-.253 4.17-.779 4.197-1.739.225-7.893-2.697-20.754-4.995-38.67z" fill="#0091C1"/><path d="M178.575 280.739s11.64.982 27.28 1.807c1.897.111 1.599-23.98 3.572-23.89 2.497.118 2.05 23.408 9.917 24.507 21.736 3.02 47.116.803 59.809-2.424l-11.941-92.874c-.15-1.419-.375-3.113-.652-5.011v-.023c-1.049-7.528-2.674-18.261-2.322-28.007.024-.686.05-1.35.075-2.036 0-.367.025-.708.049-1.075a94.39 94.39 0 01.151-3.797c.824-18.694 2.548-37.343-2.049-40.591-.05-.023-.077-.07-.125-.07-.451-.274-1.649-.822-3.173-1.508-.75-.345-1.573-.688-2.423-1.077a214.701 214.701 0 01-3.947-1.716 105.436 105.436 0 01-3.323-1.463 63.019 63.019 0 00-13.066-4.623 60.802 60.802 0 00-2.899-.617 59.185 59.185 0 00-23.183.25s0 .025-.025.025a56.74 56.74 0 00-7.195 1.966c-.573.184-1.148.392-1.747.596a9.103 9.103 0 00-.851.368 7.896 7.896 0 00-2.097 1.668c-4.923 5.538-3.898 19.266-2.749 31.026.475 5.125-13.015 43.932-14.264 50.681 0 0-9.668 49.858-2.822 97.908z" fill="#60CFEB"/><path d="M264.545 192.83s-17.573 3.5-29.239 1.464c0 0-2.268 26.905 17.058 25.093 12.754-1.197 12.181-26.557 12.181-26.557zM243.585 122.47c.375 5.584 2.625 10.938 5.322 15.903 2.273 4.141 4.92 10.365 8.694 13.546 1.399 1.212 3.497 2.082 5.271 1.212.275-.114.524-.275.749-.48.326-.274.573-.597.75-.939.548-1.052.475-2.426.148-3.798-.472-2.105-1.523-4.279-1.897-5.492-3.722-12.057-.899-22.749-1.124-35.288-.024-.25-2.742-1.731-4.747-2.465a226.548 226.548 0 01-3.949-1.715c-7.02 3.935-9.742 12.241-9.217 19.516z" fill="#11B2D8"/><path d="M212.201 96.137c.1 6.292 2.447 16.475 2.447 16.475 4.124-6.204 14.816-13.662 18.862-16.362a59.183 59.183 0 00-21.309-.113z" fill="#B1A6FF"/><path d="M217.531 88.084v7.34s-1.895 3.181 0 3.528c4.164.764 10.172-3.524 10.172-3.524V84.222l-10.172 3.862z" fill="#FF505C"/><path d="M227.703 91.047V86.94s-3.497 4.665-8.495 4.925c0 0 4.343 1.72 8.495-.818z" fill="#FC3C4C"/><path d="M215.354 122.358c0 1.155-1.022 2.092-2.285 2.092-1.263 0-2.286-.937-2.286-2.092 0-1.158 1.022-2.092 2.286-2.092s2.285.934 2.285 2.092zM208.5 160.391c1.261 0 2.284-.937 2.284-2.092s-1.023-2.092-2.284-2.092c-1.262 0-2.284.937-2.284 2.092s1.022 2.092 2.284 2.092zM206.214 208.245c1.263 0 2.286-.937 2.286-2.093s-1.023-2.093-2.286-2.093c-1.262 0-2.285.937-2.285 2.093s1.023 2.093 2.285 2.093zM206.214 185.141c1.263 0 2.286-.938 2.286-2.094s-1.023-2.093-2.286-2.093c-1.262 0-2.285.937-2.285 2.093s1.023 2.094 2.285 2.094zM213.07 138.678c0 1.158-1.022 2.093-2.286 2.093-1.262 0-2.285-.935-2.285-2.093 0-1.156 1.023-2.091 2.285-2.091 1.264 0 2.286.935 2.286 2.091zM208.5 225.111c0 1.154-1.023 2.092-2.284 2.092-1.264 0-2.286-.938-2.286-2.092 0-1.157 1.022-2.095 2.286-2.095 1.261-.001 2.284.938 2.284 2.095z" fill="#11B2D8"/><path d="M216.314 70.499s-3.747 6.96-4.683 13.44c-.666 4.604 8.534 10.68 16.029 4.197 7.493-6.484 5.413-16.398 5.413-16.398l-16.759-1.24z" fill="#FF505C"/><path d="M210.123 67.902c-.059 5.834 6.977 6.335 11.671 6.066.394-.022.642-.47.981-.494.617-.04.892.293 1.562.4 1.512.24 2.551.36 4.087.34.674-.01 1.343.125 2.008.284-.398.77-.483 1.812-.646 2.535-.494 2.19-1.974 4.819-1.226 7.084.496 1.51 2.105 2.451 3.813 1.992 2.059-.556 1.842-2.309 2.541-3.753.421-.862.737-1.467.469-2.438-.081-.287-.269-.543-.412-.805.05-.043.093-.31.219-.605.547-1.286.356-2.699-.341-3.879 1.757-.842 2.362-2.71 1.649-4.393-.883-2.087-3.031-2.757-5.221-2.864-1.591-2.272-4.602-2.242-7.019-1.122-1.071-1.07-2.391-1.555-3.742-1.466-2.841-4.567-10.335-2.395-10.393 3.118z" fill="#32187C"/><path d="M231.174 83.045c.117-.118.249-.22.364-.341 1.049-1.143-.928-2.615-1.982-1.472-1.249 1.355-2.662 2.404-4.549 2.995-2.494.784-3.676.115-5.381-1.345-.5-.427-1.4-.311-1.821.14-1.509 1.624-5.841-.632-6.375 1.872-.426 1.981 1.985 5.481 4.628 6.23 7.034 1.999 12.061-2.265 15.92-6.229.724-.742.077-1.708-.804-1.85z" fill="#32187C"/><path d="M218.577 64.507s14.17 7.96 17.427 9.76c0 0 2.314-2.778 3.31-5.803 0 0-7.445-8.03-15.209-9.636-.001 0-4.17 3.383-5.528 5.68z" fill="#B6E7F9"/><path d="M224.109 59.29s10.94 4.876 13.667 9.784c0 0-12.655-8.358-13.667-9.784z" fill="#71B9DE"/><path d="M29.587 339.175H24.41c-6.892 0-12.48 7.317-12.48 16.345 0 9.031 5.588 16.35 12.48 16.35h5.175v-32.695z" fill="#8AA5F8"/><path d="M29.586 371.869c6.892 0 12.48-7.32 12.48-16.349 0-9.03-5.588-16.35-12.48-16.35-6.893 0-12.48 7.32-12.48 16.35 0 9.029 5.587 16.349 12.48 16.349z" fill="#002CA7"/><path d="M126.642 285.905c0-31.593-11.812-57.983-27.618-64.673v-1.687h-7.85c-19.585 0-35.465 29.713-35.465 66.36 0 36.65 15.88 66.36 35.466 66.36h7.85v-1.688c15.806-6.689 27.617-33.076 27.617-64.672z" fill="#8AA5F8"/><path d="M99.024 352.265c19.589 0 35.468-29.71 35.468-66.36 0-36.649-15.879-66.36-35.468-66.36-19.588 0-35.468 29.711-35.468 66.36 0 36.65 15.88 66.36 35.468 66.36z" fill="#002CA7"/><path d="M76.108 268.187l-48.273 27.304 118.088 2.173 44.14-33.34-113.955 3.863z" fill="#B5B5F6"/><path d="M87.187 193.775l117.122 3.865v74.898l-128.201-4.351 11.079-74.412z" fill="#D4D4FF"/><path d="M29.681 331.969c-1.722 0-3.339-.971-3.964-2.538-.8-2.005.325-4.226 2.515-4.96l32.71-10.949c2.181-.726 4.61.301 5.414 2.303.8 2.005-.326 4.225-2.516 4.957L31.13 331.735a4.57 4.57 0 01-1.45.234z" fill="#C2C0FF"/><path d="M145.923 297.664l.088 37.448-119.759-6.039 1.583-33.582 118.088 2.173zM83.674 233.074c-.1 0-.2-.001-.3-.008-2.325-.149-4.078-1.998-3.915-4.126l4.44-58.077 28.371-5.955c2.265-.485 4.536.82 5.058 2.905.52 2.08-.899 4.154-3.172 4.629l-22.275 4.678-4.001 52.358c-.156 2.038-2.01 3.596-4.206 3.596z" fill="#8AA5F8"/><path d="M27.221 356.936c-.045 0-.088 0-.133-.003-2.33-.068-4.16-1.85-4.087-3.984l3.173-92.993c.37-10.859 7.83-20.235 19.006-23.882l36.317-10.706c2.221-.657 4.599.467 5.311 2.496.714 2.034-.507 4.211-2.725 4.865L47.89 243.395c-7.757 2.535-13.018 9.144-13.279 16.8l-3.172 92.995c-.07 2.093-1.946 3.746-4.216 3.746z" fill="#8AA5F8"/><path d="M136.515 353.311l-59.088 6.201v4.672l59.878 1.531-.79-12.404z" fill="#002CA7"/><path d="M136.515 348.641H92.198l-14.771 10.872 59.878 1.528-.79-12.4z" fill="#8AA5F8"/><path d="M60.808 358.868l-59.88-1.532v4.674l59.88 1.529v-4.671z" fill="#002CA7"/><path d="M75.052 348.24l-52.406-1.291L.929 357.337l59.88 1.531 14.244-10.628z" fill="#8AA5F8"/><path d="M60.808 363.539l14.42-10.952-.175-4.347-14.245 10.628v4.671z" fill="#002CA7"/><path d="M97.778 170.211c.344.683.861.934 1.473.988-.42.94-.623 1.917-.278 2.734.504 1.195 1.293 1.248 2.314 1.01.177-.04.356-.107.536-.187.032.075.039.15.078.228a.929.929 0 00.786.497c1.717.036 3.251-1.062 4.541-2.046 3.833-2.93 6.207-3.156 7.929-2.84-.836 1.47-.94 1.872-1.964 2.245-.503.183-1.047.682-1.081 1.386-.041.843.528 1.117 1.096 1.258.983.245 2.801-.351 3.792-.603.706-.181 1.217-.678 1.568-1.42 3.294-6.958 2.203-9.608.535-12.267-.698-1.112-17.636 1.053-17.426 3.661-2.708 1.165-5.11 2.954-3.9 5.356zM234.491 179.477c-.889 1.581-2.164.753-3.675 1.097-1.841.417-6.3 4.635-8.419 3.875-2.825-1.012 3.045-3.157 1.555-4.303-.532-.412-8.512 4.06-6.624-.061.418-.911 4.637-3.42 2.841-3.647-1.926.747-6.019 3.033-6.799 1.058-.368-.931 1.893-2.53 3.109-3.01 6.009-2.373 2.741-2.345-1.177-.509-2.033.953-3.226-.151-1.623-2.032 3.322-3.902 10.256-3.813 14.665-2.443 1.864.577 8.129 6.44 6.147 9.975z" fill="#FF505C"/><path d="M226.537 170.083c-.689-.333-1.303-.959-1.977-1.354-.743-.435-1.662-1.056-2.104-1.839-.73-1.286.589-1.559 1.578-1.32 1.807.436 4.821 3.667 6.041 4.996.162.176-2.831-.141-3.538-.483zM285.251 187.59c-12.585 12.152-57.298-6.536-57.298-6.536l1.79-7.395s5.186 1.062 11.556 1.625c8.267.716 18.551.607 22.337-3.689.825-.935.98-9.186-.335-16.078-.64-3.409-1.654-6.497-3.11-8.187a189.31 189.31 0 00-5.89-6.488c-4.431-4.682-7.241-10.543-7.451-16.739-.225-5.944 1.441-10.719 3.563-14.352 2.944-5.049 10.551-5.804 14.802-1.608 8.172 8.075 20.355 27.665 20.661 28.143 10.765 17.485 12.014 39.113-.625 51.304z" fill="#FF505C"/><path d="M270.74 161.626a127.279 127.279 0 00-1.513-16.137c.187-.554.376-1.13.585-1.681.518-1.389-1.874-2.091-2.389-.701l-.135.399c-.466.218-.806.636-.691 1.206.021.187.043.376.093.543-1.135 3.296-3.023.471-4.277 3.869 1.314 6.891 2.047 21.536 1.222 22.47-3.786 4.296-14.07 4.406-22.336 3.689.127.317.393.56.754.699 7.622 2.759 22.296 6.262 27.136-2.264 2.071-3.638 1.674-8.126 1.551-12.092z" fill="#FC3C4C"/><path d="M259.601 151.043c-1.819-2.109-13.218-15.671-13.434-27.727-.101-5.483 3.702-18.2 11.23-18.81 12.061-.976 25.287 16.56 34.261 29.669-6.509 9.575-18.442 15.32-32.057 16.868z" fill="#46C9E1"/><path d="M115.965 208.848s-15.205 30.719-31.296 36.706c-10.483 3.889-11.425 14.759-29.193 14.92-3.104.028-5.483-3.13-5.483-3.13 3.08-3.905 24.947-26.892 28.087-29.512 1.003-.849 18.657-53.334 25.952-58.683 7.259-5.295 11.933 39.699 11.933 39.699z" fill="#FF505C"/><path d="M71.318 251.206c13.493-2.166 22.506-9.457 28.597-20.71 2.757-5.091 3.197-10.616 2.82-16.21-.394-5.83-.688-11.994-4.523-16.863-.957-1.216-2.896.287-1.946 1.493.176.224.31.469.47.703-.024.071-.064.126-.074.205-1.38 10.066-1.798 24.206-9.374 32.234-5.951 6.309-13.548 9.633-17.38 17.611-.39.811.52 1.68 1.41 1.537z" fill="#FC3C4C"/><path d="M40.228 350.351c.918-1.15 11.254.115 11.376.727.37 1.882 1.066 9.062.109 9.986-.927.893-11.222.58-11.474-1.241-.22-1.574-.899-8.362-.01-9.472z" fill="#FF505C"/><path d="M52.377 358.895s4.958 6.85 1.703 12.038c0 0-24.782.478-32.308-.878 0 0-.454-9.03 5.947-9.622 6.401-.597 12.836-.199 12.836-.199s7.3 3.526 11.822-1.339z" fill="#1F0D52"/><path d="M129.015 267.727c-6.149 12.232-28.145 17.206-44.471 21.532-9.785 2.6-17.53 4.974-18.572 8.554-4.071 13.995-6.939 43.912-10.801 56.792-1.388 1.605-4.278 1.628-7.285 1.069-4.856-.884-10.06-3.324-10.06-3.324.878-28.689-1.48-48.562 3.099-68.464 7.677-33.431 58.026-48.706 58.026-48.706 8.834-9.72 40.843 11.112 30.064 32.547z" fill="#164BCD"/><path d="M106.12 242.526c-.716-.209-1.18.301-1.249.883-.092.047-.209.071-.3.14-9.921 6.882-23.289 9.695-30.828 19.762-2.984 4.022-4.164 8.764-5.136 13.577-1.502 7.393-4.485 13.276-7.56 20.064-5.482 12.111-9.46 25.92-12.05 38.965-1.295 6.533-2.013 6.342-1.71 13.014.114 2.139.139 4.536.6 6.742 3.006.56 5.896.536 7.285-1.069 3.862-12.879 6.73-42.797 10.8-56.791 1.041-3.581 8.788-5.955 18.572-8.555a155.51 155.51 0 0111.61-12.858c5.341-5.301 11.541-9.721 16.744-15.16 7.585-7.972 2.889-15.993-6.778-18.714z" fill="#002CA7"/><path d="M93.828 365.279c.616-1.389 10.743-3.007 10.995-2.438.776 1.749 3.054 8.628 2.35 9.803-.681 1.138-10.555 3.678-11.207 1.957-.56-1.491-2.734-7.987-2.138-9.322z" fill="#FF505C"/><path d="M107.32 366.569s6.261 5.369 4.328 11.379c0 0-23.493 7.334-30.964 8.085 0 0-2.465-8.765 3.497-11.12 5.963-2.361 12.18-3.752 12.18-3.752s7.746 1.448 10.959-4.592z" fill="#1F0D52"/><path d="M159.754 265.203c-9.829 19.577-48.223 13.996-50.996 23.529-4.07 13.996-6.708 64.655-1.459 72.791a11.11 11.11 0 01-1.619 1.469c-4.347 3.205-11.955 4.833-11.955 4.833-8.86-19.506-17.694-57.565-19.036-79.629-2.08-34.221 54.997-55.54 54.997-55.54 7.216-7.929 29.882 4.51 32.077 20.995.511 3.718-.044 7.625-2.009 11.552z" fill="#164BCD"/><path d="M161.764 253.651a10.977 10.977 0 00-5.988-1.118c-1.203.116-1.272 1.629-.486 2.14-5.229 14.973-22.065 18.833-35.918 21.551-9.828 1.929-17.761 4.836-19.888 15.647-1.271 6.37-1.249 13.112-1.713 19.576-.44 6.369-1.041 12.74-1.064 19.134-.022 11.647 2.96 22.619 8.973 32.411a11.167 11.167 0 001.62-1.469c-5.25-8.136-2.612-58.795 1.458-72.791 2.773-9.533 41.167-3.952 50.996-23.529 1.965-3.927 2.52-7.834 2.01-11.552z" fill="#002CA7"/><path d="M120.332 207.599c-4.72 2.325-9.467 3.836-14.366 4.277a25.3 25.3 0 01-2.972.163c-4.468.025-15.065-2.502-20.015-4.431-.379-2.42 3.441-17.028 9.28-26.676 1.244-2.045 3.376-5.209 5.963-7.717 2.49-2.466 5.435-4.324 8.328-3.885a5.36 5.36 0 011.419.397c10.055 4.278 11.805 23.713 12.363 37.872z" fill="#B1A6FF"/><path d="M111.853 207.088c-1.396 1.001-3.908 3.093-5.886 4.789-.992.863-1.83 1.627-2.362 2.117a31.892 31.892 0 00-.61-1.954c-2.768-7.974-10.788-25.248-8.756-31.2a28.772 28.772 0 013.983-7.624c2.489-2.466 5.435-4.324 8.327-3.885-1.522 2.257-4.189 6.952-5.634 8.882-1.778 5.488-1.37 11.832.786 17.111.609 1 9.696 10.717 10.152 11.764z" fill="#9E8AFF"/><path d="M162.698 240.838c-.178.072-.382.142-.558.211-.865.348-1.752.673-2.615.953a1.885 1.885 0 00-.203.069c-.837.281-1.676.511-2.514.747-.582.161-1.168.323-1.777.462-.354.093-.684.186-1.038.255-.585.139-1.17.282-1.778.397-27.059 5.51-60.567-3.93-62.19-4.394-.028-.025-.052-.025-.052-.025s0-.022.024-.046c.052-.139.23-.558.484-1.232.052-.138.101-.28.178-.418.101-.232.203-.511.33-.79.381-.952.887-2.137 1.496-3.535.204-.489.432-1.022.66-1.558.052-.115.102-.231.154-.371.203-.44.407-.884.61-1.349a328.183 328.183 0 014.77-10.414 211.31 211.31 0 011.625-3.35 196.818 196.818 0 013.579-6.833c.151-.28.305-.558.432-.836.151-.256.277-.535.382-.791 2.284-4.976 1.242-7.696-.967-10.347-1.242-1.51-2.892-3-4.492-4.882-2.03-2.347-3.656-4.999-3.808-8.487-.227-5.022 3.528-11.438 9.926-15.112 2.131-1.231 4.365-2.347 6.472-3.324 6.195-2.861 11.574-4.58 11.574-4.58 4.291-.234 8.022-.21 11.248.069h.025c2.993.256 5.584.699 7.766 1.349 17.744 5.115 11.067 21.714 7.996 35.711-.354 1.602-.66 3.162-.863 4.672a23.555 23.555 0 00-.203 2.302c-.078 1.929 2.665 16.879 2.665 16.879s.862 2.045 1.118 2.56a59.41 59.41 0 001.676 3.252c.355.629.709 1.256 1.066 1.86l.533.907c.277.465.583.929.863 1.393.684 1.119 1.37 2.163 2.03 3.185.253.42.533.84.786 1.235.991 1.534 1.88 2.95 2.59 4.206z" fill="#B1A6FF"/><path d="M136.742 196.902c1.587 4.941 10.092 12.767 13.519 15.139.025-.767-.803-8.212-.701-8.979.203-1.513.506-3.071.863-4.674-1.091-1.883-2.819-4.116-5.61-6.487-7.362-6.37-3.423-27.129-3.423-27.129-11.867 5.492-6.329 26.899-4.648 32.13z" fill="#9E8AFF"/><path d="M129.523 157.903v-5.002s-5.26 4.598-10.337 4.862c0 0 6.118 2.72 10.337.14z" fill="#FC3C4C"/><path d="M126.722 144.595s3.064-1.308 3.673.945c.61 2.251-1.625 3.584-2.808 3.171-1.182-.412-1.579-3.172-.865-4.116zM51.95 253.902c2.218-1.979 6.21-4.03 8.739-1.492.324.132.61.346.726.74.911 3.078 1.423 6.016-.538 8.835-.686.987-2.43.369-2.311-.763.173-1.624.275-3.249.344-4.877-1.033.908-1.993 1.888-2.439 3.04-.865 2.257.221 4.662 1.248 6.695.406.803-.32 1.704-1.264 1.64-.799-.052-1.402-.485-1.882-1.084.139.599.297 1.192.488 1.775.34 1.051-1.137 1.595-1.973 1.152a4.149 4.149 0 01-1.783-1.844c-.677.529-1.929.425-2.075-.614a34.404 34.404 0 01-.268-2.589c-.492-.041-.932-.324-.993-.922-.376-3.662 1.106-7.125 3.982-9.692z" fill="#FF505C"/><path d="M89.222 216.67c3.19.849 6.458 1.456 9.787 1.751-.56 1.877-1.19 3.866-1.87 5.905-6.899-.071-13.343-2.241-18.61-6.321.523-.971 1.067-1.904 1.588-2.876.397-.679.756-1.364 1.15-2.043 2.778.902 5.351 2.238 7.955 3.584z" fill="#11B2D8"/><path d="M148.561 269.799l46.425-14.817-1.054 65.715-51.349 14.816 5.978-65.714z" fill="#002CA7"/><path d="M201.146 242.578c-.071 0-.143-.001-.214-.004-2.328-.107-4.121-1.923-4.005-4.055l3.326-60.97 28.435-5.967c2.263-.486 4.535.82 5.058 2.906.52 2.079-.901 4.153-3.172 4.629l-22.21 4.662-3.006 55.126c-.113 2.066-1.979 3.673-4.212 3.673z" fill="#8AA5F8"/><path d="M143.64 362.412l-.134-.001c-2.33-.069-4.16-1.852-4.087-3.985l3.174-92.994c.368-10.861 7.83-20.237 19.005-23.882l37.767-11.893c2.204-.695 4.606.379 5.364 2.4.759 2.019-.414 4.217-2.618 4.911l-37.724 11.88c-7.835 2.556-13.098 9.164-13.358 16.824l-3.174 92.993c-.07 2.096-1.945 3.747-4.215 3.747z" fill="#8AA5F8"/><path d="M146.1 337.446c-1.722 0-3.339-.973-3.965-2.538-.8-2.005.324-4.226 2.515-4.959l32.709-10.951c2.185-.725 4.613.299 5.415 2.304.801 2.003-.326 4.226-2.515 4.958l-32.71 10.951a4.625 4.625 0 01-1.449.235z" fill="#8AA5F8"/><path d="M243.06 297.337c0-28.756-11.812-52.777-27.617-58.866v-1.535h-7.851c-19.586 0-35.465 27.042-35.465 60.401 0 33.363 15.879 60.405 35.465 60.405h7.851v-1.535c15.805-6.091 27.617-30.11 27.617-58.87z" fill="#002CA7"/><path d="M250.911 297.337c0 33.363-15.88 60.405-35.468 60.405-19.589 0-35.468-27.042-35.468-60.405 0-33.359 15.879-60.401 35.468-60.401 19.588 0 35.468 27.042 35.468 60.401z" fill="#8AA5F8"/><path d="M244.435 297.337c0 27.273-12.981 49.377-28.993 49.377s-28.993-22.104-28.993-49.377c0-27.267 12.981-49.374 28.993-49.374s28.993 22.107 28.993 49.374z" fill="#D4D4FF"/><path d="M223.505 297.337c0 7.585-3.61 13.735-8.062 13.735-4.453 0-8.063-6.15-8.063-13.735 0-7.58 3.61-13.73 8.063-13.73 4.452 0 8.062 6.15 8.062 13.73zM149.606 343.558h-5.174c-6.893 0-12.48 7.317-12.48 16.346 0 9.031 5.587 16.348 12.48 16.348h5.174v-32.694z" fill="#002CA7"/><path d="M162.086 359.904c0 9.031-5.587 16.348-12.48 16.348-6.891 0-12.48-7.317-12.48-16.348 0-9.029 5.589-16.346 12.48-16.346 6.893 0 12.48 7.317 12.48 16.346z" fill="#8AA5F8"/><path d="M149.607 372.417c5.276 0 9.552-5.602 9.552-12.513s-4.276-12.513-9.552-12.513c-5.275 0-9.552 5.602-9.552 12.513s4.277 12.513 9.552 12.513z" fill="#002CA7"/><path d="M79.501 216.526c-36.157-36.464 70.85-66.287 70.85-95.062" stroke="#00AEEF" stroke-width="2" stroke-miterlimit="10"/><path d="M134.895 142.985c-.015.102-.042.196-.03.309.581 4.629 3.942 8.669 5.061 13.287 1.078 4.46 1.256 9.111 2.773 13.486 1.989 5.73 5.841 9.343 12.526 9.66 5.744.274 15.62.313 19.546-4.311 2.529-2.982 3.382-10.199-1.73-11.288-.806-.171-1.988.358-1.681 1.292 1.901 5.774-6.071 1.278-7.789-.756-1.7-2.017-2.405-4.625-2.872-7.08-.63-3.294-.491-6.688-.853-10.013-.486-4.452-1.049-10.525-5.144-13.603-7.146-5.379-17.171 1.884-19.824 8.186a.958.958 0 00.017.831z" fill="#32187C"/><path d="M119.187 156.244v6.556s-1.924 3.234 0 3.586c4.231.773 10.336-5.271 10.336-5.271v-8.795l-10.336 3.924z" fill="#FF505C"/><path d="M116.648 137.111s-3.807 7.072-4.76 13.659c-.674 4.677 8.674 10.851 16.289 4.26 7.615-6.585 5.501-16.66 5.501-16.66l-17.03-1.259z" fill="#FF505C"/><path d="M119.063 132.345c6.258-3.527 15.727-3.14 19.902 4.766 1.857 3.519-.853 10.094-3.239 13.432-1.873 2.621-5.397 4.761-7.286 1.289-1.445-2.651-1.207-5.119-.975-7.957.083-1.043.118-1.924-.004-2.722-1.5-1.871-3.54-3.186-5.833-3.2-.577.529-6.355 6.264-9.212 2.394-7.256-9.836 5.667-7.45 6.647-8.002z" fill="#32187C"/><path d="M114.464 233.896s4.087 6.788 4.467 7.369c0 0 2.945.671 7.719 1.395 2.409.371 5.354.58 8.679.653 1.574.022 3.25.022 4.976 0 12.719-.304 28.787-2.655 39.752-8.046 15.205-7.488 3.53-37.316-13.783-48.055-.049-.047-22.032 12.322-19.468 13.555.938.462 15.889 19.734 14.872 20.737-.912.93-2.791 3.65-5.558 4.532-4.417 1.395-10.609 2.72-16.881 3.837-.863.14-1.701.302-2.563.441-.61.119-1.216.21-1.827.327-10.41 1.789-19.877 3.022-20.385 3.255z" fill="#FF505C"/><path d="M137.465 231.613c8.984 2.471 23.904.494 31.017-5.462 7.944-6.681-7.001-19.179-12.697-23.826.22-.826-4.487 2.178-5.362 3.102 4.411 5.328 11.222 14.687 10.661 15.958-.627 1.422-2.185 3.775-4.972 4.663-5.025 1.58-12.328 3.048-19.439 4.273-.157.525.064 1.07.792 1.292z" fill="#FC3C4C"/><path d="M148.529 206.838c-1.628-1.954-12.087-15.249-12.084-26.286 0-5.021.914-16.326 7.816-16.78 11.057-.724 22.871 15.514 30.868 27.639-6.119 8.674-14.109 14.202-26.6 15.427z" fill="#B1A6FF"/><path d="M124.196 240.555c-.563 1.58-3.28 1.95-4.68 2.553-1.711.731-5.248 5.354-7.449 5.098-2.938-.34 2.359-3.401.699-4.125-.596-.26-7.504 5.283-6.448 1.253.232-.889 3.859-3.949 2.072-3.796-1.731 1.043-5.275 3.878-6.405 2.28-.534-.753 1.363-2.62 2.451-3.283 5.391-3.291 2.219-2.623-1.24-.221-1.794 1.248-3.16.501-1.961-1.482 2.494-4.116 9.247-5.407 13.787-5.063 1.92.147 10.431 3.26 9.174 6.786z" fill="#FF505C"/><path d="M113.377 234.643c-.733-.161-1.446-.591-2.175-.81-.804-.241-1.815-.611-2.393-1.218-.949-.998.277-1.5 1.281-1.485 1.84.033 5.377 2.305 6.814 3.246.192.123-2.775.431-3.527.267z" fill="#FF505C"/><path d="M414.403 119.876c.148 2.25.228 4.537.228 6.866 0 73.916-75.533 161.136-149.451 171.279h151.094V119.875h-1.871v.001z" fill="#fff"/><path d="M211.161 25.008h-6.078c-.914 0-1.56-.173-1.939-.52-.379-.346-.567-.938-.567-1.777V12.678c0-.838.188-1.431.567-1.782.379-.35 1.025-.524 1.939-.524h7.995v2.306h-6.944c-.458 0-.686.206-.686.618v3.132h5.712c.909 0 1.553.175 1.936.526.382.35.573.943.573 1.781v3.976c0 .838-.19 1.43-.568 1.777-.378.347-1.026.52-1.94.52zm-5.712-6.273v3.348c0 .42.228.628.686.628h3.977c.448 0 .673-.209.673-.628v-2.719c0-.419-.225-.628-.673-.628h-4.663z" fill="url(#paint11_linear)"/><path d="M218.59 10.372h6.249c.914 0 1.563.174 1.944.524.381.35.574.944.574 1.782v10.033c0 .563-.084 1.011-.252 1.346a1.509 1.509 0 01-.793.726c-.361.15-.853.225-1.473.225h-6.25c-.915 0-1.561-.173-1.941-.52-.378-.346-.568-.938-.568-1.777V12.678c0-.838.19-1.431.568-1.782.381-.35 1.027-.524 1.942-.524zm5.209 2.306h-4.159c-.457 0-.685.206-.685.618v8.786c0 .42.228.628.685.628h4.159c.457 0 .687-.209.687-.628v-8.786c0-.412-.23-.618-.687-.618z" fill="url(#paint12_linear)"/><path d="M239.458 25.008l-3.794-11.829h-.097l-3.741 11.83h-3.106l4.383-12.831c.251-.74.572-1.25.97-1.532.397-.282.92-.422 1.57-.422.323 0 .602.03.842.088a2.07 2.07 0 011.265.903c.167.256.316.576.444.963l4.363 12.83h-3.099z" fill="url(#paint13_linear)"/><path d="M252.59 25.008h-6.079c-.913 0-1.561-.173-1.939-.52-.38-.346-.568-.938-.568-1.777v-12.34h2.883v5.773h5.703c.614 0 1.103.077 1.468.23.365.155.628.396.794.728.164.33.246.777.246 1.34v4.27c0 .838-.19 1.43-.568 1.777-.379.346-1.025.52-1.94.52zm-5.016-2.297h3.966c.456 0 .686-.209.686-.628V19.07c0-.418-.23-.628-.686-.628h-4.653v3.642c0 .419.23.628.687.628z" fill="url(#paint14_linear)"/><path d="M268.474 10.372v14.636h-2.885v-6.273h-5.347v6.273h-2.873V10.372h2.873v6.056h5.347v-6.056h2.885z" fill="url(#paint15_linear)"/><path d="M271.518 23.153V10.372h2.883v10.985h.085l3.912-9.562c.437-1.048 1.295-1.57 2.575-1.57.093 0 .171 0 .234.003.064.005.155.013.27.026.113.013.215.03.306.049.089.019.188.052.299.098.111.046.207.1.289.162.083.062.167.14.252.236.086.094.156.203.214.323.058.121.103.265.14.432.035.167.053.348.053.545v12.91h-2.883V14.032h-.085l-3.924 9.493c-.228.556-.573.967-1.032 1.232a3.017 3.017 0 01-1.529.398c-.665 0-1.175-.18-1.528-.54-.352-.36-.531-.848-.531-1.463z" fill="url(#paint16_linear)"/><path d="M296.439 25.008h-7.996c-.915 0-1.561-.173-1.939-.52-.378-.346-.567-.938-.567-1.777v-12.34h2.881v11.712c0 .42.23.628.686.628h4.652v-12.34h2.873v12.34h2.059v5.223h-2.649v-2.926z" fill="url(#paint17_linear)"/><path d="M299.311 25.008l4.566-12.83c.266-.74.593-1.25.987-1.532.393-.282.907-.422 1.542-.422.429 0 .796.057 1.1.172.303.115.579.318.83.609.25.291.461.682.633 1.173l4.544 12.83h-3.129l-1.275-3.829h-5.413l-1.253 3.83h-3.132zm9.036-6.126l-1.908-5.703h-.097l-1.897 5.703h3.902z" fill="url(#paint18_linear)"/><defs><linearGradient id="paint9_linear" x1="89.356" y1="122.002" x2="182.791" y2="122.002" gradientUnits="userSpaceOnUse"><stop stop-color="#132574"/><stop offset=".617" stop-color="#25369B"/><stop offset="1" stop-color="#2E3FAF"/></linearGradient><linearGradient id="paint0_linear" x1="392.814" y1="142.351" x2="22.374" y2="142.351" gradientUnits="userSpaceOnUse"><stop stop-color="#B3CDFA"/><stop offset=".028" stop-color="#B7CFFA"/><stop offset=".262" stop-color="#D1E1FC"/><stop offset=".5" stop-color="#E5EEFE"/><stop offset=".744" stop-color="#F0F5FE"/><stop offset="1" stop-color="#F4F8FF"/></linearGradient><linearGradient id="paint2_linear" x1="197.187" y1="108.432" x2="330.188" y2="108.432" gradientUnits="userSpaceOnUse"><stop stop-color="#41DC9F"/><stop offset=".517" stop-color="#3BBACC"/><stop offset="1" stop-color="#369EF2"/></linearGradient><linearGradient id="paint3_linear" x1="322.871" y1="210.253" x2="344.376" y2="210.253" gradientUnits="userSpaceOnUse"><stop stop-color="#41DC9F"/><stop offset=".517" stop-color="#3BBACC"/><stop offset="1" stop-color="#369EF2"/></linearGradient><linearGradient id="paint4_linear" x1="324.867" y1="210.253" x2="342.379" y2="210.253" gradientUnits="userSpaceOnUse"><stop stop-color="#41DC9F"/><stop offset=".517" stop-color="#3BBACC"/><stop offset="1" stop-color="#369EF2"/></linearGradient><linearGradient id="paint5_linear" x1="291.306" y1="210.253" x2="312.809" y2="210.253" gradientUnits="userSpaceOnUse"><stop stop-color="#41DC9F"/><stop offset=".517" stop-color="#3BBACC"/><stop offset="1" stop-color="#369EF2"/></linearGradient><linearGradient id="paint6_linear" x1="293.303" y1="210.253" x2="310.812" y2="210.253" gradientUnits="userSpaceOnUse"><stop stop-color="#41DC9F"/><stop offset=".517" stop-color="#3BBACC"/><stop offset="1" stop-color="#369EF2"/></linearGradient><linearGradient id="paint7_linear" x1="259.741" y1="210.253" x2="281.246" y2="210.253" gradientUnits="userSpaceOnUse"><stop stop-color="#41DC9F"/><stop offset=".517" stop-color="#3BBACC"/><stop offset="1" stop-color="#369EF2"/></linearGradient><linearGradient id="paint8_linear" x1="261.738" y1="210.253" x2="279.246" y2="210.253" gradientUnits="userSpaceOnUse"><stop stop-color="#41DC9F"/><stop offset=".517" stop-color="#3BBACC"/><stop offset="1" stop-color="#369EF2"/></linearGradient><linearGradient id="paint1_linear" x1="99.911" y1="368.808" x2="427.776" y2="368.998" gradientUnits="userSpaceOnUse"><stop stop-color="#4F1EA2"/><stop offset=".517" stop-color="#324BB2"/><stop offset="1" stop-color="#1A71BF"/></linearGradient><linearGradient id="paint10_linear" x1="127.764" y1="95.339" x2="174.253" y2="95.339" gradientUnits="userSpaceOnUse"><stop stop-color="#41DC9F"/><stop offset=".517" stop-color="#3BBACC"/><stop offset="1" stop-color="#369EF2"/></linearGradient><linearGradient id="paint11_linear" x1="202.576" y1="17.69" x2="213.67" y2="17.69" gradientUnits="userSpaceOnUse"><stop stop-color="#132574"/><stop offset=".617" stop-color="#25369B"/><stop offset="1" stop-color="#2E3FAF"/></linearGradient><linearGradient id="paint12_linear" x1="216.081" y1="17.69" x2="227.358" y2="17.69" gradientUnits="userSpaceOnUse"><stop stop-color="#132574"/><stop offset=".617" stop-color="#25369B"/><stop offset="1" stop-color="#2E3FAF"/></linearGradient><linearGradient id="paint13_linear" x1="228.72" y1="17.616" x2="242.557" y2="17.616" gradientUnits="userSpaceOnUse"><stop stop-color="#132574"/><stop offset=".617" stop-color="#25369B"/><stop offset="1" stop-color="#2E3FAF"/></linearGradient><linearGradient id="paint14_linear" x1="244.004" y1="17.69" x2="255.097" y2="17.69" gradientUnits="userSpaceOnUse"><stop stop-color="#132574"/><stop offset=".617" stop-color="#25369B"/><stop offset="1" stop-color="#2E3FAF"/></linearGradient><linearGradient id="paint15_linear" x1="257.368" y1="17.69" x2="268.474" y2="17.69" gradientUnits="userSpaceOnUse"><stop stop-color="#132574"/><stop offset=".617" stop-color="#25369B"/><stop offset="1" stop-color="#2E3FAF"/></linearGradient><linearGradient id="paint16_linear" x1="271.518" y1="17.689" x2="283.03" y2="17.689" gradientUnits="userSpaceOnUse"><stop stop-color="#132574"/><stop offset=".617" stop-color="#25369B"/><stop offset="1" stop-color="#2E3FAF"/></linearGradient><linearGradient id="paint17_linear" x1="285.936" y1="19.152" x2="299.088" y2="19.152" gradientUnits="userSpaceOnUse"><stop stop-color="#132574"/><stop offset=".617" stop-color="#25369B"/><stop offset="1" stop-color="#2E3FAF"/></linearGradient><linearGradient id="paint18_linear" x1="299.311" y1="17.616" x2="313.513" y2="17.616" gradientUnits="userSpaceOnUse"><stop stop-color="#132574"/><stop offset=".617" stop-color="#25369B"/><stop offset="1" stop-color="#2E3FAF"/></linearGradient></defs></svg>