<svg width="93" height="103" viewBox="0 0 93 103" xmlns="http://www.w3.org/2000/svg"><g fill="#002CA7" fill-rule="nonzero"><circle cx="1.01" cy="1.01" r="1.01"/><circle cx="11.108" cy="1.01" r="1.01"/><circle cx="21.206" cy="1.01" r="1.01"/><circle cx="31.304" cy="1.01" r="1.01"/><circle cx="41.402" cy="1.01" r="1.01"/><circle cx="51.5" cy="1.01" r="1.01"/><circle cx="61.598" cy="1.01" r="1.01"/><circle cx="71.696" cy="1.01" r="1.01"/><circle cx="81.794" cy="1.01" r="1.01"/><circle cx="91.892" cy="1.01" r="1.01"/><circle cx="1.01" cy="11.108" r="1.01"/><circle cx="11.108" cy="11.108" r="1.01"/><circle cx="21.206" cy="11.108" r="1.01"/><circle cx="31.304" cy="11.108" r="1.01"/><circle cx="41.402" cy="11.108" r="1.01"/><circle cx="51.5" cy="11.108" r="1.01"/><circle cx="61.598" cy="11.108" r="1.01"/><circle cx="71.696" cy="11.108" r="1.01"/><circle cx="81.794" cy="11.108" r="1.01"/><circle cx="91.892" cy="11.108" r="1.01"/><circle cx="1.01" cy="21.206" r="1.01"/><circle cx="11.108" cy="21.206" r="1.01"/><circle cx="21.206" cy="21.206" r="1.01"/><circle cx="31.304" cy="21.206" r="1.01"/><circle cx="41.402" cy="21.206" r="1.01"/><circle cx="51.5" cy="21.206" r="1.01"/><circle cx="61.598" cy="21.206" r="1.01"/><circle cx="71.696" cy="21.206" r="1.01"/><circle cx="81.794" cy="21.206" r="1.01"/><circle cx="91.892" cy="21.206" r="1.01"/><circle cx="81.794" cy="31.304" r="1.01"/><circle cx="91.892" cy="31.304" r="1.01"/><circle cx="81.794" cy="41.402" r="1.01"/><circle cx="91.892" cy="41.402" r="1.01"/><circle cx="81.794" cy="51.5" r="1.01"/><circle cx="91.892" cy="51.5" r="1.01"/><circle cx="81.794" cy="61.598" r="1.01"/><circle cx="91.892" cy="61.598" r="1.01"/><circle cx="81.794" cy="71.696" r="1.01"/><circle cx="91.892" cy="71.696" r="1.01"/><circle cx="81.794" cy="81.794" r="1.01"/><circle cx="91.892" cy="81.794" r="1.01"/><circle cx="81.794" cy="91.892" r="1.01"/><circle cx="91.892" cy="91.892" r="1.01"/><circle cx="71.696" cy="31.304" r="1.01"/><circle cx="71.696" cy="41.401" r="1.01"/><circle cx="71.696" cy="51.5" r="1.01"/><circle cx="71.696" cy="61.598" r="1.01"/><circle cx="71.696" cy="71.696" r="1.01"/><circle cx="71.696" cy="81.794" r="1.01"/><circle cx="71.696" cy="91.892" r="1.01"/><circle cx="71.696" cy="101.99" r="1.01"/><circle cx="81.794" cy="101.99" r="1.01"/><circle cx="91.892" cy="101.99" r="1.01"/></g></svg>