<svg width="428" height="391" viewBox="0 0 428 391" fill="none" xmlns="http://www.w3.org/2000/svg"><path d="M288.289 350.887c-21.619.328-88.627 1.049-129.368-.916-75.544-3.64-136.802 7.253-96.03 16.794 11.394 2.667-20.628 21.277 59.278 23.204 70.14 1.689 141.289-7.714 175.736-11.852 34.448-4.14 50.21-10.298 57.528-13.082 6.438-2.446 8.433-15.292-67.144-14.148z" fill="url(#paint0_linear)"/><path d="M314.166 52.884c-109.053 4.81-129.894-5.184-162.784-37.272-38.646-37.705-109.896-1.583-122.086 51.7C.416 193.558 85.199 292.612 210.512 308.59c135.16 17.227 209.548-60.529 217.651-137.8 7.215-68.833-34.394-121.42-113.997-117.907z" fill="url(#paint1_linear)"/><path d="M363.498 80.49H199.472v255.632h164.026V80.491z" fill="#B7CCE7"/><path d="M361.035 82.749h-159.1v251.117h159.1V82.749z" fill="url(#paint2_linear)"/><path d="M362.758 270.998H200.212v4.595h162.546v-4.595z" fill="url(#paint3_linear)"/><path d="M362.758 223.182H200.212v4.592h162.546v-4.592z" fill="url(#paint4_linear)"/><path d="M362.758 175.365H200.212v4.594h162.546v-4.594z" fill="url(#paint5_linear)"/><path d="M362.758 127.549H200.212v4.594h162.546v-4.594z" fill="url(#paint6_linear)"/><path d="M266.66 81.171h-4.816v98.788h4.816V81.171z" fill="url(#paint7_linear)"/><path d="M263.518 130.566h-62.9v47.815h62.9v-47.815z" fill="url(#paint8_linear)"/><path d="M253.926 156.91c1.938 0 3.509-1.439 3.509-3.214s-1.571-3.214-3.509-3.214-3.509 1.439-3.509 3.214 1.571 3.214 3.509 3.214z" fill="#fff"/><path d="M298.972 192.965c-.682 0-1.238.509-1.238 1.132v12.883c0 .625.556 1.133 1.238 1.133.681 0 1.235-.508 1.235-1.133v-12.883c0-.623-.554-1.132-1.235-1.132z" fill="#1E4889"/><path d="M293.011 182.438c-.341-.542-1.097-.728-1.686-.416-.596.311-.797 1.001-.459 1.544l7.004 11.169c.341.543 1.096.73 1.687.42.591-.312.797-1.002.456-1.545l-7.002-11.172zM302.616 175.323c-.681 0-1.235.507-1.235 1.13v30.526c0 .625.554 1.133 1.235 1.133.684 0 1.236-.508 1.236-1.133v-30.526c0-.623-.552-1.13-1.236-1.13z" fill="#1E4889"/><path d="M293.511 313.228h-78.249c-1.972 0-3.57 1.465-3.57 3.273 0 1.805 1.598 3.27 3.57 3.27h78.249c1.971 0 3.57-1.465 3.57-3.27 0-1.808-1.599-3.273-3.57-3.273z" fill="url(#paint9_linear)"/><path d="M288.619 318.075h-2.39v9.316h2.39v-9.316z" fill="url(#paint10_linear)"/><path d="M287.761 336.121c3.286 0 5.949-2.439 5.949-5.448 0-3.009-2.663-5.448-5.949-5.448-3.285 0-5.948 2.439-5.948 5.448 0 3.009 2.663 5.448 5.948 5.448z" fill="#0D2945"/><path d="M223.061 318.075h-2.391v9.316h2.391v-9.316z" fill="#1F4FB6"/><path d="M222.203 336.121c3.285 0 5.948-2.439 5.948-5.448 0-3.009-2.663-5.448-5.948-5.448-3.285 0-5.949 2.439-5.949 5.448 0 3.009 2.664 5.448 5.949 5.448z" fill="#0D2945"/><path d="M270.017 275.272h-31.263c-.58 0-1.046.429-1.046.958v5.555c0 .529.466.961 1.046.961h31.264c.578 0 1.048-.431 1.048-.961v-5.555c-.001-.529-.47-.958-1.049-.958zM270.017 242.514h-31.263c-.58 0-1.046.429-1.046.958v5.557c0 .528.466.958 1.046.958h31.264c.578 0 1.048-.43 1.048-.958v-5.557c-.001-.529-.47-.958-1.049-.958z" fill="#1F4FB6"/><path d="M264.302 199.459h-19.833c-1.888 0-3.421 1.404-3.421 3.135v110.463c0 1.733 1.533 3.134 3.421 3.134h19.833c1.889 0 3.422-1.402 3.422-3.134V202.594c0-1.731-1.533-3.135-3.422-3.135z" fill="#D4E1F3"/><path d="M284.503 158.369h-60.236c-1.841 0-3.336 1.367-3.336 3.056v40.93c0 1.687 1.495 3.054 3.336 3.054h60.236c1.841 0 3.336-1.367 3.336-3.054v-40.93c0-1.689-1.495-3.056-3.336-3.056z" fill="#D4E1F3"/><path d="M265.171 235.824h-21.57v3.59h21.57v-3.59z" fill="#1F4FB6"/><path d="M258.492 239.414h-8.214c-1.888 0-3.42 1.404-3.42 3.133v23.15c0 1.732 1.532 3.135 3.42 3.135h8.214c1.889 0 3.421-1.404 3.421-3.135v-23.15c0-1.729-1.532-3.133-3.421-3.133zM267.724 205.409h-26.677v12.783h26.677v-12.783z" fill="#81AAF8"/><path d="M287.839 175.161h-66.908v16.908h66.908v-16.908z" fill="url(#paint11_linear)"/><path d="M299.424 267.008c0 4.501-3.998 8.159-8.908 8.159-4.912 0-8.908-3.658-8.908-8.159v-76.551h-4.222v76.551c0 6.629 5.89 12.022 13.13 12.022 7.24 0 13.13-5.393 13.13-12.022V250.32h-4.222v16.688z" fill="#0D2945"/><path d="M297.666 284.832c0 7.457-6.626 13.526-14.771 13.526h-11.629c-8.145 0-14.77-6.069-14.77-13.526v-94.375h-4.22v94.375c0 9.589 8.519 17.393 18.99 17.393h11.629c10.472 0 18.99-7.804 18.99-17.393v-37.044h-4.22v37.044h.001z" fill="#1F4FB6"/><path d="M289.926 140.617v-.073h-.011c.002-.009.011-.018.011-.03 0-1.395-15.912-2.529-35.543-2.529-19.627 0-35.537 1.133-35.537 2.529 0 .012.008.02.011.03h-.011v.073c-.831 0-1.506 8.436-1.506 18.84 0 10.407.674 18.84 1.506 18.84.011 0 .018-.015.028-.016.578 1.361 16.25 2.451 35.509 2.451 19.264 0 34.934-1.09 35.514-2.451.01.001.018.016.029.016.828 0 1.505-8.433 1.505-18.84 0-10.404-.676-18.84-1.505-18.84z" fill="#fff"/><path d="M274.341 143.584h-49.754v31.576h49.754v-31.576z" fill="#6193E6"/><path d="M273.519 144.337H225.41v30.075h48.109v-30.075z" fill="#0D2945"/><path d="M279.497 181.866c-2.588 0-4.688 1.923-4.688 4.298 0 2.369 2.1 4.293 4.688 4.293 2.59 0 4.686-1.924 4.686-4.293 0-2.375-2.096-4.298-4.686-4.298zM254.384 181.866c-2.587 0-4.686 1.923-4.686 4.298 0 2.369 2.099 4.293 4.686 4.293 2.591 0 4.692-1.924 4.692-4.293 0-2.375-2.101-4.298-4.692-4.298z" fill="#6193E6"/><path d="M254.384 183.614c-1.68 0-3.046 1.25-3.046 2.792v5.338h6.096v-5.338c-.001-1.542-1.365-2.792-3.05-2.792zM279.497 183.614c-1.683 0-3.047 1.25-3.047 2.792v5.338h6.094v-5.338c0-1.542-1.363-2.792-3.047-2.792z" fill="#81AAF8"/><path d="M236.016 160.535h-2.834a.314.314 0 00-.293.191l-.44 1.151-.596-6.785c-.013-.148-.144-.26-.307-.262h-.004c-.161 0-.295.108-.312.255l-.653 5.532h-3.524c-.175 0-.313.126-.313.286 0 .157.139.287.313.287h3.806c.16 0 .295-.111.312-.256l.327-2.758.444 5.098c.012.136.123.242.273.263l.039.001a.31.31 0 00.295-.192l.856-2.239h2.611c.176 0 .313-.128.313-.286 0-.158-.137-.286-.313-.286z" fill="#1E4889"/><path d="M244.983 160.535h-2.835a.315.315 0 00-.295.191l-.441 1.151-.593-6.785c-.014-.148-.144-.26-.31-.262h-.002c-.159 0-.295.108-.311.255l-.651 5.532h-3.529c-.172 0-.312.126-.312.286 0 .157.14.287.312.287h3.81c.162 0 .295-.111.311-.256l.324-2.758.447 5.098c.013.136.124.242.27.263l.042.001a.32.32 0 00.297-.192l.856-2.239h2.611c.172 0 .31-.128.31-.286 0-.158-.139-.286-.311-.286z" fill="#1E4889"/><path d="M253.946 160.534h-2.832a.324.324 0 00-.297.191l-.438 1.155-.597-6.788c-.011-.148-.145-.261-.305-.263a.285.285 0 00-.314.256l-.653 5.531h-3.527c-.174 0-.313.126-.313.287 0 .156.14.286.313.286h3.808c.158 0 .295-.111.31-.256l.327-2.756.445 5.097c.011.135.124.241.272.262l.039.002a.318.318 0 00.296-.192l.858-2.24h2.609c.175 0 .313-.127.313-.286-.001-.158-.139-.286-.314-.286z" fill="#1E4889"/><path d="M262.912 160.535h-2.834a.312.312 0 00-.293.191l-.441 1.151-.595-6.785c-.011-.148-.146-.26-.307-.262h-.003c-.161 0-.297.108-.31.255l-.654 5.532h-3.529c-.173 0-.31.126-.31.286 0 .157.138.287.31.287h3.81c.16 0 .294-.111.311-.256l.325-2.756.444 5.096c.014.136.126.242.272.263l.04.001a.309.309 0 00.294-.192l.858-2.239h2.611c.176 0 .315-.128.315-.286.001-.158-.139-.286-.314-.286z" fill="#1E4889"/><path d="M271.877 160.534h-2.833a.32.32 0 00-.297.191l-.442 1.151-.59-6.784c-.017-.15-.182-.278-.311-.263-.161 0-.295.108-.313.256l-.651 5.531h-3.528c-.172 0-.311.126-.311.287 0 .156.14.286.311.286h3.81c.159 0 .297-.111.31-.256l.326-2.757.444 5.098c.011.135.125.241.272.262l.042.002a.313.313 0 00.294-.192l.859-2.24h2.61c.174 0 .311-.127.311-.286-.001-.158-.138-.286-.313-.286zM271.877 165.746h-3.807c-.161 0-.295.11-.312.256l-.327 2.755-.443-5.097c-.013-.137-.125-.243-.274-.262h-.04c-.132 0-.251.075-.291.19l-.86 2.239h-2.61c-.175 0-.312.128-.312.287 0 .158.138.286.312.286h2.835a.313.313 0 00.293-.191l.441-1.149.595 6.785c.012.146.144.259.307.26h.003c.161 0 .297-.107.313-.255l.652-5.53h3.526c.174 0 .311-.126.311-.286 0-.158-.137-.288-.312-.288z" fill="#1E4889"/><path d="M262.912 165.746h-3.81c-.159 0-.294.11-.309.256l-.324 2.755-.447-5.097c-.009-.137-.123-.243-.271-.262h-.039a.316.316 0 00-.297.19l-.856 2.239h-2.613c-.173 0-.31.128-.31.287 0 .158.138.286.31.286h2.837c.132 0 .25-.078.293-.191l.442-1.149.592 6.785c.013.146.147.259.308.26h.004c.158 0 .295-.107.313-.255l.65-5.53h3.527c.173 0 .314-.126.314-.286.001-.158-.141-.288-.314-.288z" fill="#1E4889"/><path d="M253.946 165.746h-3.808c-.16 0-.294.11-.311.256l-.323 2.754-.448-5.096c-.009-.137-.123-.243-.273-.262h-.037a.316.316 0 00-.297.19l-.858 2.239h-2.611c-.171 0-.31.128-.31.287 0 .158.14.286.31.286h2.835a.316.316 0 00.295-.191l.442-1.153.595 6.788c.012.147.147.259.306.261a.284.284 0 00.314-.256l.653-5.53h3.526c.175 0 .313-.126.313-.286 0-.157-.138-.287-.313-.287z" fill="#1E4889"/><path d="M244.981 165.746h-3.806c-.162 0-.295.11-.312.256l-.322 2.754-.449-5.096c-.012-.137-.125-.243-.273-.262h-.039a.311.311 0 00-.295.19l-.856 2.239h-2.611c-.175 0-.311.128-.311.287 0 .158.137.286.311.286h2.834a.314.314 0 00.294-.191l.441-1.149.592 6.785c.016.146.147.259.309.26h.003c.161 0 .295-.107.31-.255l.651-5.53h3.528c.175 0 .313-.126.313-.286.001-.158-.138-.288-.312-.288z" fill="#1E4889"/><path d="M236.018 165.746h-3.808c-.161 0-.298.11-.313.256l-.324 2.755-.447-5.097c-.009-.137-.124-.243-.27-.262h-.042a.309.309 0 00-.293.19l-.858 2.239h-2.61c-.175 0-.313.128-.313.287 0 .158.139.286.313.286h2.833c.133 0 .25-.078.295-.191l.442-1.149.593 6.785c.011.149.179.277.31.26.16 0 .297-.107.311-.255l.653-5.53h3.527c.173 0 .311-.126.311-.286.001-.158-.138-.288-.31-.288zM270.57 152.664l-.328 2.755-.443-5.098c-.013-.135-.127-.242-.274-.262l-.04-.001a.311.311 0 00-.294.191l-.857 2.239h-2.61c-.175 0-.313.128-.313.287 0 .158.139.286.313.286h2.833a.314.314 0 00.294-.191l.44-1.15.598 6.786c.011.146.143.258.304.26h.005c.161 0 .296-.108.313-.255l.653-5.531h2.54v-.572h-2.824c-.158 0-.296.109-.31.256z" fill="#1E4889"/><path d="M265.725 152.408h-3.809c-.163 0-.295.109-.313.255l-.322 2.755-.445-5.098a.303.303 0 00-.274-.26c-.016 0-.028-.003-.039-.003a.314.314 0 00-.296.191l-.858 2.239h-2.613c-.171 0-.31.128-.31.287 0 .158.14.286.31.286h2.837a.316.316 0 00.296-.191l.438-1.15.596 6.786c.011.146.145.258.309.26h.003c.158 0 .293-.108.308-.255l.652-5.531h3.529c.173 0 .314-.127.314-.285 0-.157-.141-.286-.313-.286z" fill="#1E4889"/><path d="M256.757 152.408h-3.807c-.16 0-.295.109-.31.255l-.325 2.754-.447-5.097c-.011-.134-.124-.242-.273-.26-.013 0-.025-.003-.038-.003a.323.323 0 00-.299.191l-.857 2.239h-2.61c-.174 0-.312.128-.312.287 0 .158.139.286.312.286h2.833a.317.317 0 00.297-.191l.44-1.152.593 6.788c.013.146.148.258.308.26a.288.288 0 00.316-.255l.652-5.531h3.525c.175 0 .314-.127.314-.285.003-.157-.137-.286-.312-.286z" fill="#1E4889"/><path d="M247.793 152.408h-3.808c-.16 0-.295.109-.314.255l-.322 2.754-.447-5.097c-.01-.134-.125-.242-.271-.26-.013 0-.025-.003-.041-.003a.31.31 0 00-.293.191l-.858 2.239h-2.61c-.175 0-.312.128-.312.287 0 .158.137.286.312.286h2.835a.313.313 0 00.292-.191l.441-1.15.593 6.786c.014.146.147.258.309.26h.003c.16 0 .296-.108.312-.255l.651-5.531h3.527c.175 0 .314-.127.314-.285.001-.157-.139-.286-.313-.286z" fill="#1E4889"/><path d="M238.829 152.408h-3.81c-.161 0-.294.109-.309.255l-.326 2.755-.445-5.098a.301.301 0 00-.272-.26c-.016 0-.03-.003-.042-.003a.318.318 0 00-.295.191l-.856 2.239h-2.61c-.176 0-.311.128-.311.287 0 .158.136.286.311.286h2.836c.13 0 .247-.078.292-.191l.441-1.15.596 6.786c.011.148.178.276.308.26.16 0 .295-.108.311-.255l.653-5.531h3.528c.172 0 .312-.127.312-.285 0-.157-.14-.286-.312-.286z" fill="#1E4889"/><path d="M300.479 248.778c4.29 0 7.767-9.359 7.767-20.904 0-11.544-3.477-20.903-7.767-20.903-4.289 0-7.767 9.359-7.767 20.903 0 11.545 3.478 20.904 7.767 20.904z" fill="#0D2945"/><path d="M288.144 195.639h-67.521c-1.661 0-3.007 1.232-3.007 2.751 0 1.523 1.346 2.757 3.007 2.757h67.521c1.663 0 3.009-1.234 3.009-2.757.001-1.519-1.346-2.751-3.009-2.751z" fill="url(#paint12_linear)"/><path d="M217.629 198.267c-.002.045-.013.08-.013.123 0 1.523 1.346 2.756 3.007 2.756h67.521c1.663 0 3.009-1.233 3.009-2.756 0-.043-.011-.078-.011-.123h-73.513zM305.404 246.25h-9.711v4.056h9.711v-4.056zM305.404 205.431h-9.711v4.057h9.711v-4.057z" fill="#6193E6"/><path d="M287.151 145.89h-8.973c-.664 0-1.199.493-1.199 1.099 0 .607.535 1.099 1.199 1.099h8.973c.664 0 1.201-.492 1.201-1.099 0-.606-.537-1.099-1.201-1.099z" fill="#1E4889"/><path d="M287.151 148.96h-8.973c-.664 0-1.199.491-1.199 1.098 0 .608.535 1.099 1.199 1.099h8.973c.664 0 1.201-.491 1.201-1.099 0-.606-.537-1.098-1.201-1.098z" fill="#fff"/><path d="M280.904 163.09h-2.726c-.664 0-1.199.493-1.199 1.099 0 .607.535 1.099 1.199 1.099h2.726c.664 0 1.2-.492 1.2-1.099 0-.606-.537-1.099-1.2-1.099zM287.077 163.09h-2.73c-.662 0-1.198.493-1.198 1.099 0 .607.536 1.099 1.198 1.099h2.73c.662 0 1.198-.492 1.198-1.099 0-.606-.536-1.099-1.198-1.099z" fill="#0D2945"/><path d="M287.151 166.16h-8.973c-.664 0-1.199.491-1.199 1.097 0 .607.535 1.099 1.199 1.099h8.973c.664 0 1.201-.492 1.201-1.099 0-.606-.537-1.097-1.201-1.097zM280.28 155.196c.658 0 1.191-.489 1.191-1.092 0-.602-.533-1.091-1.191-1.091s-1.192.489-1.192 1.091c0 .603.534 1.092 1.192 1.092z" fill="#81AAF8"/><path d="M284.521 155.196c.658 0 1.191-.489 1.191-1.092 0-.602-.533-1.091-1.191-1.091s-1.192.489-1.192 1.091c0 .603.534 1.092 1.192 1.092z" fill="#D4E1F3"/><path d="M284.521 158.767c.658 0 1.191-.489 1.191-1.091 0-.603-.533-1.092-1.191-1.092s-1.192.489-1.192 1.092c0 .602.534 1.091 1.192 1.091z" fill="#81AAF8"/><path d="M280.28 158.767c.658 0 1.191-.489 1.191-1.091 0-.603-.533-1.092-1.191-1.092s-1.192.489-1.192 1.092c0 .602.534 1.091 1.192 1.091z" fill="#D4E1F3"/><path d="M221.768 235.906l11.299 10.988 2.178-1.974-11.302-10.986-2.175 1.972z" fill="#0D2945"/><path d="M233.392 245.2c-1.378 1.251-1.975 2.744-1.334 3.337.638.594 2.277.066 3.656-1.183 1.376-1.248 1.978-2.741 1.333-3.335-.638-.596-2.276-.064-3.655 1.181z" fill="#0D2945"/><path d="M233.392 245.201c-1.378 1.245-1.975 2.74-1.334 3.332l4.986-4.517c-.639-.589-2.273-.061-3.652 1.185z" fill="#1F4FB6"/><path d="M200.11 314.693l-45.41-4.778h-48.102l-63.167 6.689c-1.686 0-3.055 1.254-3.055 2.799v10.974c0 1.541 1.369 2.798 3.055 2.798H200.11c1.687 0 3.059-1.257 3.059-2.798v-12.885c0-1.547-1.372-2.799-3.059-2.799z" fill="#fff"/><path d="M21.995 212.143l.63 2.742 16.204-2.747-.63-2.743-16.204 2.748z" fill="#0D2945"/><path d="M21.032 210.475c-.892.172-1.293 1.72-.893 3.456.398 1.738 1.447 3.008 2.336 2.836.894-.172 1.294-1.718.897-3.457-.4-1.738-1.447-3.006-2.34-2.835z" fill="#0D2945"/><path d="M21.037 210.475l1.442 6.29c.891-.175 1.291-1.719.894-3.456-.4-1.736-1.444-3.002-2.336-2.834z" fill="#1F4FB6"/><path d="M200.11 229.924H72.642c-1.688 0-3.057 1.253-3.057 2.798v1.418c0 1.545 1.369 2.801 3.057 2.801l33.956 6.689H154.7l45.41-4.779c1.687 0 3.058-1.254 3.058-2.799v-3.33c0-1.545-1.371-2.798-3.058-2.798zM292.131 234.59l-22.677-1.088-32.133-1.543-30.327-1.454c-1.129-.057-2.095.737-2.152 1.771l-.241 4.129c-.057 1.036.811 1.918 1.939 1.97l85.32.903c1.13.054 2.095-.74 2.154-1.774l.052-.945c.06-1.035-.806-1.914-1.935-1.969z" fill="#fff"/><path d="M45.647 213.019L28.01 201.371 9.59 189.204c-.915-.607-2.191-.416-2.853.424l-.606.769c-.66.839-.454 2.01.464 2.614l58.647 42.672c.917.605 2.198.416 2.857-.424l2.641-3.355c.662-.838.455-2.011-.464-2.615l-24.63-16.27z" fill="#fff"/><path d="M40.376 330.376c0 1.541 1.368 2.798 3.055 2.798H200.11c1.687 0 3.058-1.257 3.058-2.798V319.8H40.375v10.576zM154.699 267.514h-48.101v42.4h48.101v-42.4z" fill="#B7CCE7"/><path d="M154.379 277.801h-11.435c-1.004 0-1.817.746-1.817 1.667v18.495c0 .92.813 1.665 1.817 1.665h11.435c1.005 0 1.819-.745 1.819-1.665v-18.495c.001-.921-.814-1.667-1.819-1.667z" fill="#E5E5E5"/><path d="M155.681 260.693h-50.527c-.826 0-1.495.618-1.495 1.382v4.123c0 .76.669 1.381 1.495 1.381h50.527c.826 0 1.494-.621 1.494-1.381v-4.123c0-.764-.668-1.382-1.494-1.382z" fill="#6193E6"/><path d="M71 221.307v7.945h132.073l98.184 5.527v-7.945l-98.184-5.527H71z" fill="#0D2945"/><path d="M300.46 224.98l-94.653-4.543c-.83-.04-1.54.546-1.584 1.304l-.454 7.936c-.044.761.594 1.41 1.425 1.449l94.654 4.543c.828.041 1.536-.545 1.581-1.306l.454-7.933c.042-.759-.594-1.409-1.423-1.45z" fill="url(#paint13_linear)"/><path d="M199.949 219.925H71.614c-.834 0-1.507.62-1.507 1.382v7.944c0 .762.673 1.38 1.507 1.38h128.335c.831 0 1.505-.618 1.505-1.38v-7.944c0-.762-.674-1.382-1.505-1.382z" fill="url(#paint14_linear)"/><path d="M7.461 175.471c-.673-.446-1.615-.304-2.102.312l-5.075 6.446c-.486.618-.335 1.478.342 1.925l69.938 46.196c.675.448 1.616.309 2.1-.311l5.074-6.443c.489-.62.336-1.482-.339-1.926L7.461 175.471z" fill="url(#paint15_linear)"/><path d="M105.168 260.693h50.965l1.042-1.676h-53.052l1.045 1.676z" fill="#0D2945"/><path d="M105.168 257.341l-1.045 1.676h53.052l-1.042-1.676h-50.965z" fill="#1E4889"/><path d="M105.168 257.341h50.965l1.042-1.679h-53.052l1.045 1.679z" fill="#0D2945"/><path d="M105.168 253.985l-1.045 1.677h53.052l-1.042-1.677h-50.965z" fill="#1E4889"/><path d="M105.168 253.985h50.965l1.042-1.678h-53.052l1.045 1.678z" fill="#0D2945"/><path d="M105.168 250.632l-1.045 1.675h53.052l-1.042-1.675h-50.965z" fill="#1E4889"/><path d="M105.168 250.632h50.965l1.042-1.677h-53.052l1.045 1.677z" fill="#0D2945"/><path d="M105.168 247.28l-1.045 1.674h53.052l-1.042-1.674h-50.965z" fill="#1E4889"/><path d="M105.168 247.281h50.965l1.042-1.679h-53.052l1.045 1.679z" fill="#0D2945"/><path d="M105.168 243.924l-1.045 1.677h53.052l-1.042-1.677h-50.965zM60.63 333.174H43.43v3.903H60.63v-3.903zM198.594 333.174h-17.195v3.903h17.195v-3.903z" fill="#1E4889"/><path d="M338.605 120.83c-.604-.167-3.453-1.107-3.993-1.402-2.82-1.549.941-4.358 1.968-5.873 2.375-3.51 1.602-7.401-1.413-10.54-2.934-3.06-6.339-3.726-7.982-7.778-2.453-6.056 2.695-9.245-.37-15.222-1.345-2.626-5.116-3.034-7.296-4.557-1.364-.955-1.96-3.184-2.924-4.475-3.489-4.663-10.949-5.79-16.56-4.288-3.588.96-5.721 4.938-9.781 4.506-2.629-.278-5.954.003-7.233 2.486-.986 1.908-.009 3.886-.354 5.856-.333 1.881-1.358 3.625-2.924 4.885-2.377 1.914-5.6 1.93-7.52 4.453-1.004 1.317-1.564 2.886-1.844 4.473-.486 2.75-.143 5.615.954 8.212 1.037 2.464 2.71 4.649 3.465 7.227 1.155 3.939-2.523 7.512-3.08 11.321-2.274 15.603 8.658 28.137 22.006 34.303 9 4.158 24.917 3.734 34.72 1.349 12.231-2.974 25.987-11.981 20.956-25.129-1.968-5.144-5.214-8.263-10.795-9.807z" fill="#32187C"/><path d="M253.468 161.804c9.998 6.589 41.362 6.036 41.362 6.036l-.794-.628h-.028l-4.285-3.319s-5.053-2.39-9.721-4.705v-.027a88.703 88.703 0 01-2.94-1.459c-2.169-1.106-3.956-2.086-4.644-2.565-1.042-.754.965-3.975 3.489-7.27.385-.528.797-1.055 1.24-1.559 2.661-3.346 5.408-6.34 5.408-6.34l-5.494-3.621-11.81-7.8c.001 0-21.809 26.667-11.783 33.257z" fill="#FF505C"/><path d="M260.033 129.981c2.553 6.338 5.878 11.47 9.749 15.093.193-.378.413-.754.634-1.131.795-1.335 2.772-.151 2.362 1.156.245.101.466.253.63.528.055.101.11.202.164.278.412.025.879.176 1.1.452.414.478.852.982 1.235 1.511-.275.375-.55.729-.821 1.106 2.55 1.382 5.272 2.139 8.072 2.24.576-1.838 1.512-3.901 2.583-6.014.467-.931.989-1.887 1.481-2.843 3.325-6.212 7.004-12.552 5.794-16.049-1.537-4.503 6.128-27.696-3.046-23.974-2.446 1.007-5.11 2.242-7.773 3.798-1.044.605-2.087 1.21-3.161 1.938-7.852 5.081-15.489 12.454-19.003 21.911z" fill="#EEFAFB"/><path d="M290.384 104.553c-.987.806-1.976 1.661-2.966 2.515-8.407 8.478-15.96 19.874-9.338 30.941-.908.654 2.349 4.692 1.497 5.348-3.705-3.725-12.683-12.155-12.11-20.006.54-7.405 17.563-18.774 18.088-19.277 1.288-.226 3.896-.603 5.13-.73.194.378.14.831-.301 1.209z" fill="#B9DAE1"/><path d="M268.575 153.629c.877 3.044 3.68 4.201 6.729 4.955.961.227 1.595-.252 1.758-.881-2.169-1.106-3.956-2.086-4.644-2.566-.933-.677.553-3.269 2.668-6.162-1.87-.981-3.653-2.29-5.304-3.9-1.426 2.717-2.112 5.435-1.207 8.554z" fill="#FC3C4C"/><path d="M272.964 358.501l-10.442-1.223s.093-10.57-.038-19.568c-.129-8.998-.595-64.874-.595-64.874.363-19.218 24.451-26.698 24.451-26.698l16.955 20.593s-14.776 9.467-14.771 10.297c.009 1.353.037 2.814.073 4.397.119 6.416.022 14.655-3.484 25.138-2.04 6.174-6.563 26.24-9.456 39.53-1.584 7.203-2.693 12.408-2.693 12.408z" fill="#FF505C"/><path d="M274.872 351.208s5.915 7.35 1.992 13.322c0 0-24.065.649-33.085-.427 0 0-5.802-7.192 1.878-8.225 7.679-1.031 16.894-3.685 16.894-3.685s6.875 4.7 12.321-.985z" fill="#B1A6FF"/><path d="M285.114 306.562c3.506-10.483 3.603-18.722 3.484-25.138-.987-.813-2.252-1.434-3.861-1.784-.498-.713-1.768-.848-2.284-.075-.38.278-.521.772-.406 1.24-2.483 9.667-2.923 19.372-3.047 29.277-.18 11.742-2.307 23.009-4.962 34.491-.251 1.034.742 1.665 1.62 1.52 2.893-13.29 7.416-33.356 9.456-39.531z" fill="#FC3C4C"/><path d="M326.027 359.08l-11.674-.47s-.813-10.535-1.689-19.486c-.876-8.95-11.533-56.227-11.533-56.227-1.31-19.174.691-50.718.691-50.718l16.439 19.129s11.764 24.423 11.84 25.247c.123 1.35.272 2.8.436 4.377.645 6.379 1.259 14.594-.892 25.32-1.247 6.318-3.469 26.674-4.852 40.148-.762 7.302 1.234 12.68 1.234 12.68z" fill="#FF505C"/><path d="M324.642 352.056s5.915 7.35 1.994 13.322c0 0-24.064.651-33.084-.425 0 0-5.802-7.195 1.874-8.224 7.679-1.033 18.467-3.813 18.467-3.813s5.307 4.828 10.749-.86z" fill="#B1A6FF"/><path d="M329.645 306.253c2.151-10.727 1.537-18.942.892-25.32-.925-.73-2.073-1.246-3.501-1.465-.488-.669-1.599-.699-1.988.112-.303.311-.381.811-.245 1.271-1.332 9.827-.892 19.53-.161 29.407.837 11.71-.049 23.105-1.381 34.757-.131 1.053.785 1.604 1.532 1.385 1.383-13.474 3.605-33.83 4.852-40.147z" fill="#FC3C4C"/><path d="M342.882 185.378c.906-.393-16.681-18.991-15.886-37.734.028-.476.054-.931.112-1.407.026-.354.051-.73.111-1.084.22-1.634.545-3.319.932-5.056 4.175-19.043 14.53-42.563-29.252-40.173 0 0-29.196 10.49-28.648 23.044.331 7.268 5.413 11.192 8.105 15.972 1.976 3.471 2.691 7.37-.576 13.307a134.005 134.005 0 01-2.034 3.573c-13.855 23.543-18.781 53.945-22.686 76.359-4.394 25.228-6.993 53.104-6.993 53.104 8.669 3.393 16.507 5.948 23.717 7.772 1.846.467 6.744-23.827 8.512-23.453 3.393.716 3.548 25.977 6.684 26.368 16.12 2.011 29.142-.11 42.218-4.556 9.006-3.044 16.607-4.245 16.607-4.245-16.011-43.192 1.761-66.573 1.761-86.447-.003-5.979-1.084-11.06-2.684-15.344z" fill="#EEFAFB"/><path d="M295.814 141.309c.461-2.629.658-21.579 10.105-29.806 4.304-3.744 14.662-11.52 20.196-6.899 8.863 7.399 3.775 27.991-.647 42.775-11.983 2.073-19.289 1.985-29.654-6.07z" fill="#B9DAE1"/><path d="M342.882 185.378c.905-.393-13.045-17.805-14.075-43.484-1.619-2.341-5.051-.312-6.893-2.526-1.069-1.282-5.049-5.257-3.978-3.974.164.176 2 5.785 2.139 5.986 2.253 6.365.603 12.755.962 19.27.328 5.738 24.527 40.073.851 80.523-4.398 7.52-3.901 16.429-1.813 24.858 1.21 4.83 3.159 9.457 5.246 14.009.577 1.257 1.104 9.964 1.875 11.375 9.006-3.044 16.607-4.246 16.607-4.246-16.011-43.191 1.761-66.573 1.761-86.446-.001-5.979-1.082-11.06-2.682-15.345z" fill="#B9DAE1"/><path d="M277.147 146.308c.355 5.105 1.231 9.232 2.635 12.425.053.153.137.303.22.428 2.469 5.332 6.397 7.9 11.615 8.05.825.025 1.65.025 2.419 0 4.367-.101 7.937-.855 11.041-2.19 8.844-3.721 13.706-11.82 20.736-21.23.083-.051-14.09-22.137-16.151-19.95-.768.782-1.838 1.612-3.046 2.491-3.624 2.593-7.64 9.083-10.492 13.611 0 .024-.031.024-.031.051-2.086 3.37-3.542 5.608-3.678 4.375-.193-1.735-.441-6.313-.69-11.772-.024-.052-.024-.101-.024-.177-.057-1.433-.112-2.919-.194-4.452-.163-4-.33-8.151-.438-11.849-.191-5.683-.275-10.263-.219-11.445.054-.705-.687-1.233-1.456-1.058-2.195.58-6.208 1.611-7.636 1.987-.303.075-.633.228-.687.528-2.362 11.949-3.653 21.962-4.009 30.215-.163 3.673-.137 6.992.085 9.962z" fill="#FF505C"/><path d="M288.105 134.484c.245 4.252.492 11.32 3.432 14.944 4.09 5.004 8.075-4.933 8.982-7.623.383-1.107-.854-1.837-1.76-1.611-.192-1.005-1.785-1.283-2.472-.428-.055.051-.11.128-.163.178 0 .024-.031.024-.031.051-2.086 3.37-3.542 5.608-3.678 4.375-.193-1.735-.441-6.313-.69-11.773-.024-.051-.024-.1-.024-.176-.165-1.71-.221-3.146-.221-3.622 0-.278 0-.555.028-.83-.164-4-.331-8.151-.439-11.849-.741-.1-1.647.303-1.785 1.106-.879 5.713-1.482 11.474-1.179 17.258z" fill="#FC3C4C"/><path d="M294.313 140.193c.458-2.628 4.044-20.053 13.492-28.28 4.3-3.744 14.662-11.519 20.194-6.9 8.865 7.401 3.775 27.993-.645 42.775-11.988 2.073-22.679.46-33.041-7.595z" fill="#EEFAFB"/><path d="M294.343 94.486v7.094s-2.083 3.499 0 3.88c4.579.84 11.185-5.702 11.185-5.702V90.24l-11.185 4.245z" fill="#FF505C"/><path d="M305.528 96.284v-5.415s-5.69 4.976-11.185 5.26c0 0 6.621 2.945 11.185.155z" fill="#FC3C4C"/><path d="M291.597 73.783s-4.12 7.652-5.15 14.78c-.732 5.06 9.386 11.74 17.624 4.61 8.241-7.126 5.95-18.026 5.95-18.026l-18.424-1.364z" fill="#FF505C"/><path d="M287.622 73.516c.561-.32 1.297-.339 1.831-.653 1.684-.99.986-1.46 1.957-2.438.842-.846 1.635-1.4 2.801-1.798 3.004-1.022 6.469-.623 9.496.047.953.211 1.081 1.02.719 1.641 2.997.548 6.257 3.162 7.536 4.94 2.537 3.536 2.859 9.451.278 13.062-2.026 2.835-5.839 5.152-7.883 1.399-1.563-2.87-1.306-5.543-1.056-8.613.091-1.13.127-2.081-.003-2.946-1.622-2.025-3.829-3.447-6.31-3.462-.626.573-1.157 1.432-1.739 2.005a9.094 9.094 0 01-3.117 1.992c-1.834.7-4.38.85-5.65-.847-1.146-1.524-.477-3.407 1.14-4.33z" fill="#32187C"/><path d="M302.499 81.88s3.314-1.414 3.974 1.023c.661 2.437-1.76 3.879-3.04 3.434-1.279-.447-1.709-3.434-.934-4.457zM278.378 102.828c.123-.152.237-.388.337-.646.085.194.168.389.252.583.15.328.289.665.465.985.884 1.636 2.21 3.089 4.06 3.846 2.651 1.088 5.557.251 6.837-1.965.338-.197.584-.546.522-.995a280.64 280.64 0 00-.905-6.262c-.199-1.3-.198-2.982-.973-4.144-.754-1.132-2.264-1.486-3.306-.84-1.181-.632-2.56-.447-3.438.565-1.412-.329-2.733.14-3.582 1.216-2.696-.324-3.476 3.319-3.741 5.429-.223 1.79 1.692 4.395 3.472 2.228z" fill="#FF505C"/><path d="M279.782 158.733c2.471 5.612 6.48 8.328 11.836 8.479 5.467.151 9.808-.63 13.46-2.19-.167-.374-.576-.628-1.154-.854-.138-.076-.303-.126-.466-.177 0-.049.025-.074.025-.15.054-.201-.109-.452-.329-.604-1.238-.803-2.524-.476-3.542-1.383-1.703-1.536-6.345-4.629-7.196-4.955-.603-.253-1.207-.226-1.813-.025-3.984 1.332-8.32 1.484-10.821 1.859z" fill="#FC3C4C"/><path d="M283.684 160.879s-8.647-3.953-10.975-5.617c-2.329-1.663-28.873-.061-18.967 6.668 5.396 3.665 16.039 6.084 29.168 3.665 3.887-.717.774-4.716.774-4.716z" fill="#FF505C"/><path d="M269.782 145.075c1.651 1.609 3.434 2.919 5.304 3.899.272-.376.546-.73.822-1.106-.383-.528-.822-1.032-1.236-1.511-.22-.275-.687-.427-1.099-.452-.055-.075-.109-.176-.164-.277a1.244 1.244 0 00-.631-.529c.41-1.306-1.566-2.49-2.362-1.156-.22.377-.44.753-.634 1.132z" fill="#EEFAFB"/><path d="M303.496 169.702c.07-.498-.191-.861-.613-1.172.751-.272 1.356-.661 1.488-1.226.193-.824-.362-1.218-1.218-1.574a3.653 3.653 0 00-.477-.158c.013-.05.04-.09.049-.147.032-.216-.118-.467-.341-.612-1.237-.815-2.871-.984-4.278-1.095-4.178-.331-6.018-1.322-7.13-2.277 1.302-.34 1.568-.489 2.493-.199.451.142 1.083.149 1.441-.185.422-.397.137-.797-.212-1.132-.604-.574-2.212-1.124-3.054-1.46-.6-.237-1.21-.23-1.811-.026-5.675 1.914-7.44 1.479-8.231 2.636-.505.74-1.34 4.584-.034 4.814.269.05 2.139 1.86 7.074 3.912 3.734 1.549 8.421 2.13 9.494.743 2.519.679 5.118.91 5.36-.842z" fill="#FF505C"/><path d="M287.253 181.05c1.388 0 2.513-1.031 2.513-2.302 0-1.271-1.125-2.301-2.513-2.301-1.387 0-2.512 1.03-2.512 2.301 0 1.271 1.125 2.302 2.512 2.302zM280.079 218.353c0 1.271 1.126 2.301 2.512 2.301 1.39 0 2.513-1.029 2.513-2.301 0-1.271-1.122-2.302-2.513-2.302-1.386 0-2.512 1.03-2.512 2.302zM281.615 198.245c0 1.27 1.126 2.302 2.516 2.302 1.384 0 2.513-1.031 2.513-2.302 0-1.272-1.128-2.302-2.513-2.302-1.39 0-2.516 1.03-2.516 2.302z" fill="#D3E7EC"/><path d="M294.941 68.388s17.307 5.389 21.274 6.596c0 0 1.745-3.495 2.013-6.957 0 0-10.109-6.96-18.859-6.96-.001 0-3.576 4.556-4.428 7.32z" fill="#B6E7F9"/><path d="M299.493 61.562s13.023 2.8 17.247 7.461c0 0-15.784-6.154-17.247-7.461z" fill="#71B9DE"/><path d="M196.075 194.952c-1.477-.029-3.046-.214-4.436-.652 1.489.7.884 1.468 2.323 2.406.667.206 3.71-.383 3.711-1.032.095-1.005-.783-.756-1.598-.722z" fill="url(#paint16_linear)"/><path d="M200.442 200.384c-.247-.2-3.767-3.038-5.482-4.135-1.438-.936-2.951-1.803-4.436-2.503-.088-.034-4.314 3.502-5.269 4.924 2.379 1.596 10.221 6 10.385 6.137 2.699 2.283 4.13 2.005 4.141 1.047.002-.232 2.344.728 2.574-.184 0 0 .863.092 1.189-.563.243-.494.094-1.781-.138-2.167-.362-.606-2.283-1.942-2.964-2.556z" fill="url(#paint17_linear)"/><path d="M155.948 159.743c-.361-.297-.856-.583-1.435-.816-2.561-1.021-6.786-.961-8.514 3.964-1.889 5.377 27.462 28.442 40.229 36.386.958-1.548 2.614-3.325 4.778-5.297-7.865-4.688-28.459-28.777-35.058-34.237z" fill="url(#paint18_linear)"/><path d="M154.978 115.576c-.347-1.328-17.09 1.887-19.607 3.386-5.807 3.461 5.211 35.833 11.275 46.671 2.303 4.115 14.14 7.606 11.589-6.737-2.078-11.693-1.347-35.994-3.257-43.32z" fill="url(#paint19_linear)"/><path d="M160.413 161.456c-.051-.9-1.692-17.408-2.012-25.946-.316-8.488-.616-16.505-1.614-20.33-.155-.595-.62-1.086-1.274-1.347-2.87-1.145-18.512 2.129-21.157 3.701-7.896 4.708 5.655 39.913 10.58 48.771 4.584 8.544 29.008 27.386 40.247 34.38l6.838-8.137c-4.56-2.715-28.996-28.521-31.608-31.092z" fill="url(#paint20_linear)"/><path d="M142.253 362.744c-1.017-1.102-2.26-2.81-2.26-2.81l-5.801 2.954s-.471.582-.171 2.265c0 0-.835 1.89.225 3.517.608.939 4.447 2.369 6.126 2.873 1.683.506 4.023.972 6.873.867 2.851-.104 6.343-1.469 6.343-2.993 0-3.014-9.379-4.549-11.335-6.673z" fill="#002CA7"/><path d="M141.667 359.765l-7.788 1.279s-.16 2.427.142 4.109c0 0 4.802.449 6.044-.176 2.196-1.109 2.188-2.232 2.188-2.232-1.475-1.698-.586-2.98-.586-2.98z" fill="#FF505C"/><path d="M117.485 189.19v33.405c2.724 1.967 9.432 31.855 14.344 63.37 5.689 36.512 1.211 75.204 1.211 75.204 2.837 2.866 8.477.055 8.555-.226 0 0 10.822-35.919 14.358-75.201 4.107-45.636.977-95.805.421-99.465-4.635 1.858-24.916 3.753-38.889 2.913zM98.33 362.423c-.919-1.17-2.012-2.961-2.012-2.961l-6.036 2.529s-.518.546-.362 2.243c0 0-.996 1.823-.078 3.521.527.98 4.054 2.145 5.863 3.304 1.448.931 3.926 1.258 6.777 1.36 2.85.099 6.452-1.012 6.58-2.528.256-3.003-8.964-5.211-10.733-7.468z" fill="#002CA7"/><path d="M97.555 359.234l-7.703.763s-.092 2.54.066 4.237c0 0 5.234 1.133 6.525.6 2.285-.949 1.886-2.411 1.886-2.411-1.322-1.797-.774-3.189-.774-3.189z" fill="#FF505C"/><path d="M89.78 187.1c-2.002 53.737 1.215 71.322 4.727 98.036 4.814 36.613-5.226 75.058-5.226 75.058 2.584 3.06 8.447.664 8.548.388 0 0 13.823-34.802 20.682-73.559 8.016-45.301 27.421-89.217 27.179-92.918-4.78 1.519-42.051-5.165-55.91-7.005z" fill="#164BCD"/><path d="M134.565 86.44c.071 3.6-2.406 13.298-3.995 14.994 2.291 6.866 13.89 8.196 15.221 4.457-1.273-4.336 1.72-11.775 1.845-12.497-2.91.06-12.197-6.193-13.071-6.953z" fill="#FF505C"/><path d="M146.832 74.956c-5.694-.308-9.719 3.795-10.052 8.958-.005.054-.347 5.364-.347 5.364-.251 3.895 5.911 10.376 9.662 9.86 8.869-1.224 11.685-15.826 11.495-17.504-.529-4.68-5.458-6.392-10.758-6.678z" fill="#FF505C"/><path d="M152.559 108.953c-1.713-1.2-6.768-3.062-6.768-3.062s-2.789 2.506-5.592 1.987c-4.084-.755-9.63-6.444-9.63-6.444s-9.19.772-12.16 1.491c-26.558 6.42-31.875 38.279-31.875 108.51 1.31.243 4.819.52 6.465.904l8.137-24.74-1.932 26.105c24.822 12.238 54.145 6.187 61.283-1.152-2.508-37.554-3.631-73.817-3.631-82.327 0-7.316 2.344-16.618-4.297-21.272z" fill="url(#paint21_linear)"/><path d="M115.312 125.754c2.299-5.145-12.763-9.669-16.106-1.121-4.354 11.137 8.117 38.441 16.643 51.123 5.837 8.685 29.842 22.094 29.842 22.094s-37.506-56.155-30.379-72.096zM140.2 107.877c-4.084-.755-9.63-6.444-9.63-6.444s-4.717.31-6.185.409c-3.239.22-5.975 1.082-5.975 1.082 8.351 13.342 26.443 22.512 26.443 22.512s5.83-9.062 7.497-16.614c-2.138-1.329-6.559-2.932-6.559-2.932s-2.788 2.506-5.591 1.987z" fill="#002CA7"/><path d="M135.703 66.04c-8.535 6.153-8.171 18.745-1.65 24.801 0 0 1.696-8.118 4.784-11.63 22.984 5.998 25.738.622 25.809-1.658.326-10.32-17.782-19.56-28.943-11.514z" fill="#000"/><path d="M136.082 81.757c-1.467.111-2.701 2.012-2.579 3.355.116 1.268 1.966 3.07 3.37 3.309.447-1.448 1.354-4.378 1.656-6.187-.836-.417-1.889-.521-2.447-.477z" fill="#FF505C"/><path d="M129.033 160.949c0-.911-.417-40.814-5.164-47.515-1.702-2.403-15.57.941-18.304 2.385-8.158 4.315 3.328 40.133 7.721 49.196 4.098 8.785 27.39 28.786 38.202 36.314l7.3-7.792c-4.394-2.934-22.168-28.536-29.755-32.588z" fill="url(#paint22_linear)"/><path fill-rule="evenodd" clip-rule="evenodd" d="M157.02 208.87c12.491 6.387 24.98 12.78 37.47 19.17 11.599-19.019 19.859-39.59 24.472-60.961-14.036-2.541-28.071-5.084-42.105-7.627-3.74 17.326-10.433 34.002-19.837 49.418z" fill="#E3F0F1"/><path d="M189.75 170.364a1.358 1.358 0 01-1.056.191l-8.817-1.95c-.692-.155-1.115-.789-.949-1.421.168-.632.86-1.022 1.553-.87l8.817 1.952c.69.154 1.115.792.947 1.423a1.163 1.163 0 01-.495.675zM211.795 175.247a1.392 1.392 0 01-1.056.193l-14.98-3.32c-.689-.151-1.114-.788-.947-1.421.166-.631.859-1.02 1.551-.868l14.979 3.318c.692.155 1.116.789.95 1.422a1.181 1.181 0 01-.497.676zM197.129 179.397c-.308.206-.71.283-1.106.181l-18.005-4.654c-.684-.176-1.081-.826-.889-1.453.194-.627.903-.989 1.587-.813l18.007 4.654c.682.175 1.081.827.888 1.452a1.171 1.171 0 01-.482.633zM209.68 182.644a1.377 1.377 0 01-1.103.179l-3.684-.95c-.685-.178-1.079-.829-.888-1.455.193-.626.905-.991 1.587-.813l3.681.952c.684.176 1.085.826.89 1.453a1.182 1.182 0 01-.483.634zM183.796 183.004a1.382 1.382 0 01-1.15.168l-6.745-2c-.675-.2-1.047-.863-.827-1.482.217-.622.945-.957 1.619-.76l6.743 2c.676.2 1.045.866.827 1.482a1.178 1.178 0 01-.467.592zM207.263 189.956a1.385 1.385 0 01-1.151.169l-17.938-5.316c-.677-.2-1.046-.864-.828-1.483.219-.622.943-.957 1.619-.759l17.938 5.315c.674.203 1.044.864.826 1.482a1.177 1.177 0 01-.466.592zM189.637 192.182a1.38 1.38 0 01-1.198.152l-14.908-4.993c-.668-.225-1.01-.9-.766-1.512.241-.608.98-.924 1.646-.701l14.911 4.996c.666.224 1.008.898.765 1.509a1.19 1.19 0 01-.45.549zM204.547 197.179a1.379 1.379 0 01-1.197.152l-9.853-3.3c-.667-.221-1.009-.899-.766-1.51.243-.611.982-.924 1.649-.7l9.851 3.299c.669.225 1.01.9.765 1.508-.09.229-.249.417-.449.551zM175.821 194.661a1.377 1.377 0 01-1.243.136l-3.675-1.375c-.656-.248-.97-.937-.7-1.54.271-.599 1.021-.887 1.677-.641l3.673 1.379c.656.247.97.935.701 1.537a1.18 1.18 0 01-.433.504zM201.533 204.301a1.4 1.4 0 01-1.245.139l-20.462-7.676c-.659-.244-.973-.933-.705-1.535.271-.599 1.022-.888 1.677-.641l20.465 7.672c.658.247.972.933.703 1.535-.093.21-.247.383-.433.506zM184.195 205.48c-.36.239-.85.3-1.286.119l-14.879-6.191c-.647-.268-.932-.964-.637-1.559.288-.588 1.053-.853 1.701-.584l14.878 6.19c.648.267.931.966.638 1.561a1.2 1.2 0 01-.415.464zM198.227 211.316a1.376 1.376 0 01-1.286.121l-6.842-2.846c-.646-.27-.933-.966-.638-1.558.289-.592 1.053-.854 1.701-.586l6.84 2.844c.647.27.934.967.641 1.559-.096.192-.242.35-.416.466zM172.957 208.278a1.379 1.379 0 01-1.332.099l-6.716-3.079c-.635-.29-.893-.997-.574-1.581.319-.579 1.09-.813 1.726-.524l6.717 3.08c.634.29.891.998.572 1.582a1.226 1.226 0 01-.393.423zM194.631 218.219a1.387 1.387 0 01-1.332.098l-14.955-6.859c-.635-.289-.892-.996-.575-1.578.315-.584 1.091-.82 1.725-.525l14.957 6.859c.636.289.891.999.574 1.578a1.225 1.225 0 01-.394.427z" fill="#B5D7DD"/><path d="M162.699 196.135c-1.473-.101-3.029-.363-4.392-.867 1.447.771.797 1.51 2.18 2.517.655.237 3.727-.203 3.766-.851.155-.997-.739-.791-1.554-.799z" fill="#FF505C"/><path d="M166.744 201.77c-.234-.21-3.586-3.215-5.235-4.394a37.356 37.356 0 00-4.283-2.716c-.086-.039-4.514 3.286-5.547 4.659 2.284 1.708 9.858 6.489 10.012 6.636 2.562 2.409 4.008 2.201 4.074 1.248.014-.234 2.299.837 2.581-.061 0 0 .857.135 1.22-.504.274-.481.198-1.774-.012-2.172-.323-.62-2.166-2.048-2.81-2.696z" fill="#FF505C"/><defs><linearGradient id="paint11_linear" x1="220.931" y1="183.615" x2="287.839" y2="183.615" gradientUnits="userSpaceOnUse"><stop stop-color="#132574"/><stop offset=".617" stop-color="#25369B"/><stop offset="1" stop-color="#2E3FAF"/></linearGradient><linearGradient id="paint0_linear" x1="49.862" y1="369.71" x2="358.29" y2="369.71" gradientUnits="userSpaceOnUse"><stop stop-color="#4F1EA2"/><stop offset=".517" stop-color="#324BB2"/><stop offset="1" stop-color="#1A71BF"/></linearGradient><linearGradient id="paint2_linear" x1="201.935" y1="208.307" x2="361.035" y2="208.307" gradientUnits="userSpaceOnUse"><stop stop-color="#4F1EA2"/><stop offset=".517" stop-color="#324BB2"/><stop offset="1" stop-color="#1A71BF"/></linearGradient><linearGradient id="paint3_linear" x1="200.212" y1="273.296" x2="362.758" y2="273.296" gradientUnits="userSpaceOnUse"><stop stop-color="#41DC9F"/><stop offset=".517" stop-color="#3BBACC"/><stop offset="1" stop-color="#369EF2"/></linearGradient><linearGradient id="paint4_linear" x1="200.212" y1="225.478" x2="362.758" y2="225.478" gradientUnits="userSpaceOnUse"><stop stop-color="#41DC9F"/><stop offset=".517" stop-color="#3BBACC"/><stop offset="1" stop-color="#369EF2"/></linearGradient><linearGradient id="paint5_linear" x1="200.212" y1="177.662" x2="362.758" y2="177.662" gradientUnits="userSpaceOnUse"><stop stop-color="#41DC9F"/><stop offset=".517" stop-color="#3BBACC"/><stop offset="1" stop-color="#369EF2"/></linearGradient><linearGradient id="paint6_linear" x1="200.212" y1="129.846" x2="362.758" y2="129.846" gradientUnits="userSpaceOnUse"><stop stop-color="#41DC9F"/><stop offset=".517" stop-color="#3BBACC"/><stop offset="1" stop-color="#369EF2"/></linearGradient><linearGradient id="paint7_linear" x1="261.845" y1="130.565" x2="266.66" y2="130.565" gradientUnits="userSpaceOnUse"><stop stop-color="#41DC9F"/><stop offset=".517" stop-color="#3BBACC"/><stop offset="1" stop-color="#369EF2"/></linearGradient><linearGradient id="paint8_linear" x1="200.617" y1="154.473" x2="263.518" y2="154.473" gradientUnits="userSpaceOnUse"><stop stop-color="#4F1EA2"/><stop offset=".517" stop-color="#324BB2"/><stop offset="1" stop-color="#1A71BF"/></linearGradient><linearGradient id="paint9_linear" x1="211.692" y1="316.499" x2="297.081" y2="316.499" gradientUnits="userSpaceOnUse"><stop stop-color="#132574"/><stop offset=".617" stop-color="#25369B"/><stop offset="1" stop-color="#2E3FAF"/></linearGradient><linearGradient id="paint10_linear" x1="286.229" y1="322.733" x2="288.619" y2="322.733" gradientUnits="userSpaceOnUse"><stop stop-color="#132574"/><stop offset=".617" stop-color="#25369B"/><stop offset="1" stop-color="#2E3FAF"/></linearGradient><linearGradient id="paint1_linear" x1="23.632" y1="155.531" x2="428.967" y2="155.531" gradientUnits="userSpaceOnUse"><stop stop-color="#B3CDFA"/><stop offset=".028" stop-color="#B7CFFA"/><stop offset=".262" stop-color="#D1E1FC"/><stop offset=".5" stop-color="#E5EEFE"/><stop offset=".744" stop-color="#F0F5FE"/><stop offset="1" stop-color="#F4F8FF"/></linearGradient><linearGradient id="paint12_linear" x1="217.617" y1="198.392" x2="291.153" y2="198.392" gradientUnits="userSpaceOnUse"><stop stop-color="#132574"/><stop offset=".617" stop-color="#25369B"/><stop offset="1" stop-color="#2E3FAF"/></linearGradient><linearGradient id="paint13_linear" x1="203.766" y1="228.052" x2="301.885" y2="228.052" gradientUnits="userSpaceOnUse"><stop stop-color="#132574"/><stop offset=".617" stop-color="#25369B"/><stop offset="1" stop-color="#2E3FAF"/></linearGradient><linearGradient id="paint14_linear" x1="70.108" y1="225.278" x2="201.454" y2="225.278" gradientUnits="userSpaceOnUse"><stop stop-color="#132574"/><stop offset=".617" stop-color="#25369B"/><stop offset="1" stop-color="#2E3FAF"/></linearGradient><linearGradient id="paint15_linear" x1="0" y1="202.911" x2="78.025" y2="202.911" gradientUnits="userSpaceOnUse"><stop stop-color="#132574"/><stop offset=".617" stop-color="#25369B"/><stop offset="1" stop-color="#2E3FAF"/></linearGradient><linearGradient id="paint16_linear" x1="191.639" y1="195.524" x2="197.68" y2="195.524" gradientUnits="userSpaceOnUse"><stop stop-color="#41DC9F"/><stop offset=".517" stop-color="#3BBACC"/><stop offset="1" stop-color="#369EF2"/></linearGradient><linearGradient id="paint17_linear" x1="185.255" y1="200.155" x2="203.668" y2="200.155" gradientUnits="userSpaceOnUse"><stop stop-color="#41DC9F"/><stop offset=".517" stop-color="#3BBACC"/><stop offset="1" stop-color="#369EF2"/></linearGradient><linearGradient id="paint18_linear" x1="145.911" y1="178.84" x2="191.006" y2="178.84" gradientUnits="userSpaceOnUse"><stop stop-color="#41DC9F"/><stop offset=".517" stop-color="#3BBACC"/><stop offset="1" stop-color="#369EF2"/></linearGradient><linearGradient id="paint19_linear" x1="133.731" y1="142.252" x2="158.594" y2="142.252" gradientUnits="userSpaceOnUse"><stop stop-color="#41DC9F"/><stop offset=".517" stop-color="#3BBACC"/><stop offset="1" stop-color="#369EF2"/></linearGradient><linearGradient id="paint20_linear" x1="131.938" y1="157.14" x2="192.021" y2="157.14" gradientUnits="userSpaceOnUse"><stop stop-color="#41DC9F"/><stop offset=".517" stop-color="#3BBACC"/><stop offset="1" stop-color="#369EF2"/></linearGradient><linearGradient id="paint21_linear" x1="86.534" y1="161.069" x2="160.487" y2="161.069" gradientUnits="userSpaceOnUse"><stop stop-color="#41DC9F"/><stop offset=".517" stop-color="#3BBACC"/><stop offset="1" stop-color="#369EF2"/></linearGradient><linearGradient id="paint22_linear" x1="102.712" y1="156.96" x2="158.789" y2="156.96" gradientUnits="userSpaceOnUse"><stop stop-color="#41DC9F"/><stop offset=".517" stop-color="#3BBACC"/><stop offset="1" stop-color="#369EF2"/></linearGradient></defs></svg>