<svg width="108" height="118" xmlns="http://www.w3.org/2000/svg"><g fill-rule="nonzero" fill="none"><path fill="#FFF" d="M0 0h108v118H0z"/><circle fill="#002CA7" cx="16.01" cy="1.01" r="1.01"/><circle fill="#002CA7" cx="26.108" cy="1.01" r="1.01"/><circle fill="#002CA7" cx="36.206" cy="1.01" r="1.01"/><circle fill="#002CA7" cx="46.304" cy="1.01" r="1.01"/><circle fill="#002CA7" cx="56.402" cy="1.01" r="1.01"/><circle fill="#002CA7" cx="66.5" cy="1.01" r="1.01"/><circle fill="#002CA7" cx="76.598" cy="1.01" r="1.01"/><circle fill="#002CA7" cx="86.696" cy="1.01" r="1.01"/><circle fill="#002CA7" cx="96.794" cy="1.01" r="1.01"/><circle fill="#002CA7" cx="106.892" cy="1.01" r="1.01"/><circle fill="#002CA7" cx="16.01" cy="11.108" r="1.01"/><circle fill="#002CA7" cx="26.108" cy="11.108" r="1.01"/><circle fill="#002CA7" cx="36.206" cy="11.108" r="1.01"/><circle fill="#002CA7" cx="46.304" cy="11.108" r="1.01"/><circle fill="#002CA7" cx="56.402" cy="11.108" r="1.01"/><circle fill="#002CA7" cx="66.5" cy="11.108" r="1.01"/><circle fill="#002CA7" cx="76.598" cy="11.108" r="1.01"/><circle fill="#002CA7" cx="86.696" cy="11.108" r="1.01"/><circle fill="#002CA7" cx="96.794" cy="11.108" r="1.01"/><circle fill="#002CA7" cx="106.892" cy="11.108" r="1.01"/><circle fill="#002CA7" cx="96.794" cy="21.206" r="1.01"/><circle fill="#002CA7" cx="106.892" cy="21.206" r="1.01"/><circle fill="#002CA7" cx="96.794" cy="31.304" r="1.01"/><circle fill="#002CA7" cx="106.892" cy="31.304" r="1.01"/><circle fill="#002CA7" cx="96.794" cy="41.402" r="1.01"/><circle fill="#002CA7" cx="106.892" cy="41.402" r="1.01"/><circle fill="#002CA7" cx="96.794" cy="51.5" r="1.01"/><circle fill="#002CA7" cx="106.892" cy="51.5" r="1.01"/><circle fill="#002CA7" cx="96.794" cy="61.598" r="1.01"/><circle fill="#002CA7" cx="106.892" cy="61.598" r="1.01"/><circle fill="#002CA7" cx="96.794" cy="71.696" r="1.01"/><circle fill="#002CA7" cx="106.892" cy="71.696" r="1.01"/><circle fill="#002CA7" cx="96.794" cy="81.794" r="1.01"/><circle fill="#002CA7" cx="106.892" cy="81.794" r="1.01"/><circle fill="#002CA7" cx="96.794" cy="91.892" r="1.01"/><circle fill="#002CA7" cx="106.892" cy="91.892" r="1.01"/><circle fill="#002CA7" cx="96.794" cy="101.99" r="1.01"/><circle fill="#002CA7" cx="106.892" cy="101.99" r="1.01"/></g></svg>