<svg width="428" height="392" fill="none" xmlns="http://www.w3.org/2000/svg"><path d="M318.394 354.372c-20.259.315-83.05 1.004-121.226-.876-70.792-3.489-128.195 6.946-89.988 16.086 10.677 2.554-19.33 20.381 55.547 22.226 65.726 1.618 132.398-7.391 164.678-11.353 32.28-3.965 47.049-9.865 53.909-12.531 6.033-2.344 7.901-14.646-62.92-13.552z" fill="url(#paint0_linear)"/><path d="M325.85 48.051c-97.035 4.376-115.578-4.715-144.845-33.899-34.389-34.293-97.787-1.439-108.634 47.022C46.673 175.998 122.114 266.09 233.617 280.62c120.267 15.668 186.459-55.047 193.667-125.329 6.422-62.605-30.603-110.433-101.434-107.238z" fill="url(#paint1_linear)"/><path d="M272.861 85.49v149.555h-3.183v3.657h3.183v68.212h112.376V85.49H272.861z" fill="#fff"/><path d="M289.308 172.217h-92.75v49.757h92.75v-49.757z" fill="#fff"/><path d="M272.162 220.24H150.143v85.78h122.019v-85.78z" fill="#fff"/><path d="M271.844 218.706H146.501v3.978h125.343v-3.978zM388.479 80.496H267.596v4.535h120.883v-4.535z" fill="#fff"/><path d="M220.516 184.304h-12.651v9.386h12.651v-9.386zM244.61 184.304h-12.648v9.386h12.648v-9.386zM268.706 184.304H256.06v9.386h12.646v-9.386zM220.516 201.819h-12.651v9.384h12.651v-9.384zM244.61 201.819h-12.648v9.384h12.648v-9.384zM268.706 201.819H256.06v9.384h12.646v-9.384z" fill="#94B4F8"/><path d="M207.865 193.113v-7.766h11.36v7.766h-1.302v-6.472h-8.752v6.472h-1.306zM232.306 193.113v-7.766h11.193v7.766h-1.284v-6.472h-8.624v6.472h-1.285zM256.597 193.199v-7.765h10.722v7.765h-1.228v-6.471h-8.265v6.471h-1.229zM208.231 210.826v-7.766h10.994v7.766h-1.259v-6.472h-8.473v6.472h-1.262zM232.306 210.826v-7.766h11.068v7.766h-1.269v-6.472h-8.528v6.472h-1.271zM256.312 210.826v-7.766h11.138v7.766h-1.276v-6.472h-8.585v6.472h-1.277z" fill="#7B98EE"/><path d="M217.723 229.535h-10.685v9.489h10.685v-9.489zM240.059 229.535h-10.687v9.489h10.687v-9.489zM262.58 229.535h-10.684v9.489h10.684v-9.489z" fill="#B6C9FF"/><path d="M379.88 160.167H276.332v14.864H379.88v-14.864z" fill="url(#paint2_linear)"/><path d="M377.963 179.736H276.332V194.6h101.631v-14.864z" fill="url(#paint3_linear)"/><path d="M380.186 199.306H276.971v14.865h103.215v-14.865z" fill="url(#paint4_linear)"/><path d="M377.963 219.747H276.971v14.865h100.992v-14.865z" fill="url(#paint5_linear)"/><path d="M293.306 248.08H192.03v14.864h101.276V248.08z" fill="url(#paint6_linear)"/><path d="M279.867 179.135h-2.26v15.466h2.26v-15.466zM279.867 199.062h-2.26v15.25h2.26v-15.25zM279.23 218.996h-2.259v15.61h2.259v-15.61zM279.567 239.057h-2.258v15.091h2.258v-15.091z" fill="#7B98EE"/><path d="M381.157 100.163H278.885v14.864h102.272v-14.864z" fill="url(#paint7_linear)"/><path d="M381.157 120.171h-103.55v14.864h103.55v-14.864z" fill="url(#paint8_linear)"/><path d="M379.88 140.165H278.245v14.864H379.88v-14.864z" fill="url(#paint9_linear)"/><path d="M279.867 95.895h-2.26v43.102h2.26V95.895z" fill="#7B98EE"/><path d="M388.735 95.566H266.438v3.732h122.297v-3.732zM388.735 115.308H266.438v3.733h122.297v-3.733zM388.735 135.312H266.438v3.732h122.297v-3.732zM388.735 155.337H266.438v3.732h122.297v-3.732z" fill="#fff"/><path d="M385.508 85.49H273.315v2.793h112.193V85.49z" fill="#7B98EE"/><path d="M271.434 268.768H150.238v30.722h121.196v-30.722z" fill="#B6C9FF"/><path d="M347.649 267.888h-35.885v31.603h35.885v-31.603z" fill="#94B4F8"/><path d="M325.671 267.888h-16.753v1.921h16.753v-1.921z" fill="#7B98EE"/><path d="M315.186 267.888h-2.439v31.603h2.439v-31.603zM344.882 268.768h-15.993v1.041h15.993v-1.041z" fill="#7B98EE"/><path d="M346.798 268.407h-2.287v31.084h2.287v-31.084z" fill="#7B98EE"/><path d="M272.015 222.684h-57.282l4.504-3.418h52.778v3.418zM207.89 257.541h64.147v10.311h-77.235l13.088-10.311z" fill="#94B4F8"/><path d="M364.122 269.004h-68.79v2.069h68.79v-2.069z" fill="#7B98EE"/><path d="M227.592 267.542l-33.623 31.477h4.574l33.623-31.477h-4.574zM266.569 267.542l-33.622 31.477h4.572l33.623-31.477h-4.573zM237.336 267.542l-33.622 31.477h4.573l33.622-31.477h-4.573zM217.848 267.542l-33.622 31.477h4.573l33.622-31.477h-4.573zM271.899 271.674l-29.208 27.346h4.572l24.636-23.064v-4.282zM304.805 214.708l16.694-15.629h-4.572l-16.694 15.629h4.572zM343.781 214.708l16.694-15.629h-4.573l-16.693 15.629h4.572zM334.037 214.708l16.694-15.629h-4.571l-16.697 15.629h4.574zM304.805 194.684l16.694-15.63h-4.572l-16.694 15.63h4.572zM343.781 194.684l16.694-15.63h-4.573l-16.693 15.63h4.572zM334.037 194.684l16.694-15.63h-4.571l-16.697 15.63h4.574zM306.72 174.658l16.694-15.629h-4.572l-16.694 15.629h4.572zM345.695 174.658l16.697-15.629h-4.575l-16.695 15.629h4.573zM335.954 174.658l16.692-15.629h-4.572l-16.694 15.629h4.574zM306.72 155.074l16.694-15.63h-4.572l-16.694 15.63h4.572zM345.695 155.074l16.697-15.63h-4.575l-16.695 15.63h4.573zM335.954 155.074l16.692-15.63h-4.572l-16.694 15.63h4.574zM306.72 135.048l16.694-15.629h-4.572l-16.694 15.629h4.572zM345.695 135.048l16.697-15.629h-4.575l-16.695 15.629h4.573zM335.954 135.048l16.692-15.629h-4.572l-16.694 15.629h4.574zM306.72 115.023l16.694-15.629h-4.572l-16.694 15.629h4.572zM345.695 115.023l16.697-15.629h-4.575l-16.695 15.629h4.573zM335.954 115.023l16.692-15.629h-4.572l-16.694 15.629h4.574zM304.805 234.177l16.694-15.63h-4.572l-16.694 15.63h4.572zM343.781 234.177l16.694-15.63h-4.573l-16.693 15.63h4.572zM334.037 234.177l16.694-15.63h-4.571l-16.697 15.63h4.574zM304.805 254.989l16.694-15.63h-4.572l-16.694 15.63h4.572zM343.781 254.989l16.694-15.63h-4.573l-16.693 15.63h4.572zM334.037 254.989l16.694-15.63h-4.571l-16.697 15.63h4.574z" fill="#fff"/><path d="M272.234 269.083H149.415v2.46h122.819v-2.46z" fill="#7B98EE"/><path d="M235.502 267.605h-4.164v31.957h4.164v-31.957z" fill="#fff"/><path d="M380.823 160.307H276.687v1.795h104.136v-1.795zM380.186 180.339H276.048v1.796h104.138v-1.796zM380.823 200.102H276.687v1.795h104.136v-1.795zM378.272 219.424H276.597v1.795h101.675v-1.795zM381.46 239.623H277.325v1.796H381.46v-1.796z" fill="#7B98EE"/><path d="M382.739 100.76H278.601v1.796h104.138v-1.796z" fill="#002CA7"/><path d="M381.46 120.248H277.325v1.795H381.46v-1.795zM380.823 140.439H276.687v1.796h104.136v-1.796z" fill="#7B98EE"/><path d="M330.803 99.298h-3.781v15.728h3.781V99.298zM330.803 119.3h-3.781v15.728h3.781V119.3zM330.803 139.302h-3.781v15.727h3.781v-15.727zM330.803 159.305h-3.781v15.727h3.781v-15.727zM330.765 179.305h-3.78v15.727h3.78v-15.727zM330.967 199.306h-3.781v15.729h3.781v-15.729zM330.765 219.308h-3.78v15.728h3.78v-15.728zM330.765 239.309h-3.78v15.729h3.78v-15.729z" fill="#fff"/><path d="M207.816 239.017v-8.401h9.13v8.401h-.969v-7.365h-7.211v7.365h-.95zM230.526 239.017v-8.401h9.13v8.401h-.968v-7.365h-7.211v7.365h-.951zM253.235 239.017v-8.401h9.131v8.401h-.969v-7.365h-7.212v7.365h-.95zM279.867 139.178h-2.26v36.002h2.26v-36.002z" fill="#7B98EE"/><path d="M272.288 219.906h-76.552V171.88h77.129v1.537h-75.486v44.953h74.909v1.536z" fill="#002CA7"/><path d="M220.909 194.664h-14.29v-10.696h14.29v10.696zm-12.648-1.536h11.006v-7.623h-11.006v7.623zM220.909 212.291h-14.29v-10.697h14.29v10.697zm-12.648-1.535h11.006v-7.624h-11.006v7.624zM245.006 194.664h-14.291v-10.696h14.291v10.696zm-12.648-1.536h11.005v-7.623h-11.005v7.623zM245.006 212.291h-14.291v-10.697h14.291v10.697zm-12.648-1.535h11.005v-7.624h-11.005v7.624zM269.104 194.664h-14.293v-10.696h14.292v10.696h.001zm-12.65-1.536h11.006v-7.623h-11.006v7.623zM269.104 212.291h-14.293v-10.697h14.292v10.697h.001zm-12.65-1.535h11.006v-7.624h-11.006v7.624z" fill="#401737"/><path d="M273.106 307.961H135.947v-1.538h135.516v-66.884h1.643v68.422z" fill="url(#paint10_linear)"/><path d="M151.087 257.974h-1.641v-35.627h123.66v12.761h-1.643v-11.224H151.087v34.09z" fill="#401737"/><path d="M273.106 223.884H146.347v-5.515h126.759v5.515zm-125.117-1.538h123.474v-2.44H147.989v2.44z" fill="#002CA7"/><path d="M273.07 300.69H149.446v-33.176H273.07v33.176zm-121.983-1.536h120.344v-30.102H151.087v30.102z" fill="url(#paint11_linear)"/><path d="M273.07 269.051H137.765v-11.843H273.07v11.843zm-133.662-1.538h132.023v-8.769H139.408v8.769z" fill="#002CA7"/><path d="M263.965 240.223h-12.327v-11.026h12.327v11.026zm-10.686-1.536h9.042v-7.953h-9.042v7.953zM241.254 240.223h-12.325v-11.026h12.325v11.026zm-10.685-1.536h9.044v-7.953h-9.044v7.953zM218.544 240.223h-12.325v-11.026h12.325v11.026zm-10.684-1.536h9.043v-7.953h-9.043v7.953z" fill="#401737"/><path d="M385.447 307.968H271.43v-68.934h1.64v67.398h110.736v-67.398h1.641v68.934z" fill="#002CA7"/><path d="M273.07 219.137h-1.64v15.908h1.64v-15.908zM273.07 199.332h-1.64v15.987h1.64v-15.987zM273.07 179.722h-1.64v15.618h1.64v-15.618zM273.07 159.628h-1.64v16.1h1.64v-16.1zM273.07 139.692h-1.64v15.946h1.64v-15.946zM273.07 119.603h-1.64v16.096h1.64v-16.096zM273.07 99.992h-1.64v15.619h1.64V99.992z" fill="#401737"/><path d="M273.07 95.999h-1.64V84.693h114.017v11.304h-1.641v-9.766H273.07v9.768z" fill="#002CA7"/><path d="M389.328 86.232H266.803V80.16h122.525v6.072zm-120.883-1.537h119.243v-2.998H268.445v2.998z" fill="#002CA7"/><path d="M364.347 307.968h-70.43V267.55h70.43v40.418zm-68.787-1.536h67.147v-37.344H295.56v37.344z" fill="url(#paint12_linear)"/><path d="M378.659 269.052H278.602v-15.014h100.057v15.014zm-98.414-1.539h96.773v-11.938h-96.773v11.938z" fill="#002CA7"/><path d="M295.56 307.968h-7.417V267.55h7.417v40.418zm-5.776-1.536h4.134v-37.344h-4.134v37.344z" fill="url(#paint13_linear)"/><path d="M370.123 307.968h-7.416V267.55h7.416v40.418zm-5.776-1.536h4.134v-37.344h-4.134v37.344z" fill="#002CA7"/><path d="M305.1 307.968h-11.183V267.55H305.1v40.418zm-9.54-1.536h7.898v-37.344h-7.898v37.344z" fill="url(#paint14_linear)"/><path d="M364.347 307.968h-11.181V267.55h11.182v40.418h-.001zm-9.539-1.536h7.899v-37.344h-7.899v37.344z" fill="#002CA7"/><path d="M348.47 300.689h-37.606V267.55h37.606v33.139zm-35.966-1.536h34.323v-30.066h-34.323v30.066z" fill="url(#paint15_linear)"/><path d="M277.613 155.64h-1.641v-16.716h105.581v16.714h-1.642v-15.177H277.613v15.179zM381.553 255.575H275.972v-16.537h1.641v14.999h102.298v-14.999h1.642v16.537z" fill="#002CA7"/><path d="M277.613 218.943h-1.641v16.098h1.641v-16.098zM277.613 199.334h-1.641v15.618h1.641v-15.618zM277.613 179.722h-1.641v15.695h1.641v-15.695zM277.613 159.628h-1.641v15.908h1.641v-15.908z" fill="#401737"/><path d="M328.233 119.72h-1.643v15.808h1.643V119.72zM328.233 140.15h-1.643v15.809h1.643V140.15zM328.233 179.777h-1.643v15.809h1.643v-15.809zM328.233 160.016h-1.643v15.808h1.643v-15.808z" fill="#002CA7"/><path d="M328.233 199.236h-1.643v15.809h1.643v-15.809zM328.233 219.541h-1.643v15.808h1.643v-15.808z" fill="#401737"/><path d="M328.233 239.017h-1.643v15.808h1.643v-15.808zM328.233 99.897h-1.643v15.808h1.643V99.897zM331.888 119.72h-1.641v15.808h1.641V119.72zM331.888 140.15h-1.641v15.809h1.641V140.15zM331.888 179.777h-1.641v15.809h1.641v-15.809zM331.888 160.016h-1.641v15.808h1.641v-15.808z" fill="#002CA7"/><path d="M331.888 199.236h-1.641v15.809h1.641v-15.809zM331.888 219.541h-1.641v15.808h1.641v-15.808z" fill="#401737"/><path d="M331.888 239.017h-1.641v15.808h1.641v-15.808zM331.888 99.897h-1.641v15.808h1.641V99.897zM277.613 119.491h-1.641v16.211h1.641v-16.211zM277.613 99.988h-1.641v15.47h1.641v-15.47z" fill="#002CA7"/><path d="M390.408 160.398H266.47v-5.529h123.938v5.529zm-122.298-1.536h120.657v-2.456H268.11v2.456z" fill="url(#paint16_linear)"/><path d="M390.408 180.488H266.47v-5.529h123.938v5.529zm-122.298-1.536h120.657v-2.456H268.11v2.456z" fill="url(#paint17_linear)"/><path d="M390.408 200.099H266.47v-5.529h123.938v5.529zm-122.298-1.535h120.657v-2.456H268.11v2.456zM390.408 219.712H266.47v-5.53h123.938v5.53zm-122.298-1.537h120.657v-2.455H268.11v2.455zM390.408 239.802H266.47v-5.53h123.938v5.53zm-122.298-1.535h120.657v-2.456H268.11v2.456zM390.408 100.759H266.47v-5.53h123.938v5.53zM268.11 99.222h120.657v-2.455H268.11v2.455zM390.408 120.371H266.47v-5.53h123.938v5.53zm-122.298-1.538h120.657v-2.455H268.11v2.455zM390.408 140.46H266.47v-5.529h123.938v5.529zm-122.298-1.537h120.657v-2.454H268.11v2.454z" fill="#002CA7"/><path d="M312.236 264.202v-2.229h-2.896v2.229h-1.111v-5.512h1.111v2.325h2.896v-2.325h1.101v5.512h-1.101zM320.169 261.468c-.016 1.427-.951 2.851-3.019 2.851-2.069 0-3.029-1.392-3.029-2.841 0-1.449.993-2.905 3.029-2.905 2.027-.001 3.036 1.455 3.019 2.895zm-4.955.026c.025.905.549 1.873 1.936 1.873s1.909-.975 1.925-1.883c.018-.928-.538-1.968-1.925-1.968s-1.958 1.048-1.936 1.978zM232.373 268.037h-1.642v31.959h1.642v-31.959zM236.535 268.037h-1.643v31.959h1.643v-31.959zM330.487 268.447h-1.641v31.476h1.641v-31.476z" fill="#401737"/><path d="M176.04 195.639c-.398.751 2.329 3.211 3.131 3.361 2.034-.241 1.891-1.48 3.829-1.419-1.676-.309-3.382-1.012-4.899-1.844-.805-.512-1.544-1.315-2.061-.098z" fill="#FC3C4C"/><path d="M163.967 182.853a5.94 5.94 0 00.551-2.72l-96.832 35.606-4.773 10.25c-.03.061-.049.127-.076.19l97.683-35.92 3.447-7.406z" fill="url(#paint18_linear)"/><path d="M154.809 202.519l-68.036-27.768 1.032-2.217 68.038 27.769-1.034 2.216z" fill="url(#paint19_linear)"/><path d="M138.003 238.608l-68.037-27.767 1.033-2.216 68.037 27.769-1.033 2.214z" fill="url(#paint20_linear)"/><path d="M219.044 200.012c-.936 6.28 11.323 160.444 11.323 160.444.072.263 4.187 2.689 7.719.212 0 0 2.669-35.678 7.799-69.339 4.433-29.058 5.705-55.541 6.231-58.429 1.544-8.563 0-30.797 0-30.797-12.605.774-28.892-.376-33.072-2.091z" fill="#002CA7"/><path d="M171.284 197.718c.002.601 2.75 2.904 3.371 3.027 1.588-.123 1.205-.643 1.999-1.515a12.647 12.647 0 01-3.767-1.396c-.628-.359-1.604-.898-1.603-.116z" fill="#FC3C4C"/><path d="M174.681 199.764c-1.443.477-4.547 1.967-4.763 2.073-.616.345-2.198 1.028-2.65 1.399-.769.628-.651 1.349-.592 1.846.074.66.697.819.697.819-.051.855 1.799.672 1.747.876-.213.834.718 1.474 3.121.237.143-.073 6.613-1.724 8.634-2.454-.338-1.498-2.464-5.744-2.531-5.741-1.195.199-2.447.53-3.663.945z" fill="#FE5D89"/><path d="M224.311 138.879c-2.47 6.548-6.044 28.369-9.117 38.908-3.771 12.926 7.208 10.772 9.699 7.202 6.561-9.399 19.787-38.106 14.935-41.795-2.102-1.597-15.067-5.503-15.517-4.315z" fill="#FFAA69"/><path d="M222.59 138.352c-1.744 4.623-3.656 17.214-6.552 27.539 3.448 1.459 8.5 3.112 12.175 4.025 1.499.374 6.001 1.64 7.521 1.889 5.51-11.569 6.839-23.497 6.199-27.356-.991-5.964-18.894-7.283-19.343-6.097z" fill="#FFAA69"/><path d="M219.256 178.053c-.567.05-1.078.17-1.479.335-7.334 3.046-32.379 18.73-40.559 20.764 1.249 2.3 3.044 3.891 3.392 5.499 13.379-3.599 44.697-15.675 44.727-20.884.029-4.77-3.573-5.935-6.081-5.714z" fill="#FC3C4C"/><path d="M286.663 138.223c-.641-.182-3.676-1.205-4.25-1.526-3.005-1.687 1.002-4.743 2.095-6.395 2.528-3.819 1.707-8.057-1.505-11.473-3.124-3.332-6.752-4.056-8.502-8.469-2.612-6.592 2.871-10.064-.393-16.57-1.434-2.859-5.448-3.304-7.772-4.962-1.451-1.04-2.086-3.466-3.114-4.872-3.715-5.076-11.661-6.304-17.637-4.667-3.824 1.045-6.093 5.375-10.419 4.906-2.799-.303-6.341.002-7.703 2.706-1.049 2.077-.009 4.231-.377 6.375a8.852 8.852 0 01-3.111 5.318c-2.534 2.083-5.967 2.099-8.011 4.847-1.069 1.434-1.667 3.143-1.964 4.871-.518 2.993-.152 6.113 1.015 8.939 1.105 2.682 2.888 5.062 3.693 7.868 1.229 4.288-2.69 8.177-3.284 12.324-2.421 16.987 9.223 30.632 23.44 37.345 9.587 4.526 26.537 4.065 36.977 1.469 13.026-3.238 27.677-13.043 22.319-27.356-2.093-5.601-5.551-8.998-11.497-10.678z" fill="#002CA7"/><path d="M238.658 357.139c-.971.29-4.693.245-5.537.098-.04-.489.07-1.278-.27-1.969-.886-.218-2.582-1.332-3.498-1.422.344 1.673.819 10.34-.983 11.596-2.194 1.534-6.368 1.58-7.026 1.58-3.315 0-4.028 1.769-4.031 2.451 0 1.151.8 1.584 1.711 1.584 4.018 0 13.303-.04 16.099-.04 1.708 0 3.441.203 4.869-1.353.502-.549.543-1.537.221-2.422-.393-1.08-1.421-7.546-1.555-10.103z" fill="#000"/><path d="M272.703 287.701c1.676-11.514 1.649-79.953 1.141-83.362-4.18 1.715-28.32 1.99-40.924 1.217 0 0 3.213 16.841 6.732 33.916 3.065 14.889 6.902 30.447 8.872 43.364 5.13 33.661 19.841 76.388 19.841 76.388 3.531 1.884 7.825-1.083 7.897-1.343 0 0-4.968-60.489-3.559-70.18z" fill="#164BCD"/><path d="M275.997 356.077c-.947.343-4.666.504-5.518.405-.072-.488-.014-1.28-.393-1.953-.901-.168-2.665-1.186-3.585-1.228.449 1.65 1.466 10.279-.253 11.634-2.093 1.647-6.26 1.927-6.913 1.962-3.308.182-3.913 1.986-3.872 2.667.073 1.149.903 1.538 1.81 1.489 4.009-.221 13.276-.771 16.065-.925 1.706-.094 3.45.011 4.778-1.62.465-.576.444-1.565.068-2.428-.459-1.057-1.892-7.456-2.187-10.003z" fill="#000"/><path d="M251.103 113.421c-.882.606-10.021 5.354-12.628 4.984.021.676 1.777 7.838.088 11.687.727 3.581 11.325 3.608 14.246-2.459-1.213-1.728-2.224-10.912-1.706-14.212z" fill="#FC3C4C"/><path d="M249.24 108.964c-.51.016-1.444.224-2.146.694.491 1.631 1.663 4.231 2.238 5.517 1.234-.365 2.683-2.215 2.632-3.393-.052-1.247-1.394-2.867-2.724-2.818z" fill="#FC3C4C"/><path d="M258.124 128.951c-2.693-.571-5.412-1.935-5.412-1.935s-6.037 4.341-9.785 4.577c-2.572.164-4.391-2.131-4.391-2.131-9.707 2.434-17.623 6.178-17.629 15.998-.03 44.495-10.868 33.885-10.868 86.667 4.06 6.295 66.223 10.561 77.285 0 0 0-12.791-85.943-13.415-88.203-2.792-10.124-7.696-13.268-15.785-14.973z" fill="url(#paint21_linear)"/><path d="M242.54 101.05c-4.775-.308-9.401.73-10.459 4.954-.381 1.514.315 15.169 8.096 17.24 3.292.875 9.617-4.394 9.88-7.983 0 0 .355-4.892.36-4.944.345-4.754-2.743-8.939-7.877-9.267z" fill="#FC3C4C"/><path d="M334.248 178.802l-122.756-31.025c-3.768-.955-7.654 1.136-8.671 4.667l-20.169 69.941c-1.018 3.53 1.214 7.165 4.985 8.119l122.756 31.025c3.771.956 7.654-1.136 8.672-4.667l20.169-69.941c1.019-3.531-1.213-7.168-4.986-8.119z" fill="#CCC9CA"/><path d="M198.643 218.062c-.881 3.055 1.05 6.2 4.313 7.025 3.263.825 6.623-.984 7.505-4.038l2.265-7.855-11.818-2.987-2.265 7.855z" fill="#00D6D4"/><path d="M203.173 202.35l-2.266 7.855 11.818 2.987 2.266-7.856c.879-3.056-1.051-6.2-4.315-7.024-3.262-.824-6.622.983-7.503 4.038z" fill="#5F5BD3"/><path d="M204.525 218.688l3.605-12.505c.537-1.856-2.545-2.639-3.082-.78-1.201 4.17-2.403 8.337-3.606 12.508-.535 1.856 2.546 2.636 3.083.777z" fill="#fff"/><path d="M209.785 179.425c-.882 3.055 1.05 6.199 4.314 7.024 3.263.825 6.622-.984 7.502-4.038l2.267-7.855-11.816-2.987-2.267 7.856z" fill="#00D6D4"/><path d="M214.316 163.713l-2.265 7.855 11.816 2.987 2.267-7.857c.88-3.054-1.05-6.198-4.314-7.024-3.262-.824-6.624.984-7.504 4.039z" fill="#5F5BD3"/><path d="M215.667 180.05c1.203-4.167 2.404-8.335 3.606-12.504.536-1.856-2.546-2.639-3.083-.779-1.201 4.169-2.401 8.336-3.607 12.505-.532 1.857 2.549 2.64 3.084.778z" fill="#fff"/><path d="M222.922 224.198c-.882 3.054 1.049 6.199 4.313 7.024 3.261.825 6.621-.983 7.502-4.037l2.267-7.856-11.817-2.986-2.265 7.855z" fill="#00D6D4"/><path d="M227.451 208.487l-2.264 7.856 11.816 2.986 2.265-7.857c.88-3.054-1.05-6.198-4.314-7.023-3.262-.825-6.621.984-7.503 4.038z" fill="#5F5BD3"/><path d="M228.803 224.825l3.607-12.505c.535-1.857-2.546-2.639-3.083-.78l-3.607 12.506c-.535 1.858 2.547 2.639 3.083.779z" fill="#fff"/><path d="M234.063 185.563c-.88 3.054 1.05 6.2 4.312 7.024 3.263.824 6.623-.983 7.503-4.038l2.267-7.855-11.816-2.987-2.266 7.856z" fill="#00D6D4"/><path d="M238.594 169.851l-2.265 7.855 11.816 2.987 2.265-7.857c.881-3.054-1.049-6.198-4.312-7.024-3.264-.825-6.622.984-7.504 4.039z" fill="#5F5BD3"/><path d="M239.944 186.187l3.608-12.504c.535-1.856-2.548-2.64-3.083-.779l-3.607 12.504c-.534 1.858 2.547 2.64 3.082.779z" fill="#fff"/><path d="M247.198 230.334c-.882 3.054 1.051 6.199 4.313 7.024 3.264.826 6.623-.982 7.505-4.038l2.265-7.855-11.818-2.986-2.265 7.855z" fill="#00D6D4"/><path d="M251.73 214.624l-2.268 7.855 11.818 2.986 2.266-7.857c.88-3.054-1.051-6.198-4.316-7.024-3.26-.824-6.62.985-7.5 4.04z" fill="#5F5BD3"/><path d="M253.082 230.96c1.2-4.168 2.403-8.335 3.606-12.505.535-1.858-2.546-2.639-3.083-.778l-3.607 12.503c-.535 1.858 2.549 2.641 3.084.78z" fill="#fff"/><path d="M258.341 191.697c-.882 3.055 1.048 6.201 4.312 7.025 3.262.824 6.623-.983 7.503-4.038l2.266-7.856-11.816-2.986-2.265 7.855z" fill="#00D6D4"/><path d="M262.872 175.986l-2.267 7.855 11.817 2.987 2.265-7.857c.88-3.053-1.049-6.198-4.314-7.023-3.262-.824-6.621.984-7.501 4.038z" fill="#5F5BD3"/><path d="M264.224 192.324c1.2-4.168 2.402-8.337 3.606-12.505.532-1.856-2.549-2.639-3.082-.779-1.205 4.168-2.405 8.336-3.606 12.505-.538 1.857 2.544 2.639 3.082.779z" fill="#fff"/><path d="M271.475 236.469c-.88 3.054 1.052 6.198 4.314 7.024 3.264.825 6.621-.983 7.503-4.039l2.266-7.855-11.818-2.987-2.265 7.857z" fill="#00D6D4"/><path d="M276.006 220.756l-2.266 7.855 11.817 2.987 2.267-7.855c.88-3.055-1.053-6.2-4.314-7.024-3.264-.825-6.624.983-7.504 4.037z" fill="#5F5BD3"/><path d="M277.357 237.096l3.607-12.505c.537-1.858-2.546-2.639-3.084-.78l-3.605 12.505c-.536 1.857 2.545 2.64 3.082.78z" fill="#fff"/><path d="M282.619 197.832c-.882 3.055 1.048 6.199 4.312 7.024 3.264.825 6.621-.983 7.503-4.038l2.266-7.856-11.816-2.986-2.265 7.856z" fill="#00D6D4"/><path d="M287.149 182.119l-2.266 7.856 11.816 2.986 2.267-7.855c.882-3.055-1.051-6.2-4.312-7.024-3.264-.825-6.624.984-7.505 4.037z" fill="#5F5BD3"/><path d="M288.499 198.458c1.203-4.169 2.406-8.337 3.607-12.505.535-1.856-2.547-2.64-3.082-.779-1.203 4.168-2.406 8.336-3.607 12.504-.534 1.858 2.547 2.64 3.082.78z" fill="#fff"/><path d="M295.751 242.604c-.88 3.054 1.053 6.2 4.314 7.024 3.264.824 6.624-.983 7.504-4.038l2.265-7.855-11.815-2.987-2.268 7.856z" fill="#00D6D4"/><path d="M300.283 226.893l-2.264 7.855 11.815 2.987 2.267-7.855c.88-3.055-1.05-6.2-4.314-7.025-3.263-.825-6.62.984-7.504 4.038z" fill="#5F5BD3"/><path d="M301.636 243.232l3.606-12.505c.534-1.858-2.546-2.639-3.083-.779-1.202 4.168-2.404 8.335-3.605 12.505-.535 1.858 2.546 2.639 3.082.779z" fill="#fff"/><path d="M306.894 203.969c-.88 3.056 1.051 6.199 4.312 7.024 3.264.826 6.624-.984 7.506-4.037l2.265-7.856-11.816-2.988-2.267 7.857z" fill="#00D6D4"/><path d="M311.428 188.256l-2.267 7.856 11.816 2.988 2.266-7.857c.881-3.054-1.051-6.199-4.315-7.023-3.262-.827-6.621.982-7.5 4.036z" fill="#5F5BD3"/><path d="M312.778 204.596c1.202-4.17 2.403-8.338 3.606-12.506.535-1.856-2.546-2.64-3.084-.78l-3.604 12.506c-.536 1.857 2.547 2.639 3.082.78z" fill="#fff"/><path d="M325.039 220.852c-.154.532-.737.847-1.305.701l-126.138-31.879c-.567-.144-.903-.69-.75-1.222.154-.531.738-.845 1.306-.701l126.137 31.879c.566.143.903.69.75 1.222z" fill="#A5A4A4"/><path d="M190.1 192.235c-1.875.183-6.007 1.034-6.297 1.093-.829.22-2.984.514-3.556.853-.367.219-1.099 1.194-1.141 1.693-.056.66.668.94.668.94-.25.829 2.055 1.012 1.947 1.201-.45.778.548 1.587 3.767.846.194-.043 8.484-.397 11.122-.712-.077-1.536-1.729-6.116-1.814-6.126a35.703 35.703 0 00-4.696.212zM249.919 140.419c-3.663 6.038-9.701 27.727-14.712 37.591-6.145 12.102 5.064 11.796 8.192 8.694 8.229-8.168 26.656-34.24 22.577-38.672-1.769-1.922-15.39-8.708-16.057-7.613z" fill="#FC3C4C"/><path d="M249.978 138.862c-4.62 2.306-6.901 17.896-11.698 27.583 3.648 3.608 11.408 7.824 18.272 9.072 7.604-10.477 12.026-21.039 12.16-24.941.342-10.035-8.636-16.754-18.734-11.714z" fill="url(#paint22_linear)"/><path d="M239.812 178.634a5.29 5.29 0 00-1.522.071c-7.81 1.712-35.545 12.741-43.986 13.31.768 2.477 1.229 4.586 1.25 6.229 13.864-1.197 48.021-7.824 49.091-12.934.981-4.682-2.326-6.455-4.833-6.676z" fill="#FC3C4C"/><path d="M166.483 167.666l-60.379-24.642c-.927-.378-1.35-1.387-.946-2.253l9.257-19.881c.403-.865 1.481-1.263 2.408-.885l60.379 24.642c.926.377 1.348 1.388.945 2.255l-9.257 19.88c-.404.865-1.482 1.262-2.407.884z" fill="url(#paint23_linear)"/><path d="M161.517 171.709l-55.197-22.526 2.375-5.101 55.196 22.527-2.374 5.1z" fill="url(#paint24_linear)"/><path d="M106.466 143.17l2.229.91 10.719-23.018-2.229-.91-10.719 23.018z" fill="url(#paint25_linear)"/><path d="M112.846 145.774l2.23.91 10.718-23.018-2.228-.911-10.72 23.019z" fill="url(#paint26_linear)"/><path d="M119.227 148.38l2.23.909 10.719-23.019-2.23-.91-10.719 23.02z" fill="url(#paint27_linear)"/><path d="M125.607 150.983l2.23.91 10.719-23.019-2.23-.91-10.719 23.019z" fill="url(#paint28_linear)"/><path d="M131.988 153.586l2.229.911 10.72-23.018-2.229-.911-10.72 23.018z" fill="url(#paint29_linear)"/><path d="M138.369 156.191l2.231.91 10.718-23.018-2.23-.911-10.719 23.019z" fill="url(#paint30_linear)"/><path d="M144.75 158.795l2.229.91 10.72-23.019-2.229-.91-10.72 23.019z" fill="url(#paint31_linear)"/><path d="M151.13 161.4l2.229.909 10.72-23.018-2.229-.91-10.72 23.019z" fill="url(#paint32_linear)"/><path d="M157.511 164.003l2.229.911 10.72-23.019-2.229-.909-10.72 23.017z" fill="url(#paint33_linear)"/><path d="M174.611 143.588l-10.72 23.019 2.23.91 10.719-23.019-2.229-.91z" fill="url(#paint34_linear)"/><path d="M161.517 171.707l-55.197-22.526-6.768 2.591c-1.621.619-2.922 1.809-3.62 3.311l-33.018 70.904c-2.738 5.878.133 12.722 6.413 15.286l44.987 18.359c6.45 2.633 13.959-.129 16.771-6.167l32.882-70.615a5.93 5.93 0 00.128-4.739l-2.578-6.404z" fill="url(#paint35_linear)"/><path d="M91.743 164.076l-20.23 43.446 90.955-33.451-.951-2.362-42.908-17.511-26.865 9.878z" fill="url(#paint36_linear)"/><path d="M136.058 242.787l-68.036-27.766 21.564-46.312 68.038 27.769-21.566 46.309z" fill="url(#paint37_linear)"/><path d="M141.437 239.284c-.025-.317-.046-.483-.046-.483L32.841 181.93s-10.013 7.17-17.668 19.975C8.397 213.24 6.638 223.489 6.3 225.908c-.051.348-.07.543-.07.543l.198.102 108.353 56.768s9.944-3.564 19.254-19.142c7.701-12.878 7.572-22.524 7.406-24.836a.228.228 0 00-.004-.059zM13.038 223.138c-.038.065-.101.11-.15.163-.32.333-.843.446-1.28.215a.948.948 0 01-.476-1.135c.021-.066.032-.14.072-.203.286-.476.922-.644 1.43-.379.506.266.692.863.404 1.339zm6.93-11.598c-.04.07-.098.114-.15.169a1.08 1.08 0 01-1.279.211.945.945 0 01-.476-1.129c.025-.073.034-.142.074-.209.283-.473.923-.646 1.429-.379.508.265.687.863.402 1.337zm4.697 17.688c-.041.061-.104.11-.15.164a1.092 1.092 0 01-1.282.215.945.945 0 01-.474-1.136c.021-.067.032-.139.07-.202.285-.479.922-.646 1.433-.38.504.263.684.86.403 1.339zm2.235-29.276c-.04.064-.101.11-.149.164-.323.33-.846.44-1.282.213a.942.942 0 01-.472-1.133c.019-.07.03-.139.067-.207.285-.475.924-.645 1.432-.38.506.267.687.864.404 1.343zm74.768 24.191c.028-.07.033-.142.071-.208.283-.474.922-.642 1.431-.378.505.264.686.866.403 1.339-.041.064-.099.109-.148.164-.325.336-.843.44-1.281.212a.942.942 0 01-.476-1.129zm-11.626-6.093c.026-.07.034-.139.076-.209.28-.468.923-.638 1.428-.379.509.266.684.871.405 1.34-.042.068-.1.112-.154.169-.319.335-.84.443-1.275.211a.938.938 0 01-.48-1.132zm-11.62-6.086c.022-.073.032-.143.069-.209.285-.472.924-.647 1.43-.379.508.266.689.868.405 1.343-.036.065-.097.106-.149.163a1.088 1.088 0 01-1.279.213c-.439-.233-.615-.702-.475-1.131zm-11.626-6.095c.025-.066.032-.137.073-.202.282-.473.922-.643 1.428-.377.51.26.686.861.404 1.335-.04.067-.1.108-.152.167a1.077 1.077 0 01-1.275.211.942.942 0 01-.478-1.134zm-11.626-6.088c.025-.071.033-.14.075-.209.28-.467.923-.644 1.43-.377.508.265.686.869.404 1.338-.042.067-.098.114-.15.167-.324.337-.844.44-1.28.21a.936.936 0 01-.479-1.129zm-11.62-6.087c.02-.074.03-.142.069-.206.283-.474.923-.646 1.431-.377.505.26.684.864.401 1.333-.038.069-.097.11-.147.168a1.08 1.08 0 01-1.28.211.936.936 0 01-.474-1.129zM31.593 217.63c-.039.067-.098.111-.151.168-.323.334-.84.44-1.277.21a.938.938 0 01-.478-1.13c.026-.07.034-.142.074-.209.284-.473.924-.638 1.432-.375.505.26.684.864.4 1.336zm2.238-29.272c-.04.064-.1.106-.151.163-.323.336-.842.44-1.28.213a.94.94 0 01-.477-1.133c.026-.07.032-.139.074-.208.282-.472.922-.641 1.43-.378.507.264.684.868.404 1.343zm2.455 46.96c-.038.063-.098.109-.148.162a1.094 1.094 0 01-1.281.218.954.954 0 01-.477-1.135c.024-.073.034-.143.073-.207.286-.479.924-.643 1.43-.378.508.266.69.86.403 1.34zm.332-30.035c.022-.065.033-.139.071-.203.284-.477.924-.643 1.432-.377.505.263.684.862.4 1.337-.038.067-.098.109-.15.163-.32.333-.84.447-1.279.217a.948.948 0 01-.474-1.137zm11.29 36.123c-.038.063-.098.108-.146.164-.32.337-.845.444-1.283.214a.949.949 0 01-.473-1.134c.02-.067.033-.141.07-.204.286-.478.925-.645 1.432-.377.506.265.686.861.4 1.337zm11.628 6.091c-.037.065-.102.11-.148.164a1.094 1.094 0 01-1.282.214.937.937 0 01-.473-1.132c.018-.072.031-.142.07-.208.281-.476.92-.644 1.428-.375.508.266.689.86.405 1.337zm11.623 6.089c-.038.063-.102.112-.151.164a1.075 1.075 0 01-1.279.215.944.944 0 01-.474-1.134c.021-.067.032-.139.07-.206.288-.476.924-.642 1.429-.377.51.266.691.862.405 1.338zm11.624 6.088c-.04.067-.1.114-.15.169a1.074 1.074 0 01-1.279.206.935.935 0 01-.477-1.126c.027-.068.034-.144.07-.211.287-.472.926-.64 1.432-.378.507.269.69.865.404 1.34zm11.623 6.093c-.04.063-.1.108-.147.162-.32.334-.842.441-1.282.217a.95.95 0 01-.476-1.136c.023-.067.036-.141.072-.203.286-.475.923-.645 1.431-.379.507.265.69.857.402 1.339zm11.626 6.089c-.039.064-.1.111-.151.163a1.09 1.09 0 01-1.281.217.945.945 0 01-.472-1.136c.018-.067.029-.142.067-.203.29-.475.924-.643 1.432-.377.506.262.688.86.405 1.336zm2.233-29.279c-.039.07-.095.114-.149.165-.025.071-.033.143-.074.208a1.008 1.008 0 01-.595.451l-6.012 10.06a.902.902 0 01-.098.708c-.04.07-.098.112-.151.166-.018.07-.032.143-.07.206-.137.225-.355.38-.599.454l-3.79 6.339c-.355.598-1.206.824-1.87.476L37.82 231.929c-.666-.35-.905-1.147-.55-1.746l3.794-6.343a.911.911 0 01.096-.707c.04-.067.099-.108.15-.164.028-.068.03-.142.072-.209.133-.223.35-.371.594-.447l6.018-10.061a.928.928 0 01.096-.712c.037-.062.103-.108.151-.168.02-.064.032-.136.072-.203a1.01 1.01 0 01.594-.445l3.557-5.953c.369-.621 1.222-.847 1.887-.498l57.036 29.882c.663.347.904 1.145.532 1.762l-3.556 5.951a.879.879 0 01-.099.709zm4.697 17.683c-.042.068-.101.109-.15.168a1.09 1.09 0 01-1.281.21.94.94 0 01-.472-1.13c.019-.07.028-.141.068-.209.283-.472.925-.646 1.431-.377.508.264.687.864.404 1.338zm2.237-29.276c-.043.065-.095.112-.153.166a1.072 1.072 0 01-1.276.211.941.941 0 01-.478-1.131c.026-.071.032-.137.073-.209.281-.469.924-.645 1.432-.378.505.272.683.867.402 1.341zm2.458 46.963c-.038.066-.104.109-.151.162a1.087 1.087 0 01-1.278.219.945.945 0 01-.477-1.136c.021-.07.032-.142.073-.205.281-.477.92-.644 1.43-.377.506.261.685.86.403 1.337zm2.232-29.276c-.038.062-.098.109-.146.163a1.1 1.1 0 01-1.283.214.94.94 0 01-.47-1.133.67.67 0 01.07-.203c.284-.478.919-.646 1.426-.381.511.263.689.86.403 1.34zm4.7 17.68c-.041.067-.104.109-.153.164a1.081 1.081 0 01-1.278.215.947.947 0 01-.479-1.135c.026-.068.034-.139.075-.205.282-.474.924-.644 1.431-.378.506.263.684.863.404 1.339zm2.232-29.274c-.038.065-.097.108-.149.164a1.087 1.087 0 01-1.278.21.936.936 0 01-.476-1.132c.023-.07.029-.139.074-.2.278-.478.919-.649 1.425-.384.509.263.686.868.404 1.342zm4.692 17.681c-.038.064-.097.111-.147.164a1.093 1.093 0 01-1.282.214.948.948 0 01-.474-1.134c.02-.067.031-.138.069-.203.288-.478.927-.643 1.432-.379.507.266.687.861.402 1.338zm6.931-11.592c-.038.064-.097.108-.147.163a1.084 1.084 0 01-1.28.214.941.941 0 01-.475-1.131c.021-.074.031-.142.07-.207.284-.472.926-.649 1.431-.377.508.263.69.867.401 1.338z" fill="#8AA5F8"/><path d="M110.539 234.815L55.24 205.842c-1.308-.686-2.316-.472-3.048.756l-14.135 23.646c-.992 1.659-.863 2.462 1.045 3.46l54.906 28.765c1.65.865 2.77.589 3.702-.977l13.874-23.215c.946-1.583.799-2.499-1.045-3.462z" fill="#8AA5F8"/><path d="M111.388 234.154l-57.036-29.881c-.665-.348-1.518-.123-1.887.498l-3.558 5.952a1.1 1.1 0 01.836.069c.508.264.689.864.403 1.338-.04.067-.096.114-.148.165-.32.336-.846.443-1.282.212a.941.941 0 01-.475-1.135c-.048.06-.114.106-.151.168a.928.928 0 00-.096.712l-6.017 10.061c.27-.079.571-.07.835.069.508.268.688.867.405 1.34-.04.069-.1.11-.153.166a1.071 1.071 0 01-1.279.211.938.938 0 01-.475-1.13c-.052.055-.11.097-.15.164a.912.912 0 00-.096.707l-3.795 6.343c-.355.599-.117 1.396.55 1.746l57.036 29.881c.665.348 1.515.121 1.87-.476l3.791-6.339c.243-.075.46-.229.598-.455.038-.062.052-.136.07-.206a1.078 1.078 0 01-1.279.212.937.937 0 01-.476-1.129c.025-.072.034-.142.073-.207.284-.473.924-.644 1.432-.38a.968.968 0 01.5.631l6.012-10.06c.249-.075.462-.224.595-.452.041-.064.049-.136.074-.207a1.08 1.08 0 01-1.277.215.946.946 0 01-.476-1.138c.022-.061.031-.134.073-.202.283-.473.92-.643 1.428-.378a.973.973 0 01.5.628l3.556-5.951c.372-.616.132-1.414-.531-1.762zm-56.547-4.342c-.039.065-.098.11-.151.164-.322.339-.84.442-1.278.213a.944.944 0 01-.476-1.13c.025-.07.035-.145.074-.207.284-.475.925-.646 1.43-.379.503.267.684.865.401 1.339zm6.93-11.591c-.04.064-.102.112-.15.164-.32.335-.84.444-1.28.217a.95.95 0 01-.476-1.135c.026-.067.033-.139.073-.206.283-.474.923-.643 1.43-.377.505.261.688.861.403 1.337zm4.697 17.685c-.041.062-.103.105-.152.163-.32.332-.844.439-1.278.212a.939.939 0 01-.48-1.13c.024-.073.036-.141.076-.212.282-.475.92-.643 1.43-.376.506.263.687.868.404 1.343zm6.926-11.593c-.038.063-.1.107-.147.162a1.092 1.092 0 01-1.281.216.949.949 0 01-.478-1.135c.023-.07.032-.137.073-.204.285-.478.922-.645 1.429-.379.508.267.688.863.404 1.34zm4.693 17.68c-.038.066-.097.108-.15.164a1.067 1.067 0 01-1.275.212.943.943 0 01-.478-1.131c.025-.07.032-.139.074-.207.28-.472.923-.643 1.428-.377.509.264.684.864.401 1.339zm6.932-11.595c-.037.071-.1.114-.148.169a1.09 1.09 0 01-1.28.212.942.942 0 01-.475-1.135c.02-.067.033-.137.07-.204.284-.476.923-.642 1.431-.38.506.266.685.863.402 1.338zm4.696 17.679c-.04.069-.1.115-.152.173a1.081 1.081 0 01-1.28.207.932.932 0 01-.474-1.129c.023-.069.032-.141.071-.21.285-.473.924-.64 1.432-.377.507.266.686.866.403 1.336zm6.927-11.585c-.039.067-.1.11-.15.162-.32.334-.842.442-1.281.216a.944.944 0 01-.471-1.135c.023-.065.03-.137.068-.203.284-.479.922-.646 1.43-.38.508.265.69.864.404 1.34z" fill="#EDBE88"/><path d="M111.388 234.154l-57.036-29.881c-.665-.348-1.518-.123-1.887.498l-3.558 5.952a1.1 1.1 0 01.836.069c.508.264.689.864.403 1.338-.04.067-.096.114-.148.165-.32.336-.846.443-1.282.212a.941.941 0 01-.475-1.135c-.048.06-.114.106-.151.168a.928.928 0 00-.096.712l-6.017 10.061c.27-.079.571-.07.835.069.508.268.688.867.405 1.34-.04.069-.1.11-.153.166a1.071 1.071 0 01-1.279.211.938.938 0 01-.475-1.13c-.052.055-.11.097-.15.164a.912.912 0 00-.096.707l-3.795 6.343c-.355.599-.117 1.396.55 1.746l57.036 29.881c.665.348 1.515.121 1.87-.476l3.791-6.339c.243-.075.46-.229.598-.455.038-.062.052-.136.07-.206a1.078 1.078 0 01-1.279.212.937.937 0 01-.476-1.129c.025-.072.034-.142.073-.207.284-.473.924-.644 1.432-.38a.968.968 0 01.5.631l6.012-10.06c.249-.075.462-.224.595-.452.041-.064.049-.136.074-.207a1.08 1.08 0 01-1.277.215.946.946 0 01-.476-1.138c.022-.061.031-.134.073-.202.283-.473.92-.643 1.428-.378a.973.973 0 01.5.628l3.556-5.951c.372-.616.132-1.414-.531-1.762zm-56.547-4.342c-.039.065-.098.11-.151.164-.322.339-.84.442-1.278.213a.944.944 0 01-.476-1.13c.025-.07.035-.145.074-.207.284-.475.925-.646 1.43-.379.503.267.684.865.401 1.339zm6.93-11.591c-.04.064-.102.112-.15.164-.32.335-.84.444-1.28.217a.95.95 0 01-.476-1.135c.026-.067.033-.139.073-.206.283-.474.923-.643 1.43-.377.505.261.688.861.403 1.337zm4.697 17.685c-.041.062-.103.105-.152.163-.32.332-.844.439-1.278.212a.939.939 0 01-.48-1.13c.024-.073.036-.141.076-.212.282-.475.92-.643 1.43-.376.506.263.687.868.404 1.343zm6.926-11.593c-.038.063-.1.107-.147.162a1.092 1.092 0 01-1.281.216.949.949 0 01-.478-1.135c.023-.07.032-.137.073-.204.285-.478.922-.645 1.429-.379.508.267.688.863.404 1.34zm4.693 17.68c-.038.066-.097.108-.15.164a1.067 1.067 0 01-1.275.212.943.943 0 01-.478-1.131c.025-.07.032-.139.074-.207.28-.472.923-.643 1.428-.377.509.264.684.864.401 1.339zm6.932-11.595c-.037.071-.1.114-.148.169a1.09 1.09 0 01-1.28.212.942.942 0 01-.475-1.135c.02-.067.033-.137.07-.204.284-.476.923-.642 1.431-.38.506.266.685.863.402 1.338zm4.696 17.679c-.04.069-.1.115-.152.173a1.081 1.081 0 01-1.28.207.932.932 0 01-.474-1.129c.023-.069.032-.141.071-.21.285-.473.924-.64 1.432-.377.507.266.686.866.403 1.336zm6.927-11.585c-.039.067-.1.11-.15.162-.32.334-.842.442-1.281.216a.944.944 0 01-.471-1.135c.023-.065.03-.137.068-.203.284-.479.922-.646 1.43-.38.508.265.69.864.404 1.34z" fill="#fff"/><path d="M141.44 239.342c.166 2.312.295 11.958-7.406 24.836-9.31 15.578-19.254 19.142-19.254 19.142L6.427 226.552c-.043.31-.06.482-.06.482l108.55 56.869s9.944-3.562 19.257-19.138c8.861-14.827 7.353-25.379 7.353-25.379l-.087-.044zM33.428 187.016c-.51-.263-1.15-.094-1.43.378-.043.068-.049.137-.075.207.157-.16.364-.268.584-.306.014-.006.029-.006.041-.006.217-.033.449-.01.658.099a.965.965 0 01.431.47c.005.012.013.021.023.041a.953.953 0 01.02.622c.051-.056.11-.099.151-.163.28-.475.103-1.078-.403-1.342zM26.496 198.61c-.508-.264-1.146-.095-1.432.38-.036.065-.048.136-.066.203.153-.159.36-.263.576-.311.016 0 .033.003.048-.001.215-.029.442-.006.651.102a.958.958 0 01.43.465c.012.017.016.028.027.044a.992.992 0 01.022.622l-.002.003c.048-.054.11-.101.15-.164.283-.479.102-1.076-.404-1.343z" fill="#002CA7"/><path d="M24.997 199.197l.002-.006-.002.004v.002zM19.565 210.204c-.506-.267-1.146-.095-1.43.378-.039.067-.048.136-.073.209.16-.165.365-.273.582-.312.017 0 .03-.003.043-.003.219-.036.45-.013.656.099a.918.918 0 01.431.472.1.1 0 01.023.033.961.961 0 01.02.629c.052-.055.111-.1.15-.169.285-.473.106-1.072-.402-1.336zM12.635 221.799c-.508-.266-1.144-.098-1.43.378-.04.063-.05.138-.072.203h.004a1.07 1.07 0 01.574-.308c.017-.004.033-.004.053-.004.217-.029.442-.011.648.102a.95.95 0 01.433.466c.007.014.016.026.021.042a.95.95 0 01.026.617c.048-.049.109-.096.146-.158.288-.476.102-1.072-.403-1.338zM12.89 223.303l.003-.005-.005.005h.003zM45.05 193.11c-.507-.269-1.147-.096-1.43.377-.04.064-.048.133-.069.206a1.07 1.07 0 01.58-.31c.017-.005.031-.004.042-.005.22-.034.448-.013.656.099a.96.96 0 01.436.472c.001.009.012.02.017.036a.976.976 0 01.024.626c.05-.059.109-.101.147-.168.281-.469.102-1.072-.402-1.333zM38.12 204.703c-.507-.266-1.147-.101-1.43.377-.039.064-.05.137-.072.203l.003-.002c.154-.16.36-.264.578-.305.017-.003.032-.003.049-.005.213-.031.44-.008.648.103a.94.94 0 01.432.463c.008.016.018.028.022.042a.917.917 0 01.023.62l-.001.002c.05-.053.11-.096.148-.163.286-.474.106-1.072-.4-1.335zM31.193 216.295c-.507-.263-1.148-.098-1.432.375-.04.067-.048.139-.073.209a1.13 1.13 0 01.583-.313h.041a1.05 1.05 0 01.66.098.957.957 0 01.43.473c.005.01.014.022.021.036a.961.961 0 01.019.626c.053-.057.111-.102.151-.168.284-.472.105-1.076-.4-1.336zM22.759 228.472v-.002h-.001v.002zM24.262 227.889c-.509-.265-1.147-.099-1.433.38-.038.061-.048.133-.069.2.159-.16.363-.265.58-.306.015-.004.033-.004.047-.007a1.09 1.09 0 01.651.102.97.97 0 01.43.466c.01.014.017.029.023.042a.967.967 0 01.023.621v.005c.047-.054.11-.104.151-.164.281-.479.1-1.076-.403-1.339zM56.675 199.195c-.507-.267-1.15-.091-1.43.377-.042.068-.05.137-.075.209.16-.166.365-.268.583-.313l.043.001c.22-.033.448-.013.655.098.21.11.351.283.432.473l.024.032a.965.965 0 01.021.627c.053-.052.11-.1.15-.166.282-.47.106-1.074-.403-1.338zM49.743 210.791a1.104 1.104 0 00-.835-.068c-.243.071-.46.221-.594.445-.04.067-.051.139-.072.203a1.17 1.17 0 01.579-.308c.015-.003.032 0 .048-.003.218-.029.444-.007.65.102.21.11.348.276.435.465l.022.042a.976.976 0 01.023.624c.05-.051.108-.099.148-.165.285-.473.104-1.073-.404-1.337zM42.813 222.381a1.122 1.122 0 00-.836-.069 1.034 1.034 0 00-.594.447c-.041.067-.044.14-.072.209.16-.164.364-.267.582-.313h.043c.221-.032.45-.013.657.1a.946.946 0 01.433.472c.004.01.011.021.02.034a.947.947 0 01.02.626c.053-.056.11-.098.152-.166.283-.474.103-1.072-.405-1.34zM35.882 233.978c-.506-.266-1.144-.102-1.43.377-.038.064-.048.134-.073.207l.004-.007c.153-.159.363-.264.576-.303a.308.308 0 01.05-.005c.217-.032.442-.005.65.101a.96.96 0 01.435.467l.02.041a.944.944 0 01.024.62v.003c.049-.053.109-.099.147-.162.289-.479.106-1.073-.403-1.339zM68.297 205.289c-.506-.265-1.146-.096-1.428.377-.041.066-.047.136-.073.202.156-.159.365-.266.58-.307.016-.004.032-.002.046-.002.216-.035.45-.01.657.099a.94.94 0 01.432.471c.004.01.013.021.018.035a.937.937 0 01.02.626c.052-.058.11-.1.15-.167.285-.473.108-1.074-.402-1.334zM61.623 218.384v-.002l-.003.002h.003zM61.367 216.882c-.506-.265-1.145-.097-1.429.377-.04.067-.047.139-.073.206l.001-.004c.158-.158.363-.264.579-.307l.05-.002c.215-.032.445-.008.65.099.209.109.347.28.432.467.007.016.015.026.02.043.074.193.09.412.025.619.05-.054.108-.099.148-.161.285-.475.103-1.075-.403-1.337zM54.44 228.473c-.506-.267-1.147-.096-1.431.378-.038.063-.048.138-.074.208.16-.164.366-.268.582-.312h.046c.216-.033.449-.012.656.094a.93.93 0 01.429.475l.023.035a.956.956 0 01.019.624c.053-.054.113-.1.151-.164.283-.475.102-1.072-.4-1.338zM47.508 240.07c-.507-.269-1.145-.102-1.432.376-.035.063-.048.136-.07.203h.002c.156-.16.364-.267.578-.309l.05-.004a1.13 1.13 0 01.652.099.995.995 0 01.428.466 1.9 1.9 0 01.022.045.945.945 0 01.023.622v.001c.049-.056.11-.102.148-.164.285-.476.105-1.071-.4-1.335zM79.921 211.376c-.506-.268-1.145-.093-1.43.379-.037.065-.047.136-.069.208.156-.166.361-.271.577-.312.02 0 .035 0 .048-.003a1.07 1.07 0 01.654.099.951.951 0 01.431.471.122.122 0 01.02.038.962.962 0 01.024.625c.052-.056.113-.098.149-.163.285-.475.103-1.076-.404-1.342zM72.99 222.97c-.507-.265-1.144-.099-1.429.379-.04.067-.05.134-.073.204l.002-.003c.158-.16.365-.261.578-.307.021 0 .032 0 .05-.005.217-.029.443-.005.652.104a.966.966 0 01.434.466c.003.013.011.024.018.039a.94.94 0 01.023.622l.001.002c.047-.054.109-.099.147-.162.285-.476.105-1.071-.403-1.339zM66.064 234.563c-.51-.267-1.147-.099-1.43.375-.04.072-.052.139-.076.212.16-.164.366-.267.587-.312.01-.003.028-.003.039-.003a1.03 1.03 0 01.66.101.93.93 0 01.429.468c.007.012.016.022.02.037.077.197.09.416.024.627.05-.058.11-.102.152-.164.282-.474.101-1.079-.405-1.341zM59.13 246.16c-.507-.269-1.147-.101-1.428.375-.036.061-.048.131-.066.197a1.08 1.08 0 01.576-.297c.013-.008.032-.006.045-.009a1.05 1.05 0 01.654.104.927.927 0 01.43.462l.023.043a.97.97 0 01.023.622v.003c.047-.054.111-.101.148-.164.285-.477.104-1.071-.404-1.336zM57.633 246.745l.004-.012c-.001.002-.005.003-.006.003l.002.009zM91.547 217.462c-.507-.259-1.149-.089-1.428.378-.042.07-.05.139-.076.209.159-.159.366-.267.584-.313l.044.002c.217-.034.445-.012.654.099a.935.935 0 01.433.471c.004.01.012.022.022.036a.94.94 0 01.018.627c.053-.057.111-.102.154-.17.28-.469.103-1.073-.405-1.339zM84.618 229.059c-.508-.262-1.147-.096-1.431.379-.037.066-.05.137-.069.203.156-.158.362-.264.576-.307.016 0 .032 0 .05-.005.212-.032.44-.005.65.102.21.111.345.279.429.466l.025.042a.96.96 0 01.019.622l.003.004c.047-.055.11-.099.148-.169.284-.475.106-1.072-.4-1.337zM83.116 229.643l.002-.001h-.002v.001zM77.686 240.653c-.505-.266-1.148-.095-1.428.377-.042.068-.049.137-.074.207.16-.162.365-.267.582-.309.016-.003.03-.003.043-.003.217-.034.447-.014.656.097.21.11.348.279.432.473.005.008.014.021.02.035a.934.934 0 01.02.625c.053-.055.112-.099.15-.164.284-.474.108-1.074-.4-1.338zM69.255 252.831l.002-.007-.002.003v.004zM70.754 252.247c-.505-.264-1.142-.099-1.43.377-.037.064-.047.136-.067.2.157-.156.362-.261.575-.303a.29.29 0 01.05-.004 1.03 1.03 0 01.65.1.96.96 0 01.433.466c.006.014.015.026.019.043.08.193.087.413.025.619l-.002.003c.049-.051.112-.1.15-.163.288-.475.106-1.071-.403-1.338zM103.17 223.558c-.509-.265-1.148-.097-1.431.378-.038.065-.043.137-.071.207.157-.162.364-.27.581-.312.015-.004.031-.001.043-.001.219-.037.448-.015.656.096a.937.937 0 01.433.474c.007.009.016.02.021.034a.964.964 0 01.022.626c.05-.056.108-.1.149-.164.283-.473.102-1.074-.403-1.338zM96.239 235.151c-.508-.266-1.147-.099-1.43.38-.04.062-.046.134-.068.2.155-.16.361-.264.577-.306a1.084 1.084 0 01.698.097.98.98 0 01.434.466c.007.016.011.031.022.042.075.195.083.41.023.619.048-.048.11-.092.147-.159.286-.475.104-1.073-.403-1.339zM96.495 236.652v-.003l-.003.003h.003zM94.74 235.733l.001-.003v.003zM89.312 246.74c-.507-.263-1.147-.097-1.432.376-.04.069-.048.141-.07.211.159-.162.36-.267.577-.315.017 0 .03.003.045 0 .22-.03.448-.009.657.101a.946.946 0 01.43.469c.007.014.015.023.026.039.07.196.083.413.018.627.052-.058.113-.104.152-.172.283-.471.104-1.071-.403-1.336zM82.379 258.335c-.507-.263-1.145-.095-1.431.376-.037.067-.044.144-.071.212l.005-.004c.155-.159.36-.267.574-.308l.05-.003a1.09 1.09 0 01.651.095c.208.114.347.282.434.47a.475.475 0 00.021.043.95.95 0 01.021.622v.005c.05-.056.11-.104.15-.17.285-.474.103-1.07-.404-1.338zM114.797 229.643c-.508-.267-1.151-.09-1.431.378-.042.072-.048.138-.074.209.159-.163.366-.266.58-.312l.048-.001c.213-.034.444-.012.654.1.208.107.348.28.432.472a.15.15 0 00.021.03.973.973 0 01.018.631c.058-.054.11-.102.153-.167.283-.473.104-1.068-.401-1.34zM108.118 242.742v-.003l-.001.003h.001zM107.864 241.24c-.508-.264-1.145-.095-1.428.378-.042.069-.05.141-.073.202a1.13 1.13 0 01.578-.305l.049-.003a1.03 1.03 0 01.651.102.942.942 0 01.432.463c.007.016.016.028.022.042a.966.966 0 01.023.62c.054-.048.109-.094.147-.163a.882.882 0 00.099-.709.974.974 0 00-.5-.627zM100.936 252.83c-.508-.264-1.149-.093-1.432.38-.04.065-.049.134-.074.207.158-.164.366-.269.582-.312.018-.002.032 0 .046-.002.219-.033.444-.012.654.098a.95.95 0 01.434.473c.003.011.011.021.019.034a.933.933 0 01.021.626c.053-.054.111-.096.151-.166a.902.902 0 00.098-.708.975.975 0 00-.499-.63zM94.004 264.429c-.508-.266-1.145-.096-1.432.378-.036.063-.048.136-.071.203l.002-.001a1.097 1.097 0 01.627-.314c.215-.03.44-.004.65.102.21.107.348.28.43.466a.929.929 0 01.046.661v.004c.048-.052.108-.099.147-.161.291-.481.108-1.072-.4-1.338zM126.417 235.735c-.506-.265-1.146-.094-1.425.384-.045.061-.051.131-.074.2.153-.162.361-.267.584-.308.011-.003.025-.003.038-.004.22-.034.45-.012.657.097a.96.96 0 01.431.473l.022.035c.074.198.09.415.023.628.051-.056.111-.099.149-.164.281-.473.104-1.079-.405-1.341zM119.486 247.33c-.506-.264-1.142-.096-1.426.381-.038.064-.053.133-.07.203l.001-.003c.152-.16.357-.265.579-.305.013-.005.032-.001.045-.008.217-.029.442-.006.649.102a.967.967 0 01.435.466l.019.042a.949.949 0 01.026.623l-.001.001c.048-.052.108-.1.146-.163.286-.478.107-1.075-.403-1.339zM112.559 258.923c-.506-.269-1.148-.095-1.43.377-.041.068-.05.139-.069.209.154-.164.364-.268.576-.315a.11.11 0 00.045 0c.218-.032.449-.01.656.101a.893.893 0 01.431.471c.01.01.016.021.023.035a.983.983 0 01.022.628c.049-.058.108-.1.15-.168.282-.474.102-1.074-.404-1.338zM105.885 272.018l.001-.004a.013.013 0 01-.005.006l.004-.002zM105.626 270.519c-.507-.266-1.141-.098-1.431.376-.038.062-.049.136-.068.203h.002a1.049 1.049 0 01.625-.314c.218-.028.444-.009.649.103a.96.96 0 01.434.466c.007.014.016.025.023.042a.99.99 0 01.025.617c.051-.051.108-.096.146-.158.284-.476.102-1.073-.405-1.335zM138.043 241.828c-.505-.271-1.147-.095-1.431.377-.039.065-.049.134-.07.207.159-.168.363-.268.579-.312.018-.003.033-.003.045-.004.217-.032.446-.01.654.099a.95.95 0 01.434.473c.009.01.017.024.019.036.08.198.085.415.024.625.05-.056.109-.1.147-.164.289-.47.107-1.074-.401-1.337zM131.113 253.421c-.507-.265-1.145-.099-1.432.378-.038.065-.049.136-.07.203h.002a1.11 1.11 0 01.578-.307c.018-.004.032-.002.05-.005.215-.031.438-.01.65.102a.974.974 0 01.435.466c.001.012.016.026.017.039a.937.937 0 01.022.623l.001.001c.05-.052.11-.1.147-.163.285-.478.105-1.072-.4-1.337zM124.185 265.013c-.507-.266-1.149-.096-1.431.378-.04.066-.049.136-.075.205.16-.162.364-.268.586-.311h.04c.22-.038.447-.015.659.096a.95.95 0 01.429.476l.025.033c.07.196.083.412.019.625.048-.055.112-.097.153-.164.279-.475.101-1.075-.405-1.338zM117.254 276.609c-.509-.267-1.148-.101-1.43.377-.039.059-.049.132-.069.197.158-.156.362-.262.577-.302.016-.004.033-.004.047-.006.216-.031.443-.008.654.103a.957.957 0 01.431.468c.009.01.012.022.023.04.072.19.081.409.02.619v.002c.048-.053.113-.096.151-.162.281-.477.102-1.075-.404-1.336zM115.751 277.191l.003-.007-.003.001v.006z" fill="#002CA7"/><path d="M107.961 177.379c-13.676-7.169-26.22-8.373-26.22-8.373L20.998 270.624s.075.154.229.438l.031.051c1.152 2.052 6.43 10.333 20.186 17.541 16.64 8.717 27.108 6.885 27.108 6.885l60.636-101.437.108-.185s-.121-.155-.36-.429c-1.64-1.898-8.865-9.769-20.974-16.109zm-80.583 95.146c-.247.409-.75.574-1.212.447-.075-.023-.149-.029-.219-.068-.508-.265-.69-.865-.405-1.341.28-.473.922-.638 1.43-.374.072.038.117.09.174.14.361.298.471.784.232 1.196zm6.502-10.88c-.247.405-.748.572-1.208.444-.076-.022-.149-.028-.22-.067-.506-.263-.69-.865-.405-1.341.283-.47.924-.641 1.43-.376.072.037.118.092.175.138.36.304.474.791.228 1.202zm5.881 17.369c-.246.41-.755.571-1.21.447-.073-.022-.149-.034-.22-.069-.509-.267-.686-.864-.404-1.34.282-.474.922-.642 1.43-.376.069.036.118.092.175.14.355.301.472.787.23 1.198zm.622-28.255c-.242.414-.745.575-1.206.447-.075-.019-.148-.031-.223-.07-.502-.263-.685-.861-.402-1.338.282-.474.925-.64 1.43-.377.073.04.118.095.175.141.359.302.471.794.226 1.197zm61.962-53.28c.287-.468.929-.64 1.432-.376.071.038.118.095.177.143.359.301.473.788.226 1.195-.244.41-.745.576-1.206.447-.077-.021-.153-.028-.226-.07-.502-.263-.686-.862-.403-1.339zm-5.877-17.366c.286-.475.923-.643 1.431-.378.07.039.121.093.177.142.354.297.474.788.228 1.2-.245.404-.751.568-1.21.446-.072-.027-.15-.03-.222-.068-.505-.269-.686-.867-.404-1.342zm-6.502 10.883c.285-.476.922-.645 1.432-.38.067.036.115.095.174.143.356.298.472.788.23 1.195-.248.414-.755.572-1.21.445-.077-.019-.15-.028-.221-.064-.51-.268-.687-.863-.405-1.339zm-5.882-17.372c.287-.474.928-.642 1.431-.378.074.038.119.093.179.142.357.3.471.789.226 1.201-.249.404-.748.571-1.208.44-.073-.02-.15-.027-.224-.063-.503-.265-.686-.868-.404-1.342zm-6.502 10.884c.284-.476.926-.643 1.431-.38.072.038.117.097.175.146.359.296.469.784.229 1.194-.248.412-.747.575-1.211.447-.076-.023-.149-.031-.221-.07-.505-.262-.685-.864-.403-1.337zm-6.507 10.881c.282-.475.926-.642 1.429-.378.075.039.12.094.179.141.356.302.472.788.224 1.196-.24.412-.744.578-1.207.446-.074-.017-.147-.029-.222-.068-.503-.261-.688-.864-.403-1.337zm-6.502 10.88c.282-.473.924-.638 1.429-.377.072.041.116.098.175.142.358.302.473.789.229 1.199-.248.408-.748.571-1.21.445-.075-.02-.147-.029-.22-.068-.505-.266-.69-.865-.403-1.341zm-6.507 10.885c.283-.475.925-.64 1.43-.377.072.041.117.092.177.141.358.3.468.786.227 1.198-.245.409-.749.573-1.21.447-.074-.023-.15-.03-.22-.068-.507-.264-.688-.865-.404-1.341zm-6.507 10.88c.285-.47.928-.642 1.432-.379.074.04.118.098.177.145.36.299.474.787.224 1.195-.241.412-.745.575-1.208.445-.073-.019-.147-.026-.222-.065-.502-.265-.685-.865-.403-1.341zm-6.503 10.885c.285-.475.926-.642 1.43-.377.072.037.117.096.176.14.358.301.47.787.227 1.197-.248.41-.748.574-1.21.444-.074-.02-.147-.029-.22-.064-.503-.266-.686-.866-.404-1.34zm1.21 29.213c-.247.409-.754.571-1.21.447-.074-.022-.15-.034-.22-.069-.51-.267-.689-.864-.404-1.339.285-.474.92-.641 1.428-.377.07.035.118.092.175.142.354.295.477.788.231 1.196zm5.873 17.371c-.244.406-.743.568-1.205.444-.076-.025-.152-.03-.224-.067-.504-.267-.687-.867-.401-1.336.284-.476.925-.644 1.427-.38.072.036.119.092.178.138.359.302.47.788.225 1.201zm6.507-10.885c-.244.409-.746.575-1.21.451-.075-.028-.148-.035-.22-.074-.504-.262-.686-.862-.403-1.335.281-.478.926-.644 1.428-.38.072.039.118.093.175.145.36.298.475.786.23 1.193zm5.88 17.375c-.243.408-.749.567-1.212.443-.07-.024-.148-.031-.216-.067-.509-.269-.69-.867-.406-1.338.285-.475.922-.646 1.43-.375.072.032.119.09.175.137.359.298.477.786.23 1.2zm6.506-10.886c-.243.408-.75.57-1.21.444-.072-.021-.15-.029-.22-.065-.51-.268-.687-.865-.404-1.34.284-.474.92-.641 1.432-.375.069.036.118.092.173.136.357.304.472.795.23 1.2zm6.507-10.882c-.249.411-.753.57-1.212.444-.074-.02-.149-.03-.22-.063-.511-.269-.69-.865-.404-1.342.286-.473.922-.642 1.43-.376.068.036.118.093.174.138.355.302.476.789.232 1.199zm6.503-10.882c-.244.409-.752.573-1.208.444-.075-.018-.153-.028-.223-.067-.508-.265-.686-.863-.405-1.341.285-.47.924-.64 1.432-.376.073.04.12.095.18.141.35.301.47.791.224 1.199zm6.506-10.882c-.246.416-.751.572-1.212.442-.072-.019-.15-.026-.218-.065-.51-.265-.689-.865-.403-1.338.283-.476.92-.646 1.43-.379.07.037.116.097.174.141.356.3.473.788.229 1.199zm6.504-10.88c-.243.408-.75.571-1.214.445-.069-.022-.148-.03-.216-.068-.51-.266-.688-.863-.405-1.339.285-.475.924-.646 1.43-.376.072.035.121.092.176.138.355.302.475.788.229 1.2zm6.507-10.886c-.243.41-.755.575-1.211.445-.076-.021-.148-.029-.22-.068-.509-.266-.686-.861-.404-1.337.283-.474.921-.645 1.431-.38.07.037.117.098.173.144.357.298.475.789.231 1.196zm1.874-12.64l-31.92 53.396c-.37.621-1.222.846-1.862.513l-6.768-3.548a1.113 1.113 0 01-.765-.096c-.07-.033-.12-.092-.176-.14-.074-.019-.149-.028-.221-.067a.976.976 0 01-.48-.555l-10.746-5.632c-.248.06-.517.036-.759-.092-.07-.035-.117-.092-.176-.138-.075-.018-.15-.032-.222-.071a.97.97 0 01-.48-.558l-6.356-3.329c-.66-.343-.901-1.141-.53-1.765l31.92-53.395c.37-.622 1.225-.849 1.883-.504l6.36 3.335c.247-.055.515-.035.754.093.073.035.12.092.175.136.076.028.153.032.223.07a.995.995 0 01.478.558l10.751 5.628c.249-.054.52-.032.756.093.072.038.116.093.177.142.074.021.15.029.219.068.24.12.402.33.48.553l6.78 3.549a1.26 1.26 0 01.505 1.756zm4.631 1.763c-.246.407-.754.568-1.213.44-.072-.02-.146-.03-.218-.063-.511-.269-.687-.865-.405-1.339.286-.475.921-.648 1.432-.38.069.039.117.093.175.14.354.301.472.791.229 1.202zm.621-28.258c-.244.411-.745.574-1.207.446-.074-.024-.151-.029-.222-.069-.503-.263-.687-.862-.401-1.337.282-.475.923-.639 1.426-.378.072.038.118.094.179.142.357.3.469.784.225 1.196zm5.884 17.376c-.246.405-.752.568-1.213.442-.072-.022-.148-.032-.219-.065-.508-.267-.69-.867-.404-1.341.283-.474.922-.645 1.43-.375.073.033.117.089.172.137.36.298.477.79.234 1.202zm6.503-10.886c-.243.409-.751.573-1.21.445-.072-.021-.149-.028-.219-.068-.509-.263-.689-.862-.403-1.339.283-.474.919-.641 1.429-.376.071.037.119.091.174.138.357.302.474.793.229 1.2z" fill="#8AA5F8"/><path d="M107.961 177.379c-13.676-7.169-26.22-8.373-26.22-8.373L20.998 270.624s.075.154.229.438l.031.051c1.152 2.052 6.43 10.333 20.186 17.541 16.64 8.717 27.108 6.885 27.108 6.885l60.636-101.437.108-.185s-.121-.155-.36-.429c-1.64-1.898-8.865-9.769-20.974-16.109zm-80.583 95.146c-.247.409-.75.574-1.212.447-.075-.023-.149-.029-.219-.068-.508-.265-.69-.865-.405-1.341.28-.473.922-.638 1.43-.374.072.038.117.09.174.14.361.298.471.784.232 1.196zm6.502-10.88c-.247.405-.748.572-1.208.444-.076-.022-.149-.028-.22-.067-.506-.263-.69-.865-.405-1.341.283-.47.924-.641 1.43-.376.072.037.118.092.175.138.36.304.474.791.228 1.202zm5.881 17.369c-.246.41-.755.571-1.21.447-.073-.022-.149-.034-.22-.069-.509-.267-.686-.864-.404-1.34.282-.474.922-.642 1.43-.376.069.036.118.092.175.14.355.301.472.787.23 1.198zm.622-28.255c-.242.414-.745.575-1.206.447-.075-.019-.148-.031-.223-.07-.502-.263-.685-.861-.402-1.338.282-.474.925-.64 1.43-.377.073.04.118.095.175.141.359.302.471.794.226 1.197zm61.962-53.28c.287-.468.929-.64 1.432-.376.071.038.118.095.177.143.359.301.473.788.226 1.195-.244.41-.745.576-1.206.447-.077-.021-.153-.028-.226-.07-.502-.263-.686-.862-.403-1.339zm-5.877-17.366c.286-.475.923-.643 1.431-.378.07.039.121.093.177.142.354.297.474.788.228 1.2-.245.404-.751.568-1.21.446-.072-.027-.15-.03-.222-.068-.505-.269-.686-.867-.404-1.342zm-6.502 10.883c.285-.476.922-.645 1.432-.38.067.036.115.095.174.143.356.298.472.788.23 1.195-.248.414-.755.572-1.21.445-.077-.019-.15-.028-.221-.064-.51-.268-.687-.863-.405-1.339zm-5.882-17.372c.287-.474.928-.642 1.431-.378.074.038.119.093.179.142.357.3.471.789.226 1.201-.249.404-.748.571-1.208.44-.073-.02-.15-.027-.224-.063-.503-.265-.686-.868-.404-1.342zm-6.502 10.884c.284-.476.926-.643 1.431-.38.072.038.117.097.175.146.359.296.469.784.229 1.194-.248.412-.747.575-1.211.447-.076-.023-.149-.031-.221-.07-.505-.262-.685-.864-.403-1.337zm-6.507 10.881c.282-.475.926-.642 1.429-.378.075.039.12.094.179.141.356.302.472.788.224 1.196-.24.412-.744.578-1.207.446-.074-.017-.147-.029-.222-.068-.503-.261-.688-.864-.403-1.337zm-6.502 10.88c.282-.473.924-.638 1.429-.377.072.041.116.098.175.142.358.302.473.789.229 1.199-.248.408-.748.571-1.21.445-.075-.02-.147-.029-.22-.068-.505-.266-.69-.865-.403-1.341zm-6.507 10.885c.283-.475.925-.64 1.43-.377.072.041.117.092.177.141.358.3.468.786.227 1.198-.245.409-.749.573-1.21.447-.074-.023-.15-.03-.22-.068-.507-.264-.688-.865-.404-1.341zm-6.507 10.88c.285-.47.928-.642 1.432-.379.074.04.118.098.177.145.36.299.474.787.224 1.195-.241.412-.745.575-1.208.445-.073-.019-.147-.026-.222-.065-.502-.265-.685-.865-.403-1.341zm-6.503 10.885c.285-.475.926-.642 1.43-.377.072.037.117.096.176.14.358.301.47.787.227 1.197-.248.41-.748.574-1.21.444-.074-.02-.147-.029-.22-.064-.503-.266-.686-.866-.404-1.34zm1.21 29.213c-.247.409-.754.571-1.21.447-.074-.022-.15-.034-.22-.069-.51-.267-.689-.864-.404-1.339.285-.474.92-.641 1.428-.377.07.035.118.092.175.142.354.295.477.788.231 1.196zm5.873 17.371c-.244.406-.743.568-1.205.444-.076-.025-.152-.03-.224-.067-.504-.267-.687-.867-.401-1.336.284-.476.925-.644 1.427-.38.072.036.119.092.178.138.359.302.47.788.225 1.201zm6.507-10.885c-.244.409-.746.575-1.21.451-.075-.028-.148-.035-.22-.074-.504-.262-.686-.862-.403-1.335.281-.478.926-.644 1.428-.38.072.039.118.093.175.145.36.298.475.786.23 1.193zm5.88 17.375c-.243.408-.749.567-1.212.443-.07-.024-.148-.031-.216-.067-.509-.269-.69-.867-.406-1.338.285-.475.922-.646 1.43-.375.072.032.119.09.175.137.359.298.477.786.23 1.2zm6.506-10.886c-.243.408-.75.57-1.21.444-.072-.021-.15-.029-.22-.065-.51-.268-.687-.865-.404-1.34.284-.474.92-.641 1.432-.375.069.036.118.092.173.136.357.304.472.795.23 1.2zm6.507-10.882c-.249.411-.753.57-1.212.444-.074-.02-.149-.03-.22-.063-.511-.269-.69-.865-.404-1.342.286-.473.922-.642 1.43-.376.068.036.118.093.174.138.355.302.476.789.232 1.199zm6.503-10.882c-.244.409-.752.573-1.208.444-.075-.018-.153-.028-.223-.067-.508-.265-.686-.863-.405-1.341.285-.47.924-.64 1.432-.376.073.04.12.095.18.141.35.301.47.791.224 1.199zm6.506-10.882c-.246.416-.751.572-1.212.442-.072-.019-.15-.026-.218-.065-.51-.265-.689-.865-.403-1.338.283-.476.92-.646 1.43-.379.07.037.116.097.174.141.356.3.473.788.229 1.199zm6.504-10.88c-.243.408-.75.571-1.214.445-.069-.022-.148-.03-.216-.068-.51-.266-.688-.863-.405-1.339.285-.475.924-.646 1.43-.376.072.035.121.092.176.138.355.302.475.788.229 1.2zm6.507-10.886c-.243.41-.755.575-1.211.445-.076-.021-.148-.029-.22-.068-.509-.266-.686-.861-.404-1.337.283-.474.921-.645 1.431-.38.07.037.117.098.173.144.357.298.475.789.231 1.196zm1.874-12.64l-31.92 53.396c-.37.621-1.222.846-1.862.513l-6.768-3.548a1.113 1.113 0 01-.765-.096c-.07-.033-.12-.092-.176-.14-.074-.019-.149-.028-.221-.067a.976.976 0 01-.48-.555l-10.746-5.632c-.248.06-.517.036-.759-.092-.07-.035-.117-.092-.176-.138-.075-.018-.15-.032-.222-.071a.97.97 0 01-.48-.558l-6.356-3.329c-.66-.343-.901-1.141-.53-1.765l31.92-53.395c.37-.622 1.225-.849 1.883-.504l6.36 3.335c.247-.055.515-.035.754.093.073.035.12.092.175.136.076.028.153.032.223.07a.995.995 0 01.478.558l10.751 5.628c.249-.054.52-.032.756.093.072.038.116.093.177.142.074.021.15.029.219.068.24.12.402.33.48.553l6.78 3.549a1.26 1.26 0 01.505 1.756zm4.631 1.763c-.246.407-.754.568-1.213.44-.072-.02-.146-.03-.218-.063-.511-.269-.687-.865-.405-1.339.286-.475.921-.648 1.432-.38.069.039.117.093.175.14.354.301.472.791.229 1.202zm.621-28.258c-.244.411-.745.574-1.207.446-.074-.024-.151-.029-.222-.069-.503-.263-.687-.862-.401-1.337.282-.475.923-.639 1.426-.378.072.038.118.094.179.142.357.3.469.784.225 1.196zm5.884 17.376c-.246.405-.752.568-1.213.442-.072-.022-.148-.032-.219-.065-.508-.267-.69-.867-.404-1.341.283-.474.922-.645 1.43-.375.073.033.117.089.172.137.36.298.477.79.234 1.202zm6.503-10.886c-.243.409-.751.573-1.21.445-.072-.021-.149-.028-.219-.068-.509-.263-.689-.862-.403-1.339.283-.474.919-.641 1.429-.376.071.037.119.091.174.138.357.302.474.793.229 1.2z" fill="#D9E2FF"/><path d="M104.287 212.735l-25.258-13.234c-1.305-.685-2.283-.374-3.017.853l-30.947 51.769c-1.03 1.724-.646 2.574 1.044 3.461l24.797 12.994c1.667.873 2.776.564 3.698-.981l30.726-51.402c1.072-1.785.732-2.531-1.043-3.46z" fill="#8AA5F8"/><path d="M104.928 212.3l-6.78-3.549a.976.976 0 00-.48-.553c-.069-.039-.145-.047-.219-.068.359.299.472.787.228 1.194-.247.417-.748.577-1.209.449-.075-.021-.151-.03-.223-.067-.503-.265-.686-.865-.402-1.34.147-.248.397-.409.673-.471l-10.751-5.628a.995.995 0 00-.478-.558c-.07-.038-.148-.042-.223-.07.358.304.475.792.228 1.197-.242.414-.75.578-1.21.446-.073-.014-.148-.026-.218-.067-.508-.263-.69-.862-.403-1.336.15-.249.401-.407.674-.469l-6.36-3.335c-.658-.345-1.512-.118-1.884.504l-31.918 53.395c-.373.624-.13 1.421.529 1.765l6.355 3.329a.927.927 0 01.077-.78c.284-.475.922-.643 1.43-.374.072.036.12.093.174.137.36.301.477.791.23 1.198-.243.412-.75.569-1.207.448.059.046.106.104.176.138.242.128.51.152.759.092l10.746 5.632a.92.92 0 01.078-.783c.285-.475.925-.64 1.428-.377.071.038.118.092.179.142.358.299.47.787.226 1.196-.25.41-.749.572-1.21.444.056.048.105.107.175.14.242.129.513.151.765.096l6.768 3.548c.64.333 1.492.108 1.862-.513l31.92-53.396a1.26 1.26 0 00-.505-1.756zm-45.653 34.068c-.246.409-.75.571-1.208.444-.076-.021-.15-.03-.22-.067-.511-.266-.69-.865-.405-1.337.282-.476.92-.647 1.43-.378.068.038.116.095.175.14.355.3.469.787.228 1.198zm6.503-10.882c-.242.409-.749.568-1.208.447-.074-.024-.149-.028-.222-.072-.505-.266-.685-.864-.404-1.34.285-.468.923-.64 1.432-.377.07.042.12.097.175.146.355.296.476.785.227 1.196zm5.876 17.367c-.242.411-.746.576-1.206.446-.078-.019-.152-.031-.223-.067-.505-.264-.686-.862-.403-1.339.285-.472.926-.643 1.43-.379.07.039.12.095.178.142.36.302.471.789.224 1.197zm.632-28.247c-.246.409-.755.568-1.21.444-.076-.024-.151-.031-.221-.067-.509-.267-.686-.866-.404-1.341.282-.476.92-.644 1.431-.378.07.039.116.093.176.139.352.302.469.791.228 1.203zm5.875 17.366c-.246.412-.746.572-1.206.446-.078-.022-.153-.032-.223-.069-.504-.263-.687-.865-.402-1.34.284-.471.925-.64 1.429-.375.071.036.118.095.175.14.358.3.47.786.227 1.198zm.63-28.252c-.248.407-.751.572-1.21.447-.074-.021-.151-.032-.22-.069-.51-.264-.692-.866-.404-1.339.282-.475.921-.644 1.429-.376.072.034.117.095.175.138.354.301.474.79.23 1.199zm5.874 17.371c-.245.406-.748.574-1.208.444-.075-.022-.151-.029-.222-.064-.504-.263-.69-.869-.402-1.339.284-.476.922-.645 1.428-.379.072.037.119.091.179.138.359.303.471.79.225 1.2zm6.508-10.884c-.245.411-.748.575-1.21.445-.074-.02-.15-.03-.222-.064-.503-.267-.684-.867-.401-1.34.28-.478.922-.645 1.429-.379.069.038.116.095.176.143.356.304.47.789.228 1.195z" fill="#EDBE88"/><path d="M104.928 212.3l-6.78-3.549a.976.976 0 00-.48-.553c-.069-.039-.145-.047-.219-.068.359.299.472.787.228 1.194-.247.417-.748.577-1.209.449-.075-.021-.151-.03-.223-.067-.503-.265-.686-.865-.402-1.34.147-.248.397-.409.673-.471l-10.751-5.628a.995.995 0 00-.478-.558c-.07-.038-.148-.042-.223-.07.358.304.475.792.228 1.197-.242.414-.75.578-1.21.446-.073-.014-.148-.026-.218-.067-.508-.263-.69-.862-.403-1.336.15-.249.401-.407.674-.469l-6.36-3.335c-.658-.345-1.512-.118-1.884.504l-31.918 53.395c-.373.624-.13 1.421.529 1.765l6.355 3.329a.927.927 0 01.077-.78c.284-.475.922-.643 1.43-.374.072.036.12.093.174.137.36.301.477.791.23 1.198-.243.412-.75.569-1.207.448.059.046.106.104.176.138.242.128.51.152.759.092l10.746 5.632a.92.92 0 01.078-.783c.285-.475.925-.64 1.428-.377.071.038.118.092.179.142.358.299.47.787.226 1.196-.25.41-.749.572-1.21.444.056.048.105.107.175.14.242.129.513.151.765.096l6.768 3.548c.64.333 1.492.108 1.862-.513l31.92-53.396a1.26 1.26 0 00-.505-1.756zm-45.653 34.068c-.246.409-.75.571-1.208.444-.076-.021-.15-.03-.22-.067-.511-.266-.69-.865-.405-1.337.282-.476.92-.647 1.43-.378.068.038.116.095.175.14.355.3.469.787.228 1.198zm6.503-10.882c-.242.409-.749.568-1.208.447-.074-.024-.149-.028-.222-.072-.505-.266-.685-.864-.404-1.34.285-.468.923-.64 1.432-.377.07.042.12.097.175.146.355.296.476.785.227 1.196zm5.876 17.367c-.242.411-.746.576-1.206.446-.078-.019-.152-.031-.223-.067-.505-.264-.686-.862-.403-1.339.285-.472.926-.643 1.43-.379.07.039.12.095.178.142.36.302.471.789.224 1.197zm.632-28.247c-.246.409-.755.568-1.21.444-.076-.024-.151-.031-.221-.067-.509-.267-.686-.866-.404-1.341.282-.476.92-.644 1.431-.378.07.039.116.093.176.139.352.302.469.791.228 1.203zm5.875 17.366c-.246.412-.746.572-1.206.446-.078-.022-.153-.032-.223-.069-.504-.263-.687-.865-.402-1.34.284-.471.925-.64 1.429-.375.071.036.118.095.175.14.358.3.47.786.227 1.198zm.63-28.252c-.248.407-.751.572-1.21.447-.074-.021-.151-.032-.22-.069-.51-.264-.692-.866-.404-1.339.282-.475.921-.644 1.429-.376.072.034.117.095.175.138.354.301.474.79.23 1.199zm5.874 17.371c-.245.406-.748.574-1.208.444-.075-.022-.151-.029-.222-.064-.504-.263-.69-.869-.402-1.339.284-.476.922-.645 1.428-.379.072.037.119.091.179.138.359.303.471.79.225 1.2zm6.508-10.884c-.245.411-.748.575-1.21.445-.074-.02-.15-.03-.222-.064-.503-.267-.684-.867-.401-1.34.28-.478.922-.645 1.429-.379.069.038.116.095.176.143.356.304.47.789.228 1.195z" fill="#fff"/><path d="M68.55 295.541s-10.466 1.831-27.107-6.885c-13.756-7.208-19.034-15.489-20.186-17.541l-.048.078s4.61 9.73 20.445 18.029c16.64 8.716 27.106 6.885 27.106 6.885l60.746-101.623s-.113-.139-.319-.38L68.55 295.541zM84.084 173.625c-.282.473-.1 1.075.404 1.341.075.036.15.043.224.063a.991.991 0 01-.334-.537c0-.021.003-.031-.002-.045a.897.897 0 01.107-.614c.118-.192.299-.327.502-.405.014-.004.024-.015.041-.017a1.13 1.13 0 01.668-.022c-.06-.049-.105-.104-.18-.142-.502-.264-1.143-.096-1.43.378zM97.09 181.52l.005.004c-.002-.004-.004-.004-.007-.004h.001z" fill="#002CA7"/><path d="M96.468 180.114c-.283.475-.101 1.073.404 1.342.07.035.145.041.216.065a1.039 1.039 0 01-.325-.541c0-.02-.003-.03-.003-.049a.904.904 0 01.107-.608c.117-.195.3-.325.498-.405a.22.22 0 00.044-.022c.209-.068.444-.08.664-.018l.004.001c-.056-.049-.108-.103-.177-.142-.51-.265-1.145-.097-1.432.377zM108.855 186.601c-.285.475-.102 1.075.402 1.337.07.04.147.045.222.069a.988.988 0 01-.331-.543.119.119 0 01-.003-.041.872.872 0 01.102-.614.98.98 0 01.507-.404.195.195 0 01.041-.02 1.12 1.12 0 01.667-.018c-.061-.049-.108-.105-.179-.142-.504-.263-1.145-.099-1.428.376zM121.24 193.089c-.286.477-.106 1.076.402 1.339.068.036.143.043.214.064a1.004 1.004 0 01-.326-.541c-.003-.012 0-.028-.006-.043a.883.883 0 01.112-.609.962.962 0 01.494-.404c.019-.007.03-.016.048-.021.206-.073.44-.082.662-.021l.002-.001c-.055-.047-.103-.102-.174-.138-.51-.266-1.145-.099-1.428.375zM121.857 194.497h.005c-.002-.003-.005-.003-.006-.003l.001.003zM77.582 184.509c-.282.473-.101 1.075.404 1.337.071.038.145.045.22.069a1.015 1.015 0 01-.332-.544c-.003-.015.001-.03-.003-.042a.874.874 0 01.107-.613.99.99 0 01.504-.407c.01-.001.02-.01.04-.016.207-.069.443-.08.666-.017-.057-.049-.102-.109-.174-.146-.507-.264-1.149-.097-1.432.379zM90.587 192.4h.004-.004c-.001-.001-.001-.001 0 0zM89.966 190.997c-.282.476-.105 1.07.405 1.338.068.037.142.044.216.064a1.016 1.016 0 01-.328-.541l-.004-.047a.902.902 0 01.107-.608 1.025 1.025 0 01.544-.421c.208-.071.44-.082.664-.023l.004.002c-.06-.048-.107-.107-.175-.143-.51-.265-1.149-.096-1.433.379zM102.345 197.479c-.283.477-.099 1.075.403 1.338.073.042.149.049.225.07a.988.988 0 01-.331-.541c-.004-.015-.001-.032-.003-.044a.897.897 0 01.101-.615.985.985 0 01.508-.401c.01-.007.022-.011.036-.02a1.19 1.19 0 01.67-.02c-.059-.048-.107-.105-.177-.143-.503-.264-1.145-.092-1.432.376zM114.733 203.973c-.286.473-.105 1.072.404 1.34.07.033.147.043.219.065v-.001a1.015 1.015 0 01-.331-.542.222.222 0 00-.004-.045.918.918 0 01.107-.612c.119-.193.299-.323.5-.405.015 0 .027-.01.042-.014.206-.073.441-.082.663-.026-.055-.046-.1-.104-.17-.135-.508-.271-1.147-.1-1.43.375zM116.334 203.732l.002.003v-.003h-.002zM71.075 195.39c-.285.473-.1 1.075.403 1.337.074.039.147.05.222.068a.996.996 0 01-.331-.544c-.003-.014 0-.028-.002-.041a.877.877 0 01.106-.612.966.966 0 01.503-.404c.013-.005.024-.015.038-.022.21-.068.443-.081.67-.019-.059-.046-.105-.102-.18-.14-.503-.264-1.147-.097-1.43.377zM84.135 201.409a1.054 1.054 0 00-.674.468c-.287.475-.105 1.073.403 1.336.07.041.145.053.218.067a.976.976 0 01-.328-.543c-.002-.011-.003-.026-.007-.043a.917.917 0 01.11-.609c.117-.193.301-.326.498-.404l.042-.021c.211-.068.444-.079.667-.022-.055-.045-.102-.102-.175-.136a1.094 1.094 0 00-.754-.093zM96.517 207.895a1.037 1.037 0 00-.673.471c-.285.475-.102 1.075.402 1.339.072.038.148.045.223.067a.964.964 0 01-.33-.547c-.005-.015-.005-.027-.005-.038a.853.853 0 01.106-.612.955.955 0 01.503-.406c.011-.007.023-.015.04-.019.207-.071.442-.082.667-.019-.06-.049-.106-.104-.177-.142a1.107 1.107 0 00-.756-.094zM108.228 214.855c-.282.475-.106 1.07.405 1.339.071.033.145.043.218.063h-.002a.975.975 0 01-.326-.542c-.005-.016-.003-.027-.006-.043a.878.878 0 01.108-.611c.118-.193.297-.327.498-.406.016-.004.029-.013.044-.019.208-.071.444-.08.663-.025l.005.006c-.058-.047-.105-.102-.174-.14-.513-.268-1.148-.096-1.433.378zM64.573 206.269c-.287.476-.102 1.075.403 1.34.072.04.145.047.22.069a1.01 1.01 0 01-.331-.543c-.005-.016-.002-.029-.005-.042a.879.879 0 01.108-.613.972.972 0 01.503-.405c.013-.004.021-.013.038-.018.206-.07.444-.082.668-.022-.059-.045-.103-.102-.176-.142-.504-.262-1.146-.097-1.428.376zM76.958 212.76c-.288.473-.107 1.075.403 1.339.07.036.146.047.22.068l-.003-.003a.974.974 0 01-.327-.541c-.003-.013-.003-.028-.007-.045a.912.912 0 01.11-.61 1.027 1.027 0 01.54-.421 1.16 1.16 0 01.665-.024h.004c-.06-.043-.105-.104-.176-.137-.508-.27-1.147-.1-1.43.374zM89.34 219.248c-.283.473-.103 1.073.4 1.34.072.033.149.043.222.064a1.002 1.002 0 01-.331-.544l-.003-.041a.862.862 0 01.105-.613c.118-.193.3-.323.505-.403.01-.005.024-.013.04-.017.207-.07.438-.083.667-.02-.06-.049-.108-.106-.177-.144-.506-.266-1.15-.099-1.429.378zM101.724 225.737c-.282.476-.105 1.07.404 1.336.071.039.144.047.22.068h-.003a1.012 1.012 0 01-.328-.541l-.003-.047a.872.872 0 01.107-.607.978.978 0 01.498-.405c.016-.006.029-.014.046-.019a1.13 1.13 0 01.663-.021c-.055-.045-.102-.107-.172-.143-.511-.267-1.15-.095-1.432.379zM58.065 217.154c-.284.476-.103 1.078.405 1.34.069.038.145.045.22.069a1.006 1.006 0 01-.33-.547c-.004-.015-.002-.027-.005-.041a.887.887 0 01.108-.61.972.972 0 01.502-.406.291.291 0 00.04-.022 1.14 1.14 0 01.668-.018c-.06-.049-.105-.101-.177-.141-.505-.264-1.147-.098-1.43.376zM70.451 223.642c-.282.475-.105 1.073.404 1.34.07.037.145.044.22.067l-.002-.004a.962.962 0 01-.328-.541c-.002-.013-.004-.03-.009-.044a.917.917 0 01.111-.608.991.991 0 01.498-.406c.016-.009.028-.012.043-.021.21-.068.444-.08.664-.022h.004c-.059-.046-.105-.1-.175-.139-.51-.266-1.148-.097-1.43.378zM82.834 230.132c-.288.47-.102 1.076.401 1.339.071.035.147.042.223.064a.99.99 0 01-.33-.544.08.08 0 01-.002-.04.867.867 0 01.101-.611.96.96 0 01.507-.407.104.104 0 01.039-.017c.21-.073.443-.085.67-.024-.062-.047-.107-.102-.18-.137-.507-.267-1.146-.099-1.43.377zM95.217 236.619c-.284.476-.105 1.073.405 1.339.068.037.146.045.216.068l.002-.004a.995.995 0 01-.328-.543c-.004-.015-.003-.025-.006-.044a.869.869 0 01.108-.605.964.964 0 01.5-.409c.015-.004.028-.014.043-.019.206-.071.439-.082.661-.025-.054-.046-.1-.099-.17-.134-.507-.269-1.146-.098-1.43.376z" fill="#002CA7"/><path d="M96.817 236.377l.007.005-.003-.001-.004-.004zM51.56 228.035c-.283.476-.1 1.075.402 1.34.075.039.149.045.222.065a.987.987 0 01-.332-.538c0-.02.003-.03-.001-.045a.871.871 0 01.106-.614c.118-.193.298-.324.503-.404.012-.003.024-.014.038-.019a1.18 1.18 0 01.67-.018c-.06-.047-.103-.106-.178-.145-.503-.263-1.146-.092-1.43.378zM63.943 234.522c-.28.476-.1 1.074.404 1.34.073.043.149.047.223.071l-.004-.004a1 1 0 01-.325-.54c-.002-.017-.006-.03-.006-.047a.886.886 0 01.108-.609c.118-.194.3-.324.498-.406a.148.148 0 00.042-.019c.209-.068.441-.078.663-.021-.055-.047-.1-.102-.17-.141-.51-.265-1.148-.092-1.433.376z" fill="#002CA7"/><path d="M65.545 234.287l.005.005v-.005h-.005zM76.33 241.009c-.285.475-.102 1.076.402 1.339.07.037.145.047.223.069a.98.98 0 01-.332-.542c-.005-.017-.002-.031-.002-.042a.855.855 0 01.103-.615.98.98 0 01.505-.405c.01-.006.022-.01.039-.016.205-.07.443-.082.666-.022-.057-.046-.104-.104-.175-.141-.504-.265-1.146-.096-1.43.375zM88.715 247.501c-.286.473-.107 1.073.403 1.337.069.039.146.046.218.066l-.003-.002a.964.964 0 01-.325-.54c-.005-.015-.002-.029-.007-.044a.89.89 0 01.11-.61.944.944 0 01.496-.403l.045-.022a1.2 1.2 0 01.662-.022l.006.003c-.058-.045-.105-.104-.175-.14-.511-.268-1.147-.099-1.43.377zM45.056 238.92c-.283.475-.101 1.074.403 1.34.074.035.147.044.22.064a1.007 1.007 0 01-.329-.541c-.004-.014-.002-.029-.006-.039a.884.884 0 01.109-.616.97.97 0 01.502-.406c.013-.003.023-.013.04-.018.209-.07.443-.079.667-.02-.06-.044-.105-.103-.175-.14-.504-.266-1.146-.098-1.431.376zM58.062 246.812h.005c-.002 0-.004-.003-.005-.003v.003zM57.443 245.409c-.286.472-.107 1.07.404 1.336.067.037.142.045.215.064a.966.966 0 01-.326-.537.914.914 0 01.103-.656 1.027 1.027 0 01.543-.425c.207-.068.441-.082.665-.022l.001.003c-.059-.046-.107-.103-.175-.14-.51-.27-1.148-.099-1.43.377zM69.821 251.893c-.282.477-.101 1.074.404 1.339.07.036.145.047.223.067a1.005 1.005 0 01-.334-.539l-.001-.045a.887.887 0 01.104-.615.99.99 0 01.505-.403c.013-.006.024-.014.04-.019.208-.07.442-.081.667-.021-.06-.047-.108-.103-.178-.141-.503-.265-1.144-.095-1.43.377zM82.206 258.379c-.281.477-.103 1.076.404 1.34.07.039.148.049.223.067h-.003a.995.995 0 01-.331-.538c0-.017 0-.033-.003-.049a.898.898 0 01.108-.609.993.993 0 01.498-.403c.016-.007.028-.015.044-.019.208-.074.444-.082.665-.025l.005.003c-.06-.046-.106-.102-.18-.141-.506-.266-1.146-.096-1.43.374zM38.551 249.798c-.283.476-.1 1.074.402 1.337.076.039.148.05.223.07a1.033 1.033 0 01-.334-.544c-.001-.014.002-.029 0-.041a.873.873 0 01.106-.613.964.964 0 01.502-.403c.014-.005.023-.014.039-.021.207-.067.443-.079.667-.021-.057-.045-.102-.101-.176-.14-.503-.263-1.148-.098-1.428.376zM50.935 256.287c-.15.25-.16.53-.077.78.077.232.24.432.48.557.07.04.144.05.218.069a1.053 1.053 0 01-.33-.542.117.117 0 00-.003-.047.904.904 0 01.111-.608.984.984 0 01.495-.403.237.237 0 00.045-.021 1.19 1.19 0 01.664-.02c-.054-.045-.1-.102-.173-.138-.509-.269-1.147-.101-1.43.373zM51.556 257.697h.005c-.002 0-.004-.003-.005-.003v.003zM63.32 262.775a.917.917 0 00-.079.782.97.97 0 00.48.555c.071.04.147.047.221.067a.966.966 0 01-.33-.541c-.003-.018 0-.029-.004-.045a.85.85 0 01.107-.61.969.969 0 01.503-.404c.01-.005.024-.015.039-.017.207-.072.443-.085.67-.021-.061-.05-.108-.104-.18-.142-.502-.263-1.143-.098-1.428.376zM75.704 269.263c-.286.477-.108 1.073.404 1.341.07.034.145.044.22.063l-.006-.001a1.004 1.004 0 01-.325-.54l-.005-.045a.872.872 0 01.108-.611.997.997 0 01.498-.404c.015-.005.028-.013.045-.018.205-.073.44-.081.661-.024l.003.002c-.055-.045-.105-.102-.174-.138-.507-.266-1.144-.098-1.43.375zM32.047 260.683c-.286.476-.101 1.077.405 1.34.07.039.143.045.22.067a.992.992 0 01-.332-.543c-.003-.017 0-.028-.003-.044a.88.88 0 01.106-.612 1 1 0 01.502-.407c.015-.001.025-.011.04-.015.208-.074.444-.083.667-.023-.058-.046-.102-.102-.175-.138-.506-.266-1.147-.095-1.43.375zM45.05 268.58h.005l-.006-.002v.002zM44.432 267.171c-.285.474-.105 1.071.403 1.338.066.035.142.046.215.067a1.022 1.022 0 01-.327-.544c.001-.014-.002-.025-.004-.047a.907.907 0 01.109-.608c.117-.193.299-.321.498-.402a.573.573 0 00.043-.019 1.12 1.12 0 01.664-.022c-.056-.049-.104-.104-.172-.139-.509-.265-1.144-.099-1.43.376zM46.032 266.934l.005.003-.005-.003zM56.813 273.66c-.283.473-.1 1.072.404 1.334.07.039.145.045.22.074a1.021 1.021 0 01-.329-.549.098.098 0 01-.003-.042.862.862 0 01.104-.612.965.965 0 01.506-.404c.009-.005.021-.013.04-.018.206-.07.44-.082.662-.018-.057-.051-.103-.105-.174-.144-.504-.265-1.149-.099-1.43.379zM69.818 281.555l.004-.003-.007-.003c0 .003.001.003.003.006zM69.198 280.146c-.283.475-.105 1.072.403 1.339.07.036.143.045.213.062a1.007 1.007 0 01-.322-.539c-.004-.013-.004-.027-.007-.045a.877.877 0 01.11-.609c.115-.194.295-.322.498-.407.017-.003.027-.012.045-.017.206-.072.44-.081.661-.019l.003-.004c-.054-.045-.103-.101-.173-.136-.511-.266-1.147-.099-1.43.375zM25.542 271.564c-.285.476-.104 1.075.405 1.34.07.039.143.045.22.068a.997.997 0 01-.332-.544c-.004-.015 0-.029-.004-.044a.87.87 0 01.108-.611.995.995 0 01.501-.407c.012-.001.022-.009.04-.017.207-.07.442-.082.666-.018-.057-.05-.103-.103-.173-.14-.509-.264-1.151-.1-1.43.373zM37.926 278.052c-.282.476-.105 1.073.404 1.34.071.035.147.046.22.069l-.003-.005a.979.979 0 01-.328-.541c-.001-.012-.001-.031-.006-.044a.918.918 0 01.11-.611c.117-.194.298-.322.496-.402a.167.167 0 00.047-.023c.208-.067.44-.081.662-.018h.005c-.057-.048-.107-.104-.176-.14-.51-.266-1.149-.098-1.43.375zM50.308 284.544c-.286.469-.102 1.069.401 1.336.072.036.148.042.224.067a1.013 1.013 0 01-.333-.545.204.204 0 01-.001-.043.88.88 0 01.1-.613c.121-.196.3-.327.509-.404.01-.002.02-.011.036-.016.21-.073.443-.082.668-.024-.06-.045-.107-.101-.178-.137-.501-.265-1.142-.097-1.426.379zM64.293 290.791l.005.004-.001-.004h-.004zM62.692 291.031c-.285.471-.103 1.069.406 1.338.068.036.147.043.216.067v-.003a1.006 1.006 0 01-.328-.543c-.004-.014-.003-.029-.005-.045a.887.887 0 01.107-.607 1 1 0 01.499-.406c.015-.003.029-.013.044-.018.206-.071.44-.08.661-.023-.054-.047-.1-.104-.169-.135-.509-.27-1.146-.099-1.43.375zM45.906 355.616c-4.555 0-8.247 3.458-8.247 7.722 0 4.262 3.693 7.719 8.247 7.719 4.553 0 8.246-3.457 8.246-7.719 0-4.264-3.693-7.722-8.246-7.722z" fill="#002CA7"/><path d="M45.906 357.794c-3.271 0-5.923 2.482-5.923 5.544 0 3.06 2.651 5.545 5.923 5.545 3.269 0 5.922-2.485 5.922-5.545 0-3.062-2.654-5.544-5.922-5.544z" fill="#8AA5F8"/><path d="M43.198 349.625h-5.285v5.991h5.285v-5.991z" fill="#002CA7"/><path d="M45.115 355.115c-.275-.86-1.285-1.563-2.244-1.563h-4.794c-.958 0-1.744.735-1.744 1.631v3.47c0 .897.619 2.084 1.375 2.635l3.679 2.685c.756.552 2.16 1.003 3.118 1.003h2.017c.959 0 1.52-.703 1.243-1.56l-2.65-8.301z" fill="#D9E2FF"/><path d="M45.906 364.07c.434 0 .785-.329.785-.735 0-.405-.352-.734-.785-.734-.434 0-.785.329-.785.734 0 .406.351.735.785.735zM43.404 364.07c.434 0 .785-.329.785-.735 0-.405-.351-.734-.785-.734-.433 0-.784.329-.784.734 0 .406.351.735.785.735z" fill="#8AA5F8"/><path d="M184.333 371.056c4.554 0 8.246-3.456 8.246-7.72 0-4.264-3.692-7.72-8.246-7.72-4.555 0-8.247 3.456-8.247 7.72 0 4.264 3.692 7.72 8.247 7.72z" fill="#002CA7"/><path d="M184.332 357.793c-3.271 0-5.922 2.482-5.922 5.545 0 3.059 2.651 5.544 5.922 5.544 3.27 0 5.921-2.485 5.921-5.544 0-3.063-2.651-5.545-5.921-5.545zM176.598 341.465c-1.542-.721-5.879-2.603-6.063-2.683l-2.201 4.443c.045.018 4.451 1.93 5.925 2.619.997.467 2.109 1.527 2.109 2.3v7.039h5.231v-7.039c0-2.997-2.512-5.515-5.001-6.679z" fill="#8AA5F8"/><path d="M183.543 355.115c-.276-.86-1.285-1.563-2.244-1.563h-4.795c-.959 0-1.744.735-1.744 1.632v3.47c0 .897.619 2.084 1.375 2.635l3.681 2.684c.755.552 2.16 1.004 3.118 1.004h2.016c.959 0 1.518-.703 1.243-1.561l-2.65-8.301z" fill="#D9E2FF"/><path d="M184.333 364.07c.433 0 .784-.328.784-.734 0-.406-.351-.734-.784-.734-.434 0-.785.328-.785.734 0 .406.351.734.785.734zM181.832 364.07c.433 0 .784-.328.784-.734 0-.406-.351-.734-.784-.734-.434 0-.785.328-.785.734 0 .406.351.734.785.734zM8.345 236.484c3.89-.592 96.22-7.446 144.496-10.986l-.297-2.728c-5.705.42-139.791 10.259-144.808 11.022-6.545.995-6.545 5.561-6.545 7.28v42.894c0 5.23 3.582 8.061 7.13 8.547 2.62.358 118.078 9.324 122.993 9.701l.313-2.722c-41.482-3.221-120.522-9.388-122.758-9.68-2.005-.271-4.345-1.971-4.345-5.846v-42.894c0-2.539.625-4.1 3.82-4.588z" fill="#8AA5F8"/><path d="M5.334 287.248c2.702.354 122.79 9.316 127.9 9.698l.201-1.819c-43.267-3.229-125.648-9.405-127.75-9.684l-.35 1.805zM5.417 281.403c3.631.248 129.112 7.238 130.379 7.311l.151-1.821c-1.268-.071-126.732-7.063-130.346-7.309l-.184 1.819zM5.467 275.551c4.576.145 131.61 4.881 132.893 4.93l.101-1.823c-1.282-.048-128.325-4.787-132.91-4.929l-.084 1.822zM5.499 269.702c5.532.038 134.127 2.518 135.425 2.546l.051-1.827c-1.298-.025-129.91-2.507-135.457-2.546l-.02 1.827zM5.497 262.023l.026 1.824c6.487-.064 136.648.164 137.962.166l.004-1.825c-1.311-.001-131.49-.229-137.992-.165zM5.478 256.17l.062 1.824c7.45-.166 139.178-2.195 140.507-2.216l-.042-1.823c-1.328.019-133.067 2.047-140.527 2.215zM5.467 250.319l.087 1.822c8.51-.277 143.055-4.597 143.055-4.597l-.086-1.823c-.001 0-134.545 4.319-143.056 4.598zM5.456 244.465l.108 1.825c9.375-.378 144.244-6.915 145.606-6.981l-.131-1.824c-1.362.067-136.22 6.603-145.583 6.98zM5.45 238.613l.126 1.822c10.34-.482 146.779-9.274 148.157-9.36l-.175-1.823c-1.376.09-137.79 8.879-148.109 9.361z" fill="#8AA5F8"/><path d="M118.754 299.748l2.174.375 18.484-72.097-2.175-.378-18.483 72.1zM109.366 298.971l2.18.348 16.635-70.453-2.181-.349-16.634 70.454zM99.978 298.194l2.185.319 14.789-68.813-2.187-.317-14.787 68.811zM90.59 297.422l2.192.283 12.94-67.168-2.193-.286-12.938 67.171zM81.204 296.645l2.199.253 11.09-65.526-2.2-.252-11.09 65.525zM71.815 295.875l2.207.216 9.24-63.886-2.205-.216-9.242 63.886zM62.428 295.103l2.211.179 7.392-62.245-2.21-.178-7.393 62.244zM53.041 294.332l2.214.139 5.547-60.603-2.215-.137-5.546 60.601zM43.654 293.563l2.218.095 3.698-58.959-2.218-.096-3.698 58.96zM34.27 292.797l2.22.048 1.85-57.316-2.223-.049-1.848 57.317zM27.105 236.355h-2.22v55.674h2.22v-55.674z" fill="#8AA5F8"/><path d="M0 240.089v42.894c0 5.233 3.574 9.42 7.808 9.993 2.62.353 9.509 1.027 10.55 1.027 1.043 0 2.985-.411 2.985-1.974v-44.914c0-5.932.764-7.073 8.399-7.644 7.636-.569 118.775-7.564 118.775-7.564l2.834-10.117c-5.705.418-139.79 10.258-144.807 11.022C0 233.808 0 238.374 0 240.089z" fill="#002CA7"/><path d="M0 240.088v42.895c0 5.233 3.574 9.42 7.808 9.993.853.114 2.168.264 3.578.412-3.32-1.394-5.857-5.026-5.857-9.423v-42.894c0-1.719 0-6.282 6.543-7.279 4.483-.682 111.906-8.601 138.882-10.587l.397-1.414c-5.705.417-139.79 10.258-144.807 11.022C0 233.808 0 238.374 0 240.088z" fill="#D9E2FF"/><path d="M166.721 324.077c-2.268-1.491-18.797-8.822-23.244-11.182-5.477-2.903-7.41-7.378-5.746-13.299 1.089-3.875 22.655-90.348 23.385-93.3l-5.947-1.291c-.178.724-22.273 89.344-23.34 93.135-2.39 8.503.679 15.509 8.64 19.729 4.641 2.459 20.902 9.671 22.744 10.882 2.669 1.756 5.838 6.178 3.624 11.153-1.883 4.227-6.15 5.383-19.852 5.383H34.4c-1.685 0-3.052 1.278-3.052 2.857 0 1.58 1.367 2.857 3.052 2.857h112.585c13.002 0 21.799-.62 25.484-8.898 3.22-7.235-.454-14.545-5.748-18.026z" fill="#8AA5F8"/><path d="M179.23 200.037l-21.405 2.549c-1.836.222-3.136 1.793-2.901 3.508.234 1.72 1.91 2.936 3.746 2.716l21.405-2.549c1.836-.218 3.135-1.791 2.902-3.51-.235-1.716-1.913-2.933-3.747-2.714z" fill="#D9E2FF"/><path d="M270.411 62.681h4.759c.364 0 .669.032.914.096.248.065.448.17.606.317.157.146.269.332.338.558.071.228.105.507.105.842v9.687h-2.248v-9.202c0-.324-.179-.485-.537-.485h-3.106c-.357 0-.535.161-.535.485v9.202h-2.259v-9.688c0-.658.148-1.125.444-1.4.298-.274.803-.412 1.519-.412zM281.312 62.68h4.893c.715 0 1.224.137 1.522.412.301.275.45.741.45 1.4v7.882c0 .443-.065.794-.197 1.056a1.171 1.171 0 01-.622.571c-.282.118-.665.178-1.153.178h-4.893c-.714 0-1.221-.136-1.518-.41-.297-.272-.445-.737-.445-1.396v-7.881c0-.659.148-1.125.445-1.4.297-.275.804-.412 1.518-.412zm4.08 1.812h-3.257c-.358 0-.535.16-.535.485v6.903c0 .33.177.494.535.494h3.257c.358 0 .536-.164.536-.494v-6.903c0-.324-.178-.485-.536-.485zM297.652 74.179l-2.969-9.294h-.078l-2.929 9.295h-2.431l3.432-10.081c.194-.581.448-.982.76-1.203.308-.221.718-.332 1.227-.332.252 0 .471.023.66.07a1.621 1.621 0 01.991.71c.131.2.246.45.349.755l3.414 10.08h-2.426zM301.211 72.722V62.68h2.257v8.63h.067l3.064-7.512c.341-.822 1.011-1.234 2.013-1.234.073 0 .134 0 .185.004a3.532 3.532 0 01.448.058 1.299 1.299 0 01.462.204c.063.049.13.111.197.186.067.074.123.16.168.254.046.095.081.208.109.34.029.131.041.274.041.428V74.18h-2.257v-8.624h-.065l-3.073 7.458c-.178.438-.45.76-.808.968a2.365 2.365 0 01-1.198.312c-.519 0-.918-.14-1.194-.424-.277-.282-.416-.666-.416-1.148zM317.65 67.785h1.502c.711 0 1.216.137 1.513.413.301.275.45.741.45 1.399v4.582h-2.257V70.09c0-.328-.176-.493-.528-.493h-3.475v4.582h-2.248v-11.5h2.248v5.105h.328l3.676-5.105h2.509l-3.718 5.106zM330.657 74.18l-2.97-9.296h-.076l-2.929 9.295h-2.433l3.432-10.08c.196-.582.45-.983.76-1.203.31-.221.719-.333 1.228-.333.251 0 .472.023.659.07a1.64 1.64 0 01.993.71c.129.2.244.452.347.755l3.416 10.081h-2.427zM334.216 72.722V62.68h2.257v8.63h.067l3.063-7.512c.342-.822 1.012-1.234 2.014-1.234.073 0 .135 0 .185.004a3.55 3.55 0 01.448.058c.069.015.148.04.236.077.086.036.16.078.225.127.064.049.131.111.198.186.067.074.123.16.168.254.045.095.081.208.108.34.029.131.042.274.042.428V74.18h-2.257v-8.624h-.067l-3.071 7.458c-.178.438-.448.76-.809.968-.36.208-.761.312-1.197.312-.518 0-.918-.14-1.194-.424-.277-.282-.416-.666-.416-1.148zM354.304 62.68v11.5h-2.257v-4.93h-4.187v4.93h-2.25v-11.5h2.25v4.757h4.187V62.68h2.257zM356.688 72.722V62.68h2.258v8.63h.069l3.062-7.512c.341-.822 1.012-1.234 2.013-1.234.073 0 .134 0 .184.004a3.667 3.667 0 01.451.058c.067.015.145.04.233.077a1.064 1.064 0 01.425.313c.066.074.123.16.168.254.046.095.079.208.11.34.026.131.041.274.041.428V74.18h-2.258v-8.624h-.067l-3.072 7.458c-.177.438-.449.76-.808.968a2.36 2.36 0 01-1.197.312c-.52 0-.919-.14-1.194-.424-.279-.282-.418-.666-.418-1.148zM373.128 67.785h1.503c.711 0 1.216.137 1.515.413.299.275.448.741.448 1.399v4.582h-2.258V70.09c0-.328-.175-.493-.528-.493h-3.474v4.582h-2.249v-11.5h2.249v5.105h.329l3.674-5.105h2.51l-3.719 5.106zM377.728 74.18l3.574-10.082c.205-.58.464-.981.772-1.202.309-.221.711-.333 1.21-.333.333 0 .621.046.859.135.238.09.456.25.651.478.194.23.359.536.494.922l3.558 10.081h-2.45l-.998-3.008h-4.238l-.982 3.008h-2.45zm7.073-4.814l-1.492-4.48h-.078l-1.484 4.48h3.054z" fill="#FC3C4C"/><defs><linearGradient id="paint0_linear" x1="94.97" y1="372.403" x2="383.991" y2="372.403" gradientUnits="userSpaceOnUse"><stop stop-color="#4F1EA2"/><stop offset=".517" stop-color="#324BB2"/><stop offset="1" stop-color="#1A71BF"/></linearGradient><linearGradient id="paint1_linear" x1="67.332" y1="141.41" x2="428" y2="141.41" gradientUnits="userSpaceOnUse"><stop stop-color="#E3EDFE"/><stop offset=".047" stop-color="#E5EEFE"/><stop offset=".511" stop-color="#F0F5FE"/><stop offset="1" stop-color="#F4F8FF"/></linearGradient><linearGradient id="paint2_linear" x1="276.332" y1="167.599" x2="379.88" y2="167.599" gradientUnits="userSpaceOnUse"><stop stop-color="#41DC9F"/><stop offset=".517" stop-color="#3BBACC"/><stop offset="1" stop-color="#369EF2"/></linearGradient><linearGradient id="paint3_linear" x1="276.332" y1="187.169" x2="377.963" y2="187.169" gradientUnits="userSpaceOnUse"><stop stop-color="#41DC9F"/><stop offset=".517" stop-color="#3BBACC"/><stop offset="1" stop-color="#369EF2"/></linearGradient><linearGradient id="paint4_linear" x1="276.971" y1="206.739" x2="380.186" y2="206.739" gradientUnits="userSpaceOnUse"><stop stop-color="#41DC9F"/><stop offset=".517" stop-color="#3BBACC"/><stop offset="1" stop-color="#369EF2"/></linearGradient><linearGradient id="paint5_linear" x1="276.971" y1="227.18" x2="377.963" y2="227.18" gradientUnits="userSpaceOnUse"><stop stop-color="#41DC9F"/><stop offset=".517" stop-color="#3BBACC"/><stop offset="1" stop-color="#369EF2"/></linearGradient><linearGradient id="paint6_linear" x1="192.03" y1="255.512" x2="293.307" y2="255.512" gradientUnits="userSpaceOnUse"><stop stop-color="#41DC9F"/><stop offset=".517" stop-color="#3BBACC"/><stop offset="1" stop-color="#369EF2"/></linearGradient><linearGradient id="paint7_linear" x1="278.885" y1="107.594" x2="381.157" y2="107.594" gradientUnits="userSpaceOnUse"><stop stop-color="#41DC9F"/><stop offset=".517" stop-color="#3BBACC"/><stop offset="1" stop-color="#369EF2"/></linearGradient><linearGradient id="paint8_linear" x1="277.607" y1="127.603" x2="381.157" y2="127.603" gradientUnits="userSpaceOnUse"><stop stop-color="#41DC9F"/><stop offset=".517" stop-color="#3BBACC"/><stop offset="1" stop-color="#369EF2"/></linearGradient><linearGradient id="paint9_linear" x1="278.245" y1="147.597" x2="379.88" y2="147.597" gradientUnits="userSpaceOnUse"><stop stop-color="#41DC9F"/><stop offset=".517" stop-color="#3BBACC"/><stop offset="1" stop-color="#369EF2"/></linearGradient><linearGradient id="paint10_linear" x1="135.947" y1="273.75" x2="273.106" y2="273.75" gradientUnits="userSpaceOnUse"><stop stop-color="#132574"/><stop offset=".617" stop-color="#25369B"/><stop offset="1" stop-color="#2E3FAF"/></linearGradient><linearGradient id="paint11_linear" x1="149.446" y1="284.102" x2="273.071" y2="284.102" gradientUnits="userSpaceOnUse"><stop stop-color="#132574"/><stop offset=".617" stop-color="#25369B"/><stop offset="1" stop-color="#2E3FAF"/></linearGradient><linearGradient id="paint12_linear" x1="293.918" y1="287.759" x2="364.347" y2="287.759" gradientUnits="userSpaceOnUse"><stop stop-color="#132574"/><stop offset=".617" stop-color="#25369B"/><stop offset="1" stop-color="#2E3FAF"/></linearGradient><linearGradient id="paint13_linear" x1="288.142" y1="287.759" x2="295.559" y2="287.759" gradientUnits="userSpaceOnUse"><stop stop-color="#132574"/><stop offset=".617" stop-color="#25369B"/><stop offset="1" stop-color="#2E3FAF"/></linearGradient><linearGradient id="paint14_linear" x1="293.918" y1="287.759" x2="305.1" y2="287.759" gradientUnits="userSpaceOnUse"><stop stop-color="#132574"/><stop offset=".617" stop-color="#25369B"/><stop offset="1" stop-color="#2E3FAF"/></linearGradient><linearGradient id="paint15_linear" x1="310.863" y1="284.12" x2="348.469" y2="284.12" gradientUnits="userSpaceOnUse"><stop stop-color="#132574"/><stop offset=".617" stop-color="#25369B"/><stop offset="1" stop-color="#2E3FAF"/></linearGradient><linearGradient id="paint16_linear" x1="266.47" y1="157.634" x2="390.407" y2="157.634" gradientUnits="userSpaceOnUse"><stop stop-color="#41DC9F"/><stop offset=".517" stop-color="#3BBACC"/><stop offset="1" stop-color="#369EF2"/></linearGradient><linearGradient id="paint17_linear" x1="266.47" y1="177.724" x2="390.407" y2="177.724" gradientUnits="userSpaceOnUse"><stop stop-color="#41DC9F"/><stop offset=".517" stop-color="#3BBACC"/><stop offset="1" stop-color="#369EF2"/></linearGradient><linearGradient id="paint18_linear" x1="136.722" y1="191.642" x2="159.65" y2="178.508" gradientUnits="userSpaceOnUse"><stop stop-color="#FF0052"/><stop offset="1" stop-color="#AB0052"/></linearGradient><linearGradient id="paint19_linear" x1="86.773" y1="187.527" x2="155.843" y2="187.527" gradientUnits="userSpaceOnUse"><stop stop-color="#FF0052"/><stop offset="1" stop-color="#AB0052"/></linearGradient><linearGradient id="paint20_linear" x1="89.544" y1="233.754" x2="107.173" y2="220.12" gradientUnits="userSpaceOnUse"><stop stop-color="#FFA084"/><stop offset="1" stop-color="#FFD35C"/></linearGradient><linearGradient id="paint21_linear" x1="210.039" y1="182.781" x2="287.323" y2="182.781" gradientUnits="userSpaceOnUse"><stop stop-color="#E3EDFE"/><stop offset=".047" stop-color="#E5EEFE"/><stop offset=".511" stop-color="#F0F5FE"/><stop offset="1" stop-color="#F4F8FF"/></linearGradient><linearGradient id="paint22_linear" x1="238.28" y1="156.332" x2="268.722" y2="156.332" gradientUnits="userSpaceOnUse"><stop stop-color="#E3EDFE"/><stop offset=".047" stop-color="#E5EEFE"/><stop offset=".511" stop-color="#F0F5FE"/><stop offset="1" stop-color="#F4F8FF"/></linearGradient><linearGradient id="paint23_linear" x1="135.962" y1="156.058" x2="144.877" y2="134.212" gradientUnits="userSpaceOnUse"><stop stop-color="#BECFE3"/><stop offset=".43" stop-color="#D3DEEB"/><stop offset="1" stop-color="#F4F6F9"/></linearGradient><linearGradient id="paint24_linear" x1="106.32" y1="157.895" x2="163.892" y2="157.895" gradientUnits="userSpaceOnUse"><stop stop-color="#41DC9F"/><stop offset=".517" stop-color="#3BBACC"/><stop offset="1" stop-color="#369EF2"/></linearGradient><linearGradient id="paint25_linear" x1="118.271" y1="120.667" x2="115.053" y2="128.551" gradientUnits="userSpaceOnUse"><stop stop-color="#F4F6F9"/><stop offset=".57" stop-color="#D3DEEB"/><stop offset="1" stop-color="#BECFE3"/></linearGradient><linearGradient id="paint26_linear" x1="124.651" y1="123.271" x2="121.434" y2="131.155" gradientUnits="userSpaceOnUse"><stop stop-color="#F4F6F9"/><stop offset=".57" stop-color="#D3DEEB"/><stop offset="1" stop-color="#BECFE3"/></linearGradient><linearGradient id="paint27_linear" x1="131.033" y1="125.875" x2="127.815" y2="133.76" gradientUnits="userSpaceOnUse"><stop stop-color="#F4F6F9"/><stop offset=".57" stop-color="#D3DEEB"/><stop offset="1" stop-color="#BECFE3"/></linearGradient><linearGradient id="paint28_linear" x1="137.413" y1="128.48" x2="134.195" y2="136.364" gradientUnits="userSpaceOnUse"><stop stop-color="#F4F6F9"/><stop offset=".57" stop-color="#D3DEEB"/><stop offset="1" stop-color="#BECFE3"/></linearGradient><linearGradient id="paint29_linear" x1="143.794" y1="131.084" x2="140.576" y2="138.968" gradientUnits="userSpaceOnUse"><stop stop-color="#F4F6F9"/><stop offset=".57" stop-color="#D3DEEB"/><stop offset="1" stop-color="#BECFE3"/></linearGradient><linearGradient id="paint30_linear" x1="150.174" y1="133.688" x2="146.957" y2="141.572" gradientUnits="userSpaceOnUse"><stop stop-color="#F4F6F9"/><stop offset=".57" stop-color="#D3DEEB"/><stop offset="1" stop-color="#BECFE3"/></linearGradient><linearGradient id="paint31_linear" x1="156.555" y1="136.292" x2="153.337" y2="144.176" gradientUnits="userSpaceOnUse"><stop stop-color="#F4F6F9"/><stop offset=".57" stop-color="#D3DEEB"/><stop offset="1" stop-color="#BECFE3"/></linearGradient><linearGradient id="paint32_linear" x1="162.935" y1="138.896" x2="159.718" y2="146.78" gradientUnits="userSpaceOnUse"><stop stop-color="#F4F6F9"/><stop offset=".57" stop-color="#D3DEEB"/><stop offset="1" stop-color="#BECFE3"/></linearGradient><linearGradient id="paint33_linear" x1="169.317" y1="141.501" x2="166.099" y2="149.385" gradientUnits="userSpaceOnUse"><stop stop-color="#F4F6F9"/><stop offset=".57" stop-color="#D3DEEB"/><stop offset="1" stop-color="#BECFE3"/></linearGradient><linearGradient id="paint34_linear" x1="175.697" y1="144.103" x2="172.479" y2="151.988" gradientUnits="userSpaceOnUse"><stop stop-color="#F4F6F9"/><stop offset=".57" stop-color="#D3DEEB"/><stop offset="1" stop-color="#BECFE3"/></linearGradient><linearGradient id="paint35_linear" x1="74.868" y1="226.371" x2="168.136" y2="167.212" gradientUnits="userSpaceOnUse"><stop stop-color="#2E9D8C"/><stop offset=".586" stop-color="#1D61A2"/><stop offset="1" stop-color="#133BB0"/></linearGradient><linearGradient id="paint36_linear" x1="115.698" y1="181.944" x2="137.289" y2="154.154" gradientUnits="userSpaceOnUse"><stop stop-color="#41DC9F"/><stop offset=".517" stop-color="#3BBACC"/><stop offset="1" stop-color="#369EF2"/></linearGradient><linearGradient id="paint37_linear" x1="81.294" y1="227.119" x2="118.457" y2="198.376" gradientUnits="userSpaceOnUse"><stop stop-color="#BECFE3"/><stop offset=".43" stop-color="#D3DEEB"/><stop offset="1" stop-color="#F4F6F9"/></linearGradient></defs></svg>