<svg width="161" height="161" viewBox="0 0 161 161" xmlns="http://www.w3.org/2000/svg"><g transform="translate(1 1)" fill="none" fill-rule="evenodd"><rect stroke="#2E375F" width="159" height="159" rx="5.5"/><path d="M38.36 100.203h1.203v-5.117h6.234v5.117H47V89h-1.203v4.96h-6.234V89h-1.204v11.203zm13.203-4.398c-.727.125-1.282.383-1.665.773-.39.39-.578.906-.578 1.547 0 .586.258 1.102.782 1.555.523.453 1.171.68 1.937.68.305 0 .602-.04.89-.126.29-.078.524-.171.704-.28.172-.11.336-.227.492-.368.156-.14.25-.234.297-.29.047-.054.078-.1.101-.132v1.04h1.118V95.32c0-.836-.29-1.539-.868-2.11-.578-.562-1.296-.85-2.171-.85-.344 0-.688.054-1.016.156a3.52 3.52 0 00-.797.343 5.266 5.266 0 00-.586.446 4.204 4.204 0 00-.36.343c-.054.063-.093.118-.124.157l.719.718.242-.273c.156-.187.414-.375.773-.562.36-.188.742-.282 1.149-.282.562 0 1.023.18 1.382.532.36.359.54.82.54 1.382l-2.961.485zm.476 3.515c-.5 0-.898-.11-1.18-.336a1.061 1.061 0 01-.421-.859c0-.719.484-1.172 1.445-1.36l2.64-.484v.485c0 .757-.234 1.375-.703 1.843-.468.477-1.062.711-1.781.711zm13.274-.156h-1.204v-6.64h-5.273v2.242c0 .562-.055 1.109-.148 1.625-.094.515-.204.93-.329 1.242a6.27 6.27 0 01-.75 1.375c-.062.078-.109.125-.14.156h-.555v2.961h1.117v-1.922h6.164v1.922h1.118v-2.961zm-5.36-5.601h3.04v5.601h-4.321l.32-.445c.211-.297.422-.813.633-1.547.219-.727.32-1.531.32-2.406l.008-1.203zm13.274 2.804c0 .828-.282 1.531-.829 2.102-.546.57-1.21.851-1.976.851s-1.43-.281-1.977-.86c-.547-.577-.82-1.272-.82-2.1 0-.829.273-1.524.82-2.094.547-.57 1.211-.86 1.977-.86s1.43.29 1.976.86c.547.57.829 1.273.829 2.101zm-6.72 0c0 1.125.376 2.07 1.141 2.844.766.766 1.688 1.156 2.782 1.156 1.086 0 2.008-.39 2.765-1.156.766-.773 1.14-1.719 1.14-2.844 0-1.125-.374-2.07-1.14-2.844-.757-.773-1.68-1.164-2.765-1.164-1.094 0-2.016.391-2.782 1.164-.765.774-1.14 1.72-1.14 2.844zm18.407 3.836h1.125v-7.68h-1.125v3.282h-4.398v-3.282h-1.118v7.68h1.118v-3.36h4.398v3.36zm5.367-4.398c-.726.125-1.281.383-1.664.773-.39.39-.578.906-.578 1.547 0 .586.258 1.102.781 1.555.524.453 1.172.68 1.938.68.305 0 .601-.04.89-.126.29-.078.524-.171.704-.28a3.66 3.66 0 00.492-.368c.156-.14.25-.234.297-.29.047-.054.078-.1.101-.132v1.04h1.117V95.32c0-.836-.289-1.539-.867-2.11-.578-.562-1.297-.85-2.172-.85-.343 0-.687.054-1.015.156a3.517 3.517 0 00-.797.343 5.257 5.257 0 00-.586.446 4.188 4.188 0 00-.36.343c-.054.063-.093.118-.124.157l.718.718.242-.273c.157-.187.415-.375.774-.562.36-.188.742-.282 1.148-.282.563 0 1.024.18 1.383.532.36.359.54.82.54 1.382l-2.962.485zm.477 3.515c-.5 0-.899-.11-1.18-.336a1.061 1.061 0 01-.422-.859c0-.719.485-1.172 1.446-1.36l2.64-.484v.485c0 .757-.234 1.375-.703 1.843-.469.477-1.062.711-1.781.711zm9.515-8.96c-.406 0-.726-.118-.945-.352-.226-.235-.336-.57-.336-1.008h-.883c0 .64.196 1.164.602 1.563.398.406.922.601 1.562.601.641 0 1.157-.195 1.555-.601.399-.399.602-.922.602-1.563h-.875c0 .438-.117.773-.336 1.008-.227.234-.54.351-.946.351zm2.399 2.163l-4.64 5.758v-5.758h-1.118v7.68h.953l4.64-5.758v5.758h1.126v-7.68h-.961zm2.562 1.04h2.72v6.64h1.116v-6.64h2.719v-1.04h-6.555v1.04zm13.922-1.04l-4.64 5.758v-5.758h-1.118v7.68h.954l4.64-5.758v5.758h1.125v-7.68h-.96zm-80.64 26.68h1.125v-7.68H33v7.68h1.117v-6.625h4.399v6.625zm9.843-3.836c0 .828-.28 1.531-.828 2.102-.547.57-1.21.851-1.976.851s-1.43-.281-1.977-.86c-.547-.577-.82-1.272-.82-2.1 0-.829.273-1.524.82-2.094.547-.57 1.211-.86 1.977-.86.765 0 1.43.29 1.976.86.547.57.828 1.273.828 2.101zm-6.718 0c0 1.125.375 2.07 1.14 2.844.766.766 1.688 1.156 2.782 1.156 1.085 0 2.007-.39 2.765-1.156.766-.773 1.14-1.719 1.14-2.844 0-1.125-.374-2.07-1.14-2.844-.758-.773-1.68-1.164-2.765-1.164-1.094 0-2.016.391-2.782 1.164-.765.774-1.14 1.72-1.14 2.844zm16.96 2.797h-1.203v-6.64h-5.273v2.242c0 .562-.055 1.109-.148 1.625-.094.515-.204.93-.329 1.242a6.259 6.259 0 01-.75 1.375c-.062.078-.109.125-.14.156h-.555v2.961h1.117v-1.922h6.164v1.922h1.118v-2.961zm-5.359-5.601h3.04v5.601H51.96l.32-.445c.211-.297.422-.813.633-1.547.219-.727.32-1.531.32-2.406l.008-1.203zm9.672 3.523l2.242 3.117h1.36l-2.883-4 2.64-3.68h-1.359l-2 2.797-2-2.797h-1.36l2.641 3.68-2.882 4h1.367l2.234-3.117zm11.29-.719c0 .828-.282 1.531-.829 2.102-.547.57-1.211.851-1.977.851-.765 0-1.43-.281-1.976-.86-.547-.577-.82-1.272-.82-2.1 0-.829.273-1.524.82-2.094.547-.57 1.21-.86 1.976-.86s1.43.29 1.977.86c.547.57.828 1.273.828 2.101zm-6.72 0c0 1.125.375 2.07 1.141 2.844.766.766 1.688 1.156 2.781 1.156 1.086 0 2.008-.39 2.766-1.156.766-.773 1.14-1.719 1.14-2.844 0-1.125-.374-2.07-1.14-2.844-.758-.773-1.68-1.164-2.766-1.164-1.093 0-2.015.391-2.781 1.164-.766.774-1.14 1.72-1.14 2.844zm16.961 2.797h-1.203v-6.64H77.97v2.242c0 .562-.055 1.109-.149 1.625-.093.515-.203.93-.328 1.242a6.27 6.27 0 01-.75 1.375c-.062.078-.11.125-.14.156h-.555v2.961h1.117v-1.922h6.164v1.922h1.117v-2.961zm-5.36-5.601h3.04v5.601h-4.32l.32-.445c.21-.297.422-.813.633-1.547.219-.727.32-1.531.32-2.406l.008-1.203zm6.634 1.523c0 .367.054.695.172.984.117.282.242.508.382.664.141.157.297.297.485.407.18.109.305.18.383.21a.862.862 0 00.18.055l-1.758 2.797h1.28l1.595-2.562h2.242v2.562h1.117v-7.68h-3.274c-.835 0-1.515.25-2.03.735-.516.484-.774 1.094-.774 1.828zm4.96-1.523v3.039h-2.156c-.515 0-.93-.141-1.226-.422-.305-.282-.453-.641-.453-1.094 0-.445.148-.813.453-1.094.305-.281.71-.422 1.226-.422l2.157-.007zm3.68 6.64h10v1.922h1.118v-2.961h-1.204v-6.64h-1.117v6.64h-3.265v-6.64h-1.133v6.64h-3.281v-6.64h-1.118v7.68zm14.555 1.117c-.289.805-.773 1.203-1.453 1.203-.266 0-.531-.054-.797-.164v1.047l.11.032c.078.03.203.062.359.085.156.032.32.04.492.04.555 0 1.016-.165 1.383-.508.36-.344.703-.922 1.023-1.735l3.524-8.797h-1.203l-2.477 6.243-2.484-6.243h-1.203l3.125 7.68-.399 1.117zm16.64-4.96c0-1.11-.382-2.047-1.132-2.829-.758-.781-1.656-1.172-2.703-1.172-.985 0-1.844.344-2.563 1.024-.726.68-1.156 1.484-1.289 2.422h-1.68v-3.282h-1.117v7.68h1.118v-3.36h1.68a3.97 3.97 0 001.28 2.493c.735.687 1.586 1.023 2.563 1.023 1.047 0 1.945-.382 2.703-1.164.758-.781 1.14-1.726 1.14-2.836zm-6.57.007c0-.828.274-1.531.813-2.101.539-.57 1.18-.86 1.914-.86s1.375.29 1.914.86c.539.57.805 1.273.805 2.101 0 .828-.266 1.531-.805 2.102-.54.57-1.18.851-1.914.851s-1.375-.281-1.914-.851c-.54-.57-.813-1.274-.813-2.102zM41.633 42.758l.187-.063c.14-.047.305-.133.493-.258a4.04 4.04 0 00.554-.453c.188-.172.344-.414.477-.71.133-.297.203-.626.203-.993 0-.828-.336-1.531-1-2.101-.672-.57-1.563-.86-2.68-.86-.437 0-.867.063-1.273.18a5.071 5.071 0 00-1 .383c-.258.14-.5.297-.727.476-.234.188-.383.313-.445.391-.07.078-.117.133-.149.172l.797.797.305-.32c.21-.212.547-.422 1.016-.641.46-.211.953-.32 1.476-.32.766 0 1.375.187 1.82.554.438.375.665.828.665 1.367 0 .516-.227.946-.672 1.305-.446.36-1.047.54-1.813.54h-1.273v1.116h1.273c.883 0 1.586.22 2.102.649.515.437.781.968.781 1.593 0 .586-.266 1.094-.781 1.516-.516.43-1.219.64-2.102.64-.383 0-.758-.046-1.125-.148a4.085 4.085 0 01-.898-.343 4.104 4.104 0 01-.649-.438 5.09 5.09 0 01-.39-.344 1.017 1.017 0 01-.133-.164l-.805.797.164.195c.094.118.25.258.485.43.226.172.492.344.789.516.297.172.68.312 1.14.437.453.125.93.188 1.422.188 1.196 0 2.172-.328 2.938-.985.765-.656 1.148-1.414 1.148-2.289 0-.422-.086-.804-.25-1.148-.172-.344-.36-.617-.562-.805a3.348 3.348 0 00-.711-.508 6.52 6.52 0 00-.555-.273 2.063 2.063 0 00-.242-.078zm11.594 4.883h-1.204V41H46.75v2.242c0 .563-.055 1.11-.148 1.625-.094.516-.204.93-.329 1.242a6.26 6.26 0 01-.75 1.375c-.062.078-.109.125-.14.157h-.555v2.96h1.117V48.68h6.164v1.922h1.118V47.64zm-5.36-5.602h3.04v5.602h-4.321l.32-.446c.211-.297.422-.812.633-1.547.219-.726.32-1.53.32-2.406l.008-1.203zm13.914 3.219l.078-.578c0-1.11-.351-2.024-1.054-2.75-.703-.727-1.578-1.094-2.625-1.094-1.016 0-1.891.39-2.641 1.172-.75.781-1.117 1.719-1.117 2.828 0 1.11.375 2.055 1.133 2.836.75.781 1.656 1.164 2.703 1.164.383 0 .758-.055 1.125-.172a4.3 4.3 0 00.898-.383c.235-.14.446-.297.649-.476a3.65 3.65 0 00.39-.383c.063-.078.11-.133.14-.18l-.718-.719-.273.313c-.172.219-.469.43-.875.64a2.81 2.81 0 01-1.336.32c-.719 0-1.336-.25-1.867-.757-.532-.5-.813-1.102-.852-1.797l6.242.016zm-3.601-3.375c.672 0 1.242.226 1.718.68.477.453.758 1.03.844 1.718H55.54c.086-.648.383-1.21.883-1.687.5-.469 1.086-.711 1.758-.711zm5.117 2.953c0 1.11.375 2.055 1.133 2.836.75.781 1.656 1.164 2.703 1.164.375 0 .742-.055 1.101-.172.36-.117.657-.242.883-.383.235-.14.453-.297.656-.476.211-.18.352-.305.415-.383.062-.078.109-.133.14-.18l-.797-.719-.258.313c-.18.219-.468.43-.867.64-.406.22-.828.32-1.273.32-.735 0-1.375-.28-1.914-.85-.54-.571-.805-1.274-.805-2.102 0-.828.266-1.532.805-2.102.539-.57 1.18-.86 1.914-.86.289 0 .57.048.836.134.265.093.476.195.648.304.164.11.32.242.461.39.14.157.235.259.274.313.046.063.078.102.093.133l.805-.797-.336-.367c-.219-.25-.594-.508-1.11-.765a3.714 3.714 0 00-1.679-.391c-1.04 0-1.937.39-2.695 1.172-.758.781-1.133 1.719-1.133 2.828zm9.914 2.805V44.6h2c.508 0 .914.141 1.219.422.304.282.46.649.46 1.094 0 .453-.156.82-.46 1.102-.305.281-.703.422-1.203.422H73.21zm4.797-1.516c0-.766-.25-1.39-.75-1.86-.5-.468-1.188-.703-2.047-.703h-2V41h-1.117v7.68h3.133c.859 0 1.539-.235 2.039-.703.492-.47.742-1.086.742-1.852zM90.336 45c0-1.063-.36-1.969-1.078-2.719-.719-.75-1.586-1.125-2.602-1.125-.343 0-.672.063-.984.172-.313.11-.57.234-.766.367-.203.14-.383.29-.547.461-.164.172-.273.29-.32.36-.047.07-.086.125-.101.164.039-1.078.32-1.93.835-2.555.516-.625 1.204-1.031 2.047-1.203 1.594-.313 2.61-.664 3.04-1.04L89.296 37l-.234.14c-.157.102-.454.227-.891.376a9.175 9.175 0 01-1.516.367c-2.61.469-3.914 2.469-3.914 6 0 1.578.352 2.804 1.07 3.664.711.86 1.633 1.289 2.766 1.289 1.047 0 1.93-.367 2.664-1.11.727-.734 1.094-1.648 1.094-2.726zm-6.398 0c0-.79.257-1.453.773-1.992.516-.531 1.14-.805 1.867-.805.719 0 1.344.274 1.86.805.515.539.78 1.203.78 1.992 0 .797-.265 1.46-.78 1.992-.516.54-1.141.805-1.86.805a2.49 2.49 0 01-1.867-.805c-.516-.531-.773-1.195-.773-1.992zm10.164 4.797c-.29.805-.774 1.203-1.454 1.203-.265 0-.53-.055-.796-.164v1.047l.109.031c.078.031.203.063.36.086.156.031.32.04.492.04.554 0 1.015-.165 1.382-.509.36-.344.703-.922 1.024-1.734L98.742 41H97.54l-2.476 6.242L92.578 41h-1.203l3.125 7.68-.398 1.117zm13.28-2.156h-1.202V41h-5.274v2.242c0 .563-.054 1.11-.148 1.625-.094.516-.203.93-.328 1.242a6.26 6.26 0 01-.75 1.375c-.063.078-.11.125-.141.157h-.555v2.96h1.118V48.68h6.164v1.922h1.117V47.64zm-5.359-5.602h3.04v5.602h-4.32l.32-.446c.21-.297.421-.812.632-1.547.219-.726.32-1.53.32-2.406l.008-1.203zm13.915 3.219l.078-.578c0-1.11-.352-2.024-1.055-2.75-.703-.727-1.578-1.094-2.625-1.094-1.016 0-1.89.39-2.64 1.172-.75.781-1.118 1.719-1.118 2.828 0 1.11.375 2.055 1.133 2.836.75.781 1.656 1.164 2.703 1.164.383 0 .758-.055 1.125-.172.367-.117.664-.242.899-.383a4.33 4.33 0 00.648-.476 3.65 3.65 0 00.39-.383c.063-.078.11-.133.141-.18l-.719-.719-.273.313c-.172.219-.469.43-.875.64-.414.22-.86.32-1.336.32-.719 0-1.336-.25-1.867-.757-.531-.5-.813-1.102-.852-1.797l6.243.016zm-3.602-3.375c.672 0 1.242.226 1.719.68.476.453.758 1.03.843 1.718h-5.203c.086-.648.383-1.21.883-1.687.5-.469 1.086-.711 1.758-.711zm4.719.156h2.718v6.64h1.118v-6.64h2.718V41h-6.554v1.04zM36.758 60l-4.64 5.758V60H31v7.68h.953l4.64-5.758v5.758h1.126V60h-.961zm4.32 0v2.242c0 1.258-.07 2.227-.195 2.906-.125.672-.281 1.11-.469 1.297-.187.188-.445.282-.773.282A1.46 1.46 0 0139 66.57v1.117l.11.032c.062.031.156.054.288.086.133.023.266.039.399.039.383 0 .71-.078.984-.235.266-.156.516-.43.742-.82.22-.39.391-.969.5-1.719.11-.75.172-1.695.172-2.82v-1.203h3.36v6.64h1.125v-7.68L41.078 60zm8.953 0v2.242c0 1.258-.07 2.227-.195 2.906-.125.672-.281 1.11-.469 1.297-.187.188-.445.282-.773.282a1.46 1.46 0 01-.64-.157v1.117l.109.032c.062.031.156.054.289.086a2.3 2.3 0 00.398.039c.383 0 .71-.078.984-.235.266-.156.516-.43.743-.82.218-.39.39-.969.5-1.719.109-.75.171-1.695.171-2.82v-1.203h3.36v6.64h1.125v-7.68L50.03 60zm18.633 3.836c0-1.11-.383-2.047-1.133-2.828-.758-.781-1.656-1.172-2.703-1.172-.984 0-1.844.344-2.562 1.023-.727.68-1.157 1.485-1.29 2.422h-1.68V60H58.18v7.68h1.117v-3.36h1.68a3.97 3.97 0 001.28 2.492c.735.688 1.587 1.024 2.563 1.024 1.047 0 1.946-.383 2.703-1.164.758-.781 1.141-1.727 1.141-2.836zm-6.57.008c0-.828.273-1.532.812-2.102.54-.57 1.18-.86 1.914-.86.735 0 1.375.29 1.914.86.54.57.805 1.274.805 2.102 0 .828-.266 1.531-.805 2.101-.539.57-1.18.852-1.914.852s-1.375-.281-1.914-.852c-.539-.57-.812-1.273-.812-2.101zm8.015-.008c0 1.11.375 2.055 1.133 2.836.75.781 1.656 1.164 2.703 1.164.375 0 .743-.055 1.102-.172.36-.117.656-.242.883-.383.234-.14.453-.297.656-.476.21-.18.352-.305.414-.383.063-.078.11-.133.14-.18l-.796-.719-.258.313c-.18.219-.469.43-.867.64-.406.22-.828.32-1.274.32-.734 0-1.375-.28-1.914-.85-.539-.571-.804-1.274-.804-2.102 0-.828.265-1.532.804-2.102.54-.57 1.18-.86 1.914-.86.29 0 .57.048.836.134.266.093.477.195.649.304.164.11.32.242.46.39.141.157.235.259.274.313.047.063.078.102.094.133l.805-.797-.336-.367c-.22-.25-.594-.508-1.11-.765a3.715 3.715 0 00-1.68-.391c-1.039 0-1.937.39-2.695 1.172-.758.781-1.133 1.719-1.133 2.828zm7.836-2.797h2.719v6.64h1.117v-6.64H84.5V60h-6.555v1.04zm9.282 2.805c0-.79.273-1.477.836-2.07.562-.594 1.187-.891 1.882-.891.657 0 1.25.289 1.774.867.523.578.789 1.273.789 2.094 0 .82-.266 1.515-.79 2.093-.523.579-1.116.86-1.773.86-.695 0-1.32-.29-1.882-.883-.563-.594-.836-1.281-.836-2.07zm0 2.633l.109.148c.078.094.187.21.344.344.156.133.336.265.547.39.203.133.46.243.765.336.305.094.625.14.953.14.985 0 1.844-.39 2.578-1.17.735-.782 1.102-1.728 1.102-2.821 0-1.094-.375-2.04-1.11-2.82-.734-.79-1.593-1.18-2.57-1.18-.328 0-.648.047-.96.14a3.014 3.014 0 00-.758.328 3.698 3.698 0 00-.555.422 4.675 4.675 0 00-.336.328.852.852 0 00-.11.149v-1.203H86.11v11.039h1.118v-4.57zm10.078-3.196c-.727.125-1.282.383-1.664.774-.391.39-.578.906-.578 1.547 0 .585.257 1.101.78 1.554.524.453 1.173.68 1.938.68.305 0 .602-.04.89-.125.29-.078.524-.172.704-.281.172-.11.336-.227.492-.368.156-.14.25-.234.297-.289.047-.054.078-.101.102-.132v1.039h1.117v-4.883c0-.836-.29-1.54-.867-2.11-.578-.562-1.297-.851-2.172-.851-.344 0-.688.055-1.016.156a3.52 3.52 0 00-.797.344 5.273 5.273 0 00-.586.445 4.196 4.196 0 00-.36.344c-.054.062-.093.117-.124.156l.719.719.242-.273c.156-.188.414-.375.773-.563.36-.187.743-.281 1.149-.281.562 0 1.023.18 1.383.531.359.36.539.82.539 1.383l-2.961.484zm.476 3.516c-.5 0-.898-.11-1.18-.336a1.061 1.061 0 01-.421-.86c0-.718.484-1.171 1.445-1.359l2.64-.484v.484c0 .758-.234 1.375-.702 1.844-.47.476-1.063.71-1.782.71zm6.157.883h6.554v1.922h1.125V66.64h-1.203V60h-1.117v6.64h-4.242V60h-1.117v7.68zM119.133 60l-4.64 5.758V60h-1.118v7.68h.953l4.64-5.758v5.758h1.126V60h-.961zm3.039 2.562c0 .368.055.696.172.985.117.281.242.508.383.664.14.156.296.297.484.406.18.11.305.18.383.211a.864.864 0 00.18.055l-1.758 2.797h1.28l1.595-2.563h2.242v2.563h1.117V60h-3.273c-.836 0-1.516.25-2.032.734-.515.485-.773 1.094-.773 1.828zm4.96-1.523v3.04h-2.155c-.516 0-.93-.142-1.227-.423-.305-.281-.453-.64-.453-1.094 0-.445.148-.812.453-1.093.305-.282.71-.422 1.227-.422l2.156-.008z" fill="#000" fill-rule="nonzero"/></g></svg>