<?xml version="1.0" encoding="UTF-8"?>
<svg width="93px" height="103px" viewBox="0 0 93 103" version="1.1" xmlns="http://www.w3.org/2000/svg" xmlns:xlink="http://www.w3.org/1999/xlink">
    <!-- Generator: Sketch 53.2 (72643) - https://sketchapp.com -->
    <title>about-dots</title>
    <desc>Created with Sketch.</desc>
    <g id="Page-1" stroke="none" stroke-width="1" fill="none" fill-rule="evenodd">
        <g id="about-dots" fill="#FFFFFF" fill-rule="nonzero">
            <circle id="Oval" cx="1.0098" cy="1.0098" r="1.0098"></circle>
            <circle id="Oval" cx="11.1079" cy="1.0098" r="1.0098"></circle>
            <circle id="Oval" cx="21.2058" cy="1.0098" r="1.0098"></circle>
            <circle id="Oval" cx="31.304" cy="1.0098" r="1.0098"></circle>
            <circle id="Oval" cx="41.4019" cy="1.0098" r="1.0098"></circle>
            <circle id="Oval" cx="51.5" cy="1.0098" r="1.0098"></circle>
            <circle id="Oval" cx="61.5979" cy="1.0098" r="1.0098"></circle>
            <circle id="Oval" cx="71.6961" cy="1.0098" r="1.0098"></circle>
            <circle id="Oval" cx="81.794" cy="1.0098" r="1.0098"></circle>
            <circle id="Oval" cx="91.892" cy="1.0098" r="1.0098"></circle>
            <circle id="Oval" cx="1.0098" cy="11.1079" r="1.0098"></circle>
            <circle id="Oval" cx="11.1079" cy="11.1079" r="1.0098"></circle>
            <circle id="Oval" cx="21.2058" cy="11.1079" r="1.0098"></circle>
            <circle id="Oval" cx="31.304" cy="11.1079" r="1.0098"></circle>
            <circle id="Oval" cx="41.4019" cy="11.1079" r="1.0098"></circle>
            <circle id="Oval" cx="51.5" cy="11.1079" r="1.0098"></circle>
            <circle id="Oval" cx="61.5979" cy="11.1079" r="1.0098"></circle>
            <circle id="Oval" cx="71.6961" cy="11.1079" r="1.0098"></circle>
            <circle id="Oval" cx="81.794" cy="11.1079" r="1.0098"></circle>
            <circle id="Oval" cx="91.892" cy="11.1079" r="1.0098"></circle>
            <circle id="Oval" cx="81.794" cy="21.2061" r="1.0098"></circle>
            <circle id="Oval" cx="91.892" cy="21.2061" r="1.0098"></circle>
            <circle id="Oval" cx="81.794" cy="31.3037" r="1.0098"></circle>
            <circle id="Oval" cx="91.892" cy="31.3037" r="1.0098"></circle>
            <circle id="Oval" cx="81.794" cy="41.4019" r="1.0098"></circle>
            <circle id="Oval" cx="91.892" cy="41.4019" r="1.0098"></circle>
            <circle id="Oval" cx="81.794" cy="51.5" r="1.0098"></circle>
            <circle id="Oval" cx="91.892" cy="51.5" r="1.0098"></circle>
            <circle id="Oval" cx="81.794" cy="61.5977" r="1.0098"></circle>
            <circle id="Oval" cx="91.892" cy="61.5977" r="1.0098"></circle>
            <circle id="Oval" cx="81.794" cy="71.6963" r="1.0098"></circle>
            <circle id="Oval" cx="91.892" cy="71.6963" r="1.0098"></circle>
            <circle id="Oval" cx="81.794" cy="81.794" r="1.0098"></circle>
            <circle id="Oval" cx="91.892" cy="81.794" r="1.0098"></circle>
            <circle id="Oval" cx="81.794" cy="91.8921" r="1.0098"></circle>
            <circle id="Oval" cx="91.892" cy="91.8921" r="1.0098"></circle>
            <circle id="Oval" cx="81.794" cy="101.99" r="1.0098"></circle>
            <circle id="Oval" cx="91.892" cy="101.99" r="1.0098"></circle>
        </g>
    </g>
</svg>