<?xml version="1.0" encoding="UTF-8"?>
<svg width="103px" height="93px" viewBox="0 0 103 93" version="1.1" xmlns="http://www.w3.org/2000/svg" xmlns:xlink="http://www.w3.org/1999/xlink">
    <!-- Generator: Sketch 53.2 (72643) - https://sketchapp.com -->
    <title>donate-dots</title>
    <desc>Created with Sketch.</desc>
    <g id="Page-1" stroke="none" stroke-width="1" fill="none" fill-rule="evenodd">
        <g id="donate-dots" fill="#BC3356" fill-rule="nonzero">
            <circle id="Oval" transform="translate(101.990000, 1.009800) rotate(90.000000) translate(-101.990000, -1.009800) " cx="101.99" cy="1.0098" r="1.0098"></circle>
            <circle id="Oval" transform="translate(101.990000, 11.107500) rotate(90.000000) translate(-101.990000, -11.107500) " cx="101.99" cy="11.1075" r="1.0098"></circle>
            <circle id="Oval" transform="translate(101.990000, 21.206100) rotate(90.000000) translate(-101.990000, -21.206100) " cx="101.99" cy="21.2061" r="1.0098"></circle>
            <circle id="Oval" transform="translate(101.990000, 31.303700) rotate(90.000000) translate(-101.990000, -31.303700) " cx="101.99" cy="31.3037" r="1.0098"></circle>
            <circle id="Oval" transform="translate(101.990000, 41.402400) rotate(90.000000) translate(-101.990000, -41.402400) " cx="101.99" cy="41.4024" r="1.0098"></circle>
            <circle id="Oval" transform="translate(101.990000, 51.500000) rotate(90.000000) translate(-101.990000, -51.500000) " cx="101.99" cy="51.5" r="1.0098"></circle>
            <circle id="Oval" transform="translate(101.990000, 61.597700) rotate(90.000000) translate(-101.990000, -61.597700) " cx="101.99" cy="61.5977" r="1.0098"></circle>
            <circle id="Oval" transform="translate(101.990000, 71.696300) rotate(90.000000) translate(-101.990000, -71.696300) " cx="101.99" cy="71.6963" r="1.0098"></circle>
            <circle id="Oval" transform="translate(101.990000, 81.794000) rotate(90.000000) translate(-101.990000, -81.794000) " cx="101.99" cy="81.794" r="1.0098"></circle>
            <circle id="Oval" transform="translate(101.990000, 91.893000) rotate(90.000000) translate(-101.990000, -91.893000) " cx="101.99" cy="91.893" r="1.0098"></circle>
            <circle id="Oval" transform="translate(91.892000, 1.009800) rotate(90.000000) translate(-91.892000, -1.009800) " cx="91.892" cy="1.0098" r="1.0098"></circle>
            <circle id="Oval" transform="translate(91.892000, 11.107500) rotate(90.000000) translate(-91.892000, -11.107500) " cx="91.892" cy="11.1075" r="1.0098"></circle>
            <circle id="Oval" transform="translate(91.892000, 21.206100) rotate(90.000000) translate(-91.892000, -21.206100) " cx="91.892" cy="21.2061" r="1.0098"></circle>
            <circle id="Oval" transform="translate(91.892000, 31.303700) rotate(90.000000) translate(-91.892000, -31.303700) " cx="91.892" cy="31.3037" r="1.0098"></circle>
            <circle id="Oval" transform="translate(91.892000, 41.402400) rotate(90.000000) translate(-91.892000, -41.402400) " cx="91.892" cy="41.4024" r="1.0098"></circle>
            <circle id="Oval" transform="translate(91.892000, 51.500000) rotate(90.000000) translate(-91.892000, -51.500000) " cx="91.892" cy="51.5" r="1.0098"></circle>
            <circle id="Oval" transform="translate(91.892000, 61.597700) rotate(90.000000) translate(-91.892000, -61.597700) " cx="91.892" cy="61.5977" r="1.0098"></circle>
            <circle id="Oval" transform="translate(91.892000, 71.696300) rotate(90.000000) translate(-91.892000, -71.696300) " cx="91.892" cy="71.6963" r="1.0098"></circle>
            <circle id="Oval" transform="translate(91.892000, 81.794000) rotate(90.000000) translate(-91.892000, -81.794000) " cx="91.892" cy="81.794" r="1.0098"></circle>
            <circle id="Oval" transform="translate(91.892000, 91.893000) rotate(90.000000) translate(-91.892000, -91.893000) " cx="91.892" cy="91.893" r="1.0098"></circle>
            <circle id="Oval" transform="translate(81.794000, 81.794000) rotate(90.000000) translate(-81.794000, -81.794000) " cx="81.794" cy="81.794" r="1.0098"></circle>
            <circle id="Oval" transform="translate(81.794000, 91.892000) rotate(90.000000) translate(-81.794000, -91.892000) " cx="81.794" cy="91.892" r="1.0098"></circle>
            <circle id="Oval" transform="translate(71.696000, 81.794000) rotate(90.000000) translate(-71.696000, -81.794000) " cx="71.696" cy="81.794" r="1.0098"></circle>
            <circle id="Oval" transform="translate(71.696000, 91.892000) rotate(90.000000) translate(-71.696000, -91.892000) " cx="71.696" cy="91.892" r="1.0098"></circle>
            <circle id="Oval" transform="translate(61.598100, 81.794000) rotate(90.000000) translate(-61.598100, -81.794000) " cx="61.5981" cy="81.794" r="1.0098"></circle>
            <circle id="Oval" transform="translate(61.598100, 91.892000) rotate(90.000000) translate(-61.598100, -91.892000) " cx="61.5981" cy="91.892" r="1.0098"></circle>
            <circle id="Oval" transform="translate(51.500000, 81.794000) rotate(90.000000) translate(-51.500000, -81.794000) " cx="51.5" cy="81.794" r="1.0098"></circle>
            <circle id="Oval" transform="translate(51.500000, 91.892000) rotate(90.000000) translate(-51.500000, -91.892000) " cx="51.5" cy="91.892" r="1.0098"></circle>
            <circle id="Oval" transform="translate(41.402100, 81.794000) rotate(90.000000) translate(-41.402100, -81.794000) " cx="41.4021" cy="81.794" r="1.0098"></circle>
            <circle id="Oval" transform="translate(41.402100, 91.892000) rotate(90.000000) translate(-41.402100, -91.892000) " cx="41.4021" cy="91.892" r="1.0098"></circle>
            <circle id="Oval" transform="translate(31.303900, 81.794000) rotate(90.000000) translate(-31.303900, -81.794000) " cx="31.3039" cy="81.794" r="1.0098"></circle>
            <circle id="Oval" transform="translate(31.303900, 91.892000) rotate(90.000000) translate(-31.303900, -91.892000) " cx="31.3039" cy="91.892" r="1.0098"></circle>
            <circle id="Oval" transform="translate(21.205800, 81.794000) rotate(90.000000) translate(-21.205800, -81.794000) " cx="21.2058" cy="81.794" r="1.0098"></circle>
            <circle id="Oval" transform="translate(21.205800, 91.892000) rotate(90.000000) translate(-21.205800, -91.892000) " cx="21.2058" cy="91.892" r="1.0098"></circle>
            <circle id="Oval" transform="translate(11.107900, 81.794000) rotate(90.000000) translate(-11.107900, -81.794000) " cx="11.1079" cy="81.794" r="1.0098"></circle>
            <circle id="Oval" transform="translate(11.107900, 91.892000) rotate(90.000000) translate(-11.107900, -91.892000) " cx="11.1079" cy="91.892" r="1.0098"></circle>
            <circle id="Oval" transform="translate(1.009700, 81.794000) rotate(90.000000) translate(-1.009700, -81.794000) " cx="1.0097" cy="81.794" r="1.0098"></circle>
            <circle id="Oval" transform="translate(1.009700, 91.893000) rotate(90.000000) translate(-1.009700, -91.893000) " cx="1.0097" cy="91.893" r="1.0098"></circle>
        </g>
    </g>
</svg>