<svg width="434" height="468" viewBox="0 0 434 468" fill="none" xmlns="http://www.w3.org/2000/svg">
<g filter="url(#filter0_d)">
<path fill-rule="evenodd" clip-rule="evenodd" d="M127.118 238.139C127.118 197.698 160.508 164.914 200.949 164.914C241.39 164.914 274.781 197.698 274.781 238.139C274.781 278.579 241.39 311.363 200.949 311.363C160.508 311.363 127.118 278.579 127.118 238.139Z" fill="white"/>
</g>
<path fill-rule="evenodd" clip-rule="evenodd" d="M204.802 238.139C204.802 236.732 205.963 235.592 207.37 235.592C208.776 235.592 209.938 236.732 209.938 238.139C209.938 239.545 208.776 240.686 207.37 240.686C205.963 240.686 204.802 239.545 204.802 238.139Z" fill="#2E375F"/>
<path fill-rule="evenodd" clip-rule="evenodd" d="M191.961 238.139C191.961 236.732 193.123 235.592 194.529 235.592C195.936 235.592 197.097 236.732 197.097 238.139C197.097 239.545 195.936 240.686 194.529 240.686C193.123 240.686 191.961 239.545 191.961 238.139Z" fill="#2E375F"/>
<path fill-rule="evenodd" clip-rule="evenodd" d="M198.381 244.506C198.381 243.099 199.543 241.959 200.949 241.959C202.356 241.959 203.517 243.099 203.517 244.506C203.517 245.913 202.356 247.053 200.949 247.053C199.543 247.053 198.381 245.913 198.381 244.506Z" fill="#BC3356"/>
<path fill-rule="evenodd" clip-rule="evenodd" d="M198.381 231.772C198.381 230.365 199.543 229.225 200.949 229.225C202.356 229.225 203.517 230.365 203.517 231.772C203.517 233.178 202.356 234.318 200.949 234.318C199.543 234.318 198.381 233.178 198.381 231.772Z" fill="#BC3356"/>
<mask id="mask0" mask-type="alpha" maskUnits="userSpaceOnUse" x="231" y="118" width="103" height="231">
<path fill-rule="evenodd" clip-rule="evenodd" d="M263.867 118.433L231.766 155.363L251.668 327.282L283.769 348.294L333.846 276.98L327.426 166.188L263.867 118.433Z" fill="white"/>
</mask>
<g mask="url(#mask0)">
<path d="M81.2512 223.867C81.2512 157.615 135.96 103.888 202.233 103.888C268.507 103.888 323.216 157.615 323.216 223.867C323.216 290.12 268.507 343.847 202.233 343.847C135.96 343.847 81.2512 290.12 81.2512 223.867Z" stroke="#BC3356" stroke-width="2"/>
</g>
<mask id="mask1" mask-type="alpha" maskUnits="userSpaceOnUse" x="37" y="256" width="327" height="143">
<path fill-rule="evenodd" clip-rule="evenodd" d="M347.328 263.608L363.378 268.701L333.846 341.289L248.458 398.595L136.748 392.865L62.2751 338.742L37.8787 256.604L75.1153 260.424L158.577 361.665L277.991 352.114L347.328 263.608Z" fill="white"/>
</mask>
<g mask="url(#mask1)">
<path d="M49.1506 238.138C49.1506 154.303 118.377 86.3213 202.233 86.3213C286.09 86.3213 355.316 154.303 355.316 238.138C355.316 321.973 286.09 389.954 202.233 389.954C118.377 389.954 49.1506 321.973 49.1506 238.138Z" stroke="#BC3356" stroke-width="2"/>
</g>
<mask id="mask2" mask-type="alpha" maskUnits="userSpaceOnUse" x="-2" y="51" width="155" height="311">
<path fill-rule="evenodd" clip-rule="evenodd" d="M72.5473 349.567L48.1509 360.392L0 269.339L19.9024 148.996L68.6952 95.5099L138.032 52.8486L150.873 91.0527L39.8047 182.106L30.1745 290.988L72.5473 349.567Z" fill="white" stroke="white" stroke-width="2"/>
</mask>
<g mask="url(#mask2)">
<path d="M17.0503 238.139C17.0503 136.721 100.794 54.4863 202.234 54.4863C303.673 54.4863 387.417 136.721 387.417 238.139C387.417 339.558 303.673 421.793 202.234 421.793C100.794 421.793 17.0503 339.558 17.0503 238.139Z" stroke="#BC3356" stroke-width="2"/>
</g>
<mask id="mask3" mask-type="alpha" maskUnits="userSpaceOnUse" x="6" y="0" width="428" height="227">
<path fill-rule="evenodd" clip-rule="evenodd" d="M54.5713 64.947L6.42041 119.069L30.4958 131.804L119.414 54.1225L236.903 48.3919L375.577 151.543L401.258 226.678L434 210.759L392.269 56.6694L196.456 0L54.5713 64.947Z" fill="white"/>
</mask>
<g mask="url(#mask3)">
<path d="M-15.0503 238.139C-15.0503 119.138 83.211 22.6494 202.234 22.6494C321.256 22.6494 419.517 119.138 419.517 238.139C419.517 357.14 321.256 453.629 202.234 453.629C83.211 453.629 -15.0503 357.14 -15.0503 238.139Z" stroke="#150045" stroke-width="2"/>
</g>
<mask id="mask4" mask-type="alpha" maskUnits="userSpaceOnUse" x="85" y="338" width="322" height="134">
<path fill-rule="evenodd" clip-rule="evenodd" d="M109.784 413.878L89.8816 445.715L191.961 468L359.526 427.249L402.541 364.849L375.577 342.563L256.163 430.433L109.784 413.878Z" fill="white" stroke="white" stroke-width="6"/>
</mask>
<g mask="url(#mask4)">
<path d="M-15.0503 238.139C-15.0503 119.138 83.211 22.6494 202.234 22.6494C321.256 22.6494 419.517 119.138 419.517 238.139C419.517 357.14 321.256 453.629 202.234 453.629C83.211 453.629 -15.0503 357.14 -15.0503 238.139Z" stroke="#150045" stroke-width="2"/>
</g>
<path d="M382.355 350.204C382.355 347.251 384.8 344.837 387.775 344.837C390.75 344.837 393.195 347.251 393.195 350.204C393.195 353.158 390.75 355.572 387.775 355.572C384.8 355.572 382.355 353.158 382.355 350.204Z" fill="white" stroke="#150045" stroke-width="2"/>
<path d="M413.171 217.127C413.171 214.174 415.616 211.76 418.592 211.76C421.567 211.76 424.012 214.174 424.012 217.127C424.012 220.081 421.567 222.494 418.592 222.494C415.616 222.494 413.171 220.081 413.171 217.127Z" fill="white" stroke="#150045" stroke-width="2"/>
<path d="M263.583 338.107C263.583 335.153 266.028 332.739 269.003 332.739C271.978 332.739 274.423 335.153 274.423 338.107C274.423 341.06 271.978 343.474 269.003 343.474C266.028 343.474 263.583 341.06 263.583 338.107Z" fill="#EDF1FF" stroke="#EDF1FF" stroke-width="2"/>
<path d="M91.5234 425.975C91.5234 423.021 93.9685 420.607 96.9436 420.607C99.9186 420.607 102.364 423.021 102.364 425.975C102.364 428.928 99.9186 431.342 96.9436 431.342C93.9685 431.342 91.5234 428.928 91.5234 425.975Z" fill="white" stroke="#150045" stroke-width="2"/>
<path d="M251.872 117.843C251.872 114.889 254.317 112.476 257.292 112.476C260.267 112.476 262.713 114.889 262.713 117.843C262.713 120.797 260.267 123.21 257.292 123.21C254.317 123.21 251.872 120.797 251.872 117.843Z" fill="white" stroke="#BC3356" stroke-width="2"/>
<path d="M347.686 264.881C347.686 261.927 350.131 259.514 353.106 259.514C356.081 259.514 358.526 261.927 358.526 264.881C358.526 267.835 356.081 270.248 353.106 270.248C350.131 270.248 347.686 267.835 347.686 264.881Z" fill="white" stroke="#BC3356" stroke-width="2"/>
<path d="M44.6567 258.515C44.6567 255.561 47.1018 253.147 50.0769 253.147C53.0519 253.147 55.497 255.561 55.497 258.515C55.497 261.468 53.0519 263.882 50.0769 263.882C47.1018 263.882 44.6567 261.468 44.6567 258.515Z" fill="white" stroke="#BC3356" stroke-width="2"/>
<path d="M53.0029 354.661C53.0029 351.708 55.448 349.294 58.423 349.294C61.3981 349.294 63.8432 351.708 63.8432 354.661C63.8432 357.615 61.3981 360.029 58.423 360.029C55.448 360.029 53.0029 357.615 53.0029 354.661Z" fill="white" stroke="#BC3356" stroke-width="2"/>
<path d="M135.822 64.3097C135.822 61.3561 138.267 58.9424 141.242 58.9424C144.217 58.9424 146.662 61.3561 146.662 64.3097C146.662 67.2633 144.217 69.6771 141.242 69.6771C138.267 69.6771 135.822 67.2633 135.822 64.3097Z" fill="white" stroke="#BC3356" stroke-width="2"/>
<path d="M12.5564 122.89C12.5564 119.936 15.0014 117.522 17.9765 117.522C20.9516 117.522 23.3966 119.936 23.3966 122.89C23.3966 125.843 20.9516 128.257 17.9765 128.257C15.0014 128.257 12.5564 125.843 12.5564 122.89Z" fill="white" stroke="#150045" stroke-width="2"/>
<defs>
<filter id="filter0_d" x="47.1179" y="124.914" width="307.663" height="306.449" filterUnits="userSpaceOnUse" color-interpolation-filters="sRGB">
<feFlood flood-opacity="0" result="BackgroundImageFix"/>
<feColorMatrix in="SourceAlpha" type="matrix" values="0 0 0 0 0 0 0 0 0 0 0 0 0 0 0 0 0 0 127 0"/>
<feOffset dy="40"/>
<feGaussianBlur stdDeviation="40"/>
<feColorMatrix type="matrix" values="0 0 0 0 0 0 0 0 0 0 0 0 0 0 0 0 0 0 0.1 0"/>
<feBlend mode="normal" in2="BackgroundImageFix" result="effect1_dropShadow"/>
<feBlend mode="normal" in="SourceGraphic" in2="effect1_dropShadow" result="shape"/>
</filter>
</defs>
</svg>
