<svg width="428" height="392" viewBox="0 0 428 392" fill="none" xmlns="http://www.w3.org/2000/svg">
<g opacity="0.5">
<path opacity="0.0244" d="M363.692 340.248C363.692 353.451 289.438 364.158 197.841 364.158C106.239 364.158 31.9849 353.452 31.9849 340.248C31.9849 327.044 106.239 316.337 197.841 316.337C289.438 316.337 363.692 327.043 363.692 340.248Z" fill="#FBFCFE"/>
<path opacity="0.0488" d="M359.891 340.248C359.891 353.151 287.337 363.609 197.842 363.609C108.342 363.609 35.7864 353.15 35.7864 340.248C35.7864 327.346 108.341 316.887 197.842 316.887C287.336 316.886 359.891 327.346 359.891 340.248Z" fill="#F8FAFE"/>
<path opacity="0.0732" d="M356.09 340.248C356.09 352.848 285.24 363.062 197.842 363.062C110.44 363.062 39.5876 352.848 39.5876 340.248C39.5876 327.65 110.44 317.435 197.842 317.435C285.24 317.435 356.09 327.65 356.09 340.248Z" fill="#F4F7FD"/>
<path opacity="0.0976" d="M352.288 340.248C352.288 352.544 283.14 362.514 197.841 362.514C112.538 362.514 43.3875 352.544 43.3875 340.248C43.3875 327.952 112.538 317.982 197.841 317.982C283.14 317.982 352.288 327.952 352.288 340.248Z" fill="#F1F5FC"/>
<path opacity="0.122" d="M348.489 340.248C348.489 352.242 281.042 361.964 197.841 361.964C114.637 361.964 47.189 352.242 47.189 340.248C47.189 328.256 114.637 318.529 197.841 318.529C281.042 318.529 348.489 328.256 348.489 340.248Z" fill="#EDF2FC"/>
<path opacity="0.1463" d="M344.687 340.248C344.687 351.941 278.942 361.418 197.841 361.418C116.737 361.418 50.9912 351.941 50.9912 340.248C50.9912 328.556 116.737 319.079 197.841 319.079C278.942 319.079 344.687 328.556 344.687 340.248Z" fill="#E9F0FB"/>
<path opacity="0.1707" d="M340.888 340.248C340.888 351.635 276.844 360.869 197.842 360.869C118.837 360.869 54.7932 351.635 54.7932 340.248C54.7932 328.859 118.836 319.627 197.842 319.627C276.844 319.627 340.888 328.859 340.888 340.248Z" fill="#E6EDFA"/>
<path opacity="0.1951" d="M337.085 340.248C337.085 351.333 274.743 360.321 197.841 360.321C120.936 360.321 58.594 351.333 58.594 340.248C58.594 329.163 120.936 320.173 197.841 320.173C274.743 320.173 337.085 329.163 337.085 340.248Z" fill="#E2EBFA"/>
<path opacity="0.2195" d="M333.28 340.248C333.28 351.032 272.644 359.773 197.841 359.773C123.034 359.773 62.3953 351.032 62.3953 340.248C62.3953 329.465 123.034 320.722 197.841 320.722C272.644 320.721 333.28 329.465 333.28 340.248Z" fill="#DFE8F9"/>
<path opacity="0.2439" d="M329.484 340.248C329.484 350.727 270.544 359.226 197.841 359.226C125.134 359.226 66.1953 350.727 66.1953 340.248C66.1953 329.767 125.134 321.271 197.841 321.271C270.544 321.271 329.484 329.767 329.484 340.248Z" fill="#DBE6F8"/>
<path opacity="0.2683" d="M325.683 340.248C325.683 350.426 268.449 358.675 197.842 358.675C127.233 358.675 69.9966 350.426 69.9966 340.248C69.9966 330.071 127.233 321.819 197.842 321.819C268.449 321.818 325.683 330.07 325.683 340.248Z" fill="#D8E3F7"/>
<path opacity="0.2927" d="M321.878 340.248C321.878 350.123 266.347 358.129 197.841 358.129C129.334 358.129 73.7964 350.124 73.7964 340.248C73.7964 330.373 129.334 322.366 197.841 322.366C266.347 322.366 321.878 330.373 321.878 340.248Z" fill="#D4E1F7"/>
<path opacity="0.3171" d="M197.839 357.582C264.247 357.582 318.08 349.821 318.08 340.248C318.08 330.675 264.247 322.915 197.839 322.915C131.432 322.915 77.5986 330.675 77.5986 340.248C77.5986 349.821 131.432 357.582 197.839 357.582Z" fill="#D0DEF6"/>
<path opacity="0.3415" d="M314.28 340.248C314.28 349.518 262.145 357.035 197.841 357.035C133.531 357.035 81.4016 349.518 81.4016 340.248C81.4016 330.978 133.531 323.462 197.841 323.462C262.145 323.462 314.28 330.978 314.28 340.248Z" fill="#CDDCF5"/>
<path opacity="0.3659" d="M310.476 340.248C310.476 349.215 260.048 356.483 197.842 356.483C135.632 356.483 85.2014 349.215 85.2014 340.248C85.2014 331.28 135.632 324.011 197.842 324.011C260.048 324.011 310.476 331.28 310.476 340.248Z" fill="#C9D9F5"/>
<path opacity="0.3902" d="M197.839 355.938C257.949 355.938 306.678 348.913 306.678 340.248C306.678 331.583 257.949 324.558 197.839 324.558C137.729 324.558 89.0005 331.583 89.0005 340.248C89.0005 348.913 137.729 355.938 197.839 355.938Z" fill="#C6D7F4"/>
<path opacity="0.4146" d="M302.875 340.248C302.875 348.61 255.847 355.391 197.841 355.391C139.829 355.391 92.8027 348.61 92.8027 340.248C92.8027 331.886 139.829 325.107 197.841 325.107C255.847 325.107 302.875 331.886 302.875 340.248Z" fill="#C2D4F3"/>
<path opacity="0.439" d="M299.068 340.248C299.068 348.308 253.749 354.842 197.841 354.842C141.927 354.842 96.6057 348.308 96.6057 340.248C96.6057 332.188 141.927 325.653 197.841 325.653C253.749 325.653 299.068 332.188 299.068 340.248Z" fill="#BED2F3"/>
<path opacity="0.4634" d="M295.272 340.248C295.272 348.003 251.648 354.294 197.842 354.294C144.03 354.294 100.406 348.003 100.406 340.248C100.406 332.49 144.03 326.202 197.842 326.202C251.648 326.202 295.272 332.49 295.272 340.248Z" fill="#BBCFF2"/>
<path opacity="0.4878" d="M291.47 340.248C291.47 347.703 249.553 353.746 197.842 353.746C146.128 353.746 104.208 347.703 104.208 340.248C104.208 332.794 146.128 326.75 197.842 326.75C249.553 326.75 291.47 332.794 291.47 340.248Z" fill="#B7CDF1"/>
<path opacity="0.5122" d="M287.672 340.248C287.672 347.399 247.449 353.198 197.841 353.198C148.226 353.198 108.009 347.399 108.009 340.248C108.009 333.097 148.226 327.301 197.841 327.301C247.449 327.301 287.672 333.097 287.672 340.248Z" fill="#B4CAF1"/>
<path opacity="0.5366" d="M283.867 340.248C283.867 347.097 245.352 352.651 197.841 352.651C150.328 352.651 111.809 347.097 111.809 340.248C111.809 333.398 150.328 327.847 197.841 327.847C245.352 327.846 283.867 333.397 283.867 340.248Z" fill="#B0C8F0"/>
<path opacity="0.561" d="M280.068 340.248C280.068 346.795 243.253 352.101 197.841 352.101C152.426 352.101 115.61 346.795 115.61 340.248C115.61 333.701 152.426 328.396 197.841 328.396C243.253 328.396 280.068 333.701 280.068 340.248Z" fill="#ADC5EF"/>
<path opacity="0.5854" d="M197.84 351.554C241.155 351.554 276.268 346.492 276.268 340.248C276.268 334.004 241.155 328.942 197.84 328.942C154.525 328.942 119.412 334.004 119.412 340.248C119.412 346.492 154.525 351.554 197.84 351.554Z" fill="#A9C3EF"/>
<path opacity="0.6098" d="M272.465 340.248C272.465 346.187 239.055 351.007 197.841 351.007C156.623 351.007 123.214 346.187 123.214 340.248C123.214 334.307 156.623 329.49 197.841 329.49C239.055 329.49 272.465 334.307 272.465 340.248Z" fill="#A5C0EE"/>
<path opacity="0.6341" d="M268.666 340.248C268.666 345.886 236.955 350.457 197.841 350.457C158.724 350.457 127.013 345.886 127.013 340.248C127.013 334.61 158.724 330.039 197.841 330.039C236.955 330.038 268.666 334.61 268.666 340.248Z" fill="#A2BEED"/>
<path opacity="0.6585" d="M264.863 340.248C264.863 345.583 234.854 349.91 197.841 349.91C160.822 349.91 130.815 345.584 130.815 340.248C130.815 334.912 160.823 330.587 197.841 330.587C234.854 330.587 264.863 334.912 264.863 340.248Z" fill="#9EBBED"/>
<path opacity="0.6829" d="M261.062 340.248C261.062 345.283 232.756 349.364 197.842 349.364C162.922 349.364 134.617 345.283 134.617 340.248C134.617 335.214 162.922 331.134 197.842 331.134C232.756 331.134 261.062 335.214 261.062 340.248Z" fill="#9BB9EC"/>
<path opacity="0.7073" d="M257.257 340.248C257.257 344.98 230.658 348.815 197.841 348.815C165.023 348.815 138.417 344.98 138.417 340.248C138.417 335.519 165.022 331.684 197.841 331.684C230.658 331.684 257.257 335.519 257.257 340.248Z" fill="#97B6EB"/>
<path opacity="0.7317" d="M253.461 340.248C253.461 344.676 228.556 348.266 197.841 348.266C167.121 348.266 142.218 344.676 142.218 340.248C142.218 335.821 167.121 332.23 197.841 332.23C228.556 332.23 253.461 335.821 253.461 340.248Z" fill="#93B4EB"/>
<path opacity="0.7561" d="M249.66 340.248C249.66 344.374 226.457 347.718 197.841 347.718C169.22 347.718 146.021 344.374 146.021 340.248C146.021 336.124 169.22 332.779 197.841 332.779C226.457 332.778 249.66 336.124 249.66 340.248Z" fill="#90B1EA"/>
<path opacity="0.7805" d="M245.857 340.248C245.857 344.07 224.358 347.169 197.842 347.169C171.321 347.169 149.822 344.07 149.822 340.248C149.822 336.427 171.322 333.327 197.842 333.327C224.358 333.327 245.857 336.426 245.857 340.248Z" fill="#8CAFE9"/>
<path opacity="0.8049" d="M197.84 346.622C222.261 346.622 242.057 343.768 242.057 340.248C242.057 336.728 222.261 333.874 197.84 333.874C173.42 333.874 153.623 336.728 153.623 340.248C153.623 343.768 173.42 346.622 197.84 346.622Z" fill="#89ACE8"/>
<path opacity="0.8293" d="M238.254 340.248C238.254 343.468 220.16 346.072 197.841 346.072C175.52 346.072 157.423 343.468 157.423 340.248C157.423 337.03 175.52 334.422 197.841 334.422C220.16 334.422 238.254 337.03 238.254 340.248Z" fill="#85AAE8"/>
<path opacity="0.8537" d="M234.453 340.248C234.453 343.162 218.064 345.525 197.841 345.525C177.616 345.525 161.226 343.162 161.226 340.248C161.226 337.333 177.617 334.97 197.841 334.97C218.064 334.969 234.453 337.333 234.453 340.248Z" fill="#82A7E7"/>
<path opacity="0.878" d="M230.65 340.248C230.65 342.859 215.959 344.98 197.841 344.98C179.718 344.98 165.026 342.859 165.026 340.248C165.026 337.637 179.718 335.519 197.841 335.519C215.959 335.519 230.65 337.637 230.65 340.248Z" fill="#7EA5E6"/>
<path opacity="0.9024" d="M226.849 340.248C226.849 342.56 213.865 344.431 197.842 344.431C181.82 344.431 168.829 342.56 168.829 340.248C168.829 337.939 181.82 336.066 197.842 336.066C213.865 336.066 226.849 337.938 226.849 340.248Z" fill="#7AA2E6"/>
<path opacity="0.9268" d="M223.049 340.248C223.049 342.253 211.766 343.883 197.841 343.883C183.918 343.883 172.628 342.253 172.628 340.248C172.628 338.24 183.918 336.615 197.841 336.615C211.766 336.615 223.049 338.239 223.049 340.248Z" fill="#77A0E5"/>
<path opacity="0.9512" d="M219.25 340.248C219.25 341.951 209.664 343.334 197.841 343.334C186.016 343.334 176.43 341.951 176.43 340.248C176.43 338.544 186.016 337.162 197.841 337.162C209.664 337.162 219.25 338.544 219.25 340.248Z" fill="#739DE4"/>
<path opacity="0.9756" d="M197.84 342.787C207.566 342.787 215.45 341.65 215.45 340.248C215.45 338.845 207.566 337.708 197.84 337.708C188.115 337.708 180.231 338.845 180.231 340.248C180.231 341.65 188.115 342.787 197.84 342.787Z" fill="#709BE4"/>
<path opacity="0.5" d="M211.647 340.248C211.647 341.345 205.463 342.239 197.842 342.239C190.214 342.239 184.034 341.345 184.034 340.248C184.034 339.148 190.214 338.257 197.842 338.257C205.462 338.257 211.647 339.148 211.647 340.248Z" fill="#6C98E3"/>
</g>
<path d="M127.293 48.541C226.956 52.9371 246.003 43.8028 276.061 14.4783C311.382 -19.9799 376.497 13.0315 387.638 61.7265C414.032 177.105 336.549 267.633 222.024 282.234C98.499 297.977 30.5139 226.915 23.1087 156.297C16.5144 93.3908 54.5418 45.3309 127.293 48.541Z" fill="url(#paint0_linear)"/>
<path d="M353.377 349.017C330.395 349.371 259.164 350.158 215.857 348.125C135.554 344.358 70.4271 355.777 113.763 365.731C125.874 368.512 91.8216 387.986 176.763 389.956C251.325 391.688 326.96 381.82 363.582 377.478C400.205 373.134 416.962 366.686 424.744 363.773C431.59 361.213 433.719 347.784 353.377 349.017Z" fill="url(#paint1_linear)"/>
<path d="M199.898 64.8525C184.048 64.8525 183.428 74.8329 177.253 75.8556C171.081 76.8798 163.894 70.7375 154.873 73.2969C145.853 75.8556 140.64 80.9737 130.987 80.9737H217.763C217.763 80.9744 215.26 64.8525 199.898 64.8525Z" fill="#EEF5FD"/>
<path d="M179.922 145.148C169.526 143.822 168.483 130.9 141.795 130.9C115.926 130.9 111.711 151.773 111.711 151.773H257.827C241.57 151.773 232.796 145.148 217.606 141.833C202.417 138.521 190.317 146.471 179.922 145.148Z" fill="#EEF5FD"/>
<path d="M335.126 186.088H416.274V30.7778H312.65L335.126 186.088Z" fill="#D8DFE2"/>
<path d="M338.914 182.127H411.948V34.7383H317.586L338.914 182.127Z" fill="#40C8CB"/>
<path d="M192.25 30.7778L214.724 186.088H335.126L312.65 30.7778H192.25Z" fill="#EEF5FD"/>
<path d="M197.188 34.7383L218.505 182.126H330.188L308.855 34.7383H197.188Z" fill="url(#paint2_linear)"/>
<path d="M213.692 148.87L253.995 182.126H299.313L207.551 106.397L213.692 148.87Z" fill="#40C8CB"/>
<path d="M230.926 30.7764L253.413 186.087H256.209L233.722 30.7764H230.926Z" fill="#EEF5FD"/>
<path d="M272.379 30.7764L294.866 186.087H297.663L275.175 30.7764H272.379Z" fill="#EEF5FD"/>
<path d="M343.301 30.7764L365.788 186.087H368.586L346.099 30.7764H343.301Z" fill="#D8DFE2"/>
<path d="M376.102 30.7764L398.59 186.087H401.384L378.898 30.7764H376.102Z" fill="#D8DFE2"/>
<path d="M416.274 186.088H349.63V296.787H416.274V186.088Z" fill="#D8DFE2"/>
<path d="M349.63 186.088H222.558V296.787H349.63V186.088Z" fill="#F7F7F7"/>
<path d="M317.53 242.39H253.504V296.787H317.53V242.39Z" fill="#2C7FEA"/>
<path d="M265.18 242.39H253.504V296.787H265.18V242.39Z" fill="#D8DFE2"/>
<path d="M317.53 242.39H272.321V296.787H317.53V242.39Z" fill="white"/>
<path d="M314.46 244.632H275.393V294.544H314.46V244.632Z" fill="#40C8CB"/>
<path d="M314.46 267.074V244.632H283.7L314.46 267.074Z" fill="#2BA0AE"/>
<path d="M275.393 265.031L314.46 293.537V286.089L275.393 257.585V265.031Z" fill="#2BA0AE"/>
<path d="M275.393 278.161C282.875 283.623 290.361 289.083 297.847 294.544H304.981L275.394 272.958V278.161H275.393Z" fill="#2BA0AE"/>
<path d="M296.463 242.989H293.39V296.19H296.463V242.989Z" fill="white"/>
<path d="M325.401 193.242H322.871V197.246V223.262V227.265H325.401H341.843H344.376V223.262V197.246V193.242H341.843H325.401Z" fill="url(#paint3_linear)"/>
<path d="M342.379 195.243H324.867V225.264H342.379V195.243Z" fill="url(#paint4_linear)"/>
<path d="M293.838 193.242H291.306V197.246V223.262V227.265H293.838H310.281H312.81V223.262V197.246V193.242H310.281H293.838Z" fill="url(#paint5_linear)"/>
<path d="M310.812 195.243H293.303V225.264H310.812V195.243Z" fill="url(#paint6_linear)"/>
<path d="M262.271 193.242H259.741V197.246V223.262V227.265H262.271H278.715H281.246V223.262V197.246V193.242H278.715H262.271Z" fill="url(#paint7_linear)"/>
<path d="M279.246 195.243H261.738V225.264H279.246V195.243Z" fill="url(#paint8_linear)"/>
<path d="M230.707 193.242H228.176V197.246V223.262V227.265H230.707H247.149H249.681V223.262V197.246V193.242H247.149H230.707Z" fill="#D8DFE2"/>
<path d="M247.682 195.243H230.175V225.264H247.682V195.243Z" fill="#40C8CB"/>
<path d="M344.376 227.284H322.871V232.27H344.376V227.284Z" fill="white"/>
<path d="M312.81 227.284H291.306V232.27H312.81V227.284Z" fill="white"/>
<path d="M281.233 227.284H259.726V232.27H281.233V227.284Z" fill="white"/>
<path d="M249.681 227.284H228.176V232.27H249.681V227.284Z" fill="white"/>
<path d="M416.273 182.126H377.823V186.772H416.273V182.126Z" fill="#D8DFE2"/>
<path d="M196.494 340.678C197.509 339.507 208.539 340.444 208.651 341.052C208.996 342.91 209.546 350.025 208.5 350.973C207.482 351.889 196.472 351.892 196.249 350.091C196.057 348.534 195.515 341.807 196.494 340.678Z" fill="#FF505C"/>
<path d="M209.269 348.798C209.269 348.798 214.391 355.453 210.769 360.713C210.769 360.713 184.23 361.943 176.211 360.825C176.211 360.825 175.967 351.865 182.834 351.081C189.701 350.294 196.578 350.491 196.578 350.491C196.578 350.491 204.298 353.771 209.269 348.798Z" fill="#1F0D52"/>
<path d="M256.261 339.479C257.152 338.226 268.228 338.23 268.403 338.823C268.936 340.641 270.202 347.684 269.253 348.713C268.332 349.711 257.369 350.649 256.968 348.871C256.619 347.336 255.4 340.687 256.261 339.479Z" fill="#FF505C"/>
<path d="M269.799 346.483C269.799 346.483 275.57 352.679 272.494 358.218C272.494 358.218 246.193 361.69 238.095 361.257C238.095 361.257 236.947 352.355 243.708 350.991C250.465 349.63 257.334 349.243 257.334 349.243C257.334 349.243 265.352 351.856 269.799 346.483Z" fill="#1F0D52"/>
<path d="M144.477 48.0541C145.419 48.0541 146.185 47.3549 146.185 46.489V34.3726C146.185 31.9999 148.29 30.0727 150.877 30.0727C153.467 30.0727 155.572 32.0006 155.572 34.3726V46.4897C155.572 47.3549 156.335 48.0548 157.28 48.0548C158.224 48.0548 158.987 47.3556 158.987 46.4897V34.3726C158.987 30.2773 155.348 26.9438 150.876 26.9438C146.407 26.9438 142.768 30.2773 142.768 34.3726V46.4897C142.768 47.3549 143.533 48.0541 144.477 48.0541Z" fill="#469FD5"/>
<path d="M91.9538 20.8203H93.7211C95.1568 20.8203 96.321 21.8858 96.321 23.1994V36.3264H171.529C174.915 36.3264 177.67 33.8019 177.67 30.7022V19.1268C177.67 17.8311 178.818 16.7812 180.23 16.7812C181.646 16.7812 182.791 17.8304 182.791 19.1268V30.7037C182.791 36.3912 177.739 41.0183 171.529 41.0183H96.321V227.224H89.3555V23.2001C89.3562 21.8858 90.5212 20.8203 91.9538 20.8203Z" fill="url(#paint9_linear)"/>
<path d="M144.477 48.0541C145.419 48.0541 146.185 47.3549 146.185 46.489V34.3726C146.185 31.9999 148.29 30.0727 150.877 30.0727C153.467 30.0727 155.572 32.0006 155.572 34.3726H158.988C158.988 30.2773 155.349 26.9438 150.877 26.9438C146.408 26.9438 142.768 30.2773 142.768 34.3726V46.4897C142.768 47.3549 143.532 48.0541 144.477 48.0541Z" fill="#11B2D8"/>
<path d="M100.507 166.476H85.168V330.424H100.507V166.476Z" fill="#E2E9ED"/>
<path d="M150.278 122.355H151.765C156.735 122.355 160.766 118.663 160.766 114.109V99.2671H141.274V114.109C141.274 118.663 145.304 122.355 150.278 122.355Z" fill="#11B2D8"/>
<path d="M126.926 108.179C142.99 111.689 159.052 111.689 175.116 108.179C177.129 107.739 178.376 106.536 178.126 105.261C174.477 86.7396 174.477 68.218 178.126 49.6963C178.376 48.422 177.13 47.2189 175.116 46.7791C159.052 43.2689 142.99 43.2689 126.926 46.7791C124.913 47.2196 123.666 48.4227 123.917 49.6963C127.563 68.2187 127.563 86.7403 123.917 105.261C123.666 106.536 124.913 107.739 126.926 108.179Z" fill="#AFD3D9"/>
<path d="M136.663 82.8868C147.372 84.7214 154.67 84.7214 165.379 82.8868C166.723 82.6573 167.465 82.0337 167.387 81.3609C166.209 71.645 167.29 62.1557 169.092 52.3201C169.216 51.6508 168.429 51.0265 167.086 50.7963C156.375 48.9624 145.667 48.9624 134.955 50.7963C133.61 51.0265 132.885 51.648 132.95 52.3201C133.993 63.2134 135.503 71.526 134.655 81.3609C134.598 82.0337 135.319 82.6573 136.663 82.8868Z" fill="white"/>
<path d="M160.042 63.7863C160.042 59.1493 155.94 55.3911 150.878 55.3911C145.819 55.3911 141.716 59.1493 141.716 63.7863C141.716 68.4198 145.819 72.1773 150.878 72.1773C155.939 72.1773 160.042 68.4205 160.042 63.7863Z" fill="#11B2D8"/>
<path d="M155.037 62.6509H152.114V59.976C152.114 59.3495 151.562 58.8428 150.878 58.8428C150.196 58.8428 149.644 59.3488 149.644 59.976V62.6502H146.721C146.04 62.6502 145.484 63.1583 145.484 63.7855C145.484 64.4092 146.04 64.9152 146.721 64.9152H149.644V67.5915C149.644 68.2166 150.196 68.7247 150.878 68.7247C151.562 68.7247 152.114 68.2166 152.114 67.5915V64.9152H155.037C155.719 64.9152 156.274 64.4092 156.274 63.7855C156.274 63.1591 155.719 62.6509 155.037 62.6509Z" fill="white"/>
<path d="M130.721 83.4927C130.721 83.4927 127.124 101.752 127.865 103.691C129.804 108.77 170.604 107.683 173.875 104.418C175.184 103.11 172.764 93.9555 171.654 83.4934C171.653 83.4927 156.264 91.6299 130.721 83.4927Z" fill="url(#paint10_linear)"/>
<path d="M153.326 169.753C154.925 171.561 162.772 174.819 164.919 174.521C179.336 172.6 187.128 161.22 192.798 155.841C193.772 154.927 194.647 153.99 195.421 153.028C199.295 148.314 200.943 143.304 201.617 139.116C202.291 134.86 201.967 131.885 201.967 131.885C201.967 131.885 210.01 95.368 201.716 98.8689C193.373 102.415 182.981 118.135 175.386 130.147C175.161 130.491 174.962 130.832 174.737 131.152C174.262 131.907 173.813 132.64 173.362 133.327C172.188 135.204 171.089 136.964 170.089 138.475C167.942 141.816 162.478 149.473 162.478 149.473C162.478 149.473 146.681 162.317 153.326 169.753Z" fill="#FF505C"/>
<path d="M158.024 165.247C159.622 167.055 161.495 168.037 163.644 167.741C178.06 165.818 187.128 161.22 192.798 155.842C192.823 155.636 192.823 155.409 192.823 155.179C192.748 149.505 186.628 144.676 183.305 140.422C181.605 138.225 178.333 133.236 174.736 131.153C174.261 131.909 173.812 132.641 173.362 133.329C172.187 135.205 171.088 136.966 170.089 138.477C170.463 140.628 171.037 142.733 172.063 144.676C173.587 147.653 178.06 151.563 177.584 155.041C176.784 160.875 169.514 161.678 164.644 163.073C162.944 163.552 159.596 163.942 158.024 165.247Z" fill="#FC3C4C"/>
<path d="M201.964 131.885C201.964 131.885 202.289 134.862 201.615 139.116C200.836 144.066 198.724 150.73 193.225 156.395C187.615 162.178 168.435 134 173.939 126.916C182.324 116.133 193.511 102.351 201.715 98.8689C210.009 95.368 201.964 131.885 201.964 131.885Z" fill="#46C9E1"/>
<path d="M226.465 211.76C225.842 213.293 225.169 214.896 224.468 216.545C224.218 217.206 223.92 217.869 223.642 218.531C218.247 231.234 218.496 250.382 217.822 258.071C217.772 258.53 217.749 259.011 217.699 259.536C217.647 260.041 217.597 260.59 217.573 261.163C217.573 261.163 217.573 261.185 217.573 261.207C216.124 278.778 214.492 326.545 210.695 345.352C208.421 345.787 204.589 346.055 202.518 345.849C198.171 345.415 194.137 345.849 194.137 345.849C187.267 312.076 184.172 279.993 181.123 258.438C177.976 236.2 176.302 196.133 185.021 178.95C191.041 167.076 210.203 179.544 221.695 188.743C225.991 192.22 229.213 195.219 230.263 196.317C231.661 197.782 229.638 203.89 226.465 211.76Z" fill="#11B2D8"/>
<path d="M222.643 206.957C221.319 205.857 219.67 205.149 217.671 205.104C214.173 205.034 211.875 207.208 211.177 210.205C209.877 215.79 212.551 222.536 212.526 228.281C212.499 236.356 210.676 244.25 208.877 252.144C207.329 258.896 205.831 265.69 205.629 272.622C205.379 280.699 206.579 288.732 206.405 296.808C206.104 310.788 199.418 331.637 202.516 345.847C204.588 346.053 208.42 345.786 210.693 345.351C214.49 326.544 216.123 278.778 217.571 261.205C217.571 261.185 217.571 261.162 217.571 261.162C217.621 260.588 217.671 260.04 217.697 259.535C217.747 259.01 217.77 258.528 217.82 258.07C218.495 250.382 218.246 231.233 223.641 218.53C223.917 217.867 224.215 217.205 224.466 216.544C225.167 214.895 225.841 213.291 226.463 211.759C225.466 210 224.242 208.236 222.643 206.957Z" fill="#0091C1"/>
<path d="M270.208 342.319C270.182 343.28 268.384 343.806 266.011 344.058C261.54 344.539 255.12 344.08 255.12 344.08C245.651 322.184 235.658 288.824 232.986 267.224C230.712 248.758 227.189 230.614 224.467 216.545C224.467 216.52 224.467 216.52 224.467 216.52C223.793 213.066 223.168 209.86 222.643 206.957C221.369 200.205 220.519 195.079 220.444 192.312C220.421 190.893 220.395 190.136 220.395 190.136C220.819 189.659 221.269 189.201 221.695 188.743C230.437 179.613 240.979 174.374 247.424 173.688C250.098 173.391 252.045 173.871 252.894 175.151C255.644 179.363 257.791 183.25 259.466 186.913C259.643 187.278 259.791 187.644 259.938 188.011C270.308 211.053 268.259 223.749 268.457 254.159V254.455C268.457 268.779 263.238 288.048 265.212 303.65C267.512 321.565 270.434 334.427 270.208 342.319Z" fill="#11B2D8"/>
<path d="M265.214 303.65C263.24 288.048 268.459 268.779 268.459 254.455V254.159C268.262 223.75 270.311 211.053 259.941 188.011C257.219 187.919 254.296 188.539 251.223 190.049C250.349 190.46 250.55 191.328 251.174 191.787C251.023 192.015 250.999 192.312 251.174 192.657C256.97 204.921 260.665 218.078 259.992 231.531C259.667 238.418 257.943 245.121 256.82 251.942C255.669 258.92 255.121 265.945 254.797 272.968C254.271 284.958 253.247 297.451 255.695 309.326C258.119 321.064 262.365 332.572 266.012 344.059C268.385 343.806 270.182 343.28 270.209 342.32C270.434 334.427 267.512 321.566 265.214 303.65Z" fill="#0091C1"/>
<path d="M178.575 280.739C178.575 280.739 190.215 281.721 205.855 282.546C207.752 282.657 207.454 258.566 209.427 258.656C211.924 258.774 211.477 282.064 219.344 283.163C241.08 286.183 266.46 283.966 279.153 280.739L267.212 187.865C267.062 186.446 266.837 184.752 266.56 182.854V182.831C265.511 175.303 263.886 164.57 264.238 154.824C264.262 154.138 264.288 153.474 264.313 152.788C264.313 152.421 264.338 152.08 264.362 151.713C264.387 150.454 264.437 149.174 264.513 147.916C265.337 129.222 267.061 110.573 262.464 107.325C262.414 107.302 262.387 107.255 262.339 107.255C261.888 106.981 260.69 106.433 259.166 105.747C258.416 105.402 257.593 105.059 256.743 104.67C255.394 104.097 254.02 103.504 252.796 102.954C251.347 102.337 250.147 101.811 249.473 101.491C245.726 99.6832 241.328 98.0126 236.407 96.868C235.458 96.6406 234.484 96.4346 233.508 96.2507C227.138 95.0598 219.968 94.7633 212.199 96.1374C211.574 96.2507 210.95 96.3655 210.325 96.5016C210.325 96.5016 210.325 96.5259 210.3 96.5259C207.951 97.0055 205.554 97.6463 203.105 98.4923C202.532 98.6761 201.957 98.8836 201.358 99.0881C201.057 99.2036 200.783 99.3169 200.507 99.4559C199.709 99.8892 199.034 100.439 198.41 101.124C193.487 106.662 194.512 120.39 195.661 132.15C196.136 137.275 182.646 176.082 181.397 182.831C181.397 182.831 171.729 232.689 178.575 280.739Z" fill="#60CFEB"/>
<path d="M264.545 192.83C264.545 192.83 246.972 196.33 235.306 194.294C235.306 194.294 233.038 221.199 252.364 219.387C265.118 218.19 264.545 192.83 264.545 192.83Z" fill="#11B2D8"/>
<path d="M243.585 122.47C243.96 128.054 246.21 133.408 248.907 138.373C251.18 142.514 253.827 148.738 257.601 151.919C259 153.131 261.098 154.001 262.872 153.131C263.147 153.017 263.396 152.856 263.621 152.651C263.947 152.377 264.194 152.054 264.371 151.712C264.919 150.66 264.846 149.286 264.519 147.914C264.047 145.809 262.996 143.635 262.622 142.422C258.9 130.365 261.723 119.673 261.498 107.134C261.474 106.884 258.756 105.403 256.751 104.669C255.401 104.096 254.026 103.502 252.802 102.954C245.782 106.889 243.06 115.195 243.585 122.47Z" fill="#11B2D8"/>
<path d="M212.201 96.1369C212.301 102.429 214.648 112.612 214.648 112.612C218.772 106.408 229.464 98.9501 233.51 96.2503C227.14 95.0593 219.969 94.7628 212.201 96.1369Z" fill="#B1A6FF"/>
<path d="M217.531 88.0837V95.4234C217.531 95.4234 215.636 98.605 217.531 98.9521C221.695 99.7162 227.703 95.4277 227.703 95.4277V84.2222L217.531 88.0837Z" fill="#FF505C"/>
<path d="M227.703 91.0467V86.9399C227.703 86.9399 224.206 91.6054 219.208 91.8649C219.208 91.8649 223.551 93.5854 227.703 91.0467Z" fill="#FC3C4C"/>
<path d="M215.354 122.358C215.354 123.513 214.332 124.45 213.069 124.45C211.806 124.45 210.783 123.513 210.783 122.358C210.783 121.2 211.805 120.266 213.069 120.266C214.333 120.266 215.354 121.2 215.354 122.358Z" fill="#11B2D8"/>
<path d="M208.5 160.391C209.761 160.391 210.784 159.454 210.784 158.299C210.784 157.144 209.761 156.207 208.5 156.207C207.238 156.207 206.216 157.144 206.216 158.299C206.216 159.454 207.238 160.391 208.5 160.391Z" fill="#11B2D8"/>
<path d="M206.214 208.245C207.477 208.245 208.5 207.308 208.5 206.152C208.5 204.996 207.477 204.059 206.214 204.059C204.952 204.059 203.929 204.996 203.929 206.152C203.929 207.308 204.952 208.245 206.214 208.245Z" fill="#11B2D8"/>
<path d="M206.214 185.141C207.477 185.141 208.5 184.203 208.5 183.047C208.5 181.891 207.477 180.954 206.214 180.954C204.952 180.954 203.929 181.891 203.929 183.047C203.929 184.203 204.952 185.141 206.214 185.141Z" fill="#11B2D8"/>
<path d="M213.07 138.678C213.07 139.836 212.048 140.771 210.784 140.771C209.522 140.771 208.499 139.836 208.499 138.678C208.499 137.522 209.522 136.587 210.784 136.587C212.048 136.587 213.07 137.522 213.07 138.678Z" fill="#11B2D8"/>
<path d="M208.5 225.111C208.5 226.265 207.477 227.203 206.216 227.203C204.952 227.203 203.93 226.265 203.93 225.111C203.93 223.954 204.952 223.016 206.216 223.016C207.477 223.015 208.5 223.954 208.5 225.111Z" fill="#11B2D8"/>
<path d="M216.314 70.4985C216.314 70.4985 212.567 77.459 211.631 83.9399C210.965 88.5427 220.165 94.6194 227.66 88.1364C235.153 81.652 233.073 71.738 233.073 71.738L216.314 70.4985Z" fill="#FF505C"/>
<path d="M210.123 67.902C210.064 73.7357 217.1 74.2374 221.794 73.968C222.188 73.9459 222.436 73.4976 222.775 73.4741C223.392 73.4342 223.667 73.767 224.337 73.8746C225.849 74.1141 226.888 74.2346 228.424 74.2146C229.098 74.2032 229.767 74.3393 230.432 74.4976C230.034 75.2673 229.949 76.31 229.786 77.0334C229.292 79.2237 227.812 81.8515 228.56 84.1172C229.056 85.6275 230.665 86.5683 232.373 86.1086C234.432 85.5534 234.215 83.8001 234.914 82.3561C235.335 81.4937 235.651 80.8886 235.383 79.9179C235.302 79.6306 235.114 79.3755 234.971 79.1132C235.021 79.0697 235.064 78.8032 235.19 78.5081C235.737 77.2216 235.546 75.809 234.849 74.6294C236.606 73.787 237.211 71.9189 236.498 70.2362C235.615 68.1493 233.467 67.4793 231.277 67.3717C229.686 65.0995 226.675 65.1302 224.258 66.2499C223.187 65.1794 221.867 64.6947 220.516 64.7838C217.675 60.2174 210.181 62.389 210.123 67.902Z" fill="#32187C"/>
<path d="M231.174 83.0449C231.291 82.9266 231.423 82.8246 231.538 82.7035C232.587 81.561 230.61 80.0892 229.556 81.2317C228.307 82.5873 226.894 83.6357 225.007 84.2273C222.513 85.0113 221.331 84.342 219.626 82.8824C219.126 82.4554 218.226 82.5709 217.805 83.0228C216.296 84.6456 211.964 82.3899 211.43 84.8937C211.004 86.8751 213.415 90.3753 216.058 91.1243C223.092 93.1228 228.119 88.8586 231.978 84.8951C232.702 84.1532 232.055 83.1874 231.174 83.0449Z" fill="#32187C"/>
<path d="M218.577 64.5074C218.577 64.5074 232.747 72.4664 236.004 74.2674C236.004 74.2674 238.318 71.4892 239.314 68.4644C239.314 68.4644 231.869 60.4334 224.105 58.8276C224.104 58.8283 219.935 62.211 218.577 64.5074Z" fill="#B6E7F9"/>
<path d="M224.109 59.29C224.109 59.29 235.049 64.1658 237.776 69.0744C237.776 69.0744 225.121 60.7162 224.109 59.29Z" fill="#71B9DE"/>
<path d="M29.5865 339.175H24.4108C17.5192 339.175 11.9319 346.492 11.9319 355.52C11.9319 364.551 17.5185 371.87 24.4108 371.87H29.5865V339.175Z" fill="#8AA5F8"/>
<path d="M29.5857 371.869C36.478 371.869 42.0654 364.549 42.0654 355.52C42.0654 346.49 36.478 339.17 29.5857 339.17C22.6933 339.17 17.106 346.49 17.106 355.52C17.106 364.549 22.6933 371.869 29.5857 371.869Z" fill="#002CA7"/>
<path d="M126.642 285.905C126.642 254.312 114.83 227.922 99.0244 221.232V219.545H91.1749C71.5888 219.545 55.7092 249.258 55.7092 285.905C55.7092 322.555 71.5888 352.265 91.1749 352.265H99.0244V350.577C114.831 343.888 126.642 317.501 126.642 285.905Z" fill="#8AA5F8"/>
<path d="M99.0244 352.265C118.613 352.265 134.492 322.555 134.492 285.905C134.492 249.256 118.613 219.545 99.0244 219.545C79.436 219.545 63.5564 249.256 63.5564 285.905C63.5564 322.555 79.436 352.265 99.0244 352.265Z" fill="#002CA7"/>
<path d="M76.1079 268.187L27.835 295.491L145.923 297.664L190.063 264.324L76.1079 268.187Z" fill="#B5B5F6"/>
<path d="M87.1869 193.775L204.309 197.64V272.538L76.1079 268.187L87.1869 193.775Z" fill="#D4D4FF"/>
<path d="M29.6814 331.969C27.9593 331.969 26.3423 330.998 25.7166 329.431C24.9166 327.426 26.0419 325.205 28.2317 324.471L60.9418 313.522C63.123 312.796 65.5525 313.823 66.3556 315.825C67.1556 317.83 66.0295 320.05 63.8397 320.782L31.1312 331.735C30.6518 331.895 30.1631 331.969 29.6814 331.969Z" fill="#C2C0FF"/>
<path d="M145.923 297.664L146.011 335.112L26.252 329.073L27.8348 295.491L145.923 297.664Z" fill="#8AA5F8"/>
<path d="M83.6739 233.074C83.5743 233.074 83.4747 233.073 83.3743 233.066C81.0491 232.917 79.2958 231.068 79.4585 228.94L83.8988 170.863L112.27 164.908C114.535 164.423 116.806 165.728 117.328 167.813C117.848 169.893 116.429 171.967 114.156 172.442L91.8806 177.12L87.8799 229.478C87.7243 231.516 85.8699 233.074 83.6739 233.074Z" fill="#8AA5F8"/>
<path d="M27.2215 356.936C27.1764 356.936 27.1328 356.936 27.0877 356.933C24.7578 356.865 22.9275 355.083 23.0007 352.949L26.1741 259.956C26.5445 249.097 34.0049 239.721 45.1796 236.074L81.4966 225.368C83.7183 224.711 86.0956 225.835 86.8084 227.864C87.522 229.898 86.3011 232.075 84.0833 232.729L47.8892 243.395C40.1323 245.93 34.871 252.539 34.6103 260.195L31.4377 353.19C31.3677 355.283 29.4922 356.936 27.2215 356.936Z" fill="#8AA5F8"/>
<path d="M136.515 353.311L77.4268 359.512V364.184L137.305 365.715L136.515 353.311Z" fill="#002CA7"/>
<path d="M136.515 348.641H92.1982L77.4268 359.513L137.305 361.041L136.515 348.641Z" fill="#8AA5F8"/>
<path d="M60.8078 358.868L0.928223 357.336V362.01L60.8078 363.539V358.868Z" fill="#002CA7"/>
<path d="M75.0524 348.24L22.6465 346.949L0.928223 357.337L60.8078 358.868L75.0524 348.24Z" fill="#8AA5F8"/>
<path d="M60.8081 363.539L75.2286 352.587L75.0527 348.24L60.8081 358.868V363.539Z" fill="#002CA7"/>
<path d="M97.7778 170.211C98.1218 170.894 98.6393 171.145 99.2509 171.199C98.8315 172.139 98.6284 173.116 98.9731 173.933C99.4766 175.128 100.266 175.181 101.287 174.943C101.464 174.903 101.643 174.836 101.823 174.756C101.855 174.831 101.862 174.906 101.901 174.984C102.049 175.283 102.38 175.475 102.687 175.481C104.404 175.517 105.938 174.419 107.228 173.435C111.061 170.505 113.435 170.279 115.157 170.595C114.321 172.065 114.217 172.467 113.193 172.84C112.69 173.023 112.146 173.522 112.112 174.226C112.071 175.069 112.64 175.343 113.208 175.484C114.191 175.729 116.009 175.133 117 174.881C117.706 174.7 118.217 174.203 118.568 173.461C121.862 166.503 120.771 163.853 119.103 161.194C118.405 160.082 101.467 162.247 101.677 164.855C98.9692 166.02 96.567 167.809 97.7778 170.211Z" fill="#FF505C"/>
<path d="M234.491 179.477C233.602 181.058 232.327 180.23 230.816 180.574C228.975 180.991 224.516 185.209 222.397 184.449C219.572 183.437 225.442 181.292 223.952 180.146C223.42 179.734 215.44 184.206 217.328 180.085C217.746 179.174 221.965 176.665 220.169 176.438C218.243 177.185 214.15 179.471 213.37 177.496C213.002 176.565 215.263 174.966 216.479 174.486C222.488 172.113 219.22 172.141 215.302 173.977C213.269 174.93 212.076 173.826 213.679 171.945C217.001 168.043 223.935 168.132 228.344 169.502C230.208 170.079 236.473 175.942 234.491 179.477Z" fill="#FF505C"/>
<path d="M226.537 170.083C225.848 169.75 225.234 169.124 224.56 168.729C223.817 168.294 222.898 167.673 222.456 166.89C221.726 165.604 223.045 165.331 224.034 165.57C225.841 166.006 228.855 169.237 230.075 170.566C230.237 170.742 227.244 170.425 226.537 170.083Z" fill="#FF505C"/>
<path d="M285.251 187.59C272.666 199.742 227.953 181.054 227.953 181.054L229.743 173.659C229.743 173.659 234.929 174.721 241.299 175.284C249.566 176 259.85 175.891 263.636 171.595C264.461 170.66 264.616 162.409 263.301 155.517C262.661 152.108 261.647 149.02 260.191 147.33C258.22 145.045 256.124 142.763 254.301 140.842C249.87 136.16 247.06 130.299 246.85 124.103C246.625 118.159 248.291 113.384 250.413 109.751C253.357 104.702 260.964 103.947 265.215 108.143C273.387 116.218 285.57 135.808 285.876 136.286C296.641 153.771 297.89 175.399 285.251 187.59Z" fill="#FF505C"/>
<path d="M270.74 161.626C270.584 156.221 270.07 150.844 269.227 145.489C269.414 144.935 269.603 144.359 269.812 143.808C270.33 142.419 267.938 141.717 267.423 143.107C267.377 143.241 267.332 143.373 267.288 143.506C266.822 143.724 266.482 144.142 266.597 144.712C266.618 144.899 266.64 145.088 266.69 145.255C265.555 148.551 263.667 145.726 262.413 149.124C263.727 156.015 264.46 170.66 263.635 171.594C259.849 175.89 249.565 176 241.299 175.283C241.426 175.6 241.692 175.843 242.053 175.982C249.675 178.741 264.349 182.244 269.189 173.718C271.26 170.08 270.863 165.592 270.74 161.626Z" fill="#FC3C4C"/>
<path d="M259.601 151.043C257.782 148.934 246.383 135.372 246.167 123.316C246.066 117.833 249.869 105.116 257.397 104.506C269.458 103.53 282.684 121.066 291.658 134.175C285.149 143.75 273.216 149.495 259.601 151.043Z" fill="#46C9E1"/>
<path d="M115.965 208.848C115.965 208.848 100.76 239.567 84.6692 245.554C74.1856 249.443 73.244 260.313 55.4757 260.474C52.3724 260.502 49.9927 257.344 49.9927 257.344C53.0735 253.439 74.9404 230.452 78.0804 227.832C79.0827 226.983 96.7373 174.498 104.032 169.149C111.291 163.854 115.965 208.848 115.965 208.848Z" fill="#FF505C"/>
<path d="M71.3179 251.206C84.8108 249.04 93.8237 241.749 99.9153 230.496C102.672 225.405 103.112 219.88 102.735 214.286C102.341 208.456 102.047 202.292 98.2119 197.423C97.2555 196.207 95.3163 197.71 96.2664 198.916C96.4423 199.14 96.5754 199.385 96.7364 199.619C96.7123 199.69 96.6719 199.745 96.6625 199.824C95.282 209.89 94.8641 224.03 87.2885 232.058C81.337 238.367 73.7396 241.691 69.9071 249.669C69.5188 250.48 70.4285 251.349 71.3179 251.206Z" fill="#FC3C4C"/>
<path d="M40.2283 350.351C41.1458 349.201 51.4824 350.466 51.6038 351.078C51.9742 352.96 52.6699 360.14 51.7128 361.064C50.7859 361.957 40.4906 361.644 40.2385 359.823C40.0198 358.249 39.3404 351.461 40.2283 350.351Z" fill="#FF505C"/>
<path d="M52.3772 358.895C52.3772 358.895 57.335 365.745 54.0799 370.933C54.0799 370.933 29.2979 371.411 21.7721 370.055C21.7721 370.055 21.3184 361.025 27.719 360.433C34.1203 359.836 40.5551 360.234 40.5551 360.234C40.5551 360.234 47.8552 363.76 52.3772 358.895Z" fill="#1F0D52"/>
<path d="M129.015 267.727C122.866 279.959 100.87 284.933 84.5435 289.259C74.7594 291.859 67.0134 294.233 65.9722 297.813C61.9007 311.808 59.0331 341.725 55.171 354.605C53.7827 356.21 50.8926 356.233 47.8857 355.674C43.0298 354.79 37.8269 352.35 37.8269 352.35C38.7039 323.661 36.3468 303.788 40.9248 283.886C48.6024 250.455 98.9515 235.18 98.9515 235.18C107.785 225.46 139.794 246.292 129.015 267.727Z" fill="#164BCD"/>
<path d="M106.12 242.526C105.404 242.317 104.94 242.827 104.871 243.409C104.779 243.456 104.662 243.48 104.571 243.549C94.6496 250.431 81.282 253.244 73.743 263.311C70.7587 267.333 69.5789 272.075 68.607 276.888C67.1051 284.281 64.1223 290.164 61.0462 296.952C55.5654 309.063 51.5866 322.872 48.9968 335.917C47.7019 342.45 46.9837 342.259 47.2864 348.931C47.4008 351.07 47.4257 353.467 47.8863 355.673C50.8932 356.233 53.7834 356.209 55.1717 354.604C59.0338 341.725 61.9014 311.807 65.9728 297.813C67.0133 294.232 74.7601 291.858 84.5442 289.258C88.1744 284.769 92.0357 280.468 96.1531 276.4C101.495 271.099 107.695 266.679 112.898 261.24C120.483 253.268 115.787 245.247 106.12 242.526Z" fill="#002CA7"/>
<path d="M93.8276 365.279C94.4439 363.89 104.571 362.272 104.823 362.841C105.599 364.59 107.877 371.469 107.173 372.644C106.492 373.782 96.6182 376.322 95.966 374.601C95.4058 373.11 93.2315 366.614 93.8276 365.279Z" fill="#FF505C"/>
<path d="M107.32 366.569C107.32 366.569 113.581 371.938 111.648 377.948C111.648 377.948 88.1553 385.282 80.684 386.033C80.684 386.033 78.2195 377.268 84.1812 374.913C90.1436 372.552 96.3613 371.161 96.3613 371.161C96.3613 371.161 104.107 372.609 107.32 366.569Z" fill="#1F0D52"/>
<path d="M159.754 265.203C149.925 284.78 111.531 279.199 108.758 288.732C104.688 302.728 102.05 353.387 107.299 361.523C106.836 362.037 106.306 362.524 105.68 362.992C101.333 366.197 93.7249 367.825 93.7249 367.825C84.8653 348.319 76.0314 310.26 74.689 288.196C72.6097 253.975 129.686 232.656 129.686 232.656C136.902 224.727 159.568 237.166 161.763 253.651C162.274 257.369 161.719 261.276 159.754 265.203Z" fill="#164BCD"/>
<path d="M161.764 253.651C160.007 252.767 157.948 252.326 155.776 252.533C154.573 252.649 154.504 254.162 155.29 254.673C150.061 269.646 133.225 273.506 119.372 276.224C109.544 278.153 101.611 281.06 99.4842 291.871C98.2127 298.241 98.2353 304.983 97.7707 311.447C97.3318 317.816 96.7295 324.187 96.7069 330.581C96.6851 342.228 99.6671 353.2 105.68 362.992C106.305 362.525 106.836 362.037 107.3 361.523C102.05 353.387 104.688 302.728 108.758 288.732C111.531 279.199 149.925 284.78 159.754 265.203C161.719 261.276 162.274 257.369 161.764 253.651Z" fill="#002CA7"/>
<path d="M120.332 207.599C115.612 209.924 110.865 211.435 105.966 211.876C104.975 211.993 103.985 212.039 102.994 212.039C98.5265 212.064 87.9292 209.537 82.9792 207.608C82.6003 205.188 86.4203 190.58 92.2583 180.932C93.5026 178.887 95.6348 175.723 98.2222 173.215C100.712 170.749 103.657 168.891 106.55 169.33C107.033 169.401 107.489 169.516 107.969 169.727C118.024 174.005 119.774 193.44 120.332 207.599Z" fill="#B1A6FF"/>
<path d="M111.853 207.088C110.457 208.089 107.945 210.181 105.967 211.877C104.975 212.74 104.137 213.504 103.605 213.994C103.454 213.436 103.25 212.785 102.995 212.04C100.227 204.066 92.2067 186.792 94.2386 180.84C95.1016 178.306 96.4478 175.634 98.2221 173.216C100.711 170.75 103.657 168.892 106.549 169.331C105.027 171.588 102.36 176.283 100.915 178.213C99.1372 183.701 99.5442 190.045 101.701 195.324C102.31 196.324 111.397 206.041 111.853 207.088Z" fill="#9E8AFF"/>
<path d="M162.698 240.838C162.52 240.91 162.316 240.98 162.14 241.049C161.275 241.397 160.388 241.722 159.525 242.002C159.447 242.024 159.372 242.05 159.322 242.071C158.485 242.352 157.646 242.582 156.808 242.818C156.226 242.979 155.64 243.141 155.031 243.28C154.677 243.373 154.347 243.466 153.993 243.535C153.408 243.674 152.823 243.817 152.215 243.932C125.156 249.442 91.6481 240.002 90.0248 239.538C89.9968 239.513 89.9727 239.513 89.9727 239.513C89.9727 239.513 89.9727 239.491 89.9968 239.467C90.0489 239.328 90.2279 238.909 90.4808 238.235C90.5329 238.097 90.582 237.955 90.659 237.817C90.7602 237.585 90.8621 237.306 90.989 237.027C91.3703 236.075 91.8761 234.89 92.4854 233.492C92.6893 233.003 92.9173 232.47 93.1453 231.934C93.1967 231.819 93.2465 231.703 93.2986 231.563C93.5017 231.123 93.7056 230.679 93.9087 230.214C95.2518 227.123 96.9031 223.518 98.6797 219.8C99.2128 218.683 99.7466 217.567 100.304 216.45C101.471 214.126 102.663 211.825 103.883 209.617C104.034 209.337 104.188 209.059 104.315 208.781C104.466 208.525 104.592 208.246 104.697 207.99C106.981 203.014 105.939 200.294 103.73 197.643C102.488 196.133 100.838 194.643 99.2377 192.761C97.2082 190.414 95.5818 187.762 95.43 184.274C95.2028 179.252 98.9583 172.836 105.356 169.162C107.487 167.931 109.721 166.815 111.828 165.838C118.023 162.977 123.402 161.258 123.402 161.258C127.693 161.024 131.424 161.048 134.65 161.327H134.675C137.668 161.583 140.259 162.026 142.441 162.676C160.185 167.791 153.508 184.39 150.437 198.387C150.083 199.989 149.777 201.549 149.574 203.059C149.473 203.827 149.396 204.594 149.371 205.361C149.293 207.29 152.036 222.24 152.036 222.24C152.036 222.24 152.898 224.285 153.154 224.8C153.688 225.912 154.245 227.005 154.83 228.052C155.185 228.681 155.539 229.308 155.896 229.912L156.429 230.819C156.706 231.284 157.012 231.748 157.292 232.212C157.976 233.331 158.662 234.375 159.322 235.397C159.575 235.817 159.855 236.237 160.108 236.632C161.099 238.166 161.988 239.582 162.698 240.838Z" fill="#B1A6FF"/>
<path d="M136.742 196.902C138.329 201.843 146.834 209.669 150.261 212.041C150.286 211.274 149.458 203.829 149.56 203.062C149.763 201.549 150.066 199.991 150.423 198.388C149.332 196.505 147.604 194.272 144.813 191.901C137.451 185.531 141.39 164.772 141.39 164.772C129.523 170.264 135.061 191.671 136.742 196.902Z" fill="#9E8AFF"/>
<path d="M129.523 157.903V152.901C129.523 152.901 124.263 157.499 119.186 157.763C119.186 157.763 125.304 160.483 129.523 157.903Z" fill="#FC3C4C"/>
<path d="M126.722 144.595C126.722 144.595 129.786 143.287 130.395 145.54C131.005 147.791 128.77 149.124 127.587 148.711C126.405 148.299 126.008 145.539 126.722 144.595Z" fill="#FF505C"/>
<path d="M51.9506 253.902C54.1676 251.923 58.1597 249.872 60.6888 252.41C61.0133 252.542 61.2981 252.756 61.4148 253.15C62.3261 256.228 62.8381 259.166 60.8771 261.985C60.1908 262.972 58.4469 262.354 58.5659 261.222C58.7395 259.598 58.8406 257.973 58.9099 256.345C57.8765 257.253 56.917 258.233 56.4711 259.385C55.6057 261.642 56.6921 264.047 57.7185 266.08C58.1247 266.883 57.3986 267.784 56.4547 267.72C55.6563 267.668 55.0532 267.235 54.5731 266.636C54.7116 267.235 54.8703 267.828 55.061 268.411C55.4011 269.462 53.9241 270.006 53.0883 269.563C52.2572 269.119 51.6868 268.478 51.3047 267.719C50.6277 268.248 49.3764 268.144 49.2301 267.105C49.1133 266.279 49.0192 265.4 48.9624 264.516C48.4698 264.475 48.0301 264.192 47.9686 263.594C47.5928 259.932 49.0752 256.469 51.9506 253.902Z" fill="#FF505C"/>
<path d="M89.2218 216.67C92.4115 217.519 95.6799 218.126 99.0089 218.421C98.4494 220.298 97.8183 222.287 97.1382 224.326C90.2404 224.255 83.7963 222.085 78.5295 218.005C79.0525 217.034 79.5964 216.101 80.117 215.129C80.5139 214.45 80.8726 213.765 81.2664 213.086C84.0445 213.988 86.618 215.324 89.2218 216.67Z" fill="#11B2D8"/>
<path d="M148.561 269.799L194.986 254.982L193.932 320.697L142.583 335.513L148.561 269.799Z" fill="#002CA7"/>
<path d="M201.146 242.578C201.075 242.578 201.003 242.577 200.932 242.574C198.604 242.467 196.811 240.651 196.927 238.519L200.253 177.549L228.688 171.582C230.951 171.096 233.223 172.402 233.746 174.488C234.266 176.567 232.845 178.641 230.574 179.117L208.364 183.779L205.358 238.905C205.245 240.971 203.379 242.578 201.146 242.578Z" fill="#8AA5F8"/>
<path d="M143.64 362.412C143.594 362.412 143.551 362.412 143.506 362.411C141.176 362.342 139.346 360.559 139.419 358.426L142.593 265.432C142.961 254.571 150.423 245.195 161.598 241.55L199.365 229.657C201.569 228.962 203.971 230.036 204.729 232.057C205.488 234.076 204.315 236.274 202.111 236.968L164.387 248.848C156.552 251.404 151.289 258.012 151.029 265.672L147.855 358.665C147.785 360.761 145.91 362.412 143.64 362.412Z" fill="#8AA5F8"/>
<path d="M146.1 337.446C144.378 337.446 142.761 336.473 142.135 334.908C141.335 332.903 142.459 330.682 144.65 329.949L177.359 318.998C179.544 318.273 181.972 319.297 182.774 321.302C183.575 323.305 182.448 325.528 180.259 326.26L147.549 337.211C147.07 337.369 146.581 337.446 146.1 337.446Z" fill="#8AA5F8"/>
<path d="M243.06 297.337C243.06 268.581 231.248 244.56 215.443 238.471V236.936H207.592C188.006 236.936 172.127 263.978 172.127 297.337C172.127 330.7 188.006 357.742 207.592 357.742H215.443V356.207C231.248 350.116 243.06 326.097 243.06 297.337Z" fill="#002CA7"/>
<path d="M250.911 297.337C250.911 330.7 235.031 357.742 215.443 357.742C195.854 357.742 179.975 330.7 179.975 297.337C179.975 263.978 195.854 236.936 215.443 236.936C235.031 236.936 250.911 263.978 250.911 297.337Z" fill="#8AA5F8"/>
<path d="M244.435 297.337C244.435 324.61 231.454 346.714 215.442 346.714C199.43 346.714 186.449 324.61 186.449 297.337C186.449 270.07 199.43 247.963 215.442 247.963C231.454 247.963 244.435 270.07 244.435 297.337Z" fill="#D4D4FF"/>
<path d="M223.505 297.337C223.505 304.922 219.895 311.072 215.443 311.072C210.99 311.072 207.38 304.922 207.38 297.337C207.38 289.757 210.99 283.607 215.443 283.607C219.895 283.607 223.505 289.757 223.505 297.337Z" fill="#002CA7"/>
<path d="M149.606 343.558H144.432C137.539 343.558 131.952 350.875 131.952 359.904C131.952 368.935 137.539 376.252 144.432 376.252H149.606V343.558Z" fill="#002CA7"/>
<path d="M162.086 359.904C162.086 368.935 156.499 376.252 149.606 376.252C142.715 376.252 137.126 368.935 137.126 359.904C137.126 350.875 142.715 343.558 149.606 343.558C156.499 343.558 162.086 350.875 162.086 359.904Z" fill="#8AA5F8"/>
<path d="M149.607 372.417C154.883 372.417 159.159 366.815 159.159 359.904C159.159 352.993 154.883 347.391 149.607 347.391C144.332 347.391 140.055 352.993 140.055 359.904C140.055 366.815 144.332 372.417 149.607 372.417Z" fill="#002CA7"/>
<path d="M79.5014 216.526C43.344 180.062 150.351 150.239 150.351 121.464" stroke="#00AEEF" stroke-width="2" stroke-miterlimit="10"/>
<path d="M134.895 142.985C134.88 143.087 134.853 143.181 134.865 143.294C135.446 147.923 138.807 151.963 139.926 156.581C141.004 161.041 141.182 165.692 142.699 170.067C144.688 175.797 148.54 179.41 155.225 179.727C160.969 180.001 170.845 180.04 174.771 175.416C177.3 172.434 178.153 165.217 173.041 164.128C172.235 163.957 171.053 164.486 171.36 165.42C173.261 171.194 165.289 166.698 163.571 164.664C161.871 162.647 161.166 160.039 160.699 157.584C160.069 154.29 160.208 150.896 159.846 147.571C159.36 143.119 158.797 137.046 154.702 133.968C147.556 128.589 137.531 135.852 134.878 142.154C134.744 142.471 134.779 142.751 134.895 142.985Z" fill="#32187C"/>
<path d="M119.187 156.244V162.8C119.187 162.8 117.263 166.034 119.187 166.386C123.418 167.159 129.523 161.115 129.523 161.115V152.32L119.187 156.244Z" fill="#FF505C"/>
<path d="M116.648 137.111C116.648 137.111 112.841 144.183 111.888 150.77C111.214 155.447 120.562 161.621 128.177 155.03C135.792 148.445 133.678 138.37 133.678 138.37L116.648 137.111Z" fill="#FF505C"/>
<path d="M119.063 132.345C125.321 128.818 134.79 129.205 138.965 137.111C140.822 140.63 138.112 147.205 135.726 150.543C133.853 153.164 130.329 155.304 128.44 151.832C126.995 149.181 127.233 146.713 127.465 143.875C127.548 142.832 127.583 141.951 127.461 141.153C125.961 139.282 123.921 137.967 121.628 137.953C121.051 138.482 115.273 144.217 112.416 140.347C105.16 130.511 118.083 132.897 119.063 132.345Z" fill="#32187C"/>
<path d="M114.464 233.896C114.464 233.896 118.551 240.684 118.931 241.265C118.931 241.265 121.876 241.936 126.65 242.66C129.059 243.031 132.004 243.24 135.329 243.313C136.903 243.335 138.579 243.335 140.305 243.313C153.024 243.009 169.092 240.658 180.057 235.267C195.262 227.779 183.587 197.951 166.274 187.212C166.225 187.165 144.242 199.534 146.806 200.767C147.744 201.229 162.695 220.501 161.678 221.504C160.766 222.434 158.887 225.154 156.12 226.036C151.703 227.431 145.511 228.756 139.239 229.873C138.376 230.013 137.538 230.175 136.676 230.314C136.066 230.433 135.46 230.524 134.849 230.641C124.439 232.43 114.972 233.663 114.464 233.896Z" fill="#FF505C"/>
<path d="M137.465 231.613C146.449 234.084 161.369 232.107 168.482 226.151C176.426 219.47 161.481 206.972 155.785 202.325C156.005 201.499 151.298 204.503 150.423 205.427C154.834 210.755 161.645 220.114 161.084 221.385C160.457 222.807 158.899 225.16 156.112 226.048C151.087 227.628 143.784 229.096 136.673 230.321C136.516 230.846 136.737 231.391 137.465 231.613Z" fill="#FC3C4C"/>
<path d="M148.529 206.838C146.901 204.884 136.442 191.589 136.445 180.552C136.445 175.531 137.359 164.226 144.261 163.772C155.318 163.048 167.132 179.286 175.129 191.411C169.01 200.085 161.02 205.613 148.529 206.838Z" fill="#B1A6FF"/>
<path d="M124.196 240.555C123.633 242.135 120.916 242.505 119.516 243.108C117.805 243.839 114.268 248.462 112.067 248.206C109.129 247.866 114.426 244.805 112.766 244.081C112.17 243.821 105.262 249.364 106.318 245.334C106.55 244.445 110.177 241.385 108.39 241.538C106.659 242.581 103.115 245.416 101.985 243.818C101.451 243.065 103.348 241.198 104.436 240.535C109.827 237.244 106.655 237.912 103.196 240.314C101.402 241.562 100.036 240.815 101.235 238.832C103.729 234.716 110.482 233.425 115.022 233.769C116.942 233.916 125.453 237.029 124.196 240.555Z" fill="#FF505C"/>
<path d="M113.377 234.643C112.644 234.482 111.931 234.052 111.202 233.833C110.398 233.592 109.387 233.222 108.809 232.615C107.86 231.617 109.086 231.115 110.09 231.13C111.93 231.163 115.467 233.435 116.904 234.376C117.096 234.499 114.129 234.807 113.377 234.643Z" fill="#FF505C"/>
<path d="M414.403 119.876C414.551 122.126 414.631 124.413 414.631 126.742C414.631 200.658 339.098 287.878 265.18 298.021H416.274V119.875H414.403V119.876Z" fill="white"/>
<path d="M211.161 25.0082H205.083C204.169 25.0082 203.523 24.835 203.144 24.4879C202.765 24.1415 202.577 23.5499 202.577 22.711V12.678C202.577 11.8398 202.765 11.2468 203.144 10.8961C203.523 10.5462 204.169 10.3716 205.083 10.3716H213.078V12.678H206.134C205.676 12.678 205.448 12.8839 205.448 13.2959V16.4276H211.16C212.069 16.4276 212.713 16.603 213.096 16.9536C213.478 17.3036 213.669 17.8973 213.669 18.7354V22.711C213.669 23.5492 213.479 24.1415 213.101 24.4879C212.723 24.835 212.075 25.0082 211.161 25.0082ZM205.449 18.7354V22.0831C205.449 22.5022 205.677 22.711 206.135 22.711H210.112C210.56 22.711 210.785 22.5022 210.785 22.0831V19.3641C210.785 18.945 210.56 18.7362 210.112 18.7362H205.449V18.7354Z" fill="url(#paint11_linear)"/>
<path d="M218.59 10.3716H224.839C225.753 10.3716 226.402 10.5462 226.783 10.8961C227.164 11.2468 227.357 11.8405 227.357 12.678V22.711C227.357 23.2741 227.273 23.7224 227.105 24.0567C226.936 24.3902 226.672 24.6325 226.312 24.7829C225.951 24.9333 225.459 25.0082 224.839 25.0082H218.589C217.674 25.0082 217.028 24.835 216.648 24.4879C216.27 24.1415 216.08 23.5499 216.08 22.711V12.678C216.08 11.8398 216.27 11.2468 216.648 10.8961C217.029 10.5462 217.675 10.3716 218.59 10.3716ZM223.799 12.678H219.64C219.183 12.678 218.955 12.8839 218.955 13.2959V22.0824C218.955 22.5015 219.183 22.7103 219.64 22.7103H223.799C224.256 22.7103 224.486 22.5015 224.486 22.0824V13.2959C224.486 12.8839 224.256 12.678 223.799 12.678Z" fill="url(#paint12_linear)"/>
<path d="M239.458 25.0082L235.664 13.1791H235.567L231.826 25.0082H228.72L233.103 12.1777C233.354 11.4379 233.675 10.9283 234.073 10.6461C234.47 10.3645 234.993 10.2241 235.643 10.2241C235.966 10.2241 236.245 10.2541 236.485 10.3125C236.724 10.3717 236.952 10.4736 237.171 10.6168C237.388 10.7615 237.583 10.9604 237.75 11.2155C237.917 11.4707 238.066 11.7914 238.194 12.1777L242.557 25.0082H239.458Z" fill="url(#paint13_linear)"/>
<path d="M252.59 25.0082H246.511C245.598 25.0082 244.95 24.835 244.572 24.4879C244.192 24.1415 244.004 23.5499 244.004 22.711V10.3716H246.887V16.144H252.59C253.204 16.144 253.693 16.2209 254.058 16.3749C254.423 16.5288 254.686 16.7704 254.852 17.1019C255.016 17.4326 255.098 17.8787 255.098 18.4418V22.7117C255.098 23.5499 254.908 24.1422 254.53 24.4886C254.151 24.835 253.505 25.0082 252.59 25.0082ZM247.574 22.711H251.54C251.996 22.711 252.226 22.5022 252.226 22.0831V19.069C252.226 18.6506 251.996 18.4411 251.54 18.4411H246.887V22.0831C246.887 22.5015 247.117 22.711 247.574 22.711Z" fill="url(#paint14_linear)"/>
<path d="M268.474 10.3716V25.0082H265.589V18.7354H260.242V25.0082H257.369V10.3716H260.242V16.4283H265.589V10.3716H268.474Z" fill="url(#paint15_linear)"/>
<path d="M271.518 23.153V10.3717H274.401V21.3569H274.486L278.398 11.795C278.835 10.7473 279.693 10.2241 280.973 10.2241C281.066 10.2241 281.144 10.2255 281.207 10.2284C281.271 10.2327 281.362 10.2405 281.477 10.2541C281.59 10.2669 281.692 10.2833 281.783 10.3025C281.872 10.3218 281.971 10.3553 282.082 10.4009C282.193 10.4465 282.289 10.5014 282.371 10.5627C282.454 10.6247 282.538 10.7038 282.623 10.7986C282.709 10.8934 282.779 11.0017 282.837 11.1222C282.895 11.2433 282.94 11.3873 282.977 11.5541C283.012 11.7208 283.03 11.9019 283.03 12.0993V25.0082H280.147V14.0329H280.062L276.138 23.5265C275.91 24.0824 275.565 24.4929 275.106 24.7581C274.643 25.0239 274.133 25.1558 273.577 25.1558C272.912 25.1558 272.402 24.9761 272.049 24.6162C271.697 24.2563 271.518 23.7681 271.518 23.153Z" fill="url(#paint16_linear)"/>
<path d="M296.439 25.0082H288.443C287.528 25.0082 286.882 24.835 286.504 24.4879C286.126 24.1415 285.937 23.5499 285.937 22.711V10.3716H288.818V22.0831C288.818 22.5022 289.048 22.711 289.504 22.711H294.156V10.3716H297.029V22.711H299.088V27.9339H296.439V25.0082Z" fill="url(#paint17_linear)"/>
<path d="M299.311 25.0082L303.877 12.1777C304.143 11.4379 304.47 10.9283 304.864 10.6461C305.257 10.3645 305.771 10.2241 306.406 10.2241C306.835 10.2241 307.202 10.2811 307.506 10.3959C307.809 10.5106 308.085 10.7138 308.336 11.0046C308.586 11.2961 308.797 11.6874 308.969 12.1777L313.513 25.0082H310.384L309.109 21.1794H303.696L302.443 25.0082H299.311ZM308.347 18.8823L306.439 13.1791H306.342L304.445 18.8823H308.347Z" fill="url(#paint18_linear)"/>
<defs>
<linearGradient id="paint0_linear" x1="392.814" y1="142.351" x2="22.374" y2="142.351" gradientUnits="userSpaceOnUse">
<stop stop-color="#B3CDFA"/>
<stop offset="0.0276" stop-color="#B7CFFA"/>
<stop offset="0.2615" stop-color="#D1E1FC"/>
<stop offset="0.5" stop-color="#E5EEFE"/>
<stop offset="0.7435" stop-color="#F0F5FE"/>
<stop offset="1" stop-color="#F4F8FF"/>
</linearGradient>
<linearGradient id="paint1_linear" x1="99.9109" y1="368.808" x2="427.776" y2="368.998" gradientUnits="userSpaceOnUse">
<stop stop-color="#4F1EA2"/>
<stop offset="0.5167" stop-color="#324BB2"/>
<stop offset="1" stop-color="#1A71BF"/>
</linearGradient>
<linearGradient id="paint2_linear" x1="197.187" y1="108.432" x2="330.188" y2="108.432" gradientUnits="userSpaceOnUse">
<stop stop-color="#41DC9F"/>
<stop offset="0.5167" stop-color="#3BBACC"/>
<stop offset="1" stop-color="#369EF2"/>
</linearGradient>
<linearGradient id="paint3_linear" x1="322.871" y1="210.253" x2="344.376" y2="210.253" gradientUnits="userSpaceOnUse">
<stop stop-color="#41DC9F"/>
<stop offset="0.5167" stop-color="#3BBACC"/>
<stop offset="1" stop-color="#369EF2"/>
</linearGradient>
<linearGradient id="paint4_linear" x1="324.867" y1="210.253" x2="342.379" y2="210.253" gradientUnits="userSpaceOnUse">
<stop stop-color="#41DC9F"/>
<stop offset="0.5167" stop-color="#3BBACC"/>
<stop offset="1" stop-color="#369EF2"/>
</linearGradient>
<linearGradient id="paint5_linear" x1="291.306" y1="210.253" x2="312.809" y2="210.253" gradientUnits="userSpaceOnUse">
<stop stop-color="#41DC9F"/>
<stop offset="0.5167" stop-color="#3BBACC"/>
<stop offset="1" stop-color="#369EF2"/>
</linearGradient>
<linearGradient id="paint6_linear" x1="293.303" y1="210.253" x2="310.812" y2="210.253" gradientUnits="userSpaceOnUse">
<stop stop-color="#41DC9F"/>
<stop offset="0.5167" stop-color="#3BBACC"/>
<stop offset="1" stop-color="#369EF2"/>
</linearGradient>
<linearGradient id="paint7_linear" x1="259.741" y1="210.253" x2="281.246" y2="210.253" gradientUnits="userSpaceOnUse">
<stop stop-color="#41DC9F"/>
<stop offset="0.5167" stop-color="#3BBACC"/>
<stop offset="1" stop-color="#369EF2"/>
</linearGradient>
<linearGradient id="paint8_linear" x1="261.738" y1="210.253" x2="279.246" y2="210.253" gradientUnits="userSpaceOnUse">
<stop stop-color="#41DC9F"/>
<stop offset="0.5167" stop-color="#3BBACC"/>
<stop offset="1" stop-color="#369EF2"/>
</linearGradient>
<linearGradient id="paint9_linear" x1="89.356" y1="122.002" x2="182.791" y2="122.002" gradientUnits="userSpaceOnUse">
<stop stop-color="#132574"/>
<stop offset="0.6169" stop-color="#25369B"/>
<stop offset="1" stop-color="#2E3FAF"/>
</linearGradient>
<linearGradient id="paint10_linear" x1="127.764" y1="95.3386" x2="174.253" y2="95.3386" gradientUnits="userSpaceOnUse">
<stop stop-color="#41DC9F"/>
<stop offset="0.5167" stop-color="#3BBACC"/>
<stop offset="1" stop-color="#369EF2"/>
</linearGradient>
<linearGradient id="paint11_linear" x1="202.576" y1="17.6897" x2="213.67" y2="17.6897" gradientUnits="userSpaceOnUse">
<stop stop-color="#132574"/>
<stop offset="0.6169" stop-color="#25369B"/>
<stop offset="1" stop-color="#2E3FAF"/>
</linearGradient>
<linearGradient id="paint12_linear" x1="216.081" y1="17.6897" x2="227.358" y2="17.6897" gradientUnits="userSpaceOnUse">
<stop stop-color="#132574"/>
<stop offset="0.6169" stop-color="#25369B"/>
<stop offset="1" stop-color="#2E3FAF"/>
</linearGradient>
<linearGradient id="paint13_linear" x1="228.72" y1="17.616" x2="242.557" y2="17.616" gradientUnits="userSpaceOnUse">
<stop stop-color="#132574"/>
<stop offset="0.6169" stop-color="#25369B"/>
<stop offset="1" stop-color="#2E3FAF"/>
</linearGradient>
<linearGradient id="paint14_linear" x1="244.004" y1="17.6897" x2="255.097" y2="17.6897" gradientUnits="userSpaceOnUse">
<stop stop-color="#132574"/>
<stop offset="0.6169" stop-color="#25369B"/>
<stop offset="1" stop-color="#2E3FAF"/>
</linearGradient>
<linearGradient id="paint15_linear" x1="257.368" y1="17.6897" x2="268.474" y2="17.6897" gradientUnits="userSpaceOnUse">
<stop stop-color="#132574"/>
<stop offset="0.6169" stop-color="#25369B"/>
<stop offset="1" stop-color="#2E3FAF"/>
</linearGradient>
<linearGradient id="paint16_linear" x1="271.518" y1="17.6894" x2="283.03" y2="17.6894" gradientUnits="userSpaceOnUse">
<stop stop-color="#132574"/>
<stop offset="0.6169" stop-color="#25369B"/>
<stop offset="1" stop-color="#2E3FAF"/>
</linearGradient>
<linearGradient id="paint17_linear" x1="285.936" y1="19.1525" x2="299.088" y2="19.1525" gradientUnits="userSpaceOnUse">
<stop stop-color="#132574"/>
<stop offset="0.6169" stop-color="#25369B"/>
<stop offset="1" stop-color="#2E3FAF"/>
</linearGradient>
<linearGradient id="paint18_linear" x1="299.311" y1="17.616" x2="313.513" y2="17.616" gradientUnits="userSpaceOnUse">
<stop stop-color="#132574"/>
<stop offset="0.6169" stop-color="#25369B"/>
<stop offset="1" stop-color="#2E3FAF"/>
</linearGradient>
</defs>
</svg>
