<svg width="428" height="391" viewBox="0 0 428 391" fill="none" xmlns="http://www.w3.org/2000/svg">
<path d="M288.289 350.887C266.67 351.215 199.662 351.936 158.921 349.971C83.377 346.331 22.1186 357.224 62.8914 366.765C74.2848 369.432 42.2626 388.042 122.169 389.969C192.309 391.658 263.458 382.255 297.905 378.117C332.353 373.977 348.115 367.819 355.433 365.035C361.871 362.589 363.866 349.743 288.289 350.887Z" fill="url(#paint0_linear)"/>
<path d="M314.166 52.8844C205.113 57.6939 184.272 47.7001 151.382 15.6124C112.736 -22.093 41.486 14.0294 29.2957 67.3115C0.415852 193.558 85.1988 292.613 210.512 308.591C345.672 325.818 420.06 248.062 428.163 170.791C435.378 101.958 393.769 49.3714 314.166 52.8844Z" fill="url(#paint1_linear)"/>
<path d="M363.498 80.4907H199.472V336.122H363.498V80.4907Z" fill="#B7CCE7"/>
<path d="M361.035 82.7485H201.935V333.866H361.035V82.7485Z" fill="url(#paint2_linear)"/>
<path d="M362.758 270.998H200.212V275.593H362.758V270.998Z" fill="url(#paint3_linear)"/>
<path d="M362.758 223.182H200.212V227.774H362.758V223.182Z" fill="url(#paint4_linear)"/>
<path d="M362.758 175.365H200.212V179.959H362.758V175.365Z" fill="url(#paint5_linear)"/>
<path d="M362.758 127.549H200.212V132.143H362.758V127.549Z" fill="url(#paint6_linear)"/>
<path d="M266.66 81.1714H261.844V179.959H266.66V81.1714Z" fill="url(#paint7_linear)"/>
<path d="M263.518 130.566H200.618V178.381H263.518V130.566Z" fill="url(#paint8_linear)"/>
<path d="M253.926 156.91C255.864 156.91 257.435 155.471 257.435 153.696C257.435 151.921 255.864 150.482 253.926 150.482C251.988 150.482 250.417 151.921 250.417 153.696C250.417 155.471 251.988 156.91 253.926 156.91Z" fill="white"/>
<path d="M298.972 192.965C298.29 192.965 297.734 193.474 297.734 194.097V206.98C297.734 207.605 298.29 208.113 298.972 208.113C299.653 208.113 300.207 207.605 300.207 206.98V194.097C300.207 193.474 299.653 192.965 298.972 192.965Z" fill="#1E4889"/>
<path d="M293.011 182.438C292.67 181.896 291.914 181.71 291.325 182.022C290.729 182.333 290.528 183.023 290.866 183.566L297.87 194.735C298.211 195.278 298.966 195.465 299.557 195.155C300.148 194.843 300.354 194.153 300.013 193.61L293.011 182.438Z" fill="#1E4889"/>
<path d="M302.616 175.323C301.935 175.323 301.381 175.83 301.381 176.453V206.979C301.381 207.604 301.935 208.112 302.616 208.112C303.3 208.112 303.852 207.604 303.852 206.979V176.453C303.852 175.83 303.3 175.323 302.616 175.323Z" fill="#1E4889"/>
<path d="M293.511 313.228H215.262C213.29 313.228 211.692 314.693 211.692 316.501C211.692 318.306 213.29 319.771 215.262 319.771H293.511C295.482 319.771 297.081 318.306 297.081 316.501C297.081 314.693 295.482 313.228 293.511 313.228Z" fill="url(#paint9_linear)"/>
<path d="M288.619 318.075H286.229V327.391H288.619V318.075Z" fill="url(#paint10_linear)"/>
<path d="M287.761 336.121C291.047 336.121 293.71 333.682 293.71 330.673C293.71 327.664 291.047 325.225 287.761 325.225C284.476 325.225 281.813 327.664 281.813 330.673C281.813 333.682 284.476 336.121 287.761 336.121Z" fill="#0D2945"/>
<path d="M223.061 318.075H220.67V327.391H223.061V318.075Z" fill="#1F4FB6"/>
<path d="M222.203 336.121C225.488 336.121 228.151 333.682 228.151 330.673C228.151 327.664 225.488 325.225 222.203 325.225C218.918 325.225 216.254 327.664 216.254 330.673C216.254 333.682 218.918 336.121 222.203 336.121Z" fill="#0D2945"/>
<path d="M270.017 275.272H238.754C238.174 275.272 237.708 275.701 237.708 276.23V281.785C237.708 282.314 238.174 282.746 238.754 282.746H270.018C270.596 282.746 271.066 282.315 271.066 281.785V276.23C271.065 275.701 270.596 275.272 270.017 275.272Z" fill="#1F4FB6"/>
<path d="M270.017 242.514H238.754C238.174 242.514 237.708 242.943 237.708 243.472V249.029C237.708 249.557 238.174 249.987 238.754 249.987H270.018C270.596 249.987 271.066 249.557 271.066 249.029V243.472C271.065 242.943 270.596 242.514 270.017 242.514Z" fill="#1F4FB6"/>
<path d="M264.302 199.459H244.469C242.581 199.459 241.048 200.863 241.048 202.594V313.057C241.048 314.79 242.581 316.191 244.469 316.191H264.302C266.191 316.191 267.724 314.789 267.724 313.057V202.594C267.724 200.863 266.191 199.459 264.302 199.459Z" fill="#D4E1F3"/>
<path d="M284.503 158.369H224.267C222.426 158.369 220.931 159.736 220.931 161.425V202.355C220.931 204.042 222.426 205.409 224.267 205.409H284.503C286.344 205.409 287.839 204.042 287.839 202.355V161.425C287.839 159.736 286.344 158.369 284.503 158.369Z" fill="#D4E1F3"/>
<path d="M265.171 235.824H243.601V239.414H265.171V235.824Z" fill="#1F4FB6"/>
<path d="M258.492 239.414H250.278C248.39 239.414 246.858 240.818 246.858 242.547V265.697C246.858 267.429 248.39 268.832 250.278 268.832H258.492C260.381 268.832 261.913 267.428 261.913 265.697V242.547C261.913 240.818 260.381 239.414 258.492 239.414Z" fill="#81AAF8"/>
<path d="M267.724 205.409H241.047V218.192H267.724V205.409Z" fill="#81AAF8"/>
<path d="M287.839 175.161H220.931V192.069H287.839V175.161Z" fill="url(#paint11_linear)"/>
<path d="M299.424 267.008C299.424 271.509 295.426 275.167 290.516 275.167C285.604 275.167 281.608 271.509 281.608 267.008V190.457H277.386V267.008C277.386 273.637 283.276 279.03 290.516 279.03C297.756 279.03 303.646 273.637 303.646 267.008V250.32H299.424V267.008Z" fill="#0D2945"/>
<path d="M297.666 284.832C297.666 292.289 291.04 298.358 282.895 298.358H271.266C263.121 298.358 256.496 292.289 256.496 284.832V190.457H252.276V284.832C252.276 294.421 260.795 302.225 271.266 302.225H282.895C293.367 302.225 301.885 294.421 301.885 284.832V247.788H297.665V284.832H297.666Z" fill="#1F4FB6"/>
<path d="M289.926 140.617V140.544H289.915C289.917 140.535 289.926 140.526 289.926 140.514C289.926 139.119 274.014 137.985 254.383 137.985C234.756 137.985 218.846 139.118 218.846 140.514C218.846 140.526 218.854 140.534 218.857 140.544H218.846V140.617C218.015 140.617 217.34 149.053 217.34 159.457C217.34 169.864 218.014 178.297 218.846 178.297C218.857 178.297 218.864 178.282 218.874 178.281C219.452 179.642 235.124 180.732 254.383 180.732C273.647 180.732 289.317 179.642 289.897 178.281C289.907 178.282 289.915 178.297 289.926 178.297C290.754 178.297 291.431 169.864 291.431 159.457C291.431 149.053 290.755 140.617 289.926 140.617Z" fill="white"/>
<path d="M274.341 143.584H224.587V175.16H274.341V143.584Z" fill="#6193E6"/>
<path d="M273.519 144.337H225.41V174.412H273.519V144.337Z" fill="#0D2945"/>
<path d="M279.497 181.866C276.909 181.866 274.809 183.789 274.809 186.164C274.809 188.533 276.909 190.457 279.497 190.457C282.087 190.457 284.183 188.533 284.183 186.164C284.183 183.789 282.087 181.866 279.497 181.866Z" fill="#6193E6"/>
<path d="M254.384 181.866C251.797 181.866 249.698 183.789 249.698 186.164C249.698 188.533 251.797 190.457 254.384 190.457C256.975 190.457 259.076 188.533 259.076 186.164C259.076 183.789 256.975 181.866 254.384 181.866Z" fill="#6193E6"/>
<path d="M254.384 183.614C252.704 183.614 251.338 184.864 251.338 186.406V191.744H257.434V186.406C257.433 184.864 256.069 183.614 254.384 183.614Z" fill="#81AAF8"/>
<path d="M279.497 183.614C277.814 183.614 276.45 184.864 276.45 186.406V191.744H282.544V186.406C282.544 184.864 281.181 183.614 279.497 183.614Z" fill="#81AAF8"/>
<path d="M236.016 160.535H233.182C233.052 160.535 232.933 160.613 232.889 160.726L232.449 161.877L231.853 155.092C231.84 154.944 231.709 154.832 231.546 154.83H231.542C231.381 154.83 231.247 154.938 231.23 155.085L230.577 160.617H227.053C226.878 160.617 226.74 160.743 226.74 160.903C226.74 161.06 226.879 161.19 227.053 161.19H230.859C231.019 161.19 231.154 161.079 231.171 160.934L231.498 158.176L231.942 163.274C231.954 163.41 232.065 163.516 232.215 163.537C232.227 163.537 232.243 163.538 232.254 163.538C232.387 163.538 232.507 163.461 232.549 163.346L233.405 161.107H236.016C236.192 161.107 236.329 160.979 236.329 160.821C236.329 160.663 236.192 160.535 236.016 160.535Z" fill="#1E4889"/>
<path d="M244.983 160.535H242.148C242.016 160.535 241.897 160.613 241.853 160.726L241.412 161.877L240.819 155.092C240.805 154.944 240.675 154.832 240.509 154.83H240.507C240.348 154.83 240.212 154.938 240.196 155.085L239.545 160.617H236.016C235.844 160.617 235.704 160.743 235.704 160.903C235.704 161.06 235.844 161.19 236.016 161.19H239.826C239.988 161.19 240.121 161.079 240.137 160.934L240.461 158.176L240.908 163.274C240.921 163.41 241.032 163.516 241.178 163.537C241.192 163.537 241.205 163.538 241.22 163.538C241.35 163.538 241.471 163.461 241.517 163.346L242.373 161.107H244.984C245.156 161.107 245.294 160.979 245.294 160.821C245.294 160.663 245.155 160.535 244.983 160.535Z" fill="#1E4889"/>
<path d="M253.946 160.534H251.114C250.984 160.534 250.863 160.613 250.817 160.725L250.379 161.88L249.782 155.092C249.771 154.944 249.637 154.831 249.477 154.829C249.305 154.814 249.178 154.937 249.163 155.085L248.51 160.616H244.983C244.809 160.616 244.67 160.742 244.67 160.903C244.67 161.059 244.81 161.189 244.983 161.189H248.791C248.949 161.189 249.086 161.078 249.101 160.933L249.428 158.177L249.873 163.274C249.884 163.409 249.997 163.515 250.145 163.536C250.157 163.536 250.171 163.538 250.184 163.538C250.315 163.538 250.433 163.461 250.48 163.346L251.338 161.106H253.947C254.122 161.106 254.26 160.979 254.26 160.82C254.259 160.662 254.121 160.534 253.946 160.534Z" fill="#1E4889"/>
<path d="M262.912 160.535H260.078C259.948 160.535 259.827 160.613 259.785 160.726L259.344 161.877L258.749 155.092C258.738 154.944 258.603 154.832 258.442 154.83H258.439C258.278 154.83 258.142 154.938 258.129 155.085L257.475 160.617H253.946C253.773 160.617 253.636 160.743 253.636 160.903C253.636 161.06 253.774 161.19 253.946 161.19H257.756C257.916 161.19 258.05 161.079 258.067 160.934L258.392 158.178L258.836 163.274C258.85 163.41 258.962 163.516 259.108 163.537C259.123 163.537 259.134 163.538 259.148 163.538C259.281 163.538 259.4 163.461 259.442 163.346L260.3 161.107H262.911C263.087 161.107 263.226 160.979 263.226 160.821C263.227 160.663 263.087 160.535 262.912 160.535Z" fill="#1E4889"/>
<path d="M271.877 160.534H269.044C268.91 160.534 268.793 160.613 268.747 160.725L268.305 161.876L267.715 155.092C267.698 154.942 267.533 154.814 267.404 154.829C267.243 154.829 267.109 154.937 267.091 155.085L266.44 160.616H262.912C262.74 160.616 262.601 160.742 262.601 160.903C262.601 161.059 262.741 161.189 262.912 161.189H266.722C266.881 161.189 267.019 161.078 267.032 160.933L267.358 158.176L267.802 163.274C267.813 163.409 267.927 163.515 268.074 163.536C268.09 163.536 268.103 163.538 268.116 163.538C268.248 163.538 268.365 163.461 268.41 163.346L269.269 161.106H271.879C272.053 161.106 272.19 160.979 272.19 160.82C272.189 160.662 272.052 160.534 271.877 160.534Z" fill="#1E4889"/>
<path d="M271.877 165.746H268.07C267.909 165.746 267.775 165.856 267.758 166.002L267.431 168.757L266.988 163.66C266.975 163.523 266.863 163.417 266.714 163.398C266.702 163.398 266.688 163.398 266.674 163.398C266.542 163.398 266.423 163.473 266.383 163.588L265.523 165.827H262.913C262.738 165.827 262.601 165.955 262.601 166.114C262.601 166.272 262.739 166.4 262.913 166.4H265.748C265.877 166.4 265.999 166.322 266.041 166.209L266.482 165.06L267.077 171.845C267.089 171.991 267.221 172.104 267.384 172.105H267.387C267.548 172.105 267.684 171.998 267.7 171.85L268.352 166.32H271.878C272.052 166.32 272.189 166.194 272.189 166.034C272.189 165.876 272.052 165.746 271.877 165.746Z" fill="#1E4889"/>
<path d="M262.912 165.746H259.102C258.943 165.746 258.808 165.856 258.793 166.002L258.469 168.757L258.022 163.66C258.013 163.523 257.899 163.417 257.751 163.398C257.738 163.398 257.723 163.398 257.712 163.398C257.58 163.398 257.461 163.473 257.415 163.588L256.559 165.827H253.946C253.773 165.827 253.636 165.955 253.636 166.114C253.636 166.272 253.774 166.4 253.946 166.4H256.783C256.915 166.4 257.033 166.322 257.076 166.209L257.518 165.06L258.11 171.845C258.123 171.991 258.257 172.104 258.418 172.105H258.422C258.58 172.105 258.717 171.998 258.735 171.85L259.385 166.32H262.912C263.085 166.32 263.226 166.194 263.226 166.034C263.227 165.876 263.085 165.746 262.912 165.746Z" fill="#1E4889"/>
<path d="M253.946 165.746H250.138C249.978 165.746 249.844 165.856 249.827 166.002L249.504 168.756L249.056 163.66C249.047 163.523 248.933 163.417 248.783 163.398C248.77 163.398 248.76 163.398 248.746 163.398C248.615 163.398 248.494 163.473 248.449 163.588L247.591 165.827H244.98C244.809 165.827 244.67 165.955 244.67 166.114C244.67 166.272 244.81 166.4 244.98 166.4H247.815C247.946 166.4 248.066 166.322 248.11 166.209L248.552 165.056L249.147 171.844C249.159 171.991 249.294 172.103 249.453 172.105C249.624 172.121 249.751 171.998 249.767 171.849L250.42 166.319H253.946C254.121 166.319 254.259 166.193 254.259 166.033C254.259 165.876 254.121 165.746 253.946 165.746Z" fill="#1E4889"/>
<path d="M244.981 165.746H241.175C241.013 165.746 240.88 165.856 240.863 166.002L240.541 168.756L240.092 163.66C240.08 163.523 239.967 163.417 239.819 163.398C239.807 163.398 239.794 163.398 239.78 163.398C239.648 163.398 239.529 163.473 239.485 163.588L238.629 165.827H236.018C235.843 165.827 235.707 165.955 235.707 166.114C235.707 166.272 235.844 166.4 236.018 166.4H238.852C238.983 166.4 239.103 166.322 239.146 166.209L239.587 165.06L240.179 171.845C240.195 171.991 240.326 172.104 240.488 172.105H240.491C240.652 172.105 240.786 171.998 240.801 171.85L241.452 166.32H244.98C245.155 166.32 245.293 166.194 245.293 166.034C245.294 165.876 245.155 165.746 244.981 165.746Z" fill="#1E4889"/>
<path d="M236.018 165.746H232.21C232.049 165.746 231.912 165.856 231.897 166.002L231.573 168.757L231.126 163.66C231.117 163.523 231.002 163.417 230.856 163.398C230.84 163.398 230.828 163.398 230.814 163.398C230.682 163.398 230.565 163.473 230.521 163.588L229.663 165.827H227.053C226.878 165.827 226.74 165.955 226.74 166.114C226.74 166.272 226.879 166.4 227.053 166.4H229.886C230.019 166.4 230.136 166.322 230.181 166.209L230.623 165.06L231.216 171.845C231.227 171.994 231.395 172.122 231.526 172.105C231.686 172.105 231.823 171.998 231.837 171.85L232.49 166.32H236.017C236.19 166.32 236.328 166.194 236.328 166.034C236.329 165.876 236.19 165.746 236.018 165.746Z" fill="#1E4889"/>
<path d="M270.57 152.664L270.242 155.419L269.799 150.321C269.786 150.186 269.672 150.079 269.525 150.059C269.514 150.059 269.497 150.058 269.485 150.058C269.353 150.058 269.234 150.135 269.191 150.249L268.334 152.488H265.724C265.549 152.488 265.411 152.616 265.411 152.775C265.411 152.933 265.55 153.061 265.724 153.061H268.557C268.688 153.061 268.808 152.983 268.851 152.87L269.291 151.72L269.889 158.506C269.9 158.652 270.032 158.764 270.193 158.766H270.198C270.359 158.766 270.494 158.658 270.511 158.511L271.164 152.98H273.704V152.408H270.88C270.722 152.408 270.584 152.517 270.57 152.664Z" fill="#1E4889"/>
<path d="M265.725 152.408H261.916C261.753 152.408 261.621 152.517 261.603 152.663L261.281 155.418L260.836 150.32C260.822 150.186 260.709 150.078 260.562 150.06C260.546 150.06 260.534 150.057 260.523 150.057C260.39 150.057 260.271 150.134 260.227 150.248L259.369 152.487H256.756C256.585 152.487 256.446 152.615 256.446 152.774C256.446 152.932 256.586 153.06 256.756 153.06H259.593C259.727 153.06 259.844 152.982 259.889 152.869L260.327 151.719L260.923 158.505C260.934 158.651 261.068 158.763 261.232 158.765H261.235C261.393 158.765 261.528 158.657 261.543 158.51L262.195 152.979H265.724C265.897 152.979 266.038 152.852 266.038 152.694C266.038 152.537 265.897 152.408 265.725 152.408Z" fill="#1E4889"/>
<path d="M256.757 152.408H252.95C252.79 152.408 252.655 152.517 252.64 152.663L252.315 155.417L251.868 150.32C251.857 150.186 251.744 150.078 251.595 150.06C251.582 150.06 251.57 150.057 251.557 150.057C251.425 150.057 251.306 150.134 251.258 150.248L250.401 152.487H247.791C247.617 152.487 247.479 152.615 247.479 152.774C247.479 152.932 247.618 153.06 247.791 153.06H250.624C250.758 153.06 250.876 152.982 250.921 152.869L251.361 151.717L251.954 158.505C251.967 158.651 252.102 158.763 252.262 158.765C252.434 158.78 252.561 158.657 252.578 158.51L253.23 152.979H256.755C256.93 152.979 257.069 152.852 257.069 152.694C257.072 152.537 256.932 152.408 256.757 152.408Z" fill="#1E4889"/>
<path d="M247.793 152.408H243.985C243.825 152.408 243.69 152.517 243.671 152.663L243.349 155.417L242.902 150.32C242.892 150.186 242.777 150.078 242.631 150.06C242.618 150.06 242.606 150.057 242.59 150.057C242.46 150.057 242.339 150.134 242.297 150.248L241.439 152.487H238.829C238.654 152.487 238.517 152.615 238.517 152.774C238.517 152.932 238.654 153.06 238.829 153.06H241.664C241.795 153.06 241.911 152.982 241.956 152.869L242.397 151.719L242.99 158.505C243.004 158.651 243.137 158.763 243.299 158.765H243.302C243.462 158.765 243.598 158.657 243.614 158.51L244.265 152.979H247.792C247.967 152.979 248.106 152.852 248.106 152.694C248.107 152.537 247.967 152.408 247.793 152.408Z" fill="#1E4889"/>
<path d="M238.829 152.408H235.019C234.858 152.408 234.725 152.517 234.71 152.663L234.384 155.418L233.939 150.32C233.926 150.186 233.813 150.078 233.667 150.06C233.651 150.06 233.637 150.057 233.625 150.057C233.497 150.057 233.374 150.134 233.33 150.248L232.474 152.487H229.864C229.688 152.487 229.553 152.615 229.553 152.774C229.553 152.932 229.689 153.06 229.864 153.06H232.7C232.83 153.06 232.947 152.982 232.992 152.869L233.433 151.719L234.029 158.505C234.04 158.653 234.207 158.781 234.337 158.765C234.497 158.765 234.632 158.657 234.648 158.51L235.301 152.979H238.829C239.001 152.979 239.141 152.852 239.141 152.694C239.141 152.537 239.001 152.408 238.829 152.408Z" fill="#1E4889"/>
<path d="M300.479 248.778C304.769 248.778 308.246 239.419 308.246 227.874C308.246 216.33 304.769 206.971 300.479 206.971C296.19 206.971 292.712 216.33 292.712 227.874C292.712 239.419 296.19 248.778 300.479 248.778Z" fill="#0D2945"/>
<path d="M288.144 195.639H220.623C218.962 195.639 217.616 196.871 217.616 198.39C217.616 199.913 218.962 201.147 220.623 201.147H288.144C289.807 201.147 291.153 199.913 291.153 198.39C291.154 196.871 289.807 195.639 288.144 195.639Z" fill="url(#paint12_linear)"/>
<path d="M217.629 198.267C217.627 198.312 217.616 198.347 217.616 198.39C217.616 199.913 218.962 201.146 220.623 201.146H288.144C289.807 201.146 291.153 199.913 291.153 198.39C291.153 198.347 291.142 198.312 291.142 198.267H217.629Z" fill="#6193E6"/>
<path d="M305.404 246.25H295.693V250.306H305.404V246.25Z" fill="#6193E6"/>
<path d="M305.404 205.431H295.693V209.488H305.404V205.431Z" fill="#6193E6"/>
<path d="M287.151 145.89H278.178C277.514 145.89 276.979 146.383 276.979 146.989C276.979 147.596 277.514 148.088 278.178 148.088H287.151C287.815 148.088 288.352 147.596 288.352 146.989C288.352 146.383 287.815 145.89 287.151 145.89Z" fill="#1E4889"/>
<path d="M287.151 148.96H278.178C277.514 148.96 276.979 149.451 276.979 150.058C276.979 150.666 277.514 151.157 278.178 151.157H287.151C287.815 151.157 288.352 150.666 288.352 150.058C288.352 149.452 287.815 148.96 287.151 148.96Z" fill="white"/>
<path d="M280.904 163.09H278.178C277.514 163.09 276.979 163.583 276.979 164.189C276.979 164.796 277.514 165.288 278.178 165.288H280.904C281.568 165.288 282.104 164.796 282.104 164.189C282.104 163.583 281.567 163.09 280.904 163.09Z" fill="#0D2945"/>
<path d="M287.077 163.09H284.347C283.685 163.09 283.149 163.583 283.149 164.189C283.149 164.796 283.685 165.288 284.347 165.288H287.077C287.739 165.288 288.275 164.796 288.275 164.189C288.275 163.583 287.739 163.09 287.077 163.09Z" fill="#0D2945"/>
<path d="M287.151 166.16H278.178C277.514 166.16 276.979 166.651 276.979 167.257C276.979 167.864 277.514 168.356 278.178 168.356H287.151C287.815 168.356 288.352 167.864 288.352 167.257C288.352 166.651 287.815 166.16 287.151 166.16Z" fill="#81AAF8"/>
<path d="M280.28 155.196C280.938 155.196 281.471 154.707 281.471 154.104C281.471 153.502 280.938 153.013 280.28 153.013C279.622 153.013 279.088 153.502 279.088 154.104C279.088 154.707 279.622 155.196 280.28 155.196Z" fill="#81AAF8"/>
<path d="M284.521 155.196C285.179 155.196 285.712 154.707 285.712 154.104C285.712 153.502 285.179 153.013 284.521 153.013C283.863 153.013 283.329 153.502 283.329 154.104C283.329 154.707 283.863 155.196 284.521 155.196Z" fill="#D4E1F3"/>
<path d="M284.521 158.767C285.179 158.767 285.712 158.278 285.712 157.676C285.712 157.073 285.179 156.584 284.521 156.584C283.863 156.584 283.329 157.073 283.329 157.676C283.329 158.278 283.863 158.767 284.521 158.767Z" fill="#81AAF8"/>
<path d="M280.28 158.767C280.938 158.767 281.471 158.278 281.471 157.676C281.471 157.073 280.938 156.584 280.28 156.584C279.622 156.584 279.088 157.073 279.088 157.676C279.088 158.278 279.622 158.767 280.28 158.767Z" fill="#D4E1F3"/>
<path d="M221.768 235.906L233.067 246.894L235.245 244.92L223.943 233.934L221.768 235.906Z" fill="#0D2945"/>
<path d="M233.392 245.2C232.014 246.451 231.417 247.944 232.058 248.537C232.696 249.131 234.335 248.603 235.714 247.354C237.09 246.106 237.692 244.613 237.047 244.019C236.409 243.423 234.771 243.955 233.392 245.2Z" fill="#0D2945"/>
<path d="M233.392 245.201C232.014 246.446 231.417 247.941 232.058 248.533L237.044 244.016C236.405 243.427 234.771 243.955 233.392 245.201Z" fill="#1F4FB6"/>
<path d="M200.11 314.693L154.7 309.915H106.598L43.4311 316.604C41.7448 316.604 40.376 317.858 40.376 319.403V330.377C40.376 331.918 41.7448 333.175 43.4311 333.175H106.598H154.7H200.11C201.797 333.175 203.169 331.918 203.169 330.377V317.492C203.169 315.945 201.797 314.693 200.11 314.693Z" fill="white"/>
<path d="M21.9951 212.143L22.6254 214.885L38.8287 212.138L38.1992 209.395L21.9951 212.143Z" fill="#0D2945"/>
<path d="M21.0318 210.475C20.14 210.647 19.7393 212.195 20.1385 213.931C20.5369 215.669 21.5859 216.939 22.4754 216.767C23.3687 216.595 23.7695 215.049 23.3718 213.31C22.9718 211.572 21.9252 210.304 21.0318 210.475Z" fill="#0D2945"/>
<path d="M21.0366 210.475L22.4794 216.765C23.3704 216.59 23.7704 215.046 23.3727 213.309C22.9735 211.573 21.9292 210.307 21.0366 210.475Z" fill="#1F4FB6"/>
<path d="M200.11 229.924H154.7H106.598H72.6424C70.9538 229.924 69.585 231.177 69.585 232.722V234.14C69.585 235.685 70.9538 236.941 72.6424 236.941L106.598 243.63H154.7L200.11 238.851C201.797 238.851 203.168 237.597 203.168 236.052V232.722C203.168 231.177 201.797 229.924 200.11 229.924Z" fill="white"/>
<path d="M292.131 234.59L269.454 233.502L237.321 231.959L206.994 230.505C205.865 230.448 204.899 231.242 204.842 232.276L204.601 236.405C204.544 237.441 205.412 238.323 206.54 238.375L291.86 239.278C292.99 239.332 293.955 238.538 294.014 237.504L294.066 236.559C294.126 235.524 293.26 234.645 292.131 234.59Z" fill="white"/>
<path d="M45.6466 213.019L28.0106 201.371L9.59186 189.204C8.67594 188.597 7.39972 188.788 6.73826 189.628L6.13206 190.397C5.47138 191.236 5.67838 192.407 6.59586 193.011L65.2427 235.683C66.1602 236.288 67.4411 236.099 68.0995 235.259L70.7414 231.904C71.4028 231.066 71.1958 229.893 70.2768 229.289L45.6466 213.019Z" fill="white"/>
<path d="M40.3755 330.376C40.3755 331.917 41.7443 333.174 43.4306 333.174H200.11C201.797 333.174 203.168 331.917 203.168 330.376V319.8H40.3755V330.376Z" fill="#B7CCE7"/>
<path d="M154.699 267.514H106.598V309.914H154.699V267.514Z" fill="#B7CCE7"/>
<path d="M154.379 277.801H142.944C141.94 277.801 141.127 278.547 141.127 279.468V297.963C141.127 298.883 141.94 299.628 142.944 299.628H154.379C155.384 299.628 156.198 298.883 156.198 297.963V279.468C156.199 278.547 155.384 277.801 154.379 277.801Z" fill="#E5E5E5"/>
<path d="M155.681 260.693H105.154C104.328 260.693 103.659 261.311 103.659 262.075V266.198C103.659 266.958 104.328 267.579 105.154 267.579H155.681C156.507 267.579 157.175 266.958 157.175 266.198V262.075C157.175 261.311 156.507 260.693 155.681 260.693Z" fill="#6193E6"/>
<path d="M71 221.307V229.252H203.073L301.257 234.779V226.834L203.073 221.307H71Z" fill="#0D2945"/>
<path d="M300.46 224.98L205.807 220.437C204.977 220.397 204.267 220.983 204.223 221.741L203.769 229.677C203.725 230.438 204.363 231.087 205.194 231.126L299.848 235.669C300.676 235.71 301.384 235.124 301.429 234.363L301.883 226.43C301.925 225.671 301.289 225.021 300.46 224.98Z" fill="url(#paint13_linear)"/>
<path d="M199.949 219.925H71.614C70.7798 219.925 70.1074 220.545 70.1074 221.307V229.251C70.1074 230.013 70.7798 230.631 71.614 230.631H199.949C200.78 230.631 201.454 230.013 201.454 229.251V221.307C201.454 220.545 200.78 219.925 199.949 219.925Z" fill="url(#paint14_linear)"/>
<path d="M7.46108 175.471C6.78795 175.025 5.84557 175.167 5.35921 175.783L0.283904 182.229C-0.20246 182.847 -0.0514924 183.707 0.625526 184.154L70.5639 230.35C71.2385 230.798 72.1801 230.659 72.6649 230.039L77.7379 223.596C78.2266 222.976 78.0741 222.114 77.3994 221.67L7.46108 175.471Z" fill="url(#paint15_linear)"/>
<path d="M105.168 260.693H156.133L157.175 259.017H104.123L105.168 260.693Z" fill="#0D2945"/>
<path d="M105.168 257.341L104.123 259.017H157.175L156.133 257.341H105.168Z" fill="#1E4889"/>
<path d="M105.168 257.341H156.133L157.175 255.662H104.123L105.168 257.341Z" fill="#0D2945"/>
<path d="M105.168 253.985L104.123 255.662H157.175L156.133 253.985H105.168Z" fill="#1E4889"/>
<path d="M105.168 253.985H156.133L157.175 252.307H104.123L105.168 253.985Z" fill="#0D2945"/>
<path d="M105.168 250.632L104.123 252.307H157.175L156.133 250.632H105.168Z" fill="#1E4889"/>
<path d="M105.168 250.632H156.133L157.175 248.955H104.123L105.168 250.632Z" fill="#0D2945"/>
<path d="M105.168 247.28L104.123 248.954H157.175L156.133 247.28H105.168Z" fill="#1E4889"/>
<path d="M105.168 247.281H156.133L157.175 245.602H104.123L105.168 247.281Z" fill="#0D2945"/>
<path d="M105.168 243.924L104.123 245.601H157.175L156.133 243.924H105.168Z" fill="#1E4889"/>
<path d="M60.6297 333.174H43.4312V337.077H60.6297V333.174Z" fill="#1E4889"/>
<path d="M198.594 333.174H181.399V337.077H198.594V333.174Z" fill="#1E4889"/>
<path d="M338.605 120.83C338.001 120.663 335.152 119.723 334.612 119.428C331.792 117.879 335.553 115.07 336.58 113.555C338.955 110.045 338.182 106.154 335.167 103.015C332.233 99.9557 328.828 99.2886 327.185 95.2367C324.732 89.1814 329.88 85.9919 326.815 80.015C325.47 77.3893 321.699 76.9809 319.519 75.4578C318.155 74.5028 317.559 72.2741 316.595 70.9833C313.106 66.3199 305.646 65.1924 300.035 66.6948C296.447 67.6549 294.314 71.6326 290.254 71.2014C287.625 70.9227 284.3 71.2035 283.021 73.6867C282.035 75.5947 283.012 77.5732 282.667 79.5432C282.334 81.4241 281.309 83.1681 279.743 84.4282C277.366 86.3419 274.143 86.3576 272.223 88.8813C271.219 90.1984 270.659 91.7671 270.379 93.3544C269.893 96.1034 270.236 98.9693 271.333 101.566C272.37 104.03 274.043 106.215 274.798 108.793C275.953 112.732 272.275 116.305 271.718 120.114C269.444 135.717 280.376 148.251 293.724 154.417C302.724 158.575 318.641 158.151 328.444 155.766C340.675 152.792 354.431 143.785 349.4 130.637C347.432 125.493 344.186 122.374 338.605 120.83Z" fill="#32187C"/>
<path d="M253.468 161.804C263.466 168.393 294.83 167.84 294.83 167.84L294.036 167.212H294.008L289.723 163.893C289.723 163.893 284.67 161.503 280.002 159.188V159.161C278.984 158.685 277.995 158.181 277.062 157.702C274.893 156.596 273.106 155.616 272.418 155.137C271.376 154.383 273.383 151.162 275.907 147.867C276.292 147.339 276.704 146.812 277.147 146.308C279.808 142.962 282.555 139.968 282.555 139.968L277.061 136.347L265.251 128.547C265.252 128.547 243.442 155.214 253.468 161.804Z" fill="#FF505C"/>
<path d="M260.033 129.981C262.586 136.319 265.911 141.451 269.782 145.074C269.975 144.696 270.195 144.32 270.416 143.943C271.211 142.608 273.188 143.792 272.778 145.099C273.023 145.2 273.244 145.352 273.408 145.627C273.463 145.728 273.518 145.829 273.572 145.905C273.984 145.93 274.451 146.081 274.672 146.357C275.086 146.835 275.524 147.339 275.907 147.868C275.632 148.243 275.357 148.597 275.086 148.974C277.636 150.356 280.358 151.113 283.158 151.214C283.734 149.376 284.67 147.313 285.741 145.2C286.208 144.269 286.73 143.313 287.222 142.357C290.547 136.145 294.226 129.805 293.016 126.308C291.479 121.805 299.144 98.6124 289.97 102.334C287.524 103.341 284.86 104.576 282.197 106.132C281.153 106.737 280.11 107.342 279.036 108.07C271.184 113.151 263.547 120.524 260.033 129.981Z" fill="#EEFAFB"/>
<path d="M290.384 104.553C289.397 105.359 288.408 106.214 287.418 107.068C279.011 115.546 271.458 126.942 278.08 138.009C277.172 138.663 280.429 142.701 279.577 143.357C275.872 139.632 266.894 131.202 267.467 123.351C268.007 115.946 285.03 104.577 285.555 104.074C286.843 103.848 289.451 103.471 290.685 103.344C290.879 103.722 290.825 104.175 290.384 104.553Z" fill="#B9DAE1"/>
<path d="M268.575 153.629C269.452 156.673 272.255 157.83 275.304 158.584C276.265 158.811 276.899 158.332 277.062 157.703C274.893 156.597 273.106 155.617 272.418 155.137C271.485 154.46 272.971 151.868 275.086 148.975C273.216 147.994 271.433 146.685 269.782 145.075C268.356 147.792 267.67 150.51 268.575 153.629Z" fill="#FC3C4C"/>
<path d="M272.964 358.501L262.522 357.278C262.522 357.278 262.615 346.708 262.484 337.71C262.355 328.712 261.889 272.836 261.889 272.836C262.252 253.618 286.34 246.138 286.34 246.138L303.295 266.731C303.295 266.731 288.519 276.198 288.524 277.028C288.533 278.381 288.561 279.842 288.597 281.425C288.716 287.841 288.619 296.08 285.113 306.563C283.073 312.737 278.55 332.803 275.657 346.093C274.073 353.296 272.964 358.501 272.964 358.501Z" fill="#FF505C"/>
<path d="M274.872 351.208C274.872 351.208 280.787 358.558 276.864 364.53C276.864 364.53 252.799 365.179 243.779 364.103C243.779 364.103 237.977 356.911 245.657 355.878C253.336 354.847 262.551 352.193 262.551 352.193C262.551 352.193 269.426 356.893 274.872 351.208Z" fill="#B1A6FF"/>
<path d="M285.114 306.562C288.62 296.079 288.717 287.84 288.598 281.424C287.611 280.611 286.346 279.99 284.737 279.64C284.239 278.927 282.969 278.792 282.453 279.565C282.073 279.843 281.932 280.337 282.047 280.805C279.564 290.472 279.124 300.177 279 310.082C278.82 321.824 276.693 333.091 274.038 344.573C273.787 345.607 274.78 346.238 275.658 346.093C278.551 332.803 283.074 312.737 285.114 306.562Z" fill="#FC3C4C"/>
<path d="M326.027 359.08L314.353 358.61C314.353 358.61 313.54 348.075 312.664 339.124C311.788 330.174 301.131 282.897 301.131 282.897C299.821 263.723 301.822 232.179 301.822 232.179L318.261 251.308C318.261 251.308 330.025 275.731 330.101 276.555C330.224 277.905 330.373 279.355 330.537 280.932C331.182 287.311 331.796 295.526 329.645 306.252C328.398 312.57 326.176 332.926 324.793 346.4C324.031 353.702 326.027 359.08 326.027 359.08Z" fill="#FF505C"/>
<path d="M324.642 352.056C324.642 352.056 330.557 359.406 326.636 365.378C326.636 365.378 302.572 366.029 293.552 364.953C293.552 364.953 287.75 357.758 295.426 356.729C303.105 355.696 313.893 352.916 313.893 352.916C313.893 352.916 319.2 357.744 324.642 352.056Z" fill="#B1A6FF"/>
<path d="M329.645 306.253C331.796 295.526 331.182 287.311 330.537 280.933C329.612 280.203 328.464 279.687 327.036 279.468C326.548 278.799 325.437 278.769 325.048 279.58C324.745 279.891 324.667 280.391 324.803 280.851C323.471 290.678 323.911 300.381 324.642 310.258C325.479 321.968 324.593 333.363 323.261 345.015C323.13 346.068 324.046 346.619 324.793 346.4C326.176 332.926 328.398 312.57 329.645 306.253Z" fill="#FC3C4C"/>
<path d="M342.882 185.378C343.788 184.985 326.201 166.387 326.996 147.644C327.024 147.168 327.05 146.713 327.108 146.237C327.134 145.883 327.159 145.507 327.219 145.153C327.439 143.519 327.764 141.834 328.151 140.097C332.326 121.054 342.681 97.5339 298.899 99.9244C298.899 99.9244 269.703 110.414 270.251 122.968C270.582 130.236 275.664 134.16 278.356 138.94C280.332 142.411 281.047 146.31 277.78 152.247C277.118 153.457 276.445 154.63 275.746 155.82C261.891 179.363 256.965 209.765 253.06 232.179C248.666 257.407 246.067 285.283 246.067 285.283C254.736 288.676 262.574 291.231 269.784 293.055C271.63 293.522 276.528 269.228 278.296 269.602C281.689 270.318 281.844 295.579 284.98 295.97C301.1 297.981 314.122 295.86 327.198 291.414C336.204 288.37 343.805 287.169 343.805 287.169C327.794 243.977 345.566 220.596 345.566 200.722C345.563 194.743 344.482 189.662 342.882 185.378Z" fill="#EEFAFB"/>
<path d="M295.814 141.309C296.275 138.68 296.472 119.73 305.919 111.503C310.223 107.759 320.581 99.9829 326.115 104.604C334.978 112.003 329.89 132.595 325.468 147.379C313.485 149.452 306.179 149.364 295.814 141.309Z" fill="#B9DAE1"/>
<path d="M342.882 185.378C343.787 184.985 329.837 167.573 328.807 141.894C327.188 139.553 323.756 141.582 321.914 139.368C320.845 138.086 316.865 134.111 317.936 135.394C318.1 135.57 319.936 141.179 320.075 141.38C322.328 147.745 320.678 154.135 321.037 160.65C321.365 166.388 345.564 200.723 321.888 241.173C317.49 248.693 317.987 257.602 320.075 266.031C321.285 270.861 323.234 275.488 325.321 280.04C325.898 281.297 326.425 290.004 327.196 291.415C336.202 288.371 343.803 287.169 343.803 287.169C327.792 243.978 345.564 220.596 345.564 200.723C345.563 194.744 344.482 189.663 342.882 185.378Z" fill="#B9DAE1"/>
<path d="M277.147 146.308C277.502 151.413 278.378 155.54 279.782 158.733C279.835 158.886 279.919 159.036 280.002 159.161C282.471 164.493 286.399 167.061 291.617 167.211C292.442 167.236 293.267 167.236 294.036 167.211C298.403 167.11 301.973 166.356 305.077 165.021C313.921 161.3 318.783 153.201 325.813 143.791C325.896 143.74 311.723 121.654 309.662 123.841C308.894 124.623 307.824 125.453 306.616 126.332C302.992 128.925 298.976 135.415 296.124 139.943C296.124 139.967 296.093 139.967 296.093 139.994C294.007 143.364 292.551 145.602 292.415 144.369C292.222 142.634 291.974 138.056 291.725 132.597C291.701 132.545 291.701 132.496 291.701 132.42C291.644 130.987 291.589 129.501 291.507 127.968C291.344 123.968 291.177 119.817 291.069 116.119C290.878 110.436 290.794 105.856 290.85 104.674C290.904 103.969 290.163 103.441 289.394 103.616C287.199 104.196 283.186 105.227 281.758 105.603C281.455 105.678 281.125 105.831 281.071 106.131C278.709 118.08 277.418 128.093 277.062 136.346C276.899 140.019 276.925 143.338 277.147 146.308Z" fill="#FF505C"/>
<path d="M288.105 134.484C288.35 138.736 288.597 145.804 291.537 149.428C295.627 154.432 299.612 144.495 300.519 141.805C300.902 140.698 299.665 139.968 298.759 140.194C298.567 139.189 296.974 138.911 296.287 139.766C296.232 139.817 296.177 139.894 296.124 139.944C296.124 139.968 296.093 139.968 296.093 139.995C294.007 143.365 292.551 145.603 292.415 144.37C292.222 142.635 291.974 138.057 291.725 132.597C291.701 132.546 291.701 132.497 291.701 132.421C291.536 130.711 291.48 129.275 291.48 128.799C291.48 128.521 291.48 128.244 291.508 127.969C291.344 123.969 291.177 119.818 291.069 116.12C290.328 116.02 289.422 116.423 289.284 117.226C288.405 122.939 287.802 128.7 288.105 134.484Z" fill="#FC3C4C"/>
<path d="M294.313 140.193C294.771 137.565 298.357 120.14 307.805 111.913C312.105 108.169 322.467 100.394 327.999 105.013C336.864 112.414 331.774 133.006 327.354 147.788C315.366 149.861 304.675 148.248 294.313 140.193Z" fill="#EEFAFB"/>
<path d="M294.343 94.4857V101.58C294.343 101.58 292.26 105.079 294.343 105.46C298.922 106.3 305.528 99.7578 305.528 99.7578V90.2407L294.343 94.4857Z" fill="#FF505C"/>
<path d="M305.528 96.2837V90.8691C305.528 90.8691 299.838 95.8447 294.343 96.1291C294.343 96.1291 300.964 99.0741 305.528 96.2837Z" fill="#FC3C4C"/>
<path d="M291.597 73.7832C291.597 73.7832 287.477 81.435 286.447 88.5623C285.715 93.6234 295.833 100.303 304.071 93.173C312.312 86.0471 310.021 75.1466 310.021 75.1466L291.597 73.7832Z" fill="#FF505C"/>
<path d="M287.622 73.5159C288.183 73.1966 288.919 73.1774 289.453 72.863C291.137 71.8731 290.439 71.4034 291.41 70.4255C292.252 69.5795 293.045 69.0257 294.211 68.6273C297.215 67.6053 300.68 68.0037 303.707 68.6743C304.66 68.8853 304.788 69.6943 304.426 70.315C307.423 70.8631 310.683 73.4774 311.962 75.2557C314.499 78.7908 314.821 84.7064 312.24 88.3171C310.214 91.1523 306.401 93.4694 304.357 89.7155C302.794 86.846 303.051 84.1733 303.301 81.1029C303.392 79.9739 303.428 79.0217 303.298 78.1572C301.676 76.1323 299.469 74.7104 296.988 74.6955C296.362 75.2678 295.831 76.1273 295.249 76.7004C294.372 77.5578 293.319 78.2384 292.132 78.6924C290.298 79.3916 287.752 79.542 286.482 77.845C285.336 76.3212 286.005 74.4375 287.622 73.5159Z" fill="#32187C"/>
<path d="M302.499 81.8805C302.499 81.8805 305.813 80.4657 306.473 82.9032C307.134 85.34 304.713 86.7819 303.433 86.3372C302.154 85.8896 301.724 82.9032 302.499 81.8805Z" fill="#FF505C"/>
<path d="M278.378 102.828C278.501 102.676 278.615 102.44 278.715 102.182C278.8 102.376 278.883 102.571 278.967 102.765C279.117 103.093 279.256 103.43 279.432 103.75C280.316 105.386 281.642 106.839 283.492 107.596C286.143 108.684 289.049 107.847 290.329 105.631C290.667 105.434 290.913 105.085 290.851 104.636C290.571 102.545 290.273 100.458 289.946 98.3742C289.747 97.0749 289.748 95.3921 288.973 94.2304C288.219 93.0978 286.709 92.7436 285.667 93.3901C284.486 92.7579 283.107 92.9432 282.229 93.9552C280.817 93.626 279.496 94.0949 278.647 95.1712C275.951 94.8469 275.171 98.4896 274.906 100.6C274.683 102.39 276.598 104.995 278.378 102.828Z" fill="#FF505C"/>
<path d="M279.782 158.733C282.253 164.345 286.262 167.061 291.618 167.212C297.085 167.363 301.426 166.582 305.078 165.022C304.911 164.648 304.502 164.394 303.924 164.168C303.786 164.092 303.621 164.042 303.458 163.991C303.458 163.942 303.483 163.917 303.483 163.841C303.537 163.64 303.374 163.389 303.154 163.237C301.916 162.434 300.63 162.761 299.612 161.854C297.909 160.318 293.267 157.225 292.416 156.899C291.813 156.646 291.209 156.673 290.603 156.874C286.619 158.206 282.283 158.358 279.782 158.733Z" fill="#FC3C4C"/>
<path d="M283.684 160.879C283.684 160.879 275.037 156.926 272.709 155.262C270.38 153.599 243.836 155.201 253.742 161.93C259.138 165.595 269.781 168.014 282.91 165.595C286.797 164.878 283.684 160.879 283.684 160.879Z" fill="#FF505C"/>
<path d="M269.782 145.075C271.433 146.684 273.216 147.994 275.086 148.974C275.358 148.598 275.632 148.244 275.908 147.868C275.525 147.34 275.086 146.836 274.672 146.357C274.452 146.082 273.985 145.93 273.573 145.905C273.518 145.83 273.464 145.729 273.409 145.628C273.245 145.353 273.025 145.2 272.778 145.099C273.188 143.793 271.212 142.609 270.416 143.943C270.196 144.32 269.976 144.696 269.782 145.075Z" fill="#EEFAFB"/>
<path d="M303.496 169.702C303.566 169.204 303.305 168.841 302.883 168.53C303.634 168.258 304.239 167.869 304.371 167.304C304.564 166.48 304.009 166.086 303.153 165.73C303.006 165.668 302.845 165.617 302.676 165.572C302.689 165.522 302.716 165.482 302.725 165.425C302.757 165.209 302.607 164.958 302.384 164.813C301.147 163.998 299.513 163.829 298.106 163.718C293.928 163.387 292.088 162.396 290.976 161.441C292.278 161.101 292.544 160.952 293.469 161.242C293.92 161.384 294.552 161.391 294.91 161.057C295.332 160.66 295.047 160.26 294.698 159.925C294.094 159.351 292.486 158.801 291.644 158.465C291.044 158.228 290.434 158.235 289.833 158.439C284.158 160.353 282.393 159.918 281.602 161.075C281.097 161.815 280.262 165.659 281.568 165.889C281.837 165.939 283.707 167.749 288.642 169.801C292.376 171.35 297.063 171.931 298.136 170.544C300.655 171.223 303.254 171.454 303.496 169.702Z" fill="#FF505C"/>
<path d="M287.253 181.05C288.641 181.05 289.766 180.019 289.766 178.748C289.766 177.477 288.641 176.447 287.253 176.447C285.866 176.447 284.741 177.477 284.741 178.748C284.741 180.019 285.866 181.05 287.253 181.05Z" fill="#D3E7EC"/>
<path d="M280.079 218.353C280.079 219.624 281.205 220.654 282.591 220.654C283.981 220.654 285.104 219.625 285.104 218.353C285.104 217.082 283.982 216.051 282.591 216.051C281.205 216.051 280.079 217.081 280.079 218.353Z" fill="#D3E7EC"/>
<path d="M281.615 198.245C281.615 199.515 282.741 200.547 284.131 200.547C285.515 200.547 286.644 199.516 286.644 198.245C286.644 196.973 285.516 195.943 284.131 195.943C282.741 195.943 281.615 196.973 281.615 198.245Z" fill="#D3E7EC"/>
<path d="M294.941 68.3878C294.941 68.3878 312.248 73.7767 316.215 74.9841C316.215 74.9841 317.96 71.4889 318.228 68.0272C318.228 68.0272 308.119 61.0674 299.369 61.0674C299.368 61.0674 295.793 65.6231 294.941 68.3878Z" fill="#B6E7F9"/>
<path d="M299.493 61.5615C299.493 61.5615 312.516 64.3625 316.74 69.0231C316.74 69.0231 300.956 62.8687 299.493 61.5615Z" fill="#71B9DE"/>
<path d="M196.075 194.952C194.598 194.923 193.029 194.738 191.639 194.3C193.128 195 192.523 195.768 193.962 196.706C194.629 196.912 197.672 196.323 197.673 195.674C197.768 194.669 196.89 194.918 196.075 194.952Z" fill="url(#paint16_linear)"/>
<path d="M200.442 200.384C200.195 200.184 196.675 197.346 194.96 196.249C193.522 195.313 192.009 194.446 190.524 193.746C190.436 193.712 186.21 197.248 185.255 198.67C187.634 200.266 195.476 204.67 195.64 204.807C198.339 207.09 199.77 206.812 199.781 205.854C199.783 205.622 202.125 206.582 202.355 205.67C202.355 205.67 203.218 205.762 203.544 205.107C203.787 204.613 203.638 203.326 203.406 202.94C203.044 202.334 201.123 200.998 200.442 200.384Z" fill="url(#paint17_linear)"/>
<path d="M155.948 159.743C155.587 159.446 155.092 159.16 154.513 158.927C151.952 157.906 147.727 157.966 145.999 162.891C144.11 168.268 173.461 191.333 186.228 199.277C187.186 197.729 188.842 195.952 191.006 193.98C183.141 189.292 162.547 165.203 155.948 159.743Z" fill="url(#paint18_linear)"/>
<path d="M154.978 115.576C154.631 114.248 137.888 117.463 135.371 118.962C129.564 122.423 140.582 154.795 146.646 165.633C148.949 169.748 160.786 173.239 158.235 158.896C156.157 147.203 156.888 122.902 154.978 115.576Z" fill="url(#paint19_linear)"/>
<path d="M160.413 161.456C160.362 160.556 158.721 144.048 158.401 135.51C158.085 127.022 157.785 119.005 156.787 115.18C156.632 114.585 156.167 114.094 155.513 113.833C152.643 112.688 137.001 115.962 134.356 117.534C126.46 122.242 140.011 157.447 144.936 166.305C149.52 174.849 173.944 193.691 185.183 200.685L192.021 192.548C187.461 189.833 163.025 164.027 160.413 161.456Z" fill="url(#paint20_linear)"/>
<path d="M142.253 362.744C141.236 361.642 139.993 359.934 139.993 359.934L134.192 362.888C134.192 362.888 133.721 363.47 134.021 365.153C134.021 365.153 133.186 367.043 134.246 368.67C134.854 369.609 138.693 371.039 140.372 371.543C142.055 372.049 144.395 372.515 147.245 372.41C150.096 372.306 153.588 370.941 153.588 369.417C153.588 366.403 144.209 364.868 142.253 362.744Z" fill="#002CA7"/>
<path d="M141.667 359.765L133.879 361.044C133.879 361.044 133.719 363.471 134.021 365.153C134.021 365.153 138.823 365.602 140.065 364.977C142.261 363.868 142.253 362.745 142.253 362.745C140.778 361.047 141.667 359.765 141.667 359.765Z" fill="#FF505C"/>
<path d="M117.485 189.19V222.595C120.209 224.562 126.917 254.45 131.829 285.965C137.518 322.477 133.04 361.169 133.04 361.169C135.877 364.035 141.517 361.224 141.595 360.943C141.595 360.943 152.417 325.024 155.953 285.742C160.06 240.106 156.93 189.937 156.374 186.277C151.739 188.135 131.458 190.03 117.485 189.19Z" fill="#002CA7"/>
<path d="M98.3293 362.423C97.411 361.253 96.3177 359.462 96.3177 359.462L90.2821 361.991C90.2821 361.991 89.7638 362.537 89.9195 364.234C89.9195 364.234 88.9242 366.057 89.8416 367.755C90.3693 368.735 93.896 369.9 95.7053 371.059C97.1535 371.99 99.6312 372.317 102.482 372.419C105.332 372.518 108.934 371.407 109.062 369.891C109.318 366.888 100.098 364.68 98.3293 362.423Z" fill="#002CA7"/>
<path d="M97.5548 359.234L89.8516 359.997C89.8516 359.997 89.7598 362.537 89.9185 364.234C89.9185 364.234 95.1518 365.367 96.4428 364.834C98.7276 363.885 98.3291 362.423 98.3291 362.423C97.007 360.626 97.5548 359.234 97.5548 359.234Z" fill="#FF505C"/>
<path d="M89.7808 187.1C87.7785 240.837 90.9948 258.422 94.5067 285.136C99.3213 321.749 89.2812 360.194 89.2812 360.194C91.8648 363.254 97.7284 360.858 97.8295 360.582C97.8295 360.582 111.652 325.78 118.511 287.023C126.527 241.722 145.932 197.806 145.69 194.105C140.91 195.624 103.639 188.94 89.7808 187.1Z" fill="#164BCD"/>
<path d="M134.565 86.4409C134.636 90.0395 132.159 99.7383 130.57 101.434C132.861 108.3 144.46 109.63 145.791 105.891C144.518 101.555 147.511 94.1156 147.636 93.3943C144.726 93.4549 135.439 87.2014 134.565 86.4409Z" fill="#FF505C"/>
<path d="M146.832 74.9563C141.138 74.6477 137.113 78.7508 136.78 83.9138C136.775 83.968 136.433 89.2778 136.433 89.2778C136.182 93.1729 142.344 99.6537 146.095 99.1377C154.964 97.9139 157.78 83.3123 157.59 81.6345C157.061 76.9548 152.132 75.2421 146.832 74.9563Z" fill="#FF505C"/>
<path d="M152.559 108.953C150.846 107.753 145.791 105.891 145.791 105.891C145.791 105.891 143.002 108.397 140.199 107.878C136.115 107.123 130.569 101.434 130.569 101.434C130.569 101.434 121.379 102.206 118.409 102.925C91.851 109.345 86.5337 141.204 86.5337 211.435C87.8449 211.678 91.353 211.955 92.9988 212.339L101.136 187.599L99.2041 213.704C124.026 225.942 153.349 219.891 160.487 212.552C157.979 174.998 156.856 138.735 156.856 130.225C156.856 122.909 159.2 113.607 152.559 108.953Z" fill="url(#paint21_linear)"/>
<path d="M115.312 125.754C117.611 120.609 102.549 116.085 99.2063 124.633C94.8516 135.77 107.323 163.074 115.849 175.756C121.686 184.441 145.691 197.85 145.691 197.85C145.691 197.85 108.185 141.695 115.312 125.754Z" fill="#002CA7"/>
<path d="M140.2 107.877C136.116 107.122 130.57 101.433 130.57 101.433C130.57 101.433 125.853 101.743 124.385 101.842C121.146 102.062 118.41 102.924 118.41 102.924C126.761 116.266 144.853 125.436 144.853 125.436C144.853 125.436 150.683 116.374 152.35 108.822C150.212 107.493 145.791 105.89 145.791 105.89C145.791 105.89 143.003 108.396 140.2 107.877Z" fill="#002CA7"/>
<path d="M135.703 66.0393C127.168 72.193 127.532 84.7855 134.053 90.8415C134.053 90.8415 135.749 82.7228 138.837 79.2105C161.821 85.2088 164.575 79.8327 164.646 77.5527C164.972 67.2324 146.864 57.9926 135.703 66.0393Z" fill="black"/>
<path d="M136.082 81.757C134.615 81.8681 133.381 83.769 133.503 85.1118C133.619 86.3797 135.469 88.1829 136.873 88.421C137.32 86.9734 138.227 84.0427 138.529 82.2338C137.693 81.8168 136.64 81.7128 136.082 81.757Z" fill="#FF505C"/>
<path d="M129.033 160.949C129.033 160.038 128.616 120.135 123.869 113.434C122.167 111.031 108.299 114.375 105.565 115.819C97.4066 120.134 108.893 155.952 113.286 165.015C117.384 173.8 140.676 193.801 151.488 201.329L158.788 193.537C154.394 190.603 136.62 165.001 129.033 160.949Z" fill="url(#paint22_linear)"/>
<path fill-rule="evenodd" clip-rule="evenodd" d="M157.02 208.87C169.511 215.257 182 221.65 194.49 228.04C206.089 209.021 214.349 188.45 218.962 167.079C204.926 164.538 190.891 161.995 176.857 159.452C173.117 176.778 166.424 193.454 157.02 208.87Z" fill="#E3F0F1"/>
<path d="M189.75 170.364C189.458 170.56 189.076 170.642 188.694 170.555L179.877 168.605C179.185 168.45 178.762 167.816 178.928 167.184C179.096 166.552 179.788 166.162 180.481 166.314L189.298 168.266C189.988 168.42 190.413 169.058 190.245 169.689C190.171 169.972 189.99 170.206 189.75 170.364Z" fill="#B5D7DD"/>
<path d="M211.795 175.247C211.5 175.441 211.12 175.522 210.739 175.44L195.759 172.12C195.07 171.969 194.645 171.332 194.812 170.699C194.978 170.068 195.671 169.679 196.363 169.831L211.342 173.149C212.034 173.304 212.458 173.938 212.292 174.571C212.215 174.855 212.035 175.088 211.795 175.247Z" fill="#B5D7DD"/>
<path d="M197.129 179.397C196.821 179.603 196.419 179.68 196.023 179.578L178.018 174.924C177.334 174.748 176.937 174.098 177.129 173.471C177.323 172.844 178.032 172.482 178.716 172.658L196.723 177.312C197.405 177.487 197.804 178.139 197.611 178.764C197.53 179.029 197.355 179.248 197.129 179.397Z" fill="#B5D7DD"/>
<path d="M209.68 182.644C209.371 182.848 208.971 182.925 208.577 182.823L204.893 181.873C204.208 181.695 203.814 181.044 204.005 180.418C204.198 179.792 204.91 179.427 205.592 179.605L209.273 180.557C209.957 180.733 210.358 181.383 210.163 182.01C210.081 182.274 209.908 182.493 209.68 182.644Z" fill="#B5D7DD"/>
<path d="M183.796 183.004C183.474 183.217 183.05 183.292 182.646 183.172L175.901 181.172C175.226 180.972 174.854 180.309 175.074 179.69C175.291 179.068 176.019 178.733 176.693 178.93L183.436 180.93C184.112 181.13 184.481 181.796 184.263 182.412C184.176 182.66 184.009 182.863 183.796 183.004Z" fill="#B5D7DD"/>
<path d="M207.263 189.956C206.94 190.17 206.517 190.244 206.112 190.125L188.174 184.809C187.497 184.609 187.128 183.945 187.346 183.326C187.565 182.704 188.289 182.369 188.965 182.567L206.903 187.882C207.577 188.085 207.947 188.746 207.729 189.364C207.643 189.613 207.474 189.815 207.263 189.956Z" fill="#B5D7DD"/>
<path d="M189.637 192.182C189.301 192.404 188.858 192.475 188.439 192.334L173.531 187.341C172.863 187.116 172.521 186.441 172.765 185.829C173.006 185.221 173.745 184.905 174.411 185.128L189.322 190.124C189.988 190.348 190.33 191.022 190.087 191.633C189.996 191.862 189.836 192.049 189.637 192.182Z" fill="#B5D7DD"/>
<path d="M204.547 197.179C204.211 197.401 203.768 197.472 203.35 197.331L193.497 194.031C192.83 193.81 192.488 193.132 192.731 192.521C192.974 191.91 193.713 191.597 194.38 191.821L204.231 195.12C204.9 195.345 205.241 196.02 204.996 196.628C204.906 196.857 204.747 197.045 204.547 197.179Z" fill="#B5D7DD"/>
<path d="M175.821 194.661C175.472 194.893 175.006 194.959 174.578 194.797L170.903 193.422C170.247 193.174 169.933 192.485 170.203 191.882C170.474 191.283 171.224 190.995 171.88 191.241L175.553 192.62C176.209 192.867 176.523 193.555 176.254 194.157C176.161 194.366 176.007 194.539 175.821 194.661Z" fill="#B5D7DD"/>
<path d="M201.533 204.301C201.183 204.532 200.719 204.597 200.288 204.44L179.826 196.764C179.167 196.52 178.853 195.831 179.121 195.229C179.392 194.63 180.143 194.341 180.798 194.588L201.263 202.26C201.921 202.507 202.235 203.193 201.966 203.795C201.873 204.005 201.719 204.178 201.533 204.301Z" fill="#B5D7DD"/>
<path d="M184.195 205.48C183.835 205.719 183.345 205.78 182.909 205.599L168.03 199.408C167.383 199.14 167.098 198.444 167.393 197.849C167.681 197.261 168.446 196.996 169.094 197.265L183.972 203.455C184.62 203.722 184.903 204.421 184.61 205.016C184.515 205.208 184.369 205.364 184.195 205.48Z" fill="#B5D7DD"/>
<path d="M198.227 211.316C197.866 211.558 197.376 211.619 196.941 211.437L190.099 208.591C189.453 208.321 189.166 207.625 189.461 207.033C189.75 206.441 190.514 206.179 191.162 206.447L198.002 209.291C198.649 209.561 198.936 210.258 198.643 210.85C198.547 211.042 198.401 211.2 198.227 211.316Z" fill="#B5D7DD"/>
<path d="M172.957 208.278C172.581 208.529 172.07 208.582 171.625 208.377L164.909 205.298C164.274 205.008 164.016 204.301 164.335 203.717C164.654 203.138 165.425 202.904 166.061 203.193L172.778 206.273C173.412 206.563 173.669 207.271 173.35 207.855C173.254 208.026 173.119 208.171 172.957 208.278Z" fill="#B5D7DD"/>
<path d="M194.631 218.219C194.253 218.467 193.744 218.522 193.299 218.317L178.344 211.458C177.709 211.169 177.452 210.462 177.769 209.88C178.084 209.296 178.86 209.06 179.494 209.355L194.451 216.214C195.087 216.503 195.342 217.213 195.025 217.792C194.928 217.968 194.792 218.111 194.631 218.219Z" fill="#B5D7DD"/>
<path d="M162.699 196.135C161.226 196.034 159.67 195.772 158.307 195.268C159.754 196.039 159.104 196.778 160.487 197.785C161.142 198.022 164.214 197.582 164.253 196.934C164.408 195.937 163.514 196.143 162.699 196.135Z" fill="#FF505C"/>
<path d="M166.744 201.77C166.51 201.56 163.158 198.555 161.509 197.376C160.127 196.37 158.668 195.432 157.226 194.66C157.14 194.621 152.712 197.946 151.679 199.319C153.963 201.027 161.537 205.808 161.691 205.955C164.253 208.364 165.699 208.156 165.765 207.203C165.779 206.969 168.064 208.04 168.346 207.142C168.346 207.142 169.203 207.277 169.566 206.638C169.84 206.157 169.764 204.864 169.554 204.466C169.231 203.846 167.388 202.418 166.744 201.77Z" fill="#FF505C"/>
<defs>
<linearGradient id="paint0_linear" x1="49.8621" y1="369.71" x2="358.29" y2="369.71" gradientUnits="userSpaceOnUse">
<stop stop-color="#4F1EA2"/>
<stop offset="0.5167" stop-color="#324BB2"/>
<stop offset="1" stop-color="#1A71BF"/>
</linearGradient>
<linearGradient id="paint1_linear" x1="23.6323" y1="155.531" x2="428.967" y2="155.531" gradientUnits="userSpaceOnUse">
<stop stop-color="#B3CDFA"/>
<stop offset="0.0276" stop-color="#B7CFFA"/>
<stop offset="0.2615" stop-color="#D1E1FC"/>
<stop offset="0.5" stop-color="#E5EEFE"/>
<stop offset="0.7435" stop-color="#F0F5FE"/>
<stop offset="1" stop-color="#F4F8FF"/>
</linearGradient>
<linearGradient id="paint2_linear" x1="201.935" y1="208.307" x2="361.035" y2="208.307" gradientUnits="userSpaceOnUse">
<stop stop-color="#4F1EA2"/>
<stop offset="0.5167" stop-color="#324BB2"/>
<stop offset="1" stop-color="#1A71BF"/>
</linearGradient>
<linearGradient id="paint3_linear" x1="200.212" y1="273.296" x2="362.758" y2="273.296" gradientUnits="userSpaceOnUse">
<stop stop-color="#41DC9F"/>
<stop offset="0.5167" stop-color="#3BBACC"/>
<stop offset="1" stop-color="#369EF2"/>
</linearGradient>
<linearGradient id="paint4_linear" x1="200.212" y1="225.478" x2="362.758" y2="225.478" gradientUnits="userSpaceOnUse">
<stop stop-color="#41DC9F"/>
<stop offset="0.5167" stop-color="#3BBACC"/>
<stop offset="1" stop-color="#369EF2"/>
</linearGradient>
<linearGradient id="paint5_linear" x1="200.212" y1="177.662" x2="362.758" y2="177.662" gradientUnits="userSpaceOnUse">
<stop stop-color="#41DC9F"/>
<stop offset="0.5167" stop-color="#3BBACC"/>
<stop offset="1" stop-color="#369EF2"/>
</linearGradient>
<linearGradient id="paint6_linear" x1="200.212" y1="129.846" x2="362.758" y2="129.846" gradientUnits="userSpaceOnUse">
<stop stop-color="#41DC9F"/>
<stop offset="0.5167" stop-color="#3BBACC"/>
<stop offset="1" stop-color="#369EF2"/>
</linearGradient>
<linearGradient id="paint7_linear" x1="261.845" y1="130.565" x2="266.66" y2="130.565" gradientUnits="userSpaceOnUse">
<stop stop-color="#41DC9F"/>
<stop offset="0.5167" stop-color="#3BBACC"/>
<stop offset="1" stop-color="#369EF2"/>
</linearGradient>
<linearGradient id="paint8_linear" x1="200.617" y1="154.473" x2="263.518" y2="154.473" gradientUnits="userSpaceOnUse">
<stop stop-color="#4F1EA2"/>
<stop offset="0.5167" stop-color="#324BB2"/>
<stop offset="1" stop-color="#1A71BF"/>
</linearGradient>
<linearGradient id="paint9_linear" x1="211.692" y1="316.499" x2="297.081" y2="316.499" gradientUnits="userSpaceOnUse">
<stop stop-color="#132574"/>
<stop offset="0.6169" stop-color="#25369B"/>
<stop offset="1" stop-color="#2E3FAF"/>
</linearGradient>
<linearGradient id="paint10_linear" x1="286.229" y1="322.733" x2="288.619" y2="322.733" gradientUnits="userSpaceOnUse">
<stop stop-color="#132574"/>
<stop offset="0.6169" stop-color="#25369B"/>
<stop offset="1" stop-color="#2E3FAF"/>
</linearGradient>
<linearGradient id="paint11_linear" x1="220.931" y1="183.615" x2="287.839" y2="183.615" gradientUnits="userSpaceOnUse">
<stop stop-color="#132574"/>
<stop offset="0.6169" stop-color="#25369B"/>
<stop offset="1" stop-color="#2E3FAF"/>
</linearGradient>
<linearGradient id="paint12_linear" x1="217.617" y1="198.392" x2="291.153" y2="198.392" gradientUnits="userSpaceOnUse">
<stop stop-color="#132574"/>
<stop offset="0.6169" stop-color="#25369B"/>
<stop offset="1" stop-color="#2E3FAF"/>
</linearGradient>
<linearGradient id="paint13_linear" x1="203.766" y1="228.052" x2="301.885" y2="228.052" gradientUnits="userSpaceOnUse">
<stop stop-color="#132574"/>
<stop offset="0.6169" stop-color="#25369B"/>
<stop offset="1" stop-color="#2E3FAF"/>
</linearGradient>
<linearGradient id="paint14_linear" x1="70.1077" y1="225.278" x2="201.454" y2="225.278" gradientUnits="userSpaceOnUse">
<stop stop-color="#132574"/>
<stop offset="0.6169" stop-color="#25369B"/>
<stop offset="1" stop-color="#2E3FAF"/>
</linearGradient>
<linearGradient id="paint15_linear" x1="-0.00013244" y1="202.911" x2="78.0251" y2="202.911" gradientUnits="userSpaceOnUse">
<stop stop-color="#132574"/>
<stop offset="0.6169" stop-color="#25369B"/>
<stop offset="1" stop-color="#2E3FAF"/>
</linearGradient>
<linearGradient id="paint16_linear" x1="191.639" y1="195.524" x2="197.68" y2="195.524" gradientUnits="userSpaceOnUse">
<stop stop-color="#41DC9F"/>
<stop offset="0.5167" stop-color="#3BBACC"/>
<stop offset="1" stop-color="#369EF2"/>
</linearGradient>
<linearGradient id="paint17_linear" x1="185.255" y1="200.155" x2="203.668" y2="200.155" gradientUnits="userSpaceOnUse">
<stop stop-color="#41DC9F"/>
<stop offset="0.5167" stop-color="#3BBACC"/>
<stop offset="1" stop-color="#369EF2"/>
</linearGradient>
<linearGradient id="paint18_linear" x1="145.911" y1="178.84" x2="191.006" y2="178.84" gradientUnits="userSpaceOnUse">
<stop stop-color="#41DC9F"/>
<stop offset="0.5167" stop-color="#3BBACC"/>
<stop offset="1" stop-color="#369EF2"/>
</linearGradient>
<linearGradient id="paint19_linear" x1="133.731" y1="142.252" x2="158.594" y2="142.252" gradientUnits="userSpaceOnUse">
<stop stop-color="#41DC9F"/>
<stop offset="0.5167" stop-color="#3BBACC"/>
<stop offset="1" stop-color="#369EF2"/>
</linearGradient>
<linearGradient id="paint20_linear" x1="131.938" y1="157.14" x2="192.021" y2="157.14" gradientUnits="userSpaceOnUse">
<stop stop-color="#41DC9F"/>
<stop offset="0.5167" stop-color="#3BBACC"/>
<stop offset="1" stop-color="#369EF2"/>
</linearGradient>
<linearGradient id="paint21_linear" x1="86.5338" y1="161.069" x2="160.487" y2="161.069" gradientUnits="userSpaceOnUse">
<stop stop-color="#41DC9F"/>
<stop offset="0.5167" stop-color="#3BBACC"/>
<stop offset="1" stop-color="#369EF2"/>
</linearGradient>
<linearGradient id="paint22_linear" x1="102.712" y1="156.96" x2="158.789" y2="156.96" gradientUnits="userSpaceOnUse">
<stop stop-color="#41DC9F"/>
<stop offset="0.5167" stop-color="#3BBACC"/>
<stop offset="1" stop-color="#369EF2"/>
</linearGradient>
</defs>
</svg>
