<?xml version="1.0" encoding="UTF-8"?>
<svg width="108px" height="118px" viewBox="0 0 108 118" version="1.1" xmlns="http://www.w3.org/2000/svg" xmlns:xlink="http://www.w3.org/1999/xlink">
    <!-- Generator: Sketch 53.2 (72643) - https://sketchapp.com -->
    <title>ТОчки</title>
    <desc>Created with Sketch.</desc>
    <g id="Page-1" stroke="none" stroke-width="1" fill="none" fill-rule="evenodd">
        <g id="ТОчки" fill-rule="nonzero">
            <rect id="Rectangle" fill="#FFFFFF" x="0" y="0" width="108" height="118"></rect>
            <circle id="Oval" fill="#002CA7" cx="16.0098" cy="1.0098" r="1.0098"></circle>
            <circle id="Oval" fill="#002CA7" cx="26.1079" cy="1.0098" r="1.0098"></circle>
            <circle id="Oval" fill="#002CA7" cx="36.2058" cy="1.0098" r="1.0098"></circle>
            <circle id="Oval" fill="#002CA7" cx="46.304" cy="1.0098" r="1.0098"></circle>
            <circle id="Oval" fill="#002CA7" cx="56.4019" cy="1.0098" r="1.0098"></circle>
            <circle id="Oval" fill="#002CA7" cx="66.5" cy="1.0098" r="1.0098"></circle>
            <circle id="Oval" fill="#002CA7" cx="76.5979" cy="1.0098" r="1.0098"></circle>
            <circle id="Oval" fill="#002CA7" cx="86.6961" cy="1.0098" r="1.0098"></circle>
            <circle id="Oval" fill="#002CA7" cx="96.794" cy="1.0098" r="1.0098"></circle>
            <circle id="Oval" fill="#002CA7" cx="106.892" cy="1.0098" r="1.0098"></circle>
            <circle id="Oval" fill="#002CA7" cx="16.0098" cy="11.1079" r="1.0098"></circle>
            <circle id="Oval" fill="#002CA7" cx="26.1079" cy="11.1079" r="1.0098"></circle>
            <circle id="Oval" fill="#002CA7" cx="36.2058" cy="11.1079" r="1.0098"></circle>
            <circle id="Oval" fill="#002CA7" cx="46.304" cy="11.1079" r="1.0098"></circle>
            <circle id="Oval" fill="#002CA7" cx="56.4019" cy="11.1079" r="1.0098"></circle>
            <circle id="Oval" fill="#002CA7" cx="66.5" cy="11.1079" r="1.0098"></circle>
            <circle id="Oval" fill="#002CA7" cx="76.5979" cy="11.1079" r="1.0098"></circle>
            <circle id="Oval" fill="#002CA7" cx="86.6961" cy="11.1079" r="1.0098"></circle>
            <circle id="Oval" fill="#002CA7" cx="96.794" cy="11.1079" r="1.0098"></circle>
            <circle id="Oval" fill="#002CA7" cx="106.892" cy="11.1079" r="1.0098"></circle>
            <circle id="Oval" fill="#002CA7" cx="96.794" cy="21.2061" r="1.0098"></circle>
            <circle id="Oval" fill="#002CA7" cx="106.892" cy="21.2061" r="1.0098"></circle>
            <circle id="Oval" fill="#002CA7" cx="96.794" cy="31.3037" r="1.0098"></circle>
            <circle id="Oval" fill="#002CA7" cx="106.892" cy="31.3037" r="1.0098"></circle>
            <circle id="Oval" fill="#002CA7" cx="96.794" cy="41.4019" r="1.0098"></circle>
            <circle id="Oval" fill="#002CA7" cx="106.892" cy="41.4019" r="1.0098"></circle>
            <circle id="Oval" fill="#002CA7" cx="96.794" cy="51.5" r="1.0098"></circle>
            <circle id="Oval" fill="#002CA7" cx="106.892" cy="51.5" r="1.0098"></circle>
            <circle id="Oval" fill="#002CA7" cx="96.794" cy="61.5977" r="1.0098"></circle>
            <circle id="Oval" fill="#002CA7" cx="106.892" cy="61.5977" r="1.0098"></circle>
            <circle id="Oval" fill="#002CA7" cx="96.794" cy="71.696" r="1.0098"></circle>
            <circle id="Oval" fill="#002CA7" cx="106.892" cy="71.696" r="1.0098"></circle>
            <circle id="Oval" fill="#002CA7" cx="96.794" cy="81.794" r="1.0098"></circle>
            <circle id="Oval" fill="#002CA7" cx="106.892" cy="81.794" r="1.0098"></circle>
            <circle id="Oval" fill="#002CA7" cx="96.794" cy="91.892" r="1.0098"></circle>
            <circle id="Oval" fill="#002CA7" cx="106.892" cy="91.892" r="1.0098"></circle>
            <circle id="Oval" fill="#002CA7" cx="96.794" cy="101.99" r="1.0098"></circle>
            <circle id="Oval" fill="#002CA7" cx="106.892" cy="101.99" r="1.0098"></circle>
        </g>
    </g>
</svg>