<?xml version="1.0" encoding="UTF-8"?>
<svg width="161px" height="161px" viewBox="0 0 161 161" version="1.1" xmlns="http://www.w3.org/2000/svg" xmlns:xlink="http://www.w3.org/1999/xlink">
    <!-- Generator: Sketch 53.2 (72643) - https://sketchapp.com -->
    <title>Group</title>
    <desc>Created with Sketch.</desc>
    <g id="Page-1" stroke="none" stroke-width="1" fill="none" fill-rule="evenodd">
        <g id="Group" transform="translate(1.000000, 1.000000)">
            <rect id="Rectangle" stroke="#2E375F" x="0" y="0" width="159" height="159" rx="5.5"></rect>
            <path d="M38.359375,100.203125 L39.562505,100.203125 L39.562505,95.085935 L45.796925,95.085935 L45.796925,100.203125 L47.000025,100.203125 L47.000025,89 L45.796925,89 L45.796925,93.960935 L39.562505,93.960935 L39.562505,89 L38.359375,89 L38.359375,100.203125 Z M51.562525,95.804685 C50.835925,95.929685 50.281225,96.187505 49.898425,96.578125 C49.507825,96.968745 49.320325,97.484375 49.320325,98.125005 C49.320325,98.710925 49.578125,99.226525 50.101525,99.679725 C50.625025,100.132825 51.273425,100.359325 52.039025,100.359325 C52.343725,100.359325 52.640625,100.320325 52.929725,100.234325 C53.218725,100.156225 53.453125,100.062525 53.632825,99.953125 C53.804725,99.843725 53.968725,99.726525 54.125025,99.585925 C54.281225,99.445325 54.375025,99.351525 54.421925,99.296925 C54.468725,99.242225 54.500025,99.195325 54.523425,99.164025 L54.523425,100.203125 L55.640625,100.203125 L55.640625,95.320315 C55.640625,94.484375 55.351525,93.781245 54.773425,93.210935 C54.195325,92.648435 53.476525,92.359375 52.601525,92.359375 C52.257825,92.359375 51.914025,92.414065 51.585925,92.515625 C51.257825,92.617185 50.992225,92.734375 50.789025,92.859375 C50.585925,92.992185 50.390625,93.140625 50.203125,93.304685 C50.015625,93.468745 49.898425,93.585935 49.843725,93.648435 C49.789025,93.710935 49.750025,93.765625 49.718725,93.804685 L50.437525,94.523435 L50.679725,94.250005 C50.835925,94.062505 51.093725,93.875005 51.453125,93.687505 C51.812525,93.500005 52.195325,93.406245 52.601525,93.406245 C53.164025,93.406245 53.625025,93.585935 53.984325,93.937505 C54.343725,94.296875 54.523425,94.757815 54.523425,95.320315 L51.562525,95.804685 Z M52.039025,99.320325 C51.539025,99.320325 51.140625,99.210925 50.859325,98.984325 C50.578125,98.757825 50.437525,98.468725 50.437525,98.125005 C50.437525,97.406245 50.921925,96.953125 51.882825,96.765625 L54.523425,96.281245 L54.523425,96.765625 C54.523425,97.523435 54.289025,98.140625 53.820325,98.609325 C53.351525,99.085925 52.757825,99.320325 52.039025,99.320325 Z M65.312525,99.164025 L64.109325,99.164025 L64.109325,92.523435 L58.835925,92.523435 L58.835925,94.765625 C58.835925,95.328125 58.781225,95.875005 58.687525,96.390625 C58.593725,96.906245 58.484325,97.320315 58.359325,97.632815 C58.234325,97.945315 58.101525,98.226525 57.945325,98.492225 C57.789025,98.757825 57.671925,98.929725 57.609325,99.007825 C57.546925,99.085925 57.500025,99.132825 57.468725,99.164025 L56.914025,99.164025 L56.914025,102.125025 L58.031225,102.125025 L58.031225,100.203125 L64.195325,100.203125 L64.195325,102.125025 L65.312525,102.125025 L65.312525,99.164025 Z M59.953125,93.562505 L62.992225,93.562505 L62.992225,99.164025 L58.671925,99.164025 L58.992225,98.718725 C59.203125,98.421925 59.414025,97.906245 59.625025,97.171875 C59.843725,96.445315 59.945325,95.640625 59.945325,94.765625 L59.953125,93.562505 Z M73.226525,96.367185 C73.226525,97.195315 72.945325,97.898435 72.398425,98.468725 C71.851525,99.039025 71.187525,99.320325 70.421925,99.320325 C69.656225,99.320325 68.992225,99.039025 68.445325,98.460925 C67.898425,97.882815 67.625025,97.187505 67.625025,96.359375 C67.625025,95.531245 67.898425,94.835935 68.445325,94.265625 C68.992225,93.695315 69.656225,93.406245 70.421925,93.406245 C71.187525,93.406245 71.851525,93.695315 72.398425,94.265625 C72.945325,94.835935 73.226525,95.539065 73.226525,96.367185 Z M66.507825,96.367185 C66.507825,97.492185 66.882825,98.437525 67.648425,99.210925 C68.414025,99.976525 69.335925,100.367225 70.429725,100.367225 C71.515625,100.367225 72.437525,99.976525 73.195325,99.210925 C73.960925,98.437525 74.335925,97.492185 74.335925,96.367185 C74.335925,95.242185 73.960925,94.296875 73.195325,93.523435 C72.437525,92.750005 71.515625,92.359375 70.429725,92.359375 C69.335925,92.359375 68.414025,92.750005 67.648425,93.523435 C66.882825,94.296875 66.507825,95.242185 66.507825,96.367185 Z M84.914025,100.203125 L86.039025,100.203125 L86.039025,92.523435 L84.914025,92.523435 L84.914025,95.804685 L80.515625,95.804685 L80.515625,92.523435 L79.398425,92.523435 L79.398425,100.203125 L80.515625,100.203125 L80.515625,96.843745 L84.914025,96.843745 L84.914025,100.203125 Z M90.281225,95.804685 C89.554725,95.929685 89.000025,96.187505 88.617225,96.578125 C88.226525,96.968745 88.039025,97.484375 88.039025,98.125005 C88.039025,98.710925 88.296925,99.226525 88.820325,99.679725 C89.343725,100.132825 89.992225,100.359325 90.757825,100.359325 C91.062525,100.359325 91.359325,100.320325 91.648425,100.234325 C91.937525,100.156225 92.171925,100.062525 92.351525,99.953125 C92.523425,99.843725 92.687525,99.726525 92.843725,99.585925 C93.000025,99.445325 93.093725,99.351525 93.140625,99.296925 C93.187525,99.242225 93.218725,99.195325 93.242225,99.164025 L93.242225,100.203125 L94.359325,100.203125 L94.359325,95.320315 C94.359325,94.484375 94.070325,93.781245 93.492225,93.210935 C92.914025,92.648435 92.195325,92.359375 91.320325,92.359375 C90.976525,92.359375 90.632825,92.414065 90.304725,92.515625 C89.976525,92.617185 89.710925,92.734375 89.507825,92.859375 C89.304725,92.992185 89.109325,93.140625 88.921925,93.304685 C88.734325,93.468745 88.617225,93.585935 88.562525,93.648435 C88.507825,93.710935 88.468725,93.765625 88.437525,93.804685 L89.156225,94.523435 L89.398425,94.250005 C89.554725,94.062505 89.812525,93.875005 90.171925,93.687505 C90.531225,93.500005 90.914025,93.406245 91.320325,93.406245 C91.882825,93.406245 92.343725,93.585935 92.703125,93.937505 C93.062525,94.296875 93.242225,94.757815 93.242225,95.320315 L90.281225,95.804685 Z M90.757825,99.320325 C90.257825,99.320325 89.859325,99.210925 89.578125,98.984325 C89.296925,98.757825 89.156225,98.468725 89.156225,98.125005 C89.156225,97.406245 89.640625,96.953125 90.601525,96.765625 L93.242225,96.281245 L93.242225,96.765625 C93.242225,97.523435 93.007825,98.140625 92.539025,98.609325 C92.070325,99.085925 91.476525,99.320325 90.757825,99.320325 Z M100.273425,90.359375 C99.867225,90.359375 99.546925,90.242185 99.328125,90.007815 C99.101525,89.773435 98.992225,89.437505 98.992225,89 L98.109325,89 C98.109325,89.640625 98.304725,90.164065 98.710925,90.562505 C99.109325,90.968745 99.632825,91.164065 100.273425,91.164065 C100.914025,91.164065 101.429725,90.968745 101.828125,90.562505 C102.226525,90.164065 102.429725,89.640625 102.429725,89 L101.554725,89 C101.554725,89.437505 101.437525,89.773435 101.218725,90.007815 C100.992225,90.242185 100.679725,90.359375 100.273425,90.359375 Z M102.671925,92.523435 L98.031225,98.281225 L98.031225,92.523435 L96.914025,92.523435 L96.914025,100.203125 L97.867225,100.203125 L102.507825,94.445315 L102.507825,100.203125 L103.632825,100.203125 L103.632825,92.523435 L102.671925,92.523435 Z M105.234325,93.562505 L107.953125,93.562505 L107.953125,100.203125 L109.070325,100.203125 L109.070325,93.562505 L111.789025,93.562505 L111.789025,92.523435 L105.234325,92.523435 L105.234325,93.562505 Z M119.156225,92.523435 L114.515625,98.281225 L114.515625,92.523435 L113.398425,92.523435 L113.398425,100.203125 L114.351525,100.203125 L118.992225,94.445315 L118.992225,100.203125 L120.117225,100.203125 L120.117225,92.523435 L119.156225,92.523435 Z M38.515625,119.203125 L39.640625,119.203125 L39.640625,111.523425 L33,111.523425 L33,119.203125 L34.117185,119.203125 L34.117185,112.578125 L38.515625,112.578125 L38.515625,119.203125 Z M48.359325,115.367225 C48.359325,116.195325 48.078125,116.898425 47.531225,117.468725 C46.984325,118.039025 46.320325,118.320325 45.554725,118.320325 C44.789025,118.320325 44.125025,118.039025 43.578125,117.460925 C43.031225,116.882825 42.757825,116.187525 42.757825,115.359325 C42.757825,114.531225 43.031225,113.835925 43.578125,113.265625 C44.125025,112.695325 44.789025,112.406225 45.554725,112.406225 C46.320325,112.406225 46.984325,112.695325 47.531225,113.265625 C48.078125,113.835925 48.359325,114.539025 48.359325,115.367225 Z M41.640625,115.367225 C41.640625,116.492225 42.015625,117.437525 42.781225,118.210925 C43.546925,118.976525 44.468725,119.367225 45.562525,119.367225 C46.648425,119.367225 47.570325,118.976525 48.328125,118.210925 C49.093725,117.437525 49.468725,116.492225 49.468725,115.367225 C49.468725,114.242225 49.093725,113.296925 48.328125,112.523425 C47.570325,111.750025 46.648425,111.359325 45.562525,111.359325 C44.468725,111.359325 43.546925,111.750025 42.781225,112.523425 C42.015625,113.296925 41.640625,114.242225 41.640625,115.367225 Z M58.601525,118.164025 L57.398425,118.164025 L57.398425,111.523425 L52.125025,111.523425 L52.125025,113.765625 C52.125025,114.328125 52.070325,114.875025 51.976525,115.390625 C51.882825,115.906225 51.773425,116.320325 51.648425,116.632825 C51.523425,116.945325 51.390625,117.226525 51.234325,117.492225 C51.078125,117.757825 50.960925,117.929725 50.898425,118.007825 C50.835925,118.085925 50.789025,118.132825 50.757825,118.164025 L50.203125,118.164025 L50.203125,121.125025 L51.320325,121.125025 L51.320325,119.203125 L57.484325,119.203125 L57.484325,121.125025 L58.601525,121.125025 L58.601525,118.164025 Z M53.242225,112.562525 L56.281225,112.562525 L56.281225,118.164025 L51.960925,118.164025 L52.281225,117.718725 C52.492225,117.421925 52.703125,116.906225 52.914025,116.171925 C53.132825,115.445325 53.234325,114.640625 53.234325,113.765625 L53.242225,112.562525 Z M62.914025,116.085925 L65.156225,119.203125 L66.515625,119.203125 L63.632825,115.203125 L66.273425,111.523425 L64.914025,111.523425 L62.914025,114.320325 L60.914025,111.523425 L59.554725,111.523425 L62.195325,115.203125 L59.312525,119.203125 L60.679725,119.203125 L62.914025,116.085925 Z M74.203125,115.367225 C74.203125,116.195325 73.921925,116.898425 73.375025,117.468725 C72.828125,118.039025 72.164025,118.320325 71.398425,118.320325 C70.632825,118.320325 69.968725,118.039025 69.421925,117.460925 C68.875025,116.882825 68.601525,116.187525 68.601525,115.359325 C68.601525,114.531225 68.875025,113.835925 69.421925,113.265625 C69.968725,112.695325 70.632825,112.406225 71.398425,112.406225 C72.164025,112.406225 72.828125,112.695325 73.375025,113.265625 C73.921925,113.835925 74.203125,114.539025 74.203125,115.367225 Z M67.484325,115.367225 C67.484325,116.492225 67.859325,117.437525 68.625025,118.210925 C69.390625,118.976525 70.312525,119.367225 71.406225,119.367225 C72.492225,119.367225 73.414025,118.976525 74.171925,118.210925 C74.937525,117.437525 75.312525,116.492225 75.312525,115.367225 C75.312525,114.242225 74.937525,113.296925 74.171925,112.523425 C73.414025,111.750025 72.492225,111.359325 71.406225,111.359325 C70.312525,111.359325 69.390625,111.750025 68.625025,112.523425 C67.859325,113.296925 67.484325,114.242225 67.484325,115.367225 Z M84.445325,118.164025 L83.242225,118.164025 L83.242225,111.523425 L77.968725,111.523425 L77.968725,113.765625 C77.968725,114.328125 77.914025,114.875025 77.820325,115.390625 C77.726525,115.906225 77.617225,116.320325 77.492225,116.632825 C77.367225,116.945325 77.234325,117.226525 77.078125,117.492225 C76.921925,117.757825 76.804725,117.929725 76.742225,118.007825 C76.679725,118.085925 76.632825,118.132825 76.601525,118.164025 L76.046925,118.164025 L76.046925,121.125025 L77.164025,121.125025 L77.164025,119.203125 L83.328125,119.203125 L83.328125,121.125025 L84.445325,121.125025 L84.445325,118.164025 Z M79.085925,112.562525 L82.125025,112.562525 L82.125025,118.164025 L77.804725,118.164025 L78.125025,117.718725 C78.335925,117.421925 78.546925,116.906225 78.757825,116.171925 C78.976525,115.445325 79.078125,114.640625 79.078125,113.765625 L79.085925,112.562525 Z M85.718725,114.085925 C85.718725,114.453125 85.773425,114.781225 85.890625,115.070325 C86.007825,115.351525 86.132825,115.578125 86.273425,115.734325 C86.414025,115.890625 86.570325,116.031225 86.757825,116.140625 C86.937525,116.250025 87.062525,116.320325 87.140625,116.351525 C87.218725,116.382825 87.273425,116.398425 87.320325,116.406225 L85.562525,119.203125 L86.843725,119.203125 L88.437525,116.640625 L90.679725,116.640625 L90.679725,119.203125 L91.796925,119.203125 L91.796925,111.523425 L88.523425,111.523425 C87.687525,111.523425 87.007825,111.773425 86.492225,112.257825 C85.976525,112.742225 85.718725,113.351525 85.718725,114.085925 Z M90.679725,112.562525 L90.679725,115.601525 L88.523425,115.601525 C88.007825,115.601525 87.593725,115.460925 87.296925,115.179725 C86.992225,114.898425 86.843725,114.539025 86.843725,114.085925 C86.843725,113.640625 86.992225,113.273425 87.296925,112.992225 C87.601525,112.710925 88.007825,112.570325 88.523425,112.570325 L90.679725,112.562525 Z M94.359325,119.203125 L104.359325,119.203125 L104.359325,121.125025 L105.476525,121.125025 L105.476525,118.164025 L104.273425,118.164025 L104.273425,111.523425 L103.156225,111.523425 L103.156225,118.164025 L99.890625,118.164025 L99.890625,111.523425 L98.757825,111.523425 L98.757825,118.164025 L95.476525,118.164025 L95.476525,111.523425 L94.359325,111.523425 L94.359325,119.203125 Z M108.914025,120.320325 C108.625025,121.125025 108.140625,121.523425 107.460925,121.523425 C107.195325,121.523425 106.929725,121.468725 106.664025,121.359325 L106.664025,122.406225 L106.773425,122.437525 C106.851525,122.468725 106.976525,122.500025 107.132825,122.523425 C107.289025,122.554725 107.453125,122.562525 107.625025,122.562525 C108.179725,122.562525 108.640625,122.398425 109.007825,122.054725 C109.367225,121.710925 109.710925,121.132825 110.031225,120.320325 L113.554725,111.523425 L112.351525,111.523425 L109.875025,117.765625 L107.390625,111.523425 L106.187525,111.523425 L109.312525,119.203125 L108.914025,120.320325 Z M125.554725,115.359325 C125.554725,114.250025 125.171925,113.312525 124.421925,112.531225 C123.664025,111.750025 122.765625,111.359325 121.718725,111.359325 C120.734325,111.359325 119.875025,111.703125 119.156225,112.382825 C118.429725,113.062525 118.000025,113.867225 117.867225,114.804725 L116.187525,114.804725 L116.187525,111.523425 L115.070325,111.523425 L115.070325,119.203125 L116.187525,119.203125 L116.187525,115.843725 L117.867225,115.843725 C117.992225,116.828125 118.414025,117.656225 119.148425,118.335925 C119.882825,119.023425 120.734325,119.359325 121.710925,119.359325 C122.757825,119.359325 123.656225,118.976525 124.414025,118.195325 C125.171925,117.414025 125.554725,116.468725 125.554725,115.359325 Z M118.984325,115.367225 C118.984325,114.539025 119.257825,113.835925 119.796925,113.265625 C120.335925,112.695325 120.976525,112.406225 121.710925,112.406225 C122.445325,112.406225 123.085925,112.695325 123.625025,113.265625 C124.164025,113.835925 124.429725,114.539025 124.429725,115.367225 C124.429725,116.195325 124.164025,116.898425 123.625025,117.468725 C123.085925,118.039025 122.445325,118.320325 121.710925,118.320325 C120.976525,118.320325 120.335925,118.039025 119.796925,117.468725 C119.257825,116.898425 118.984325,116.195325 118.984325,115.367225 Z" id="Shape" fill="#000000" fill-rule="nonzero"></path>
            <path d="M41.632825,42.757808 L41.820325,42.695308 C41.960925,42.648438 42.125025,42.562498 42.312525,42.437498 C42.500025,42.312498 42.679725,42.164068 42.867225,41.984378 C43.054725,41.812498 43.210925,41.570308 43.343725,41.273438 C43.476525,40.976568 43.546925,40.648438 43.546925,40.281248 C43.546925,39.453128 43.210925,38.749998 42.546925,38.179688 C41.875025,37.609376 40.984325,37.320313 39.867185,37.320313 C39.429685,37.320313 39.000005,37.382813 38.593745,37.5 C38.187505,37.617188 37.851565,37.742188 37.593745,37.882808 C37.335935,38.023438 37.093745,38.179688 36.867185,38.359378 C36.632815,38.546878 36.484375,38.671878 36.421875,38.749998 C36.351565,38.828128 36.304685,38.882808 36.273435,38.921878 L37.070315,39.718748 L37.375005,39.398438 C37.585935,39.187498 37.921875,38.976568 38.390625,38.757808 C38.851565,38.546878 39.343745,38.437498 39.867185,38.437498 C40.632815,38.437498 41.242225,38.624998 41.687525,38.992188 C42.125025,39.367188 42.351525,39.820308 42.351525,40.359378 C42.351525,40.874998 42.125025,41.304688 41.679725,41.664068 C41.234325,42.023438 40.632815,42.203128 39.867185,42.203128 L38.593745,42.203128 L38.593745,43.320308 L39.867185,43.320308 C40.750025,43.320308 41.453125,43.539068 41.968725,43.968748 C42.484325,44.406248 42.750025,44.937498 42.750025,45.562498 C42.750025,46.148438 42.484325,46.656248 41.968725,47.078088 C41.453125,47.507788 40.750025,47.718788 39.867185,47.718788 C39.484375,47.718788 39.109375,47.671888 38.742185,47.570288 C38.367185,47.468788 38.070315,47.351588 37.843745,47.226588 C37.609375,47.101588 37.398435,46.953088 37.195315,46.789088 C36.992185,46.624998 36.867185,46.507808 36.804685,46.445308 C36.742185,46.382808 36.703125,46.328128 36.671875,46.281248 L35.867185,47.078088 L36.031245,47.273488 C36.125005,47.390588 36.281245,47.531288 36.515625,47.703088 C36.742185,47.874988 37.007815,48.046888 37.304685,48.218788 C37.601565,48.390588 37.984375,48.531288 38.445315,48.656288 C38.898435,48.781288 39.375005,48.843788 39.867185,48.843788 C41.062525,48.843788 42.039025,48.515588 42.804725,47.859388 C43.570325,47.203088 43.953125,46.445308 43.953125,45.570308 C43.953125,45.148438 43.867225,44.765628 43.703125,44.421878 C43.531225,44.078128 43.343725,43.804688 43.140625,43.617188 C42.929725,43.421878 42.695325,43.249998 42.429725,43.109378 C42.164025,42.968748 41.976525,42.874998 41.875025,42.835938 C41.773425,42.796878 41.695325,42.773438 41.632825,42.757808 Z M53.226525,47.640588 L52.023425,47.640588 L52.023425,40.999998 L46.750025,40.999998 L46.750025,43.242188 C46.750025,43.804688 46.695325,44.351568 46.601525,44.867188 C46.507825,45.382808 46.398425,45.796878 46.273425,46.109378 C46.148425,46.421878 46.015625,46.703088 45.859325,46.968788 C45.703125,47.234388 45.585925,47.406288 45.523425,47.484388 C45.460925,47.562488 45.414025,47.609388 45.382825,47.640588 L44.828125,47.640588 L44.828125,50.601588 L45.945325,50.601588 L45.945325,48.679688 L52.109325,48.679688 L52.109325,50.601588 L53.226525,50.601588 L53.226525,47.640588 Z M47.867225,42.039068 L50.906225,42.039068 L50.906225,47.640588 L46.585925,47.640588 L46.906225,47.195288 C47.117225,46.898488 47.328125,46.382808 47.539025,45.648438 C47.757825,44.921878 47.859325,44.117188 47.859325,43.242188 L47.867225,42.039068 Z M61.781225,45.257808 L61.859325,44.679688 C61.859325,43.570308 61.507825,42.656248 60.804725,41.929688 C60.101525,41.203128 59.226525,40.835938 58.179725,40.835938 C57.164025,40.835938 56.289025,41.226568 55.539025,42.007808 C54.789025,42.789068 54.421925,43.726568 54.421925,44.835938 C54.421925,45.945308 54.796925,46.890588 55.554725,47.671888 C56.304725,48.453088 57.210925,48.835888 58.257825,48.835888 C58.640625,48.835888 59.015625,48.781288 59.382825,48.664088 C59.750025,48.546888 60.046925,48.421888 60.281225,48.281288 C60.515625,48.140588 60.726525,47.984388 60.929725,47.804688 C61.132825,47.624988 61.257825,47.499988 61.320325,47.421888 C61.382825,47.343788 61.429725,47.289088 61.460925,47.242188 L60.742225,46.523438 L60.468725,46.835888 C60.296925,47.054688 60.000025,47.265588 59.593725,47.476588 C59.179725,47.695288 58.734325,47.796888 58.257825,47.796888 C57.539025,47.796888 56.921925,47.546888 56.390625,47.039088 C55.859325,46.539068 55.578125,45.937498 55.539025,45.242188 L61.781225,45.257808 Z M58.179725,41.882808 C58.851525,41.882808 59.421925,42.109378 59.898425,42.562498 C60.375025,43.015628 60.656225,43.593748 60.742225,44.281248 L55.539025,44.281248 C55.625025,43.632808 55.921925,43.070308 56.421925,42.593748 C56.921925,42.124998 57.507825,41.882808 58.179725,41.882808 Z M63.296925,44.835938 C63.296925,45.945308 63.671925,46.890588 64.429725,47.671888 C65.179725,48.453088 66.085925,48.835888 67.132825,48.835888 C67.507825,48.835888 67.875025,48.781288 68.234325,48.664088 C68.593725,48.546888 68.890625,48.421888 69.117225,48.281288 C69.351525,48.140588 69.570325,47.984388 69.773425,47.804688 C69.984325,47.624988 70.125025,47.499988 70.187525,47.421888 C70.250025,47.343788 70.296925,47.289088 70.328125,47.242188 L69.531225,46.523438 L69.273425,46.835888 C69.093725,47.054688 68.804725,47.265588 68.406225,47.476588 C68.000025,47.695288 67.578125,47.796888 67.132825,47.796888 C66.398425,47.796888 65.757825,47.515588 65.218725,46.945288 C64.679725,46.374998 64.414025,45.671878 64.414025,44.843748 C64.414025,44.015628 64.679725,43.312498 65.218725,42.742188 C65.757825,42.171878 66.398425,41.882808 67.132825,41.882808 C67.421925,41.882808 67.703125,41.929688 67.968725,42.015628 C68.234325,42.109378 68.445325,42.210938 68.617225,42.320308 C68.781225,42.429688 68.937525,42.562498 69.078125,42.710938 C69.218725,42.867188 69.312525,42.968748 69.351525,43.023438 C69.398425,43.085938 69.429725,43.124998 69.445325,43.156248 L70.250025,42.359378 L69.914025,41.992188 C69.695325,41.742188 69.320325,41.484378 68.804725,41.226568 C68.289025,40.968748 67.726525,40.835938 67.125025,40.835938 C66.085925,40.835938 65.187525,41.226568 64.429725,42.007808 C63.671925,42.789068 63.296925,43.726568 63.296925,44.835938 Z M73.210925,47.640588 L73.210925,44.601568 L75.210925,44.601568 C75.718725,44.601568 76.125025,44.742188 76.429725,45.023438 C76.734325,45.304688 76.890625,45.671878 76.890625,46.117188 C76.890625,46.570308 76.734325,46.937488 76.429725,47.218788 C76.125025,47.499988 75.726525,47.640588 75.226525,47.640588 L73.210925,47.640588 Z M78.007825,46.124998 C78.007825,45.359378 77.757825,44.734378 77.257825,44.265628 C76.757825,43.796878 76.070325,43.562498 75.210925,43.562498 L73.210925,43.562498 L73.210925,40.999998 L72.093725,40.999998 L72.093725,48.679688 L75.226525,48.679688 C76.085925,48.679688 76.765625,48.445288 77.265625,47.976588 C77.757825,47.507788 78.007825,46.890588 78.007825,46.124998 Z M90.335925,44.999998 C90.335925,43.937498 89.976525,43.031248 89.257825,42.281248 C88.539025,41.531248 87.671925,41.156248 86.656225,41.156248 C86.312525,41.156248 85.984325,41.218748 85.671925,41.328128 C85.359325,41.437498 85.101525,41.562498 84.906225,41.695308 C84.703125,41.835938 84.523425,41.984378 84.359325,42.156248 C84.195325,42.328128 84.085925,42.445308 84.039025,42.515628 C83.992225,42.585938 83.953125,42.640628 83.937525,42.679688 C83.976525,41.601568 84.257825,40.749998 84.773425,40.124998 C85.289025,39.499998 85.976525,39.093748 86.820325,38.921878 C88.414025,38.609378 89.429725,38.257808 89.859325,37.882808 L89.296925,37 L89.062525,37.140626 C88.906225,37.242188 88.609325,37.367188 88.171925,37.515626 C87.726525,37.671876 87.218725,37.789068 86.656225,37.882808 C84.046925,38.351568 82.742225,40.351568 82.742225,43.882808 C82.742225,45.460938 83.093725,46.687488 83.812525,47.546888 C84.523425,48.406288 85.445325,48.835888 86.578125,48.835888 C87.625025,48.835888 88.507825,48.468788 89.242225,47.726588 C89.968725,46.992188 90.335925,46.078128 90.335925,44.999998 Z M83.937525,44.999998 C83.937525,44.210938 84.195325,43.546878 84.710925,43.007808 C85.226525,42.476568 85.851525,42.203128 86.578125,42.203128 C87.296925,42.203128 87.921925,42.476568 88.437525,43.007808 C88.953125,43.546878 89.218725,44.210938 89.218725,44.999998 C89.218725,45.796878 88.953125,46.460938 88.437525,46.992188 C87.921925,47.531288 87.296925,47.796888 86.578125,47.796888 C85.851525,47.796888 85.226525,47.531288 84.710925,46.992188 C84.195325,46.460938 83.937525,45.796878 83.937525,44.999998 Z M94.101525,49.796888 C93.812525,50.601588 93.328125,50.999988 92.648425,50.999988 C92.382825,50.999988 92.117225,50.945288 91.851525,50.835888 L91.851525,51.882788 L91.960925,51.914088 C92.039025,51.945288 92.164025,51.976588 92.320325,51.999988 C92.476525,52.031288 92.640625,52.039088 92.812525,52.039088 C93.367225,52.039088 93.828125,51.874988 94.195325,51.531288 C94.554725,51.187488 94.898425,50.609388 95.218725,49.796888 L98.742225,40.999998 L97.539025,40.999998 L95.062525,47.242188 L92.578125,40.999998 L91.375025,40.999998 L94.500025,48.679688 L94.101525,49.796888 Z M107.382825,47.640588 L106.179725,47.640588 L106.179725,40.999998 L100.906225,40.999998 L100.906225,43.242188 C100.906225,43.804688 100.851525,44.351568 100.757825,44.867188 C100.664025,45.382808 100.554725,45.796878 100.429725,46.109378 C100.304725,46.421878 100.171925,46.703088 100.015625,46.968788 C99.859325,47.234388 99.742225,47.406288 99.679725,47.484388 C99.617225,47.562488 99.570325,47.609388 99.539025,47.640588 L98.984325,47.640588 L98.984325,50.601588 L100.101525,50.601588 L100.101525,48.679688 L106.265625,48.679688 L106.265625,50.601588 L107.382825,50.601588 L107.382825,47.640588 Z M102.023425,42.039068 L105.062525,42.039068 L105.062525,47.640588 L100.742225,47.640588 L101.062525,47.195288 C101.273425,46.898488 101.484325,46.382808 101.695325,45.648438 C101.914025,44.921878 102.015625,44.117188 102.015625,43.242188 L102.023425,42.039068 Z M115.937525,45.257808 L116.015625,44.679688 C116.015625,43.570308 115.664025,42.656248 114.960925,41.929688 C114.257825,41.203128 113.382825,40.835938 112.335925,40.835938 C111.320325,40.835938 110.445325,41.226568 109.695325,42.007808 C108.945325,42.789068 108.578125,43.726568 108.578125,44.835938 C108.578125,45.945308 108.953125,46.890588 109.710925,47.671888 C110.460925,48.453088 111.367225,48.835888 112.414025,48.835888 C112.796925,48.835888 113.171925,48.781288 113.539025,48.664088 C113.906225,48.546888 114.203125,48.421888 114.437525,48.281288 C114.671925,48.140588 114.882825,47.984388 115.085925,47.804688 C115.289025,47.624988 115.414025,47.499988 115.476525,47.421888 C115.539025,47.343788 115.585925,47.289088 115.617225,47.242188 L114.898425,46.523438 L114.625025,46.835888 C114.453125,47.054688 114.156225,47.265588 113.750025,47.476588 C113.335925,47.695288 112.890625,47.796888 112.414025,47.796888 C111.695325,47.796888 111.078125,47.546888 110.546925,47.039088 C110.015625,46.539068 109.734325,45.937498 109.695325,45.242188 L115.937525,45.257808 Z M112.335925,41.882808 C113.007825,41.882808 113.578125,42.109378 114.054725,42.562498 C114.531225,43.015628 114.812525,43.593748 114.898425,44.281248 L109.695325,44.281248 C109.781225,43.632808 110.078125,43.070308 110.578125,42.593748 C111.078125,42.124998 111.664025,41.882808 112.335925,41.882808 Z M117.054725,42.039068 L119.773425,42.039068 L119.773425,48.679688 L120.890625,48.679688 L120.890625,42.039068 L123.609325,42.039068 L123.609325,40.999998 L117.054725,40.999998 L117.054725,42.039068 Z M36.757815,59.999988 L32.117185,65.757788 L32.117185,59.999988 L31,59.999988 L31,67.679688 L31.953125,67.679688 L36.593745,61.921888 L36.593745,67.679688 L37.718745,67.679688 L37.718745,59.999988 L36.757815,59.999988 Z M41.078125,59.999988 L41.078125,62.242188 C41.078125,63.499988 41.007825,64.468788 40.882825,65.148488 C40.757825,65.820288 40.601565,66.257788 40.414065,66.445288 C40.226565,66.632788 39.968745,66.726588 39.640625,66.726588 C39.421875,66.726588 39.210935,66.671888 39.000005,66.570288 L39.000005,67.687488 L39.109375,67.718788 C39.171875,67.749988 39.265625,67.773488 39.398435,67.804688 C39.531245,67.828088 39.664065,67.843788 39.796875,67.843788 C40.179685,67.843788 40.507815,67.765588 40.781225,67.609388 C41.046925,67.453088 41.296925,67.179688 41.523425,66.789088 C41.742225,66.398488 41.914025,65.820288 42.023425,65.070288 C42.132825,64.320288 42.195325,63.374988 42.195325,62.249988 L42.195325,61.046888 L45.554725,61.046888 L45.554725,67.687488 L46.679725,67.687488 L46.679725,60.007788 L41.078125,59.999988 Z M50.031225,59.999988 L50.031225,62.242188 C50.031225,63.499988 49.960925,64.468788 49.835925,65.148488 C49.710925,65.820288 49.554725,66.257788 49.367225,66.445288 C49.179725,66.632788 48.921925,66.726588 48.593725,66.726588 C48.375025,66.726588 48.164025,66.671888 47.953125,66.570288 L47.953125,67.687488 L48.062525,67.718788 C48.125025,67.749988 48.218725,67.773488 48.351525,67.804688 C48.484325,67.828088 48.617225,67.843788 48.750025,67.843788 C49.132825,67.843788 49.460925,67.765588 49.734325,67.609388 C50.000025,67.453088 50.250025,67.179688 50.476525,66.789088 C50.695325,66.398488 50.867225,65.820288 50.976525,65.070288 C51.085925,64.320288 51.148425,63.374988 51.148425,62.249988 L51.148425,61.046888 L54.507825,61.046888 L54.507825,67.687488 L55.632825,67.687488 L55.632825,60.007788 L50.031225,59.999988 Z M68.664025,63.835888 C68.664025,62.726588 68.281225,61.789088 67.531225,61.007788 C66.773425,60.226588 65.875025,59.835888 64.828125,59.835888 C63.843725,59.835888 62.984325,60.179688 62.265625,60.859388 C61.539025,61.539088 61.109325,62.343788 60.976525,63.281288 L59.296925,63.281288 L59.296925,59.999988 L58.179725,59.999988 L58.179725,67.679688 L59.296925,67.679688 L59.296925,64.320288 L60.976525,64.320288 C61.101525,65.304688 61.523425,66.132788 62.257825,66.812488 C62.992225,67.499988 63.843725,67.835888 64.820325,67.835888 C65.867225,67.835888 66.765625,67.453088 67.523425,66.671888 C68.281225,65.890588 68.664025,64.945288 68.664025,63.835888 Z M62.093725,63.843788 C62.093725,63.015588 62.367225,62.312488 62.906225,61.742188 C63.445325,61.171888 64.085925,60.882788 64.820325,60.882788 C65.554725,60.882788 66.195325,61.171888 66.734325,61.742188 C67.273425,62.312488 67.539025,63.015588 67.539025,63.843788 C67.539025,64.671888 67.273425,65.374988 66.734325,65.945288 C66.195325,66.515588 65.554725,66.796888 64.820325,66.796888 C64.085925,66.796888 63.445325,66.515588 62.906225,65.945288 C62.367225,65.374988 62.093725,64.671888 62.093725,63.843788 Z M70.109325,63.835888 C70.109325,64.945288 70.484325,65.890588 71.242225,66.671888 C71.992225,67.453088 72.898425,67.835888 73.945325,67.835888 C74.320325,67.835888 74.687525,67.781288 75.046925,67.664088 C75.406225,67.546888 75.703125,67.421888 75.929725,67.281288 C76.164025,67.140588 76.382825,66.984388 76.585925,66.804688 C76.796925,66.624988 76.937525,66.499988 77.000025,66.421888 C77.062525,66.343788 77.109325,66.289088 77.140625,66.242188 L76.343725,65.523488 L76.085925,65.835888 C75.906225,66.054688 75.617225,66.265588 75.218725,66.476588 C74.812525,66.695288 74.390625,66.796888 73.945325,66.796888 C73.210925,66.796888 72.570325,66.515588 72.031225,65.945288 C71.492225,65.374988 71.226525,64.671888 71.226525,63.843788 C71.226525,63.015588 71.492225,62.312488 72.031225,61.742188 C72.570325,61.171888 73.210925,60.882788 73.945325,60.882788 C74.234325,60.882788 74.515625,60.929688 74.781225,61.015588 C75.046925,61.109388 75.257825,61.210888 75.429725,61.320288 C75.593725,61.429688 75.750025,61.562488 75.890625,61.710888 C76.031225,61.867188 76.125025,61.968788 76.164025,62.023488 C76.210925,62.085888 76.242225,62.124988 76.257825,62.156288 L77.062525,61.359388 L76.726525,60.992188 C76.507825,60.742188 76.132825,60.484388 75.617225,60.226588 C75.101525,59.968788 74.539025,59.835888 73.937525,59.835888 C72.898425,59.835888 72.000025,60.226588 71.242225,61.007788 C70.484325,61.789088 70.109325,62.726588 70.109325,63.835888 Z M77.945325,61.039088 L80.664025,61.039088 L80.664025,67.679688 L81.781225,67.679688 L81.781225,61.039088 L84.500025,61.039088 L84.500025,59.999988 L77.945325,59.999988 L77.945325,61.039088 Z M87.226525,63.843788 C87.226525,63.054688 87.500025,62.367188 88.062525,61.773488 C88.625025,61.179688 89.250025,60.882788 89.945325,60.882788 C90.601525,60.882788 91.195325,61.171888 91.718725,61.749988 C92.242225,62.328088 92.507825,63.023488 92.507825,63.843788 C92.507825,64.664088 92.242225,65.359388 91.718725,65.937488 C91.195325,66.515588 90.601525,66.796888 89.945325,66.796888 C89.250025,66.796888 88.625025,66.507788 88.062525,65.914088 C87.500025,65.320288 87.226525,64.632788 87.226525,63.843788 Z M87.226525,66.476588 L87.335925,66.624988 C87.414025,66.718788 87.523425,66.835888 87.679725,66.968788 C87.835925,67.101588 88.015625,67.234388 88.226525,67.359388 C88.429725,67.492188 88.687525,67.601588 88.992225,67.695288 C89.296925,67.789088 89.617225,67.835888 89.945325,67.835888 C90.929725,67.835888 91.789025,67.445288 92.523425,66.664088 C93.257825,65.882788 93.625025,64.937488 93.625025,63.843788 C93.625025,62.749988 93.250025,61.804688 92.515625,61.023488 C91.781225,60.234388 90.921925,59.843788 89.945325,59.843788 C89.617225,59.843788 89.296925,59.890588 88.984325,59.984388 C88.671925,60.078088 88.421925,60.187488 88.226525,60.312488 C88.023425,60.437488 87.843725,60.578088 87.671925,60.734388 C87.500025,60.890588 87.390625,60.999988 87.335925,61.062488 C87.281225,61.124988 87.242225,61.179688 87.226525,61.210888 L87.226525,60.007788 L86.109325,60.007788 L86.109325,71.046888 L87.226525,71.046888 L87.226525,66.476588 Z M97.304725,63.281288 C96.578125,63.406288 96.023425,63.664088 95.640625,64.054688 C95.250025,64.445288 95.062525,64.960888 95.062525,65.601588 C95.062525,66.187488 95.320325,66.703088 95.843725,67.156288 C96.367225,67.609388 97.015625,67.835888 97.781225,67.835888 C98.085925,67.835888 98.382825,67.796888 98.671925,67.710888 C98.960925,67.632788 99.195325,67.539088 99.375025,67.429688 C99.546925,67.320288 99.710925,67.203088 99.867225,67.062488 C100.023425,66.921888 100.117225,66.828088 100.164025,66.773488 C100.210925,66.718788 100.242225,66.671888 100.265625,66.640588 L100.265625,67.679688 L101.382825,67.679688 L101.382825,62.796888 C101.382825,61.960888 101.093725,61.257788 100.515625,60.687488 C99.937525,60.124988 99.218725,59.835888 98.343725,59.835888 C98.000025,59.835888 97.656225,59.890588 97.328125,59.992188 C97.000025,60.093788 96.734325,60.210888 96.531225,60.335888 C96.328125,60.468788 96.132825,60.617188 95.945325,60.781288 C95.757825,60.945288 95.640625,61.062488 95.585925,61.124988 C95.531225,61.187488 95.492225,61.242188 95.460925,61.281288 L96.179725,61.999988 L96.421925,61.726588 C96.578125,61.539088 96.835925,61.351588 97.195325,61.164088 C97.554725,60.976588 97.937525,60.882788 98.343725,60.882788 C98.906225,60.882788 99.367225,61.062488 99.726525,61.414088 C100.085925,61.773488 100.265625,62.234388 100.265625,62.796888 L97.304725,63.281288 Z M97.781225,66.796888 C97.281225,66.796888 96.882825,66.687488 96.601525,66.460888 C96.320325,66.234388 96.179725,65.945288 96.179725,65.601588 C96.179725,64.882788 96.664025,64.429688 97.625025,64.242188 L100.265625,63.757788 L100.265625,64.242188 C100.265625,64.999988 100.031225,65.617188 99.562525,66.085888 C99.093725,66.562488 98.500025,66.796888 97.781225,66.796888 Z M103.937525,67.679688 L110.492225,67.679688 L110.492225,69.601588 L111.617225,69.601588 L111.617225,66.640588 L110.414025,66.640588 L110.414025,59.999988 L109.296925,59.999988 L109.296925,66.640588 L105.054725,66.640588 L105.054725,59.999988 L103.937525,59.999988 L103.937525,67.679688 Z M119.132825,59.999988 L114.492225,65.757788 L114.492225,59.999988 L113.375025,59.999988 L113.375025,67.679688 L114.328125,67.679688 L118.968725,61.921888 L118.968725,67.679688 L120.093725,67.679688 L120.093725,59.999988 L119.132825,59.999988 Z M122.171925,62.562488 C122.171925,62.929688 122.226525,63.257788 122.343725,63.546888 C122.460925,63.828088 122.585925,64.054688 122.726525,64.210888 C122.867225,64.367188 123.023425,64.507788 123.210925,64.617188 C123.390625,64.726588 123.515625,64.796888 123.593725,64.828088 C123.671925,64.859388 123.726525,64.874988 123.773425,64.882788 L122.015625,67.679688 L123.296925,67.679688 L124.890625,65.117188 L127.132825,65.117188 L127.132825,67.679688 L128.250025,67.679688 L128.250025,59.999988 L124.976525,59.999988 C124.140625,59.999988 123.460925,60.249988 122.945325,60.734388 C122.429725,61.218788 122.171925,61.828088 122.171925,62.562488 Z M127.132825,61.039088 L127.132825,64.078088 L124.976525,64.078088 C124.460925,64.078088 124.046925,63.937488 123.750025,63.656288 C123.445325,63.374988 123.296925,63.015588 123.296925,62.562488 C123.296925,62.117188 123.445325,61.749988 123.750025,61.468788 C124.054725,61.187488 124.460925,61.046888 124.976525,61.046888 L127.132825,61.039088 Z" id="Shape" fill="#000000" fill-rule="nonzero"></path>
        </g>
    </g>
</svg>