<?xml version="1.0" encoding="UTF-8"?>
<svg width="48px" height="48px" viewBox="0 0 48 48" version="1.1" xmlns="http://www.w3.org/2000/svg" xmlns:xlink="http://www.w3.org/1999/xlink">
    <!-- Generator: Sketch 53.2 (72643) - https://sketchapp.com -->
    <title>icon-instagram</title>
    <desc>Created with Sketch.</desc>
    <defs>
        <radialGradient cx="26.5626266%" cy="107.702106%" fx="26.5626266%" fy="107.702106%" r="99.107386%" id="radialGradient-1">
            <stop stop-color="#FFDD55" offset="0%"></stop>
            <stop stop-color="#FFDD55" offset="10%"></stop>
            <stop stop-color="#FF543E" offset="50%"></stop>
            <stop stop-color="#C837AB" offset="100%"></stop>
        </radialGradient>
        <radialGradient cx="-16.7505274%" cy="7.20383154%" fx="-16.7505274%" fy="7.20383154%" r="44.3014085%" id="radialGradient-2">
            <stop stop-color="#3771C8" offset="0%"></stop>
            <stop stop-color="#3771C8" offset="12.8%"></stop>
            <stop stop-color="#6600FF" stop-opacity="0" offset="100%"></stop>
        </radialGradient>
    </defs>
    <g id="Page-1" stroke="none" stroke-width="1" fill="none" fill-rule="evenodd">
        <g id="icon-instagram" fill-rule="nonzero">
            <rect id="Rectangle" fill="url(#radialGradient-1)" x="0" y="0" width="48" height="48" rx="24"></rect>
            <rect id="Rectangle" fill="url(#radialGradient-2)" x="0" y="0" width="48" height="48" rx="24"></rect>
            <path d="M24.0013714,7.54285714 C19.5318857,7.54285714 18.9709714,7.5624 17.2155429,7.64228571 C15.4635429,7.72251429 14.2676571,7.99988571 13.2212571,8.40685714 C12.1388571,8.8272 11.2206857,9.38948571 10.3059429,10.3045714 C9.39051429,11.2193143 8.82822857,12.1374857 8.40651429,13.2195429 C7.99851429,14.2662857 7.7208,15.4625143 7.64194286,17.2138286 C7.56342857,18.9692571 7.54285714,19.5305143 7.54285714,24 C7.54285714,28.4694857 7.56274286,29.0286857 7.64228571,30.7841143 C7.72285714,32.5361143 8.00022857,33.732 8.40685714,34.7784 C8.82754286,35.8608 9.38982857,36.7789714 10.3049143,37.6937143 C11.2193143,38.6091429 12.1374857,39.1728 13.2192,39.5931429 C14.2662857,40.0001143 15.4625143,40.2774857 17.2141714,40.3577143 C18.9696,40.4376 19.5301714,40.4571429 23.9993143,40.4571429 C28.4691429,40.4571429 29.0283429,40.4376 30.7837714,40.3577143 C32.5357714,40.2774857 33.7330286,40.0001143 34.7801143,39.5931429 C35.8621714,39.1728 36.7789714,38.6091429 37.6933714,37.6937143 C38.6088,36.7789714 39.1710857,35.8608 39.5928,34.7787429 C39.9973714,33.732 40.2750857,32.5357714 40.3573714,30.7844571 C40.4362286,29.0290286 40.4568,28.4694857 40.4568,24 C40.4568,19.5305143 40.4362286,18.9696 40.3573714,17.2141714 C40.2750857,15.4621714 39.9973714,14.2662857 39.5928,13.2198857 C39.1710857,12.1374857 38.6088,11.2193143 37.6933714,10.3045714 C36.7779429,9.38914286 35.8625143,8.82685714 34.7790857,8.40685714 C33.7299429,7.99988571 32.5333714,7.72251429 30.7813714,7.64228571 C29.0259429,7.5624 28.4670857,7.54285714 23.9962286,7.54285714 L24.0013714,7.54285714 Z M22.5250286,10.5085714 C22.9632,10.5078857 23.4521143,10.5085714 24.0013714,10.5085714 C28.3954286,10.5085714 28.9162286,10.5243429 30.6514286,10.6032 C32.256,10.6765714 33.1268571,10.9446857 33.7069714,11.1699429 C34.4749714,11.4682286 35.0225143,11.8248 35.5981714,12.4008 C36.1741714,12.9768 36.5307429,13.5253714 36.8297143,14.2933714 C37.0549714,14.8728 37.3234286,15.7436571 37.3964571,17.3482286 C37.4753143,19.0830857 37.4924571,19.6042286 37.4924571,23.9962286 C37.4924571,28.3882286 37.4753143,28.9093714 37.3964571,30.6442286 C37.3230857,32.2488 37.0549714,33.1196571 36.8297143,33.6990857 C36.5314286,34.4670857 36.1741714,35.0139429 35.5981714,35.5896 C35.0221714,36.1656 34.4753143,36.5221714 33.7069714,36.8204571 C33.1275429,37.0467429 32.256,37.3141714 30.6514286,37.3875429 C28.9165714,37.4664 28.3954286,37.4835429 24.0013714,37.4835429 C19.6069714,37.4835429 19.0861714,37.4664 17.3513143,37.3875429 C15.7467429,37.3134857 14.8758857,37.0453714 14.2954286,36.8201143 C13.5274286,36.5218286 12.9788571,36.1652571 12.4028571,35.5892571 C11.8268571,35.0132571 11.4702857,34.4660571 11.1713143,33.6977143 C10.9460571,33.1182857 10.6776,32.2474286 10.6045714,30.6428571 C10.5257143,28.908 10.5099429,28.3868571 10.5099429,23.9921143 C10.5099429,19.5973714 10.5257143,19.0789714 10.6045714,17.3441143 C10.6779429,15.7395429 10.9460571,14.8686857 11.1713143,14.2885714 C11.4696,13.5205714 11.8268571,12.972 12.4028571,12.396 C12.9788571,11.82 13.5274286,11.4634286 14.2954286,11.1644571 C14.8755429,10.9381714 15.7467429,10.6707429 17.3513143,10.5970286 C18.8694857,10.5284571 19.4578286,10.5078857 22.5250286,10.5044571 L22.5250286,10.5085714 Z M32.7860571,13.2411429 C31.6957714,13.2411429 30.8112,14.1246857 30.8112,15.2153143 C30.8112,16.3056 31.6957714,17.1901714 32.7860571,17.1901714 C33.8763429,17.1901714 34.7609143,16.3056 34.7609143,15.2153143 C34.7609143,14.1250286 33.8763429,13.2404571 32.7860571,13.2404571 L32.7860571,13.2411429 Z M24.0013714,15.5485714 C19.3340571,15.5485714 15.5499429,19.3326857 15.5499429,24 C15.5499429,28.6673143 19.3340571,32.4497143 24.0013714,32.4497143 C28.6686857,32.4497143 32.4514286,28.6673143 32.4514286,24 C32.4514286,19.3326857 28.6683429,15.5485714 24.0010286,15.5485714 L24.0013714,15.5485714 Z M24.0013714,18.5142857 C27.0308571,18.5142857 29.4870857,20.9701714 29.4870857,24 C29.4870857,27.0294857 27.0308571,29.4857143 24.0013714,29.4857143 C20.9715429,29.4857143 18.5156571,27.0294857 18.5156571,24 C18.5156571,20.9701714 20.9715429,18.5142857 24.0013714,18.5142857 Z" id="Shape" fill="#FFFFFF"></path>
        </g>
    </g>
</svg>