<svg width="23" height="23" viewBox="0 0 23 23" fill="none" xmlns="http://www.w3.org/2000/svg">
<path d="M14.8341 13.3325C15.3639 11.8106 15.8617 10.2024 16.3274 8.50766C16.3611 8.38494 16.3714 8.25684 16.3578 8.13005C16.2978 7.57173 15.7973 7.16534 15.2399 7.22234C13.4105 7.40941 11.7155 7.63842 10.1547 7.90932C8.23525 8.24247 5.94787 8.85187 3.2942 9.73778L9.27614 13.1024C9.34751 13.1426 9.4021 13.2071 9.42985 13.2842L11.7872 19.8296C13.1571 17.3985 14.1727 15.2323 14.8341 13.3325Z" fill="#2E375F"/>
<path d="M8.83642 13.6302L2.96517 10.3278C2.63855 10.1441 2.52113 9.73094 2.7029 9.405C2.78459 9.25851 2.91795 9.14797 3.07705 9.09485C5.76051 8.199 8.07951 7.58117 10.0357 7.24165C11.6125 6.96796 13.3231 6.73684 15.1676 6.54823C16.0967 6.45323 16.9309 7.13055 17.0308 8.06108C17.0535 8.2724 17.0363 8.4859 16.9801 8.69043C16.5105 10.3994 16.0083 12.022 15.4734 13.5583C14.7976 15.4994 13.7655 17.701 12.3772 20.1646C12.194 20.4898 11.7813 20.6032 11.4555 20.4181C11.314 20.3377 11.2059 20.2092 11.1507 20.0561L8.83642 13.6302Z" fill="#2E375F"/>
<path d="M16.7019 7.54216L9.00125 14.0456C8.51233 14.4586 7.96012 13.8064 8.44904 13.3935L16.1497 6.89004C16.6386 6.47713 17.1908 7.12924 16.7019 7.54216Z" fill="white"/>
</svg>
