<?xml version="1.0" encoding="UTF-8"?>
<svg width="48px" height="48px" viewBox="0 0 48 48" version="1.1" xmlns="http://www.w3.org/2000/svg" xmlns:xlink="http://www.w3.org/1999/xlink">
    <!-- Generator: Sketch 53.2 (72643) - https://sketchapp.com -->
    <title>icon-telegram</title>
    <desc>Created with Sketch.</desc>
    <g id="Page-1" stroke="none" stroke-width="1" fill="none" fill-rule="evenodd">
        <g id="icon-telegram">
            <rect id="Rectangle" fill="#419FD9" fill-rule="nonzero" x="0" y="0" width="48" height="48" rx="24"></rect>
            <path d="M29.3353143,35.8844571 C31.0129143,36.6184 31.6419429,35.0806857 31.6419429,35.0806857 L36.0803429,12.7837714 C36.0453714,11.2810057 34.0184,12.1896 34.0184,12.1896 L9.17029714,21.9402286 C9.17029714,21.9402286 7.98206857,22.3595429 8.08691429,23.0934857 C8.19174857,23.8274286 9.13534857,24.1769143 9.13534857,24.1769143 L15.3910857,26.2737143 C15.3910857,26.2737143 17.2782857,32.4595429 17.6627429,33.6477714 C18.0122286,34.8011429 18.3267429,34.836 18.3267429,34.836 C18.6762286,34.9758857 18.9907429,34.7312 18.9907429,34.7312 L23.0446857,31.0616 L29.3353143,35.8844571 Z M30.4187429,16.7330286 C30.4187429,16.7330286 31.2924571,16.2088 31.2574857,16.7330286 C31.2574857,16.7330286 31.3972571,16.8029714 30.9429714,17.2922286 C30.5235429,17.7116571 20.6332571,26.5884571 19.3052571,27.7766857 C19.2003429,27.8465143 19.1305143,27.9514286 19.1305143,28.0912 L18.7460571,31.3763429 C18.6761143,31.7258286 18.2218286,31.7608 18.1170286,31.4461714 L16.4744,26.0642286 C16.4045714,25.8545143 16.4744,25.6098286 16.6841143,25.4700571 L30.4187429,16.7330286 Z" id="Shape" fill="#FFFFFF"></path>
        </g>
    </g>
</svg>