<svg width="49" height="48" viewBox="0 0 49 48" fill="none" xmlns="http://www.w3.org/2000/svg">
<rect x="0.475342" width="48" height="48" rx="24" fill="#EE8208"/>
<path d="M24.4751 12.8402C26.3608 12.8402 27.8946 14.374 27.8946 16.2596C27.8946 18.1436 26.3604 19.6774 24.4751 19.6774C22.5907 19.6774 21.0565 18.1436 21.0565 16.2596C21.0561 14.3736 22.5911 12.8402 24.4751 12.8402ZM24.4751 24.5152C29.0299 24.5152 32.7339 20.8124 32.7339 16.2596C32.7339 11.7044 29.0303 8 24.4751 8C19.9208 8 16.2163 11.7048 16.2163 16.2596C16.2163 20.8124 19.9208 24.5152 24.4751 24.5152ZM27.8163 31.2517C29.5153 30.8648 31.1366 30.1934 32.6118 29.266C33.1549 28.9244 33.54 28.3809 33.6824 27.7553C33.8248 27.1297 33.7129 26.4731 33.3712 25.93C33.2022 25.6609 32.9818 25.4276 32.7226 25.2437C32.4634 25.0598 32.1705 24.9287 31.8606 24.8581C31.5508 24.7875 31.23 24.7786 30.9167 24.832C30.6034 24.8855 30.3037 25.0001 30.0348 25.1695C26.6513 27.2966 22.2966 27.295 18.9159 25.1695C18.647 25.0001 18.3473 24.8854 18.0341 24.8319C17.7208 24.7785 17.4 24.7873 17.0902 24.858C16.7803 24.9286 16.4875 25.0597 16.2283 25.2436C15.9691 25.4276 15.7488 25.6608 15.5799 25.93C15.2381 26.473 15.126 27.1294 15.2682 27.755C15.4104 28.3807 15.7952 28.9242 16.3381 29.266C17.8132 30.1931 19.4342 30.8644 21.1328 31.2517L16.516 35.8693C16.0623 36.3232 15.8075 36.9387 15.8076 37.5804C15.8077 38.2222 16.0627 38.8376 16.5166 39.2913C16.9704 39.745 17.586 39.9998 18.2277 39.9997C18.8695 39.9996 19.4849 39.7446 19.9386 39.2907L24.4744 34.7541L29.0129 39.2911C29.2373 39.5158 29.5038 39.6941 29.7972 39.8157C30.0906 39.9374 30.405 40 30.7226 40C31.0402 40 31.3547 39.9374 31.648 39.8157C31.9414 39.6941 32.2079 39.5158 32.4323 39.2911C32.6574 39.0667 32.836 38.8001 32.9578 38.5066C33.0796 38.2131 33.1424 37.8984 33.1424 37.5806C33.1424 37.2628 33.0796 36.9481 32.9578 36.6546C32.836 36.361 32.6574 36.0945 32.4323 35.8701L27.8163 31.2517Z" fill="white"/>
</svg>
