<svg width="20" height="14" viewBox="0 0 20 14" fill="none" xmlns="http://www.w3.org/2000/svg">
<path fill-rule="evenodd" clip-rule="evenodd" d="M0.545759 1.4979C0.270774 1.52316 0.0273821 1.32071 0.00212794 1.04573C-0.0231263 0.770742 0.179321 0.52735 0.454306 0.502095C4.09813 0.167452 7.27428 0 9.98379 0C12.6932 0 15.8801 0.167444 19.5455 0.502071C19.8205 0.527176 20.0231 0.770459 19.998 1.04546C19.9729 1.32046 19.7296 1.52304 19.4546 1.49793C15.8175 1.16589 12.6602 1 9.98379 1C7.30741 1 4.16106 1.16588 0.545759 1.4979ZM19.4546 12.502C19.7296 12.4769 19.9729 12.6795 19.998 12.9545C20.0231 13.2295 19.8205 13.4728 19.5455 13.4979C15.8801 13.8325 12.6932 14 9.98379 14C7.27428 14 4.09813 13.8325 0.454306 13.4979C0.179321 13.4726 -0.0231263 13.2292 0.00212794 12.9542C0.0273821 12.6793 0.270774 12.4768 0.545759 12.5021C4.16106 12.8341 7.30741 13 9.98379 13C12.6602 13 15.8175 12.8341 19.4546 12.502ZM3.469e-05 7C3.469e-05 7.27614 0.223892 7.5 0.500035 7.5H19.4993C19.7755 7.5 19.9993 7.27614 19.9993 7C19.9993 6.72386 19.7755 6.5 19.4993 6.5H0.500035C0.223892 6.5 3.469e-05 6.72386 3.469e-05 7Z" fill="#BC3356"/>
</svg>
