<svg width="49" height="48" viewBox="0 0 49 48" fill="none" xmlns="http://www.w3.org/2000/svg">
<g id="YouTube" clip-path="url(#clip0)">
<g id="YouTube_2">
<rect id="Rectangle" x="0.755615" width="48" height="48" rx="24" fill="#FF0000"/>
<path id="Exclude" fill-rule="evenodd" clip-rule="evenodd" d="M36.4936 14.1405C37.7786 14.4865 38.7917 15.4997 39.1377 16.7847C39.7802 19.1323 39.7555 24.0252 39.7555 24.0252C39.7555 24.0252 39.7555 28.8934 39.1377 31.241C38.7917 32.526 37.7786 33.5391 36.4936 33.8851C34.146 34.5029 24.7556 34.5029 24.7556 34.5029C24.7556 34.5029 15.3899 34.5029 13.0175 33.8604C11.7325 33.5144 10.7194 32.5013 10.3734 31.2163C9.75562 28.8934 9.75562 24.0005 9.75562 24.0005C9.75562 24.0005 9.75562 19.1323 10.3734 16.7847C10.7194 15.4997 11.7573 14.4618 13.0175 14.1158C15.3651 13.498 24.7556 13.498 24.7556 13.498C24.7556 13.498 34.146 13.498 36.4936 14.1405ZM29.5743 24.0005L21.7654 28.498V19.503L29.5743 24.0005Z" fill="white"/>
</g>
</g>
<defs>
<clipPath id="clip0">
<rect width="48" height="48" fill="white" transform="translate(0.755615)"/>
</clipPath>
</defs>
</svg>
