<?xml version="1.0" encoding="UTF-8"?>
<svg width="48px" height="48px" viewBox="0 0 48 48" version="1.1" xmlns="http://www.w3.org/2000/svg" xmlns:xlink="http://www.w3.org/1999/xlink">
    <!-- Generator: Sketch 53.2 (72643) - https://sketchapp.com -->
    <title>vk</title>
    <desc>Created with Sketch.</desc>
    <g id="Page-1" stroke="none" stroke-width="1" fill="none" fill-rule="evenodd">
        <g id="vk">
            <circle id="XMLID_11_" fill="#4D76A1" fill-rule="nonzero" cx="23.8292389" cy="23.8292389" r="23.8292389"></circle>
            <path d="M22.9291327,34.2804956 L24.7994336,34.2804956 C24.7994336,34.2804956 25.3643894,34.2184779 25.6528142,33.9075398 C25.9183009,33.6220885 25.9098053,33.0860177 25.9098053,33.0860177 C25.9098053,33.0860177 25.8732743,30.5764248 27.0380177,30.2068673 C28.1861947,29.8428319 29.6606018,32.632354 31.2233628,33.7049204 C32.4050973,34.5166726 33.3030796,34.3386903 33.3030796,34.3386903 L37.4816283,34.2804956 C37.4816283,34.2804956 39.6675398,34.1458407 38.6310796,32.4271858 C38.5461239,32.2865841 38.027469,31.155823 35.5242478,28.8322832 C32.9042124,26.4004248 33.2550796,26.7937699 36.4111858,22.5871858 C38.3333097,20.0253451 39.1017345,18.4613097 38.8617345,17.7914336 C38.6327788,17.1534159 37.219115,17.3220531 37.219115,17.3220531 L32.5142655,17.3513628 C32.5142655,17.3513628 32.1655221,17.3037876 31.9068319,17.4584071 C31.6540885,17.6100531 31.4913982,17.963469 31.4913982,17.963469 C31.4913982,17.963469 30.7467611,19.9459115 29.7536283,21.6318584 C27.6586195,25.1893805 26.8209558,25.3771327 26.4785841,25.1562478 C25.6821239,24.6414159 25.8809204,23.088 25.8809204,21.9844248 C25.8809204,18.5369204 26.403823,17.099469 24.8627257,16.7273628 C24.351292,16.6037522 23.9749381,16.5221947 22.6670442,16.5090265 C20.9883186,16.4916106 19.5674336,16.5141239 18.7629027,16.9083186 C18.2276814,17.1704071 17.8147965,17.7544779 18.0662655,17.7880354 C18.3772035,17.8296637 19.0814867,17.9779115 19.4548673,18.4863717 C19.9369912,19.1422301 19.92,20.6153628 19.92,20.6153628 C19.92,20.6153628 20.1969558,24.6736991 19.2730619,25.1779115 C18.6388673,25.5236814 17.7689204,24.8176991 15.9011681,21.5902301 C14.9441416,19.9369912 14.2215929,18.1095929 14.2215929,18.1095929 C14.2215929,18.1095929 14.0822655,17.7680708 13.8337699,17.5854159 C13.532177,17.3641062 13.1107965,17.2935929 13.1107965,17.2935929 L8.64,17.3229027 C8.64,17.3229027 7.96884956,17.3415929 7.72247788,17.6334159 C7.50329204,17.8929558 7.70506195,18.4298761 7.70506195,18.4298761 C7.70506195,18.4298761 11.2052389,26.6187611 15.1684248,30.7454867 C18.8024071,34.5289912 22.9291327,34.2804956 22.9291327,34.2804956 L22.9291327,34.2804956 Z" id="Path" fill="#FFFFFF"></path>
        </g>
    </g>
</svg>