<?xml version="1.0" encoding="UTF-8"?>
<svg width="12px" height="13px" viewBox="0 0 12 13" version="1.1" xmlns="http://www.w3.org/2000/svg" xmlns:xlink="http://www.w3.org/1999/xlink">
    <!-- Generator: Sketch 53.2 (72643) - https://sketchapp.com -->
    <title>icon-play</title>
    <desc>Created with Sketch.</desc>
    <g id="Page-1" stroke="none" stroke-width="1" fill="none" fill-rule="evenodd">
        <path d="M11.4951143,7.41657989 C11.6271479,7.33243938 11.7394254,7.22131114 11.824416,7.09065409 C12.1536198,6.58476487 12.0064268,5.9103331 11.4957011,5.584262 C9.805964,4.50554701 8.11632468,3.49133716 6.42687119,2.54161307 C4.8256944,1.64150533 3.28143878,0.831253384 1.79416301,0.110840748 C1.66523951,0.0483950477 1.52523495,0.0115315094 1.38202247,0.00232700691 C0.775635992,-0.0366492466 0.252156859,0.418640395 0.212803011,1.01924726 C0.070896194,3.18508548 0,5.01319925 0,6.50275549 C-9.78026928e-07,7.99099431 0.0707710065,9.81719007 0.212425493,11.9804709 C0.221721639,12.1224811 0.258993267,12.2612945 0.322144466,12.3890648 C0.589282741,12.9296913 1.24829685,13.1533621 1.79409455,12.8888126 C3.33980743,12.13953 4.88567679,11.3302855 6.43170264,10.4611759 C8.05638141,9.54789396 9.74425051,8.53300602 11.4951143,7.41657989 Z" id="icon-play" fill="#BC3356" fill-rule="nonzero"></path>
    </g>
</svg>