<svg width="24" height="16" viewBox="0 0 24 16" fill="none" xmlns="http://www.w3.org/2000/svg">
<path d="M21.9109 7.53744C21.9192 7.54563 21.9271 7.55399 21.9348 7.5625H12.8941C12.8894 7.56239 12.8847 7.56233 12.88 7.56233H1.44C0.853334 7.56233 0.853334 8.43733 1.44 8.43733H7.58768C7.5918 8.43744 7.59593 8.4375 7.60008 8.4375H21.9369C21.9284 8.44693 21.9196 8.45619 21.9105 8.46524L16.0889 14.2531C15.9171 14.424 15.9171 14.701 16.0889 14.8718C16.2607 15.0427 16.5393 15.0427 16.7112 14.8719L22.5327 9.08401C22.7985 8.8198 22.9469 8.48299 22.9778 8.13773C22.9922 8.09442 23 8.04812 23 8C23 7.95157 22.9921 7.90497 22.9775 7.86143C22.946 7.51772 22.7981 7.18256 22.5337 6.91924L16.7202 1.12842C16.5485 0.95741 16.2699 0.957163 16.0979 1.12787C15.9259 1.29857 15.9257 1.57558 16.0973 1.74658L21.9109 7.53744Z" fill="#BC3356" stroke="#BC3356" stroke-width="0.5"/>
</svg>
