<svg width="9" height="13" viewBox="0 0 9 13" fill="none" xmlns="http://www.w3.org/2000/svg">
<path fill-rule="evenodd" clip-rule="evenodd" d="M0.124316 1.10276C-0.0222603 1.24908 -0.0224714 1.48652 0.123845 1.63309L5.07862 6.59668C5.29803 6.81645 5.29786 7.1724 5.07827 7.39194L0.116685 12.353C-0.0297693 12.4994 -0.0297821 12.7369 0.116657 12.8833C0.263095 13.0298 0.500532 13.0298 0.646987 12.8833L5.60854 7.92232C6.12092 7.41009 6.12131 6.57953 5.6094 6.0668L0.654646 1.10323C0.50833 0.956658 0.270893 0.956447 0.124316 1.10276ZM3.49933 1.47777C3.35275 1.62407 3.35252 1.86151 3.49883 2.00809L8.0786 6.59668C8.298 6.81645 8.29782 7.17239 8.07823 7.39192L3.49168 11.978C3.34523 12.1244 3.34522 12.3619 3.49166 12.5083C3.6381 12.6548 3.87553 12.6548 4.02199 12.5084L8.60851 7.9223C9.12086 7.4101 9.12128 6.57958 8.60942 6.06683L4.02966 1.47827C3.88336 1.33169 3.64592 1.33146 3.49933 1.47777Z" fill="#BC3356"/>
</svg>
