<svg xmlns="http://www.w3.org/2000/svg" xmlns:xlink="http://www.w3.org/1999/xlink"><defs><radialGradient cx="26.563%" cy="107.702%" fx="26.563%" fy="107.702%" r="99.107%" id="a"><stop stop-color="#FD5" offset="0%"/><stop stop-color="#FD5" offset="10%"/><stop stop-color="#FF543E" offset="50%"/><stop stop-color="#C837AB" offset="100%"/></radialGradient><radialGradient cx="-16.751%" cy="7.204%" fx="-16.751%" fy="7.204%" r="44.301%" id="b"><stop stop-color="#3771C8" offset="0%"/><stop stop-color="#3771C8" offset="12.8%"/><stop stop-color="#60F" stop-opacity="0" offset="100%"/></radialGradient><clipPath id="clip0"><path fill="#fff" transform="translate(.756)" d="M0 0h48v48H0z"/></clipPath></defs><symbol id="icon-accordion-arrow" viewBox="0 0 20 10"><path d="M18.349.693a.583.583 0 11.824.825l-7.721 7.708a2.042 2.042 0 01-2.887-.001L.848 1.507a.583.583 0 01.825-.825L9.39 8.4a.875.875 0 001.237 0L18.35.693z" fill="#0B1544"/></symbol><symbol id="icon-burger" viewBox="0 0 20 14"><path fill-rule="evenodd" clip-rule="evenodd" d="M.546 1.498A.5.5 0 11.454.502C4.098.167 7.274 0 9.984 0c2.71 0 5.896.167 9.562.502a.5.5 0 01-.091.996C15.818 1.166 12.66 1 9.984 1c-2.677 0-5.823.166-9.438.498zm18.909 11.004a.5.5 0 01.09.996c-3.665.335-6.852.502-9.561.502-2.71 0-5.886-.168-9.53-.502a.5.5 0 01.092-.996c3.615.332 6.761.498 9.438.498 2.676 0 5.834-.166 9.47-.498zM0 7a.5.5 0 00.5.5h19a.5.5 0 100-1H.5A.5.5 0 000 7z" fill="#BC3356"/></symbol><symbol id="icon-close" viewBox="0 0 14 14"><path d="M14.19 1.41L12.78 0 7.19 5.59 1.6 0 .19 1.41 5.78 7 .19 12.59 1.6 14l5.59-5.59L12.78 14l1.41-1.41L8.6 7l5.59-5.59z" fill="#150045"/></symbol><symbol id="icon-facebook" viewBox="0 0 48 48"><rect width="48" height="48" rx="24" fill="#4267B2"/><path d="M26.136 40.834V25.933h5.001l.75-5.807h-5.751v-3.708c0-1.681.467-2.827 2.878-2.827l3.075-.002V8.396c-.532-.071-2.357-.229-4.481-.229-4.434 0-7.469 2.706-7.469 7.676v4.283h-5.014v5.807h5.014v14.9h5.997z" fill="#fff"/></symbol><symbol id="icon-instagram" viewBox="0 0 48 48"><g fill-rule="nonzero" fill="none"><rect fill="url(#a)" width="48" height="48" rx="24"/><rect fill="url(#b)" width="48" height="48" rx="24"/><path d="M24.001 7.543c-4.47 0-5.03.02-6.785.1-1.752.08-2.948.357-3.995.764-1.082.42-2 .982-2.915 1.898a8.079 8.079 0 00-1.9 2.915c-.407 1.046-.685 2.243-.764 3.994-.079 1.755-.1 2.317-.1 6.786 0 4.47.02 5.029.1 6.784.08 1.752.358 2.948.765 3.994.42 1.083.983 2.001 1.898 2.916a8.058 8.058 0 002.914 1.9c1.047.406 2.244.683 3.995.764 1.756.08 2.316.1 6.785.1 4.47 0 5.03-.02 6.785-.1 1.752-.08 2.949-.358 3.996-.765a8.052 8.052 0 002.913-1.9 8.079 8.079 0 001.9-2.914c.404-1.047.682-2.243.764-3.995.08-1.755.1-2.315.1-6.784 0-4.47-.02-5.03-.1-6.786-.082-1.752-.36-2.948-.764-3.994a8.077 8.077 0 00-1.9-2.915 8.043 8.043 0 00-2.914-1.898c-1.05-.407-2.246-.684-3.998-.765-1.755-.08-2.314-.1-6.785-.1h.005zm-1.476 2.966h1.476c4.394 0 4.915.015 6.65.094 1.605.074 2.476.342 3.056.567a5.09 5.09 0 011.891 1.23 5.107 5.107 0 011.232 1.893c.225.58.493 1.45.566 3.055.08 1.735.096 2.256.096 6.648 0 4.392-.017 4.913-.096 6.648-.073 1.605-.341 2.476-.566 3.055a5.088 5.088 0 01-1.232 1.89 5.09 5.09 0 01-1.891 1.231c-.58.227-1.451.494-3.056.568-1.734.078-2.256.096-6.65.096s-4.915-.018-6.65-.096c-1.604-.075-2.475-.343-3.056-.568a5.097 5.097 0 01-1.892-1.23 5.1 5.1 0 01-1.232-1.892c-.225-.58-.493-1.45-.566-3.055-.08-1.735-.095-2.256-.095-6.65 0-4.396.016-4.914.095-6.649.073-1.604.341-2.475.566-3.055a5.099 5.099 0 011.232-1.893 5.107 5.107 0 011.892-1.232c.58-.226 1.452-.493 3.056-.567 1.518-.069 2.107-.09 5.174-.093v.005zm10.261 2.732a1.975 1.975 0 100 3.95 1.975 1.975 0 000-3.95zm-8.785 2.308a8.452 8.452 0 10.002 16.903A8.452 8.452 0 0024 15.55zm0 2.965a5.486 5.486 0 110 10.972 5.486 5.486 0 010-10.972z" fill="#FFF"/></g></symbol><symbol id="icon-link-arrows" viewBox="0 0 9 13"><path fill-rule="evenodd" clip-rule="evenodd" d="M.124 1.103a.375.375 0 000 .53l4.955 4.964c.219.22.219.575 0 .795L.116 12.353a.375.375 0 10.53.53l4.962-4.96a1.312 1.312 0 000-1.856L.655 1.103a.375.375 0 00-.53 0zm3.375.375a.375.375 0 000 .53l4.58 4.589c.219.22.219.575 0 .795l-4.587 4.586a.375.375 0 00.53.53l4.587-4.586a1.313 1.313 0 000-1.855L4.03 1.478a.375.375 0 00-.53 0z" fill="#BC3356"/></symbol><symbol id="icon-link-single-arrow" viewBox="0 0 24 16"><path d="M21.91 7.537a.61.61 0 01.025.026H1.44c-.587 0-.587.874 0 .874h20.497a.702.702 0 01-.027.028l-5.821 5.788a.436.436 0 000 .619c.172.17.45.17.622 0l5.822-5.788c.265-.264.414-.601.445-.946a.436.436 0 000-.277 1.521 1.521 0 00-.444-.942L16.72 1.13a.442.442 0 00-.622-.001.436.436 0 000 .619l5.813 5.79z" fill="#BC3356" stroke="#BC3356" stroke-width=".5"/></symbol><symbol id="icon-next" viewBox="0 0 6 11"><path d="M0 1.055L1.085 0l4.39 4.27c.7.679.7 1.78 0 2.46L1.086 11 0 9.945l4.39-4.27c.1-.096.1-.254 0-.35L0 1.054z" fill="#2265BB" fill-rule="nonzero" fill-opacity=".7"/></symbol><symbol id="icon-ok" viewBox="0 0 49 48"><rect x=".475" width="48" height="48" rx="24" fill="#EE8208"/><path d="M24.475 12.84a3.423 3.423 0 013.42 3.42 3.423 3.423 0 01-3.42 3.417 3.423 3.423 0 01-3.419-3.417 3.423 3.423 0 013.42-3.42zm0 11.675c4.555 0 8.259-3.703 8.259-8.255 0-4.556-3.704-8.26-8.259-8.26-4.554 0-8.259 3.705-8.259 8.26 0 4.552 3.705 8.255 8.26 8.255zm3.341 6.737a15.46 15.46 0 004.796-1.986 2.419 2.419 0 10-2.577-4.096 10.488 10.488 0 01-11.12 0 2.418 2.418 0 00-3.647 2.585c.142.626.527 1.17 1.07 1.511a15.475 15.475 0 004.795 1.986l-4.617 4.617a2.42 2.42 0 003.423 3.422l4.535-4.537 4.539 4.537a2.415 2.415 0 003.42 0 2.415 2.415 0 000-3.42l-4.617-4.62z" fill="#fff"/></symbol><symbol id="icon-play" viewBox="0 0 12 13"><path d="M11.495 7.417a1.084 1.084 0 000-1.832 105.493 105.493 0 00-5.068-3.043A85.869 85.869 0 001.794.11a1.109 1.109 0 00-.412-.109A1.097 1.097 0 00.212 1.02C.072 3.185 0 5.013 0 6.503 0 7.99.07 9.817.212 11.98c.01.142.047.281.11.41.267.54.926.763 1.472.499a86.167 86.167 0 004.638-2.428 106.625 106.625 0 005.063-3.044z" fill="#BC3356" fill-rule="nonzero"/></symbol><symbol id="icon-prev" viewBox="0 0 6 11"><path d="M4.915 0L6 1.055l-4.39 4.27c-.1.096-.1.254 0 .35L6 9.946 4.915 11 .525 6.73a1.707 1.707 0 010-2.46L4.914 0z" fill="#2265BB" fill-rule="nonzero" fill-opacity=".7"/></symbol><symbol id="icon-send" viewBox="0 0 23 23"><path d="M14.834 13.332a75.677 75.677 0 001.493-4.824 1.022 1.022 0 00-1.088-1.285c-1.828.186-3.523.415-5.084.686-1.92.333-4.207.943-6.86 1.829l5.981 3.364c.072.04.126.105.154.182l2.357 6.546c1.37-2.431 2.386-4.598 3.047-6.497z" fill="#2E375F"/><path d="M8.836 13.63l-5.87-3.302a.68.68 0 01-.263-.923.672.672 0 01.374-.31c2.684-.896 5.003-1.514 6.959-1.853a74.315 74.315 0 015.132-.694A1.703 1.703 0 0116.98 8.69a76.29 76.29 0 01-1.507 4.868c-.675 1.941-1.708 4.143-3.096 6.607a.674.674 0 01-.921.253.683.683 0 01-.305-.362L8.836 13.63z" fill="#2E375F"/><path d="M16.702 7.542l-7.7 6.504c-.49.413-1.042-.24-.553-.652l7.7-6.504c.49-.413 1.042.24.553.652z" fill="#fff"/></symbol><symbol id="icon-telegram" viewBox="0 0 48 48"><g fill="none" fill-rule="evenodd"><rect fill="#419FD9" fill-rule="nonzero" width="48" height="48" rx="24"/><path d="M29.335 35.884c1.678.734 2.307-.803 2.307-.803l4.438-22.297c-.035-1.503-2.062-.594-2.062-.594L9.17 21.94s-1.188.42-1.083 1.153c.105.734 1.048 1.084 1.048 1.084l6.256 2.097s1.887 6.186 2.272 7.374c.35 1.153.664 1.188.664 1.188.35.14.664-.105.664-.105l4.054-3.67 6.29 4.823zm1.084-19.151s.873-.524.838 0c0 0 .14.07-.314.56-.42.419-10.31 9.295-11.638 10.484a.367.367 0 00-.174.314l-.385 3.285c-.07.35-.524.385-.629.07l-1.643-5.382c-.07-.21 0-.454.21-.594l13.735-8.737z" fill="#FFF"/></g></symbol><symbol id="icon-vk" viewBox="0 0 48 48"><g fill="none" fill-rule="evenodd"><circle fill="#4D76A1" fill-rule="nonzero" cx="23.829" cy="23.829" r="23.829"/><path d="M22.93 34.28h1.87s.564-.062.853-.372c.265-.286.257-.822.257-.822s-.037-2.51 1.128-2.88c1.148-.363 2.623 2.426 4.185 3.499 1.182.812 2.08.634 2.08.634l4.179-.059s2.186-.134 1.15-1.853c-.086-.14-.605-1.271-3.108-3.595-2.62-2.432-2.269-2.038.887-6.245 1.922-2.562 2.69-4.126 2.45-4.796-.228-.638-1.642-.469-1.642-.469l-4.705.03s-.348-.048-.607.106c-.253.152-.416.505-.416.505s-.744 1.983-1.737 3.669c-2.095 3.557-2.933 3.745-3.275 3.524-.797-.515-.598-2.068-.598-3.172 0-3.447.523-4.885-1.018-5.257-.512-.123-.888-.205-2.196-.218-1.679-.017-3.1.005-3.904.4-.535.261-.948.845-.697.879.311.042 1.015.19 1.389.698.482.656.465 2.13.465 2.13s.277 4.058-.647 4.562c-.634.346-1.504-.36-3.372-3.588-.957-1.653-1.68-3.48-1.68-3.48s-.139-.342-.387-.525c-.302-.22-.723-.291-.723-.291l-4.471.029s-.671.019-.918.31c-.219.26-.017.797-.017.797s3.5 8.189 7.463 12.315c3.634 3.784 7.761 3.535 7.761 3.535z" fill="#FFF"/></g></symbol><symbol id="icon-whatsapp" viewBox="0 0 48 48"><rect width="48" height="48" rx="24" fill="#0DC143"/><path d="M34.75 13.211c-2.572-2.648-6.129-4.086-9.762-4.086-7.718 0-13.924 6.281-13.848 13.924 0 2.422.681 4.768 1.816 6.887l-1.967 7.189 7.34-1.892c2.043 1.135 4.314 1.665 6.584 1.665 7.643 0 13.848-6.281 13.848-13.924 0-3.709-1.437-7.19-4.01-9.763zm-9.762 21.341c-2.043 0-4.086-.53-5.826-1.59l-.455-.226-4.389 1.135 1.135-4.314-.302-.454c-3.33-5.373-1.74-12.486 3.708-15.816s12.486-1.74 15.816 3.708c3.33 5.449 1.74 12.487-3.708 15.817-1.74 1.135-3.86 1.74-5.979 1.74zm6.66-8.4l-.832-.378s-1.211-.53-1.968-.909c-.076 0-.151-.075-.227-.075-.227 0-.378.076-.53.151 0 0-.075.076-1.135 1.287a.416.416 0 01-.378.227h-.076c-.076 0-.227-.076-.303-.152l-.378-.151c-.833-.378-1.59-.832-2.195-1.438-.151-.151-.378-.302-.53-.454-.53-.53-1.059-1.135-1.437-1.816l-.076-.151c-.076-.076-.076-.152-.151-.303 0-.151 0-.303.075-.378 0 0 .303-.379.53-.606.152-.151.227-.378.379-.53.15-.227.227-.53.15-.756-.075-.379-.983-2.422-1.21-2.876-.151-.227-.303-.303-.53-.379h-.832c-.151 0-.303.076-.454.076l-.076.076c-.151.076-.302.227-.454.303-.151.15-.227.302-.378.454-.53.68-.833 1.513-.833 2.346 0 .605.152 1.21.379 1.74l.075.227a12.607 12.607 0 002.8 3.86l.303.302c.227.227.454.379.605.606 1.59 1.362 3.406 2.346 5.45 2.875.226.076.529.076.756.152h.757c.378 0 .832-.152 1.135-.303.227-.151.378-.151.53-.303l.15-.151c.152-.151.304-.227.455-.378.151-.152.303-.303.378-.454.152-.303.227-.681.303-1.06v-.53s-.076-.075-.227-.151z" fill="#fff"/></symbol><symbol id="icon-youtube" viewBox="0 0 49 48"><g clip-path="url(#clip0)"><rect x=".756" width="48" height="48" rx="24" fill="red"/><path fill-rule="evenodd" clip-rule="evenodd" d="M36.494 14.14a3.759 3.759 0 012.644 2.645c.642 2.347.617 7.24.617 7.24s0 4.868-.617 7.216a3.759 3.759 0 01-2.644 2.644c-2.348.618-11.738.618-11.738.618s-9.366 0-11.739-.643a3.759 3.759 0 01-2.644-2.644C9.756 28.893 9.756 24 9.756 24s0-4.868.617-7.215a3.836 3.836 0 012.645-2.67c2.347-.617 11.738-.617 11.738-.617s9.39 0 11.738.643zM29.574 24l-7.809 4.498v-8.995L29.575 24z" fill="#fff"/></g></symbol></svg>