<svg xmlns="http://www.w3.org/2000/svg" xmlns:xlink="http://www.w3.org/1999/xlink"><symbol id="icon-send"><path d="M14.834 13.332a75.677 75.677 0 001.493-4.824 1.022 1.022 0 00-1.088-1.285c-1.828.186-3.523.415-5.084.686-1.92.333-4.207.943-6.86 1.829l5.981 3.364c.072.04.126.105.154.182l2.357 6.546c1.37-2.431 2.386-4.598 3.047-6.497z" fill="#2E375F"/><path d="M8.836 13.63l-5.87-3.302a.68.68 0 01-.263-.923.672.672 0 01.374-.31c2.684-.896 5.003-1.514 6.959-1.853a74.315 74.315 0 015.132-.694A1.703 1.703 0 0116.98 8.69a76.29 76.29 0 01-1.507 4.868c-.675 1.941-1.708 4.143-3.096 6.607a.674.674 0 01-.921.253.683.683 0 01-.305-.362L8.836 13.63z" fill="#2E375F"/><path d="M16.702 7.542l-7.7 6.504c-.49.413-1.042-.24-.553-.652l7.7-6.504c.49-.413 1.042.24.553.652z" fill="#fff"/></symbol></svg>